<?xml version="1.0" encoding="UTF-8"?>
<svg version="1.1" xmlns="http://www.w3.org/2000/svg" width="480" height="309">
<path d="M0 0 C1.00417969 0.71929687 2.00835937 1.43859375 3.04296875 2.1796875 C8.9307234 6.49289686 14.45042036 11.05470741 19.81640625 16 C21.6107542 17.64348149 23.42660363 19.21441008 25.3125 20.75 C28.05564817 23.04658916 30.52915567 25.41149641 33 28 C33.57363281 28.59039062 34.14726562 29.18078125 34.73828125 29.7890625 C56.0555969 52.60158065 65.8994933 81.3401069 65.375 112.265625 C64.3503667 138.01319603 52.47562037 160.74111949 36 180 C35.32582031 180.79664063 34.65164063 181.59328125 33.95703125 182.4140625 C-10.59184992 233.53572941 -82.66644339 254.85188646 -148.14352417 259.82278442 C-157.10595722 260.37881319 -166.0865005 260.34359933 -175.0625 260.3125 C-176.132724 260.31100952 -177.202948 260.30951904 -178.30560303 260.3079834 C-195.07347782 260.26612073 -211.40790045 259.56667251 -228 257 C-228.9679248 256.86078125 -229.93584961 256.7215625 -230.93310547 256.578125 C-262.18498109 252.04232447 -292.60978341 242.81242635 -321 229 C-321.73412109 228.64325195 -322.46824219 228.28650391 -323.22460938 227.91894531 C-338.97794374 220.15591805 -353.78674731 210.59057253 -367 199 C-367.85980469 198.24976563 -368.71960938 197.49953125 -369.60546875 196.7265625 C-372.10034786 194.51476347 -374.5581262 192.27008368 -377 190 C-377.67675781 189.37738281 -378.35351562 188.75476563 -379.05078125 188.11328125 C-399.17159124 168.87956108 -414.25446272 140.82106584 -415.2734375 112.8203125 C-416.04565812 77.51295396 -403.17287575 50.06474962 -380 24 C-378.3545622 22.31237149 -376.68711423 20.6459651 -375 19 C-374.53464844 18.50113281 -374.06929688 18.00226563 -373.58984375 17.48828125 C-352.91285077 -4.30638702 -322.82761306 -18.92325543 -295 -29 C-294.1735498 -29.30244629 -293.34709961 -29.60489258 -292.49560547 -29.91650391 C-265.34937991 -39.73691157 -236.72844966 -45.45391427 -208 -48 C-206.80761719 -48.11214844 -205.61523438 -48.22429688 -204.38671875 -48.33984375 C-135.61731215 -53.73207434 -57.04709573 -41.15137033 0 0 Z " fill="#EAEA6C" transform="translate(415,49)"/>
<path d="M0 0 C4.18026714 -0.02981232 8.36047456 -0.05111848 12.54081726 -0.06523132 C13.95682353 -0.07112747 15.37282283 -0.07917205 16.7888031 -0.08958435 C79.32286818 -0.53721645 149.32300707 21.15168332 195.81640625 64 C197.6107542 65.64348149 199.42660363 67.21441008 201.3125 68.75 C204.05564817 71.04658916 206.52915567 73.41149641 209 76 C209.86044922 76.88558594 209.86044922 76.88558594 210.73828125 77.7890625 C232.0555969 100.60158065 241.8994933 129.3401069 241.375 160.265625 C240.3503667 186.01319603 228.47562037 208.74111949 212 228 C211.32582031 228.79664063 210.65164063 229.59328125 209.95703125 230.4140625 C166.29160787 280.5219254 95.02452165 302.78304248 30.67356873 307.67089844 C24.56886554 308.08030434 18.48311542 308.07621002 12.3671875 308.04296875 C11.26818115 308.03986694 10.1691748 308.03676514 9.03686523 308.03356934 C6.35788212 308.02555715 3.67895561 308.01431002 1 308 C0.87067391 279.44940285 0.74311646 250.89879826 0.61781773 222.34818313 C0.60280879 218.92857386 0.58778573 215.50896464 0.57275391 212.08935547 C0.56976329 211.40896258 0.56677268 210.7285697 0.56369144 210.02755885 C0.51901823 199.87107066 0.47339626 189.71458705 0.42724609 179.55810547 C0.1555904 119.70522825 -0.10115102 59.85359344 0 0 Z " fill="#9E9FC7" transform="translate(239,1)"/>
<path d="M0 0 C2.60045875 2.3024119 3.84739183 4.49896677 5.1875 7.6875 C5.53167969 8.49574219 5.87585938 9.30398437 6.23046875 10.13671875 C6.48441406 10.75160156 6.73835938 11.36648437 7 12 C6.32195312 12.40089844 5.64390625 12.80179688 4.9453125 13.21484375 C-10.13081588 22.42339308 -20.82000142 33.81686841 -28 50 C-28.47759766 51.06541016 -28.47759766 51.06541016 -28.96484375 52.15234375 C-36.003771 69.2768981 -34.42252448 90.03336634 -27.47265625 106.87109375 C-18.37917261 126.1917314 -2.83463425 139.65633446 17 147 C36.07573666 153.06322661 55.2222052 150.35017635 73 142 C90.64841498 132.54225966 102.65735525 117.96532514 109 99.01171875 C110.51582576 93.74276672 111.68770653 88.48350593 112 83 C112.09667969 81.36611328 112.09667969 81.36611328 112.1953125 79.69921875 C112.77110779 61.21618988 106.15059605 43.22028314 94.05859375 29.171875 C87.72227042 22.48687354 81.06630298 17.44572858 73 13 C73.78741659 8.2009031 75.49516926 5.12085057 78 1 C82.79269168 1.49641816 86.03313421 3.77945658 89.8125 6.5625 C90.4327002 7.0150415 91.05290039 7.46758301 91.69189453 7.93383789 C107.50288099 19.67731057 119.76658681 37.58359366 124 57 C124.20238281 57.84820312 124.40476562 58.69640625 124.61328125 59.5703125 C129.2484965 82.21034346 125.00573139 104.94113167 112.71875 124.5 C98.5853835 145.057624 79.98476603 156.95939226 56 163 C55.236875 163.19464844 54.47375 163.38929688 53.6875 163.58984375 C31.01968181 167.04932182 7.13727947 161.80267223 -11.39794922 148.27661133 C-14.01431071 146.27001786 -16.5099961 144.16264674 -19 142 C-19.74636719 141.35417969 -20.49273437 140.70835937 -21.26171875 140.04296875 C-36.21609921 126.08750565 -46.06181151 104.96197812 -47.12426758 84.62084961 C-47.63256689 68.48273985 -46.05826832 54.76002549 -39 40 C-38.55785156 39.07445312 -38.11570312 38.14890625 -37.66015625 37.1953125 C-33.99240823 30.02237593 -29.32913883 24.01768243 -24 18 C-23.44699219 17.36320312 -22.89398438 16.72640625 -22.32421875 16.0703125 C-16.30174975 9.58457665 -8.05853072 3.7057477 0 0 Z " fill="#CDC2BA" transform="translate(312,80)"/>
<path d="M0 0 C4.29 0 8.58 0 13 0 C13.98134115 20.292733 14.08871919 40.56167946 14.0625 60.875 C14.06164398 61.54287285 14.06078796 62.2107457 14.05990601 62.89885712 C14.04839613 71.26593362 14.02738732 79.63296159 14 88 C9.71 88 5.42 88 1 88 C0.82880269 78.9584143 0.66188662 69.91675735 0.5 60.875 C0.48812275 60.2118 0.4762455 59.54860001 0.46400833 58.86530304 C0.11406963 39.24088404 -0.15254619 19.62761024 0 0 Z " fill="#CDC2BA" transform="translate(344,45)"/>
<path d="M0 0 C0.66 0.33 1.32 0.66 2 1 C-2.62 5.62 -7.24 10.24 -12 15 C-12 12 -12 12 -9.9375 9.75 C-8.96003453 8.83151952 -7.98063409 7.91509667 -7 7 C-5.72522205 5.73312357 -4.45446477 4.46219016 -3.1875 3.1875 C-2.125 2.125 -1.0625 1.0625 0 0 Z " fill="#EEEE8B" transform="translate(47,61)"/>
</svg>
