<?xml version="1.0" encoding="UTF-8" standalone="no"?>
<svg
   version="1.1"
   width="512"
   height="420"
   id="svg38"
   sodipodi:docname="01_CheckResponsiveness.svg"
   inkscape:version="1.3.2 (091e20e, 2023-11-25)"
   xmlns:inkscape="http://www.inkscape.org/namespaces/inkscape"
   xmlns:sodipodi="http://sodipodi.sourceforge.net/DTD/sodipodi-0.dtd"
   xmlns="http://www.w3.org/2000/svg"
   xmlns:svg="http://www.w3.org/2000/svg">
  <defs
     id="defs38">
    <inkscape:path-effect
       effect="fillet_chamfer"
       id="path-effect38"
       is_visible="true"
       lpeversion="1"
       nodesatellites_param="F,0,0,1,0,55.352955,0,1 @ F,0,0,1,0,49.119351,0,1 @ F,0,0,1,0,53.573117,0,1 @ F,0,0,1,0,48.526072,0,1"
       radius="0"
       unit="px"
       method="auto"
       mode="F"
       chamfer_steps="1"
       flexible="false"
       use_knot_distance="true"
       apply_no_radius="true"
       apply_with_radius="true"
       only_selected="false"
       hide_knots="false" />
  </defs>
  <sodipodi:namedview
     id="namedview38"
     pagecolor="#ffffff"
     bordercolor="#000000"
     borderopacity="0.25"
     inkscape:showpageshadow="2"
     inkscape:pageopacity="0.0"
     inkscape:pagecheckerboard="true"
     inkscape:deskcolor="#d1d1d1"
     inkscape:zoom="1.6855469"
     inkscape:cx="256"
     inkscape:cy="210.02085"
     inkscape:window-width="1920"
     inkscape:window-height="1027"
     inkscape:window-x="1440"
     inkscape:window-y="25"
     inkscape:window-maximized="0"
     inkscape:current-layer="svg38" />
  <path
     d="M 55.352955,0 H 462.88065 A 49.119351,49.119351 45 0 1 512,49.119351 V 366.42688 A 53.573117,53.573117 135 0 1 458.42688,420 L 48.526072,420 A 48.526072,48.526072 45 0 1 0,371.47393 V 55.352955 A 55.352955,55.352955 135 0 1 55.352955,0 Z"
     fill="#C0B1C7"
     transform="translate(0,0)"
     id="path1"
     inkscape:path-effect="#path-effect38"
     inkscape:original-d="M0 0 C168.96 0 337.92 0 512 0 C512 138.6 512 277.2 512 420 C343.04 420 174.08 420 0 420 C0 281.4 0 142.8 0 0 Z " />
  <path
     d="M0 0 C0.69722937 -0.00205263 1.39445874 -0.00410527 2.11281627 -0.0062201 C4.46063688 -0.01189666 6.80839894 -0.01043204 9.1562252 -0.00901413 C10.85196894 -0.0115974 12.54771206 -0.01461045 14.24345434 -0.01801753 C18.91256226 -0.02609543 23.58165482 -0.02787754 28.2507689 -0.028615 C33.28297924 -0.0304642 38.31518159 -0.0380109 43.34738731 -0.04475021 C54.35573418 -0.05834007 65.36407742 -0.06435938 76.37243128 -0.06876087 C83.2451202 -0.07152241 90.11780771 -0.07575963 96.99049568 -0.08026505 C116.01572201 -0.09245899 135.04094721 -0.10275778 154.06617737 -0.10614014 C155.2841771 -0.1063597 156.50217683 -0.10657927 157.75708564 -0.10680549 C158.97801722 -0.10702377 160.1989488 -0.10724204 161.4568783 -0.10746694 C163.93099125 -0.1079104 166.4051042 -0.10835697 168.87921715 -0.10880661 C170.10646532 -0.10902804 171.3337135 -0.10924947 172.59815101 -0.10947761 C192.48219338 -0.11342527 212.36619908 -0.13087778 232.25022729 -0.15416613 C252.66068765 -0.17787822 273.07112962 -0.19034194 293.48160398 -0.19150805 C304.94296475 -0.19242494 316.40427776 -0.19818059 327.86562538 -0.21632767 C337.62589385 -0.23172677 347.38609981 -0.23685025 357.14637811 -0.22858956 C362.12579707 -0.22468229 367.10509016 -0.22561647 372.08449364 -0.23964691 C376.64560659 -0.25238112 381.20649904 -0.25119247 385.76761167 -0.2390562 C387.41503673 -0.23709837 389.06247739 -0.24018163 390.70988055 -0.24890056 C405.47605562 -0.32208424 417.38727796 2.05322144 428.78888512 12.13142776 C435.5120125 19.23782132 440.22017975 29.82676902 440.23281288 39.57762718 C440.23665403 40.69062758 440.24049517 41.80362797 440.24445271 42.95035565 C440.24358623 44.17309559 440.24271975 45.39583554 440.24182701 46.6556282 C440.24628369 48.60415107 440.24628369 48.60415107 440.25083041 50.59203804 C440.25889931 54.2008005 440.26068992 57.80954308 440.26142788 61.4183135 C440.26327866 65.30941012 440.2708262 69.20049642 440.2775631 73.09158707 C440.29114684 81.60207938 440.29717139 90.11256698 440.30157375 98.62306833 C440.30433648 103.93791714 440.30857393 109.25276412 440.31307793 114.56761169 C440.32527137 129.2847857 440.33557006 144.00195825 440.33895302 158.71913719 C440.33917258 159.66114908 440.33939215 160.60316096 440.33961837 161.57371866 C440.33983665 162.51798007 440.34005493 163.46224149 440.34027982 164.43511689 C440.34072328 166.34853562 440.34116985 168.26195435 440.34161949 170.17537308 C440.34184092 171.12449408 440.34206235 172.07361508 440.34229049 173.05149733 C440.34623714 188.42514247 440.36368677 203.79874017 440.38697901 219.17236699 C440.41070347 234.95881704 440.42315539 250.7452433 440.42432094 266.53171146 C440.42523716 275.3941302 440.43097603 284.25648715 440.44914055 293.11888885 C440.4645564 300.66682534 440.4696533 308.21468094 440.46140245 315.76263018 C440.457501 319.61196429 440.45840068 323.46113561 440.47245979 327.3104496 C440.48758091 331.48885858 440.47931715 335.66690222 440.46887779 339.84532547 C440.4809624 341.65935889 440.4809624 341.65935889 440.49329114 343.51003945 C440.42110694 355.8730732 437.29930864 366.30283834 428.87482262 375.58455276 C420.20015769 383.90121564 410.79456795 388.26167979 398.76756859 388.25168228 C397.490158 388.25305695 396.21274742 388.25443161 394.89662743 388.25584793 C393.48856139 388.25230924 392.0804956 388.24867444 390.67243004 388.24495316 C389.18402674 388.24467097 387.6956233 388.24482964 386.20722008 388.24539566 C382.17250865 388.24568239 378.13782699 388.23980564 374.10312247 388.2328217 C369.88438998 388.22656759 365.6656568 388.22598273 361.44692039 388.2247963 C353.46077971 388.22168905 345.47465272 388.21348384 337.48851806 388.20344681 C328.39546938 388.19226683 319.30242004 388.18677047 310.2093662 388.18175137 C291.50669808 388.17130073 272.8040427 388.15371302 254.10138512 388.13142776 C255.75280996 376.8375926 263.37990281 368.43853121 272.24591637 361.76424026 C285.6259059 352.21600132 300.22123135 346.15047903 316.10138512 342.13142776 C317.95572838 341.59036596 319.80990438 341.04873049 321.66388512 340.50642776 C345.22377414 334.16604586 345.22377414 334.16604586 353.85138512 338.81892776 C356.120447 340.43345256 358.23198676 342.03198406 360.35138512 343.81892776 C362.93665201 346.28126327 362.93665201 346.28126327 366.10138512 347.13142776 C363.94463763 342.24280014 360.58241047 340.30026657 356.25372887 337.52205276 C352.07762142 334.82387808 350.179792 332.72174214 348.72638512 328.00642776 C344.13808867 313.14327599 333.33562099 305.7755985 320.90265465 297.63069534 C314.42019268 293.38349571 308.2421076 288.86224716 302.10138512 284.13142776 C299.91869403 282.45836048 297.72996904 280.79348067 295.53888512 279.13142776 C294.56822105 278.38892776 293.59755699 277.64642776 292.59747887 276.88142776 C290.15183482 274.98953625 290.15183482 274.98953625 287.10138512 274.13142776 C288.2542397 277.58999153 289.11375741 278.16449742 291.97638512 280.28377151 C293.19491173 281.19268143 293.19491173 281.19268143 294.43805504 282.11995316 C295.31695396 282.76311478 296.19585289 283.4062764 297.10138512 284.06892776 C297.99897545 284.73335892 298.89656578 285.39779007 299.82135582 286.0823555 C314.72321799 297.09224738 314.72321799 297.09224738 330.16388512 307.31892776 C337.20331824 311.97095624 343.45064542 319.01447345 346.10138512 327.13142776 C346.47310899 329.45895369 346.81248489 331.79217741 347.10138512 334.13142776 C344.28888512 334.44392776 341.47638512 334.75642776 338.66388512 335.06892776 C337.88077965 335.15593948 337.09767418 335.2429512 336.29083824 335.33259964 C334.69959355 335.50940461 333.10759912 335.67957923 331.51495934 335.84334183 C329.88451538 336.03795278 328.25973296 336.28634128 326.64484215 336.5835762 C324.39938178 336.96481983 322.37658555 337.24560481 320.10138512 337.13142776 C317.71076012 335.27986526 317.71076012 335.27986526 315.85138512 332.50642776 C312.3683952 327.73637852 308.74914263 323.52661547 304.53888512 319.38142776 C303.97459801 318.82455276 303.4103109 318.26767776 302.82892418 317.69392776 C298.71953808 313.67351023 294.50361193 309.82962198 290.10138512 306.13142776 C289.17326012 305.3257637 288.24513512 304.52009964 287.28888512 303.69002151 C281.28161372 298.49606828 275.13348798 293.53346181 268.78888512 288.75642776 C268.14370934 288.26892044 267.49853355 287.78141312 266.83380699 287.27913284 C260.09860987 282.26306549 253.96869852 278.09451495 245.78888512 275.81892776 C238.38530782 273.60204792 233.05317277 270.11806067 227.10138512 265.13142776 C227.43138512 262.49142776 227.76138512 259.85142776 228.10138512 257.13142776 C229.09138512 256.80142776 230.08138512 256.47142776 231.10138512 256.13142776 C235.94278162 258.65298844 238.04557011 261.10610219 240.10138512 266.13142776 C245.48383935 265.66742309 250.53160924 264.82545819 255.78888512 263.56892776 C272.01289596 260.12589009 281.70055022 263.17203363 295.38629723 271.52620316 C301.82742889 275.45569858 308.43309847 278.91449879 315.16388512 282.31892776 C325.5815215 287.67111496 335.53247011 293.37569712 345.10138512 300.13142776 C345.68806969 300.5445723 346.27475426 300.95771683 346.87921715 301.38338089 C353.93436647 306.42077746 360.20640133 311.89075939 366.05768394 318.2854805 C368.92175153 321.32996973 370.87854705 322.81777494 375.10138512 323.13142776 C375.56489934 320.88893349 375.56489934 320.88893349 375.10138512 318.13142776 C373.33101796 315.87299706 371.66117076 314.02943947 369.60138512 312.06892776 C368.73102623 311.2234639 368.73102623 311.2234639 367.84308434 310.36091995 C356.81402253 299.89572806 344.30167387 291.57923775 331.10138512 284.13142776 C330.39755699 283.73214066 329.69372887 283.33285355 328.96857262 282.92146683 C320.04702531 277.87354187 311.03620962 273.00926252 301.95368004 268.25789261 C297.33660637 265.82911664 292.85631265 263.25465123 288.47247887 260.42049026 C282.09024076 256.95073973 276.47536497 255.62592748 269.22638512 255.75642776 C268.43844566 255.76222855 267.65050621 255.76802933 266.8386898 255.77400589 C261.58669422 255.89086117 257.04537128 256.66862859 252.07794762 258.44392776 C249.22930863 259.43475872 247.06709121 259.69632416 244.10138512 259.13142776 C242.7396159 257.48791319 241.41176446 255.8162012 240.10138512 254.13142776 C238.62546831 253.31542923 237.12200968 252.5482322 235.60138512 251.81892776 C231.36916642 249.62674912 229.76181505 247.64016804 228.14826012 243.19392776 C223.44808632 233.93388386 210.28364718 225.51885674 201.10138512 221.13142776 C192.24152565 218.72048103 181.57515686 218.92831323 173.24982262 222.86970901 C166.64730772 226.74718595 161.76223017 231.57592525 159.51471519 239.09383011 C157.66484634 248.21314815 157.99746375 258.95808257 162.22638512 267.28377151 C163.10138512 269.13142776 163.10138512 269.13142776 163.10138512 272.13142776 C159.33297561 273.73500628 156.20518556 274.5193492 152.10138512 274.13142776 C147.55119465 270.83819599 144.4429324 266.59866492 141.10138512 262.13142776 C140.24929214 261.06856405 139.39517077 260.00732285 138.53888512 258.94783401 C117.39654817 231.95910269 111.63673747 199.07934816 109.87409019 165.86848831 C109.30224748 155.29019165 108.33388715 144.81119464 107.06622887 134.28963089 C105.43496789 120.44072973 105.43496789 120.44072973 106.10138512 115.13142776 C106.76138512 114.47142776 107.42138512 113.81142776 108.10138512 113.13142776 C111.43205688 113.25660007 112.73464078 113.73710306 115.02326012 116.19783401 C115.62654137 117.02154495 116.22982262 117.84525589 116.85138512 118.69392776 C119.63317081 122.05882235 119.63317081 122.05882235 123.47638512 123.86580276 C127.34249048 123.99297728 129.37715659 123.755069 132.35138512 121.19392776 C132.92888512 120.51330276 133.50638512 119.83267776 134.10138512 119.13142776 C136.85138512 118.38142776 136.85138512 118.38142776 139.10138512 118.13142776 C139.10138512 116.81142776 139.10138512 115.49142776 139.10138512 114.13142776 C140.87255699 114.09275589 140.87255699 114.09275589 142.67951012 114.05330276 C144.23683835 113.99701379 145.79412859 113.93966663 147.35138512 113.88142776 C148.1286898 113.86724808 148.90599449 113.85306839 149.70685387 113.83845901 C153.40103794 113.6805879 155.49485941 113.57200804 158.54279137 111.35799026 C160.08414905 109.15605072 160.94666099 107.29646878 161.78888512 104.75642776 C163.78182816 99.91192195 166.4435464 98.38813665 170.84357262 95.80330276 C175.58536476 92.29207952 178.26606644 86.63738379 180.10138512 81.13142776 C181.43471845 80.13142776 182.76805178 79.13142776 184.10138512 78.13142776 C186.99621311 69.44694378 185.94315573 57.36173784 182.10138512 49.13142776 C180.31449502 45.94770617 178.30775666 43.03711609 176.10138512 40.13142776 C175.42269371 39.18783401 175.42269371 39.18783401 174.73029137 38.22517776 C169.78250316 31.83370065 162.05400996 26.75441243 154.10138512 25.13142776 C139.28552716 23.81711779 124.46829448 29.49063951 113.10138512 38.94392776 C108.08227351 43.73830303 104.29850712 49.54006177 102.10138512 56.13142776 C95.37479948 58.53377978 89.69943265 58.18285843 82.81232262 56.60799026 C64.05249877 53.3101538 45.75665116 58.88443951 29.10138512 67.13142776 C28.17229332 67.57977982 28.17229332 67.57977982 27.22443199 68.03718948 C2.3414007 80.13201726 -21.25697565 99.34860454 -37.28923988 121.96345901 C-37.82033363 122.6788887 -38.35142738 123.39431839 -38.89861488 124.13142776 C-39.22861488 124.13142776 -39.55861488 124.13142776 -39.89861488 124.13142776 C-39.99156834 112.45654794 -40.06250822 100.78175713 -40.10586357 89.10658169 C-40.126679 83.68447294 -40.15488575 78.26261863 -40.2003727 72.84065628 C-40.24404657 67.60162567 -40.26779739 62.36283877 -40.27812386 57.12364006 C-40.2854767 55.13148351 -40.29983452 53.13933929 -40.32153511 51.14728737 C-40.47177345 36.77558172 -39.78570129 25.38307574 -29.89861488 14.13142776 C-29.39716957 13.52556839 -28.89572426 12.91970901 -28.37908363 12.29549026 C-20.9652542 4.03385066 -10.90405861 0.01092052 0 0 Z "
     fill="#FEFEFE"
     transform="translate(56.89861488342285,15.868572235107422)"
     id="path2" />
  <path
     d="M0 0 C7.37307104 -0.14390609 15.51783325 -0.25467798 21.83984375 4.12109375 C25.5175746 13.79111193 25.48078377 24.89407492 25.83984375 35.12109375 C24.04915802 32.43506515 23.17928584 30.45843485 22.21484375 27.43359375 C21.95445312 26.62535156 21.6940625 25.81710938 21.42578125 24.984375 C21.23242188 24.36949219 21.0390625 23.75460938 20.83984375 23.12109375 C19.84984375 23.12109375 18.85984375 23.12109375 17.83984375 23.12109375 C18.51244798 25.18849938 19.20407601 27.24971428 19.90234375 29.30859375 C20.28519531 30.45714844 20.66804687 31.60570313 21.0625 32.7890625 C22.00907152 35.37138975 23.09528912 37.54473482 24.52172852 39.91040039 C30.0554807 49.08991873 31.11186058 56.65834296 31.65234375 67.18359375 C31.75515722 68.74768702 31.86114377 70.31157478 31.97021484 71.87524414 C32.18123263 74.92825849 32.37963385 77.98163414 32.56787109 81.03613281 C32.88806951 86.06013996 33.40462171 91.05631651 33.96484375 96.05859375 C34.64750926 102.41299398 35.02737894 108.73590897 35.27734375 115.12109375 C36.70698234 148.47606357 47.58002903 182.68134939 70.4296875 207.56689453 C73.07779335 210.48549595 75.58139819 213.53377128 78.12109375 216.546875 C80.02664346 218.2921853 81.31313374 218.73876263 83.83984375 219.12109375 C84.71484375 222.18359375 84.71484375 222.18359375 84.83984375 226.12109375 C82.38411322 230.42739264 78.47998255 234.35342183 73.83984375 236.12109375 C66.81703756 235.9388804 62.68476126 233.62122645 57.02734375 229.62109375 C55.84060059 228.8019751 55.84060059 228.8019751 54.62988281 227.96630859 C42.57814151 219.55966451 29.87099162 209.7569623 21.12109375 197.765625 C19.8455511 195.81520936 19.8455511 195.81520936 16.83984375 195.12109375 C15.32733787 193.17564009 13.97018261 191.25791333 12.62890625 189.19921875 C12.02230164 188.28830727 12.02230164 188.28830727 11.40344238 187.35899353 C10.08186911 185.36863336 8.77285298 183.37038939 7.46484375 181.37109375 C6.55347088 179.98852449 5.64184823 178.60611985 4.72998047 177.22387695 C-13.09241276 150.13891333 -28.94172539 122.25493739 -43.16015625 93.12109375 C-43.82015625 93.12109375 -44.48015625 93.12109375 -45.16015625 93.12109375 C-43.81863098 97.42930634 -42.16211511 101.37425427 -40.1484375 105.41015625 C-39.85712448 105.99469574 -39.56581146 106.57923523 -39.26567078 107.18148804 C-38.64986375 108.41445607 -38.03205751 109.64642743 -37.41235352 110.87744141 C-36.48704986 112.71747106 -35.57023033 114.56154176 -34.65429688 116.40625 C-31.18553981 123.34516089 -27.49962218 130.05400694 -23.33666992 136.61083984 C-22.16015625 139.12109375 -22.16015625 139.12109375 -22.35302734 141.34423828 C-24.90618565 146.96489349 -33.11166292 150.28801474 -38.53515625 152.49609375 C-50.45805732 156.96232705 -63.49257943 156.28527618 -75.45703125 152.3203125 C-78.26734906 151.41022013 -80.99840939 150.64172974 -83.86328125 149.953125 C-84.68836182 149.75227295 -85.51344238 149.5514209 -86.36352539 149.34448242 C-87.95663829 148.96072618 -89.55205286 148.58633292 -91.15014648 148.22387695 C-95.82169699 147.06464964 -99.74495736 145.37487633 -103.95629883 143.02490234 C-104.93448074 142.48191498 -105.91266266 141.93892761 -106.92048645 141.37948608 C-107.65957748 140.96421661 -108.39866852 140.54894714 -109.16015625 140.12109375 C-109.34661664 131.85362625 -109.48820895 123.5870562 -109.57465363 115.31799698 C-109.61617204 111.47702319 -109.67235509 107.63750148 -109.76367188 103.79736328 C-109.85145708 100.08191718 -109.8986053 96.36785524 -109.91917419 92.65145111 C-109.93380529 91.24327581 -109.96237372 89.83516492 -110.0059967 88.42758942 C-110.32683769 77.63250749 -107.92084561 71.46980934 -101.16015625 63.12109375 C-100.01335918 61.55930095 -98.86736255 59.99691961 -97.72265625 58.43359375 C-76.0735797 32.13334841 -42.52962676 5.00765358 -7.66015625 0.37109375 C-5.10772768 0.17836894 -2.5580409 0.09802134 0 0 Z "
     fill="#FEFEFE"
     transform="translate(126.16015625,77.87890625)"
     id="path3" />
  <path
     d="M0 0 C9.65398589 -0.56223497 17.88137679 2.79721855 25.25 8.96484375 C33.87544575 17.261552 39.9955966 26.98315691 40.640625 39.08984375 C40.6616931 40.48560554 40.67719828 41.88146098 40.6875 43.27734375 C40.708125 43.97601563 40.72875 44.6746875 40.75 45.39453125 C40.78377979 49.87035328 40.28076803 52.76976076 37.4375 56.27734375 C36.4475 56.60734375 35.4575 56.93734375 34.4375 57.27734375 C34.26734375 58.37755859 34.26734375 58.37755859 34.09375 59.5 C32.8296551 64.84983019 29.72028375 69.69756261 25.1796875 72.83984375 C24.39851562 73.29359375 23.61734375 73.74734375 22.8125 74.21484375 C18.1536604 76.99297926 16.87365184 79.88615407 15.38671875 85.0078125 C14.1698941 87.91717513 13.23328011 88.80806227 10.4375 90.27734375 C7.82616764 90.67385842 5.43159438 90.92197788 2.8125 91.02734375 C2.131875 91.06988281 1.45125 91.11242187 0.75 91.15625 C-4.26905692 91.42406529 -4.26905692 91.42406529 -6.5625 90.27734375 C-6.5625 91.59734375 -6.5625 92.91734375 -6.5625 94.27734375 C-7.34625 94.35984375 -8.13 94.44234375 -8.9375 94.52734375 C-11.70294802 94.99260298 -11.70294802 94.99260298 -12.75 97.27734375 C-13.018125 97.93734375 -13.28625 98.59734375 -13.5625 99.27734375 C-17.10288654 101.04753702 -20.71833222 101.06379379 -24.5625 100.27734375 C-27.95365602 97.85879462 -30.41014 94.70689304 -33.0078125 91.484375 C-33.52085937 91.08605469 -34.03390625 90.68773437 -34.5625 90.27734375 C-36.64305225 90.66441654 -36.64305225 90.66441654 -38.5625 91.27734375 C-38.84910684 100.25460955 -37.86755545 109.01693896 -36.91036987 117.92736816 C-34.35303258 141.78709807 -34.35303258 141.78709807 -34 153.02734375 C-32.85695424 184.60038085 -22.58691161 216.29084046 -1.5625 240.27734375 C-0.53189453 241.70240234 -0.53189453 241.70240234 0.51953125 243.15625 C2.37994099 245.63805933 3.87253801 247.53279239 6.4375 249.27734375 C10.3089334 249.69949473 13.67621512 249.2245791 17.4375 248.27734375 C17.0765625 247.54773438 16.715625 246.818125 16.34375 246.06640625 C13.28470022 239.18354424 11.94372567 233.45899112 11.9375 225.96484375 C11.93169922 225.22508301 11.92589844 224.48532227 11.91992188 223.72314453 C12.10543849 215.42498653 14.77674215 209.17299659 20.40234375 203.10546875 C27.20081385 196.99858966 33.8602161 195.13451583 42.8125 195.08984375 C44.09898437 195.07566406 45.38546875 195.06148437 46.7109375 195.046875 C59.09571124 195.81280964 71.78070199 205.91202042 80.4375 214.27734375 C83.16748654 217.75959325 85.04050873 221.08636994 86.4375 225.27734375 C88.62226846 226.66567271 90.89070655 227.75343754 93.2109375 228.8984375 C95.4375 230.27734375 95.4375 230.27734375 96.92578125 232.4453125 C98.28597604 234.52874762 98.28597604 234.52874762 100.70703125 234.51953125 C101.54621094 234.39835938 102.38539063 234.2771875 103.25 234.15234375 C104.08144531 234.04664063 104.91289062 233.9409375 105.76953125 233.83203125 C108.49580053 233.33380774 108.49580053 233.33380774 111.22265625 232.25 C120.99178042 229.29433546 132.53539861 230.24583088 141.6328125 234.68359375 C145.62624016 236.95283955 149.50357294 239.38073586 153.375 241.8515625 C158.6205071 245.07946179 164.14315197 247.79099415 169.625 250.58984375 C189.4395655 260.76981749 207.13112986 271.99545759 223.4375 287.27734375 C224.16582031 287.91800781 224.89414062 288.55867188 225.64453125 289.21875 C227.4179499 290.8382625 229.0285476 292.33279642 230.4375 294.27734375 C230.375 297.21484375 230.375 297.21484375 229.4375 299.27734375 C227.328125 299.66796875 227.328125 299.66796875 224.4375 299.27734375 C222.17436417 297.25369319 220.2100254 295.26919665 218.1875 293.02734375 C210.72121915 285.17540997 202.50880557 279.14854872 193.4375 273.27734375 C192.84984863 272.89304199 192.26219727 272.50874023 191.65673828 272.11279297 C181.92732173 265.81927939 171.57475483 260.63062709 161.24267578 255.41259766 C154.87231434 252.17127609 148.77415665 248.73083406 142.79907227 244.80493164 C133.06095944 238.50581327 124.07960708 237.85014561 112.7109375 240.18359375 C109.58289748 240.86943246 106.47761145 241.62580068 103.37109375 242.40234375 C100.32689061 243.12725676 97.5822963 243.65214256 94.4375 243.27734375 C92.4375 241.27734375 92.4375 241.27734375 91.625 238.83984375 C90.13456924 235.62365105 88.59380881 234.77659044 85.4375 233.27734375 C84.7775 233.27734375 84.1175 233.27734375 83.4375 233.27734375 C83.1075 235.91734375 82.7775 238.55734375 82.4375 241.27734375 C87.9331906 245.76441349 93.06592959 248.69563409 99.875 250.77734375 C113.53230608 254.96692023 123.65865361 264.26755496 134.4375 273.27734375 C135.58974104 274.23189483 136.742079 275.18632893 137.89453125 276.140625 C166.16226625 299.67947827 166.16226625 299.67947827 174.4375 311.27734375 C174.4375 311.93734375 174.4375 312.59734375 174.4375 313.27734375 C175.38109375 313.06078125 176.3246875 312.84421875 177.296875 312.62109375 C185.48441953 310.84548168 193.01094252 309.85366209 201.4375 310.27734375 C196.83059369 293.36627774 187.15130297 286.00299153 173.01953125 276.71484375 C168.49926213 273.68303561 164.12908827 270.44564724 159.75 267.21484375 C158.96641113 266.63726318 158.18282227 266.05968262 157.37548828 265.46459961 C155.83584045 264.32385024 154.29996452 263.17799088 152.76806641 262.02685547 C151.13830316 260.80342331 149.4991203 259.59248435 147.85302734 258.39111328 C147.02883301 257.7773584 146.20463867 257.16360352 145.35546875 256.53125 C144.22854614 255.70282593 144.22854614 255.70282593 143.07885742 254.85766602 C142.53720947 254.33615967 141.99556152 253.81465332 141.4375 253.27734375 C141.4375 252.28734375 141.4375 251.29734375 141.4375 250.27734375 C146.00473437 250.77573605 148.12768181 252.42032085 151.5 255.46484375 C156.88554823 260.16587695 162.57010764 264.32293727 168.4375 268.40234375 C169.30487793 269.0068335 170.17225586 269.61132324 171.06591797 270.23413086 C174.69843697 272.74924272 178.33583362 275.24207853 182.07421875 277.59765625 C192.32608698 284.08219262 200.00051707 291.81835305 204.4375 303.27734375 C204.8396875 305.16453125 204.8396875 305.16453125 205.25 307.08984375 C206.77249163 311.17653182 208.62506253 312.03559012 212.328125 314.08984375 C215.42605668 315.83386455 217.85908077 317.82784549 220.4375 320.27734375 C220.4375 321.26734375 220.4375 322.25734375 220.4375 323.27734375 C216.77345766 322.67640742 214.71083397 321.11894608 211.875 318.77734375 C206.11746606 314.03927198 201.69832023 313.77565391 194.4375 314.27734375 C189.04632053 315.03139639 183.7472037 316.0937854 178.4375 317.27734375 C177.68758789 317.44363281 176.93767578 317.60992187 176.16503906 317.78125 C153.28540357 322.99653205 126.99846212 332.43336431 113.5 352.90234375 C111.2123716 356.59067134 109.69816221 360.12385764 108.4375 364.27734375 C107.4475 364.27734375 106.4575 364.27734375 105.4375 364.27734375 C106.12612485 353.48888772 112.79345998 345.47841563 120.4375 338.27734375 C131.81833229 329.08102021 144.91407012 322.71036887 158.625 317.77734375 C159.33172852 317.52186768 160.03845703 317.2663916 160.76660156 317.00317383 C164.42688131 315.74853577 167.56193727 314.97632917 171.4375 315.27734375 C162.47318319 303.71870269 152.52049751 293.47276663 141.046875 284.38671875 C138.43345831 282.27407651 135.9683058 280.05698923 133.5 277.77734375 C128.0976297 272.8707606 122.37739816 268.51126594 116.4375 264.27734375 C115.55320312 263.63539063 114.66890625 262.9934375 113.7578125 262.33203125 C108.07986426 258.44002518 102.46254657 256.16071664 95.92138672 254.18823242 C90.82887543 252.58537132 87.11945291 250.26062796 82.90625 247.05859375 C77.38624648 243.0758064 71.38033729 239.97564412 64.75 238.40234375 C57.18265887 240.40126405 52.46685532 246.92860783 48.4375 253.27734375 C49.62988281 253.54289063 50.82226562 253.8084375 52.05078125 254.08203125 C53.61726175 254.43847592 55.18366398 254.79526472 56.75 255.15234375 C57.53568359 255.32636719 58.32136719 255.50039063 59.13085938 255.6796875 C59.88818359 255.85371094 60.64550781 256.02773438 61.42578125 256.20703125 C62.47052612 256.44268799 62.47052612 256.44268799 63.53637695 256.68310547 C65.4375 257.27734375 65.4375 257.27734375 68.4375 259.27734375 C67.93461947 263.63564167 65.4203418 266.22671009 62.4375 269.27734375 C59.625 270.15234375 59.625 270.15234375 57.4375 270.27734375 C57.375625 270.89609375 57.31375 271.51484375 57.25 272.15234375 C56.4375 274.27734375 56.4375 274.27734375 54.34375 275.3828125 C50.86026636 276.45501378 47.76785012 276.59402561 44.125 276.71484375 C35.71284978 277.08440283 27.66207115 278.53837192 19.4375 280.27734375 C18.78026277 282.39884438 18.13735978 284.52478689 17.5 286.65234375 C17.14035156 287.83570313 16.78070313 289.0190625 16.41015625 290.23828125 C10.40400367 312.97078781 13.59001489 338.43053471 22.484375 359.8359375 C23.4375 362.27734375 23.4375 362.27734375 23.4375 364.27734375 C21.1275 364.27734375 18.8175 364.27734375 16.4375 364.27734375 C11.59178026 356.01578878 9.46577611 347.53383914 7.4375 338.27734375 C7.17054321 337.14594971 7.17054321 337.14594971 6.89819336 335.99169922 C5.9972545 330.68346488 6.25159043 325.25972957 6.25219727 319.88745117 C6.25003123 317.74572247 6.23190873 315.60452699 6.21289062 313.46289062 C6.16752418 302.37208276 7.5536078 291.98894335 10.4375 281.27734375 C8.81335622 281.08256636 7.18813577 280.89674917 5.5625 280.71484375 C4.65757812 280.61042969 3.75265625 280.50601562 2.8203125 280.3984375 C0.42096943 280.08059523 0.42096943 280.08059523 -1.5625 281.27734375 C-7.60044596 281.72224503 -10.89038407 281.10084096 -16.1875 277.90234375 C-16.78159668 277.54438721 -17.37569336 277.18643066 -17.98779297 276.81762695 C-31.20445378 268.7141205 -42.65172611 259.29056622 -53.5625 248.27734375 C-53.88863281 248.9528125 -54.21476563 249.62828125 -54.55078125 250.32421875 C-54.98777344 251.21625 -55.42476562 252.10828125 -55.875 253.02734375 C-56.30425781 253.9090625 -56.73351562 254.79078125 -57.17578125 255.69921875 C-58.46353146 258.0933459 -59.87165754 260.15511333 -61.5625 262.27734375 C-60.98242188 262.87160156 -60.40234375 263.46585937 -59.8046875 264.078125 C-52.03522252 272.32196326 -45.00891758 281.48083227 -45.078125 293.24609375 C-46.42334805 301.66458639 -51.84457035 311.69913868 -58.6484375 316.859375 C-72.51315364 324.31225142 -90.92358293 319.5493127 -105.5625 316.27734375 C-107.45116552 315.70029616 -109.33084678 315.09283394 -111.19921875 314.453125 C-131.84002268 307.49933732 -152.60330942 308.61549998 -174.15013123 309.21200562 C-175.52673668 309.24555649 -175.52673668 309.24555649 -176.93115234 309.27978516 C-177.7320932 309.3031192 -178.53303406 309.32645325 -179.35824585 309.35049438 C-181.56822488 309.27715376 -183.44566123 308.89591795 -185.5625 308.27734375 C-185.5625 305.96734375 -185.5625 303.65734375 -185.5625 301.27734375 C-178.20611503 301.09621241 -170.85032596 300.97579097 -163.4921875 300.89282227 C-161.00206027 300.85814839 -158.5120694 300.81079467 -156.02246094 300.74926758 C-139.92340331 300.36208329 -125.88546765 301.71527 -110.47729492 306.5234375 C-97.67555541 310.51057539 -76.82888141 316.36308758 -63.6875 311.15234375 C-58.5080535 307.55658766 -55.60123626 299.99695946 -53.5625 294.27734375 C-52.98488017 287.34590585 -54.78407838 282.97740898 -58.5625 277.27734375 C-61.25411944 274.10712329 -64.05430024 271.09166246 -66.93359375 268.09375 C-69.0534896 265.82265801 -70.82082092 263.64396787 -72.5625 261.08984375 C-76.33690966 255.85541889 -81.52178422 252.22284328 -86.5625 248.27734375 C-88.23108306 246.88380185 -89.8977306 245.48793936 -91.5625 244.08984375 C-96.78661291 239.80865661 -102.18944344 235.78550854 -107.625 231.77734375 C-108.8944043 230.84112183 -108.8944043 230.84112183 -110.18945312 229.88598633 C-114.2247722 226.83896271 -114.2247722 226.83896271 -118.5625 224.27734375 C-118.5625 223.28734375 -118.5625 222.29734375 -118.5625 221.27734375 C-114.35697496 221.82556398 -111.92523775 223.16715981 -108.5625 225.71484375 C-107.59957031 226.44058594 -106.63664062 227.16632813 -105.64453125 227.9140625 C-104.62746094 228.69394531 -103.61039062 229.47382813 -102.5625 230.27734375 C-101.53511719 231.04691406 -100.50773437 231.81648437 -99.44921875 232.609375 C-92.27873793 238.00815686 -85.42765018 243.72372396 -78.65625 249.61328125 C-74.09929832 254.25081677 -74.09929832 254.25081677 -68.4375 256.27734375 C-64.9928064 254.44017383 -63.76760857 251.89266947 -62.5625 248.27734375 C-61.50315529 242.09213756 -61.0942556 236.12999278 -64.59375 230.6875 C-66.92168791 227.47644532 -69.45644612 224.42944426 -71.95849609 221.35351562 C-74.78717538 217.69216271 -77.19087646 213.76988137 -79.625 209.83984375 C-80.12080566 209.04707031 -80.61661133 208.25429687 -81.12744141 207.4375 C-83.59853344 203.47599776 -86.04060709 199.49727949 -88.47265625 195.51171875 C-88.9308374 194.76591553 -89.38901855 194.0201123 -89.86108398 193.25170898 C-90.72804577 191.83868733 -91.58853139 190.42166628 -92.44165039 189.00024414 C-93.42831651 187.39179768 -94.48831348 185.82870875 -95.5625 184.27734375 C-98.41107991 184.27734375 -99.45334197 185.65288441 -101.6875 187.40234375 C-112.44084115 195.01025514 -124.3560451 198.95842431 -137.5625 197.27734375 C-142.57954036 196.38961007 -147.49446082 195.15053822 -152.41455078 193.83740234 C-154.5283741 193.28624177 -156.64791781 192.78392719 -158.77734375 192.296875 C-168.12870609 190.13334345 -177.49236718 187.6574323 -185.5625 182.27734375 C-185.0675 180.29734375 -185.0675 180.29734375 -184.5625 178.27734375 C-183.86769531 178.65246094 -183.17289063 179.02757812 -182.45703125 179.4140625 C-174.52280166 183.40631744 -166.8156151 185.66198355 -158.16333008 187.53979492 C-153.98660517 188.44740131 -149.9924501 189.43140455 -145.97265625 190.89453125 C-141.51071577 192.43474083 -137.44860741 192.78015218 -132.75 192.71484375 C-131.96810303 192.70654541 -131.18620605 192.69824707 -130.38061523 192.68969727 C-119.32437251 192.37003432 -109.04193888 188.53179803 -100.5625 181.27734375 C-99.52615871 178.78866735 -99.40325611 177.69323221 -100.37597656 175.15283203 C-100.81393555 174.39212402 -101.25189453 173.63141602 -101.703125 172.84765625 C-102.19208252 171.97987549 -102.68104004 171.11209473 -103.18481445 170.21801758 C-103.9905188 168.82425903 -103.9905188 168.82425903 -104.8125 167.40234375 C-105.91838789 165.4313808 -107.02116415 163.45866927 -108.12109375 161.484375 C-108.68940918 160.46682129 -109.25772461 159.44926758 -109.84326172 158.40087891 C-112.62383698 153.34909249 -115.26856928 148.23321182 -117.875 143.08984375 C-118.3606543 142.15221191 -118.84630859 141.21458008 -119.34667969 140.24853516 C-120.00458496 138.94215088 -120.00458496 138.94215088 -120.67578125 137.609375 C-121.26033081 136.46045776 -121.26033081 136.46045776 -121.85668945 135.28833008 C-122.5625 133.27734375 -122.5625 133.27734375 -121.5625 130.27734375 C-118.5625 131.27734375 -118.5625 131.27734375 -116.9753418 133.94750977 C-116.40984619 135.13014404 -115.84435059 136.31277832 -115.26171875 137.53125 C-114.61523634 138.86201966 -113.96866684 140.19274701 -113.32202148 141.5234375 C-112.98467987 142.22710449 -112.64733826 142.93077148 -112.29977417 143.65576172 C-105.09782929 158.6395924 -97.24251577 173.09188141 -88.5625 187.27734375 C-87.62809082 188.80875 -87.62809082 188.80875 -86.67480469 190.37109375 C-74.46153399 210.47144636 -74.46153399 210.47144636 -60.765625 229.57421875 C-59.5625 231.27734375 -59.5625 231.27734375 -59.5625 233.27734375 C-59.01078125 233.32761719 -58.4590625 233.37789062 -57.890625 233.4296875 C-54.49164946 234.66723396 -52.61719525 237.17267106 -50.3125 239.83984375 C-49.32392028 240.94490906 -48.3343342 242.04907491 -47.34375 243.15234375 C-46.86421875 243.69117188 -46.3846875 244.23 -45.890625 244.78515625 C-38.65732657 252.91197978 -30.44312456 259.07323417 -21.5625 265.27734375 C-20.52867187 266.01082031 -19.49484375 266.74429687 -18.4296875 267.5 C-13.13734538 271.08965266 -9.07102182 273.81082915 -2.5625 273.27734375 C1.70511594 270.96540261 4.74841173 268.31097616 7.4375 264.27734375 C7.51655064 261.94534987 7.52548769 259.60901753 7.4375 257.27734375 C6.73109375 257.23222656 6.0246875 257.18710937 5.296875 257.140625 C1.36656811 255.95401595 -0.68737439 253.4621823 -3.3125 250.46484375 C-3.83763184 249.87590332 -4.36276367 249.28696289 -4.90380859 248.68017578 C-6.47632642 246.89511673 -8.0238986 245.09167471 -9.5625 243.27734375 C-10.36429688 242.33246094 -11.16609375 241.38757813 -11.9921875 240.4140625 C-32.53041211 214.57682976 -40.59455645 182.43510564 -42.32131958 150.11224365 C-43.00647882 137.44822598 -43.99485403 124.87663395 -45.5378418 112.28271484 C-46.63073361 103.30125499 -46.63073361 103.30125499 -46.6953125 98.8359375 C-46.83836803 89.03663346 -49.90041266 82.47026044 -54.58105469 74.09765625 C-56.89961026 69.7973701 -58.5625 66.27084569 -58.5625 61.27734375 C-57.5725 61.27734375 -56.5825 61.27734375 -55.5625 61.27734375 C-53.5825 65.73234375 -53.5825 65.73234375 -51.5625 70.27734375 C-52.04774842 55.99901991 -52.04774842 55.99901991 -55.5625 42.27734375 C-65.56879342 36.32954696 -81.81322651 38.69705528 -92.5625 41.27734375 C-128.90566425 51.85005187 -161.90695065 78.30617443 -182.47192383 109.7277832 C-183.5625 111.27734375 -183.5625 111.27734375 -185.5625 113.27734375 C-186.55329921 107.25248388 -186.68161621 102.30472819 -183.67578125 96.859375 C-180.918747 93.0809948 -177.77595417 89.66839052 -174.5625 86.27734375 C-173.94681152 85.61766602 -173.33112305 84.95798828 -172.69677734 84.27832031 C-164.00534479 75.04518101 -154.8581617 66.68024915 -144.5625 59.27734375 C-143.99273437 58.86323242 -143.42296875 58.44912109 -142.8359375 58.02246094 C-127.93597043 47.30684561 -111.38616338 37.96778148 -93.5625 33.27734375 C-92.64984375 33.035 -91.7371875 32.79265625 -90.796875 32.54296875 C-85.17973045 31.29845169 -79.60641921 31.08499268 -73.875 31.02734375 C-72.8233667 31.01320435 -72.8233667 31.01320435 -71.75048828 30.9987793 C-68.1492716 31.02123923 -64.98608004 31.34574025 -61.51171875 32.31640625 C-57.57136489 33.40059648 -54.14656957 33.29504275 -50.0625 32.90234375 C-48.8353125 32.79148438 -47.608125 32.680625 -46.34375 32.56640625 C-45.4259375 32.47101563 -44.508125 32.375625 -43.5625 32.27734375 C-43.39234375 31.17326172 -43.39234375 31.17326172 -43.21875 30.046875 C-41.25496009 21.75921401 -34.31472151 15.03756639 -27.5625 10.27734375 C-18.79083047 5.02795244 -10.19266232 1.10316924 0 0 Z "
     fill="#6C6D6E"
     transform="translate(202.5625,39.72265625)"
     id="path4" />
  <path
     d="M0 0 C1.16184814 0.00491455 2.32369629 0.0098291 3.52075195 0.01489258 C30.87671802 0.37819799 61.49609661 5.77548564 82.125 25.3125 C82.83785156 25.94800781 83.55070313 26.58351563 84.28515625 27.23828125 C91.22472832 33.71089146 97.87009648 42.55827977 98.49609375 52.31640625 C98.85703181 65.58961219 96.39651321 75.55424581 87.53125 85.875 C67.71934013 105.9442074 38.09688263 115.21880621 10.39208984 115.68457031 C-18.68204256 115.71015248 -18.68204256 115.71015248 -28.875 112.3125 C-30.89818 112.34938827 -32.92040516 112.46392091 -34.9375 112.625 C-36.00097656 112.70363281 -37.06445312 112.78226562 -38.16015625 112.86328125 C-41.0804682 113.21642097 -43.79746632 113.71074909 -46.66015625 114.33984375 C-51.89418162 115.42105783 -56.91781101 115.6212039 -62.25 115.5625 C-63.17047119 115.55355713 -64.09094238 115.54461426 -65.03930664 115.53540039 C-77.40123396 115.32506345 -91.46149528 113.9477054 -100.62207031 104.51318359 C-102.08577294 102.81067536 -103.50238959 101.08894717 -104.875 99.3125 C-104.14909668 99.32821045 -103.42319336 99.3439209 -102.67529297 99.36010742 C-99.36694212 99.42270355 -96.05871619 99.46156912 -92.75 99.5 C-91.03683594 99.53770508 -91.03683594 99.53770508 -89.2890625 99.57617188 C-81.12874501 99.7368538 -81.12874501 99.7368538 -73.875 96.3125 C-73.215 95.3225 -72.555 94.3325 -71.875 93.3125 C-72.51566406 92.79042969 -73.15632813 92.26835937 -73.81640625 91.73046875 C-83.77939541 83.25227679 -90.76351191 73.64933927 -92.1875 60.40625 C-92.70190771 47.93186306 -87.84503891 38.6488313 -79.875 29.3125 C-67.84513246 16.55354958 -51.42115117 9.28544765 -34.8125 4.5625 C-34.11745361 4.36374268 -33.42240723 4.16498535 -32.70629883 3.96020508 C-21.92823996 1.05961547 -11.13944929 -0.05686336 0 0 Z "
     fill="#C0AFC7"
     transform="translate(363.875,58.6875)"
     id="path5" />
  <path
     d="M0 0 C1.54821945 0.62671097 1.54821945 0.62671097 3.12771606 1.26608276 C4.49412131 1.8166471 5.86056843 2.36710754 7.22705078 2.91748047 C7.90588821 3.19258957 8.58472565 3.46769867 9.28413391 3.75114441 C13.7957128 5.56513474 18.14262337 7.03939913 22.875 8.125 C24.21355429 8.43484131 25.55209549 8.74473915 26.890625 9.0546875 C27.89899414 9.28236816 27.89899414 9.28236816 28.92773438 9.51464844 C31.06270508 10.01468635 33.17836693 10.56730289 35.296875 11.1328125 C50.64310971 15.16191303 63.66830909 15.43402549 78 8 C81.90596679 5.6480431 85.50157422 2.9202961 89 0 C92.51116079 4.1369927 95.23450893 8.54325952 98 13.1875 C101.92881894 19.69675812 105.97156912 26.11024918 110.1875 32.4375 C110.68733398 33.19409912 111.18716797 33.95069824 111.70214844 34.73022461 C114.51555966 38.94431402 117.51066697 42.84794628 120.75 46.75 C124.59898545 51.92732555 124.7834575 56.41061283 124.57421875 62.73828125 C123.81254573 67.06479128 122.17080207 70.42196242 119.5625 73.9375 C118 75 118 75 116.28515625 74.890625 C112.90989939 73.57514027 110.52751831 71.20715036 107.875 68.8125 C99.54743514 61.48611805 90.82513679 54.71317427 82 48 C81.40396973 47.5447998 80.80793945 47.08959961 80.19384766 46.62060547 C74.15168071 41.6833265 74.15168071 41.6833265 67 39 C67 39.99 67 40.98 67 42 C67.70125 42.2371875 68.4025 42.474375 69.125 42.71875 C72.52887567 44.23569459 75.07553545 46.18967301 78 48.5 C79.15210067 49.40525736 80.30445164 50.31019625 81.45703125 51.21484375 C82.33609131 51.90876221 82.33609131 51.90876221 83.23291016 52.61669922 C84.93788698 53.95137712 86.65774821 55.26301298 88.38671875 56.56640625 C94.44656711 61.1413734 100.26093795 65.87830551 105.84375 71.03515625 C107.66030508 72.69045916 109.50760836 74.23162937 111.4375 75.75 C114 78 114 78 115.375 80.3125 C116.97153884 82.95292962 118.51798005 84.52553296 120.75 86.625 C126.64503992 92.34569493 132.60058116 99.82003686 133.25 108.2421875 C132.77291468 115.41337619 128.97650392 122.6465589 124.2109375 128.015625 C117.82128224 132.74668889 109.14870482 131.47199739 101.67382812 130.62158203 C98.28887962 130.10340601 94.92813893 129.50617757 91.5625 128.875 C89.9237793 128.59269531 89.9237793 128.59269531 88.25195312 128.3046875 C82.75192433 127.30411376 77.45013693 126.17963209 72.12304688 124.49243164 C57.31763841 119.87349969 43.8102848 119.30017512 28.375 119.6875 C24.92621919 119.74512434 21.47743571 119.79398641 18.0284729 119.83930969 C15.9070434 119.87020797 13.78571729 119.90980974 11.66464233 119.95939636 C10.24002182 119.98855888 10.24002182 119.98855888 8.78662109 120.01831055 C7.54046524 120.04878731 7.54046524 120.04878731 6.26913452 120.07987976 C4 120 4 120 0 119 C0 104.81 0 90.62 0 76 C4.75553962 78.37776981 9.19365695 80.61933696 13.6875 83.35546875 C14.7069873 83.97309082 15.72647461 84.59071289 16.77685547 85.22705078 C17.84049316 85.87399902 18.90413086 86.52094727 20 87.1875 C59.25169261 111.69051281 59.25169261 111.69051281 103 125 C103 124.01 103 123.02 103 122 C101.83210938 121.814375 101.83210938 121.814375 100.640625 121.625 C84.42939281 118.63675443 69.46121138 111.63956598 54.94335938 104.01660156 C53.00629363 103.0032923 51.0591799 102.01197495 49.109375 101.0234375 C36.04311789 94.32863333 23.47524486 86.73074458 11 79 C10.08190048 78.60117111 9.16380096 78.20234222 8.21788025 77.79142761 C4.8922775 76.14931985 2.55675812 74.70093291 0 72 C-1.54655867 66.51246492 -1.28711768 61.22228084 -1.07421875 55.56640625 C-1.05368021 53.96220755 -1.03803255 52.35793945 -1.02705383 50.75364685 C-0.9852193 46.54809194 -0.87734011 42.34677349 -0.75531006 38.1428833 C-0.64240485 33.84648967 -0.5924654 29.54940532 -0.53710938 25.25195312 C-0.41943409 16.83269946 -0.23192563 8.41687785 0 0 Z "
     fill="#FDFDFD"
     transform="translate(17,222)"
     id="path6" />
  <path
     d="M0 0 C3.03061348 1.15497789 5.80303304 2.65952746 8.625 4.25 C9.36234375 4.64574219 10.0996875 5.04148437 10.859375 5.44921875 C14.01206949 7.17246574 16.81177407 8.84285987 19.578125 11.15234375 C22.61975721 13.47281477 25.45622298 14.2593542 29.125 15.3125 C55.40891584 23.49850899 86.68541459 53.4226451 103 75 C103 75.66 103 76.32 103 77 C101.9584375 77.27972656 100.916875 77.55945313 99.84375 77.84765625 C78.27817171 83.80553104 53.57557935 93.49397794 41.34960938 113.52734375 C39.96594982 116.06238427 38.88340685 118.5951658 37.8359375 121.28515625 C37.48837402 122.17211182 37.14081055 123.05906738 36.78271484 123.97290039 C36.52441895 124.64184326 36.26612305 125.31078613 36 126 C31.67677539 126.12400035 27.35450398 126.21452256 23.0300293 126.2746582 C21.56044475 126.29973644 20.09098413 126.33380856 18.62182617 126.37719727 C16.50408319 126.43815499 14.38799424 126.46627316 12.26953125 126.48828125 C10.99698486 126.51446533 9.72443848 126.54064941 8.41333008 126.56762695 C4.0793098 125.84689187 2.68304218 124.409757 0 121 C-0.94726562 119.03735352 -0.94726562 119.03735352 -1.40625 117.12890625 C-1.59002197 116.4006665 -1.77379395 115.67242676 -1.96313477 114.92211914 C-2.14030029 114.14344482 -2.31746582 113.36477051 -2.5 112.5625 C-2.80345337 111.32971313 -2.80345337 111.32971313 -3.11303711 110.07202148 C-4.91629028 102.65663833 -6.53627393 95.19577419 -8.18652344 87.74511719 C-9.70862459 80.98156756 -11.58318314 74.50408065 -14 68 C-14.33 67.01 -14.66 66.02 -15 65 C-15.99 65 -16.98 65 -18 65 C-17.36384766 66.69962891 -17.36384766 66.69962891 -16.71484375 68.43359375 C-12.04560357 81.41265797 -8.9858056 94.47557149 -6.31030273 107.97631836 C-6.17017761 108.67578583 -6.03005249 109.3752533 -5.88568115 110.09591675 C-5.5036417 112.01264536 -5.13079475 113.93119962 -4.75854492 115.84985352 C-4.10382434 118.56882993 -3.26609959 120.54716622 -2 123 C-2 123.99 -2 124.98 -2 126 C-16.19 126 -30.38 126 -45 126 C-54.87275608 101.31810979 -59.82467404 74.64440459 -52 48.4375 C-51.649375 47.23996094 -51.29875 46.04242188 -50.9375 44.80859375 C-50 42 -50 42 -49 41 C-46.64676289 40.44273407 -44.3120499 39.94870119 -41.9375 39.5 C-41.22811279 39.364729 -40.51872559 39.22945801 -39.7878418 39.09008789 C-33.33823396 37.93053602 -26.9680238 37.52557265 -20.42578125 37.30859375 C-17.15106564 37.01360797 -14.87210245 36.58258706 -12 35 C-11.67 34.01 -11.34 33.02 -11 32 C-9.6078125 31.319375 -9.6078125 31.319375 -8.1875 30.625 C-4.69974938 28.84693106 -3.11814033 27.25867743 -1 24 C-1 23.01 -1 22.02 -1 21 C-3.20709983 20.34996375 -5.41573892 19.70515255 -7.625 19.0625 C-8.85476563 18.70285156 -10.08453125 18.34320313 -11.3515625 17.97265625 C-14.56810836 17.11514028 -17.70921999 16.48096015 -21 16 C-10.66412564 -1.26560831 -10.66412564 -1.26560831 0 0 Z "
     fill="#FEFEFE"
     transform="translate(271,278)"
     id="path7" />
  <path
     d="M0 0 C3.16432037 2.67209275 6.30117583 5.32510816 9.28125 8.203125 C18.47660984 17.00115447 35.90416523 33.19313852 49.25 33.375 C52.82719275 33.10509412 52.82719275 33.10509412 55.5625 32.375 C59.03415881 31.84089865 61.71340818 32.90446939 65 34 C65.21577218 38.53121583 64.44923498 41.73754417 63 46 C61.78442109 53.11242978 61.77979572 60.25310164 61.75976562 67.45141602 C61.75013284 69.53378395 61.71906617 71.61513118 61.6875 73.69726562 C61.59267665 85.61466424 62.96237772 97.18214601 67.6875 108.25 C70 113.73451327 70 113.73451327 70 117 C48.41592456 117.09356973 26.83188271 117.16404109 5.24764538 117.20724869 C-4.77499497 117.22784674 -14.79750906 117.25591452 -24.82006836 117.30175781 C-33.55888748 117.34171011 -42.29761513 117.36745284 -51.03652304 117.37635398 C-55.66088068 117.38155454 -60.28497672 117.39371996 -64.90925026 117.42292023 C-69.2685217 117.45022214 -73.62742562 117.45841537 -77.98677444 117.45243073 C-79.58021866 117.45352439 -81.17367612 117.46138993 -82.76704597 117.4768219 C-96.88350421 117.60674847 -108.69988297 114.96043252 -119.1953125 104.89453125 C-127.03698619 96.48860429 -131.15022721 87.78789042 -131.046875 76.23828125 C-131.04010742 75.25512939 -131.03333984 74.27197754 -131.02636719 73.2590332 C-131.01766602 72.51355225 -131.00896484 71.76807129 -131 71 C-110.66126775 70.75060977 -90.66250064 70.78095394 -70.51953125 74.0234375 C-57.71103738 76.06974342 -45.21016095 77.41931628 -32.25 77.5 C-30.94748291 77.51820801 -29.64496582 77.53641602 -28.30297852 77.55517578 C-21.06958456 77.50871366 -16.10111029 76.99029962 -10 73 C-9.48985352 72.47986328 -8.97970703 71.95972656 -8.45410156 71.42382812 C-7 70 -7 70 -4.4375 69.0625 C-1.44006023 67.75592369 -1.32978752 66.88813226 0 64 C0.79919627 62.72075845 1.61211593 61.45000336 2.4375 60.1875 C6.81780182 53.15050625 9.11696931 47.33233427 8 39 C5.36210146 29.42724871 -1.89485617 21.57691957 -8 14 C-7.59007812 13.49210937 -7.18015625 12.98421875 -6.7578125 12.4609375 C-3.60713656 8.4359113 -1.26203939 5.04815754 0 0 Z "
     fill="#FEFEFE"
     transform="translate(148,287)"
     id="path8" />
  <path
     d="M0 0 C7.74338674 5.32629219 12.72648004 12.76101923 16.4375 21.3125 C17.33446512 27.19260465 17.14816686 33.06509396 17 39 C15.824375 38.835 14.64875 38.67 13.4375 38.5 C10.50887467 38.47941212 9.38909167 38.64704427 7.19140625 40.640625 C6.04226337 42.07373621 4.9072552 43.51827287 3.78515625 44.97265625 C1.46386413 47.60887202 -0.89757989 48.68307828 -4.07421875 50.05859375 C-6.13455278 51.06577529 -7.65164472 52.2446848 -9.375 53.75 C-12 56 -12 56 -14 56 C-13.5943573 53.07937259 -13.29617625 51.35313322 -11.375 49.0625 C-9.73119485 46.99693104 -9.73119485 46.99693104 -9.9375 44 C-11.03804306 40.8925843 -12.04968259 39.36729023 -14.9140625 37.68359375 C-20.26325916 35.93057986 -26.70867127 36.23622376 -32 38 C-38.49515346 38.78146817 -43.68562019 37.91120676 -49 34 C-51.77930318 31.61145034 -53.74346025 29.47642663 -55 26 C-54.23593842 18.34706062 -48.5217969 11.93557874 -43 7 C-39.7902558 4.7313845 -36.48061749 2.81954709 -33 1 C-31.948125 0.4225 -30.89625 -0.155 -29.8125 -0.75 C-19.72386021 -5.23383991 -9.56864094 -5.92092699 0 0 Z "
     fill="#A78B67"
     transform="translate(219,51)"
     id="path9" />
  <path
     d="M0 0 C1.19822388 0.00737183 1.19822388 0.00737183 2.4206543 0.01489258 C9.63891935 0.1585653 15.19858177 0.98778582 21 5.5 C25.27003404 10.99004376 27.92999944 15.90837332 27.57421875 23.01171875 C26.47494122 29.55186485 23.51008392 35.29099215 18.1875 39.3125 C9.85505189 44.07665436 -2.66416979 43.73505483 -11.80078125 41.62109375 C-17.55256114 39.31071494 -20.6896225 35.74348863 -23.921875 30.51953125 C-26.1563144 24.9824336 -25.78476911 16.97689522 -23.75 11.375 C-17.9783236 2.25202763 -10.39057621 -0.07478354 0 0 Z "
     fill="#FDFDFD"
     transform="translate(318.8125,94.6875)"
     id="path10" />
  <path
     d="M0 0 C0.66 0.66 1.32 1.32 2 2 C1.67 2.7425 1.34 3.485 1 4.25 C-0.22782871 7.13883312 -0.22782871 7.13883312 0 11 C3.93075644 10.42547254 3.93075644 10.42547254 7 8 C7.495 9.485 7.495 9.485 8 11 C7.21625 11.721875 6.4325 12.44375 5.625 13.1875 C3.15587562 15.83299041 2.06739722 17.60373611 1 21 C1.99 21 2.98 21 4 21 C4.268125 20.236875 4.53625 19.47375 4.8125 18.6875 C6.00368193 15.99166721 6.69872336 14.77570792 9 13 C13.91013054 12.15630884 18.51523536 12.21023157 22.9375 14.5625 C27.89736812 20.42416233 29.34014032 23.18137004 28.75 30.9375 C28.52188049 32.96092009 28.27904741 34.98297251 28 37 C22.43780291 35.23021002 22.43780291 35.23021002 19.8828125 33.88671875 C16.17763933 32.1417513 12.79150016 32.69482627 9 34 C2.82094063 38.29967188 -1.97027427 43.68676303 -6 50 C-7.32 49.67 -8.64 49.34 -10 49 C-9.67 48.01 -9.34 47.02 -9 46 C-10.485 46.495 -10.485 46.495 -12 47 C-13.51766539 47.11632729 -15.0404346 47.17496239 -16.5625 47.1875 C-17.34753906 47.20167969 -18.13257813 47.21585937 -18.94140625 47.23046875 C-21 47 -21 47 -23 45 C-23 44.01 -23 43.02 -23 42 C-20.03 41.505 -20.03 41.505 -17 41 C-17.74021854 35.11653882 -19.08536718 30.5007959 -22.125 25.375 C-24.95718237 20.42216876 -26.13211376 17.66056882 -25 12 C-20.39349235 3.13848529 -9.57510498 -1.21864973 0 0 Z "
     fill="#FBFBFB"
     transform="translate(253,242)"
     id="path12" />
  <path
     d="M0 0 C0.495 0.70125 0.99 1.4025 1.5 2.125 C5.23477627 6.41999271 9.55142731 10.1838091 15 12 C16.62719482 12.08143855 18.25751719 12.1075302 19.88671875 12.09765625 C20.82451172 12.09443359 21.76230469 12.09121094 22.72851562 12.08789062 C23.70498047 12.07951172 24.68144531 12.07113281 25.6875 12.0625 C26.67556641 12.05798828 27.66363281 12.05347656 28.68164062 12.04882812 C31.12115474 12.03704303 33.56054689 12.02059011 36 12 C34.76302083 13.46484375 33.52604167 14.9296875 32.2890625 16.39453125 C29.63668163 19.69795105 28.75392269 21.51033285 28.875 25.6875 C28.90207031 26.89986328 28.90207031 26.89986328 28.9296875 28.13671875 C28.95289063 28.75160156 28.97609375 29.36648437 29 30 C30.98 30 32.96 30 35 30 C35 29.01 35 28.02 35 27 C33.68 27 32.36 27 31 27 C31.44928198 22.17021867 32.38942693 19.32552783 36 16 C39.75 15.1875 39.75 15.1875 43 15 C43.75 17.125 43.75 17.125 44 20 C42.0625 23.3125 42.0625 23.3125 40 26 C41.16579747 29.01245649 41.16579747 29.01245649 43.67578125 30.89453125 C47.33793365 31.06071296 49.634616 28.85776877 52.4375 26.75 C58.73405437 22.15619624 58.73405437 22.15619624 61.7734375 20.37109375 C64.51609082 18.68219671 66.02793757 16.51607965 68 14 C68.66 14 69.32 14 70 14 C68.05300228 21.26562563 65.70148107 25.1751855 59.625 29.8125 C56.28984828 31.32125911 53.61818596 31.21283447 50 31 C49.957279 32.66611905 49.95936168 34.33382885 50 36 C50.33 36.33 50.66 36.66 51 37 C50.71269945 39.33944736 50.38063221 41.6739143 50 44 C49.39414063 43.98839844 48.78828125 43.97679687 48.1640625 43.96484375 C42.04075052 43.89890039 36.07906669 44.27568567 30 45 C29.7525 45.7425 29.505 46.485 29.25 47.25 C27.86273607 50.30198066 26.69305063 51.9994481 24 54 C21.5625 54.125 21.5625 54.125 19 53 C16.625 50.1875 16.625 50.1875 15.6015625 48.66796875 C13.89669497 46.67936495 13.89669497 46.67936495 10.37890625 45.4140625 C8.0278404 44.12085338 7.16481132 43.56476874 6.40332031 40.95532227 C6.22489576 38.34731487 6.23674505 35.80046673 6.3125 33.1875 C6.24353387 23.33215534 5.43316497 13.73565583 0.87109375 4.78515625 C0 3 0 3 0 0 Z "
     fill="#E3C3A3"
     transform="translate(161,79)"
     id="path13" />
  <path
     d="M0 0 C4.29 0 8.58 0 13 0 C13.33 4.62 13.66 9.24 14 14 C14.87398438 12.989375 15.74796875 11.97875 16.6484375 10.9375 C26.93271777 -0.18362587 26.93271777 -0.18362587 34.00390625 -0.9296875 C38.39179755 -1.02610575 42.66028782 -0.62635021 47 0 C43.49441279 3.55685722 39.89446761 6.96283047 36.1875 10.3125 C35.21167969 11.19550781 34.23585938 12.07851562 33.23046875 12.98828125 C32.49441406 13.65214844 31.75835937 14.31601563 31 15 C32.50500769 19.7452007 35.14622241 22.83788647 38.375 26.5 C39.34173537 27.61407204 40.30789035 28.72864799 41.2734375 29.84375 C41.73459961 30.37613281 42.19576172 30.90851563 42.67089844 31.45703125 C48 37.64364438 48 37.64364438 48 40 C32.98909706 41.21573117 32.98909706 41.21573117 28.48828125 38.46484375 C26.71915682 36.40152784 25.35480361 34.35351079 24 32 C23.03044597 30.65966045 22.05201146 29.32567425 21.0625 28 C20.381875 27.01 19.70125 26.02 19 25 C16.42988681 26.06544945 16.42988681 26.06544945 14 28 C13.18071284 30.9477007 13.18071284 30.9477007 13.1875 34.1875 C13.125625 36.105625 13.06375 38.02375 13 40 C8.71 40 4.42 40 0 40 C0 26.8 0 13.6 0 0 Z "
     fill="#FDFDFE"
     transform="translate(352,96)"
     id="path14" />
  <path
     d="M0 0 C7.21423595 -0.17634454 14.427151 -0.30158538 21.64306641 -0.38452148 C24.08469554 -0.41918284 26.52618585 -0.46652609 28.96728516 -0.52807617 C44.91156255 -0.91928628 58.78376775 0.49311468 74.04321289 5.24609375 C89.49632916 10.03594586 105.87630001 11.79842256 122 11 C118.46672774 14.92585807 115.46992818 16.73222531 110.17382812 17.30639648 C106.61496161 17.37966401 103.05971799 17.43061939 99.5 17.4375 C98.50072479 17.44159378 98.50072479 17.44159378 97.48126221 17.44577026 C83.30159295 17.45436299 69.47611738 15.64834884 55.47914124 13.52584839 C42.0679964 11.49236951 28.73105181 10.81256162 15.1875 10.4375 C13.70506987 10.39416168 12.2226479 10.35054344 10.74023438 10.30664062 C7.16024412 10.2012123 3.58015971 10.09952889 0 10 C0 6.7 0 3.4 0 0 Z "
     fill="#BDBEC0"
     transform="translate(17,348)"
     id="path15" />
  <path
     d="M0 0 C0.33 0.99 0.66 1.98 1 3 C2.14214966 3.03758423 2.14214966 3.03758423 3.30737305 3.07592773 C6.76757376 3.19219048 10.22752254 3.31477978 13.6875 3.4375 C14.88568359 3.47681641 16.08386719 3.51613281 17.31835938 3.55664062 C18.47529297 3.59853516 19.63222656 3.64042969 20.82421875 3.68359375 C22.41882935 3.73858032 22.41882935 3.73858032 24.0456543 3.79467773 C26.78204532 3.9848525 29.32856732 4.3931507 32 5 C32 5.33 32 5.66 32 6 C21.44 6 10.88 6 0 6 C0.33 6.66 0.66 7.32 1 8 C10.57 8.33 20.14 8.66 30 9 C29 11 29 11 27.34375 11.6171875 C18.11234523 13.12498361 8.24833648 11.94854733 -1 11 C-0.67 11.99 -0.34 12.98 0 14 C10.89 14.495 10.89 14.495 22 15 C21.67 15.66 21.34 16.32 21 17 C18.17556852 17.94147716 15.94741101 18.26009445 13 18.5 C12.030625 18.5825 11.06125 18.665 10.0625 18.75 C8.02083333 18.91666667 5.97916667 19.08333333 3.9375 19.25 C2.968125 19.3325 1.99875 19.415 1 19.5 C0.113125 19.5721875 -0.77375 19.644375 -1.6875 19.71875 C-4.15485835 19.94085379 -4.15485835 19.94085379 -7 21 C-9.31455617 20.96343957 -11.62835476 20.84984284 -13.9375 20.6875 C-15.16339844 20.60886719 -16.38929688 20.53023438 -17.65234375 20.44921875 C-20.63596248 20.04884984 -22.46901185 19.55411553 -25 18 C-23 14 -23 14 -21.93359375 12.15234375 C-20.85899274 9.67491631 -20.82665336 7.99498872 -20.9375 5.3125 C-20.99157949 3.87586654 -21.02041084 2.43750606 -21 1 C-18.96428688 -1.03571312 -14.98900288 -0.45833141 -12.1875 -0.625 C-11.46240234 -0.6765625 -10.73730469 -0.728125 -9.99023438 -0.78125 C-2.6942801 -1.23516115 -2.6942801 -1.23516115 0 0 Z "
     fill="#DFC0A1"
     transform="translate(234,295)"
     id="path16" />
  <path
     d="M0 0 C2.56817073 2.19234087 3.70815466 3.61654085 4.40625 6.92578125 C4.69677106 10.78244835 4.35177384 12.5273039 2 15.6875 C-1.00898339 18.0069247 -4.06449172 20.04582591 -7.328125 21.984375 C-8.97090689 22.89183482 -8.97090689 22.89183482 -10 24 C-12.01964199 24.07244053 -14.04167124 24.08377188 -16.0625 24.0625 C-17.16722656 24.05347656 -18.27195312 24.04445313 -19.41015625 24.03515625 C-20.26480469 24.02355469 -21.11945313 24.01195313 -22 24 C-22.26953125 21.69921875 -22.26953125 21.69921875 -22 19 C-20.13671875 17.26953125 -20.13671875 17.26953125 -17.6875 15.8125 C-16.88699219 15.32394531 -16.08648437 14.83539063 -15.26171875 14.33203125 C-14.14216797 13.67267578 -14.14216797 13.67267578 -13 13 C-12.01 12.34 -11.02 11.68 -10 11 C-10 9.68 -10 8.36 -10 7 C-12.22890995 5.88554502 -13.53055106 5.83519714 -16 5.8125 C-16.70125 5.79832031 -17.4025 5.78414062 -18.125 5.76953125 C-20.24524938 5.83487677 -20.24524938 5.83487677 -22 8 C-22.33 9.32 -22.66 10.64 -23 12 C-27.29 12 -31.58 12 -36 12 C-35.58726322 6.73760609 -34.88050973 3.67627237 -31 0 C-22.57945021 -5.42657653 -8.67463416 -4.82356339 0 0 Z "
     fill="#FCFBFC"
     transform="translate(437,98)"
     id="path17" />
  <path
     d="M0 0 C3.68623011 1.61272567 4.75355 2.630325 7 6 C7.66562326 11.43334336 7.92770031 16.36852704 5.1875 21.1875 C1.42586733 24.30428135 -2.10261564 24.27955947 -6.77734375 24.21875 C-9.85372002 23.91597835 -11.65392676 22.9906076 -14 21 C-16.73974835 16.55273243 -16.54247566 12.0713255 -16 7 C-12.7064621 -0.52808663 -7.43215286 -0.78358161 0 0 Z "
     fill="#C1B0C7"
     transform="translate(324,104)"
     id="path22" />
  <path
     d="M0 0 C3.33323638 1.25187699 6.27411944 2.66756565 9.2734375 4.58203125 C10.08659424 5.09548096 10.89975098 5.60893066 11.73754883 6.13793945 C12.60790771 6.69054443 13.4782666 7.24314941 14.375 7.8125 C42.35551476 25.34000037 71.10360591 41.02025084 103 50 C103 50.99 103 51.98 103 53 C75.20390951 50.67565795 47.46294539 32.97442693 24 19 C22.90526367 18.35256836 21.81052734 17.70513672 20.68261719 17.03808594 C17.29434678 15.02890885 13.92699494 12.9862651 10.5625 10.9375 C8.97828247 9.99015991 8.97828247 9.99015991 7.36206055 9.02368164 C6.39824463 8.42676514 5.43442871 7.82984863 4.44140625 7.21484375 C3.58232666 6.69011475 2.72324707 6.16538574 1.83813477 5.62475586 C0.92825806 4.82050171 0.92825806 4.82050171 0 4 C0 2.68 0 1.36 0 0 Z "
     fill="#717274"
     transform="translate(17,294)"
     id="path23" />
  <path
     d="M0 0 C1.2065625 0.0309375 1.2065625 0.0309375 2.4375 0.0625 C7.4831034 14.50602118 9.75775359 26.72591165 9.4375 42.0625 C7.1275 43.3825 4.8175 44.7025 2.4375 46.0625 C0.35279282 42.93543922 0.12985186 41.84279051 -0.125 38.23046875 C-0.1986377 37.27317871 -0.27227539 36.31588867 -0.34814453 35.32958984 C-0.45425049 33.80519287 -0.45425049 33.80519287 -0.5625 32.25 C-1.17020752 24.36944535 -1.93023517 16.60924149 -3.1953125 8.8046875 C-3.54769831 6.17304027 -3.70399728 3.71321564 -3.5625 1.0625 C-2.5625 0.0625 -2.5625 0.0625 0 0 Z "
     fill="#F9F9F9"
     transform="translate(155.5625,79.9375)"
     id="path24" />
  <path
     d="M0 0 C1.32 0 2.64 0 4 0 C9.10973928 8.7823644 12.44285242 17.8051657 15.4375 27.5 C15.96827148 29.200354 15.96827148 29.200354 16.50976562 30.93505859 C19.42475462 40.63966303 19.42475462 40.63966303 19 46 C18.34 46.66 17.68 47.32 17 48 C14.97314453 47.87158203 14.97314453 47.87158203 13 47 C12.05419922 45.28076172 12.05419922 45.28076172 11.4296875 43.0546875 C11.19088867 42.23967773 10.95208984 41.42466797 10.70605469 40.58496094 C10.35655762 39.30540527 10.35655762 39.30540527 10 38 C9.52456396 36.37727371 9.04800348 34.75487643 8.5703125 33.1328125 C8.3345752 32.31506348 8.09883789 31.49731445 7.85595703 30.65478516 C5.70996624 23.22767876 3.53039716 16.14835693 -0.1171875 9.2890625 C-1.22847546 6.40758133 -1.21560697 4.06161897 -1 1 C-0.67 0.67 -0.34 0.34 0 0 Z "
     fill="#6C6D6F"
     transform="translate(176,205)"
     id="path25" />
  <path
     d="M0 0 C1.92333984 0.23193359 1.92333984 0.23193359 4 1 C5.70635581 3.52061683 7.17693785 5.96204315 8.625 8.625 C9.50157067 10.17653996 10.38186868 11.72597921 11.265625 13.2734375 C11.71486328 14.06073242 12.16410156 14.84802734 12.62695312 15.65917969 C14.74840908 19.27591505 17.0389422 22.76917732 19.375 26.25 C19.77928223 26.85666504 20.18356445 27.46333008 20.60009766 28.08837891 C22.3976944 30.75372938 24.23666142 33.2819881 26.3046875 35.74609375 C28 38 28 38 27.75 40.8125 C27.5025 41.534375 27.255 42.25625 27 43 C24.78515625 43.32421875 24.78515625 43.32421875 22 43 C12.87256169 34.47367548 7.09730497 21.86723 1.16992188 11.06201172 C0.18747321 9.33042545 -0.89565942 7.65651087 -2 6 C-1.45945946 1.45945946 -1.45945946 1.45945946 0 0 Z "
     fill="#6C6D6F"
     transform="translate(104,232)"
     id="path26" />
  <path
     d="M0 0 C0.99 0 1.98 0 3 0 C9.19018071 12.74255285 12.04385728 26.25501397 14.79882812 40.06640625 C16.03035931 46.05746248 17.27513654 51.51200253 20 57 C20.391875 57.804375 20.78375 58.60875 21.1875 59.4375 C21.455625 59.953125 21.72375 60.46875 22 61 C20.02 61 18.04 61 16 61 C13.65388959 55.94215696 12.20920019 51.17294563 11.1328125 45.71484375 C10.80088904 44.115212 10.46885413 42.51560338 10.13671875 40.91601562 C9.63139648 38.43788989 9.12935625 35.95914577 8.63037109 33.47973633 C6.69347267 23.91115156 4.50298331 14.79671545 0.94873047 5.68969727 C0 3 0 3 0 0 Z "
     fill="#717273"
     transform="translate(253,343)"
     id="path27" />
  <path
     d="M0 0 C2.46761416 0.21053057 3.63512579 0.61285149 5.34375 2.42578125 C9.59598602 9.3643961 13.63503453 17.68547814 13 26 C12 27 12 27 9.4375 27.0625 C8.633125 27.041875 7.82875 27.02125 7 27 C6.04965675 24.62414188 5.09977996 22.24811342 4.15234375 19.87109375 C3.40355496 18.00546744 2.64620405 16.14324674 1.87890625 14.28515625 C1.52699219 13.42792969 1.17507812 12.57070312 0.8125 11.6875 C0.48894531 10.90761719 0.16539062 10.12773437 -0.16796875 9.32421875 C-1.05034415 6.85936727 -1.70763858 4.60507113 -2 2 C-1.34 1.34 -0.68 0.68 0 0 Z "
     fill="#6F7072"
     transform="translate(192,212)"
     id="path28" />
  <path
     d="M0 0 C2.25 -0.3828125 2.25 -0.3828125 5 0 C7.0625 2.6328125 7.0625 2.6328125 9 6.125 C12.10504158 11.61193729 12.10504158 11.61193729 16.0625 16.5 C18 19 18 19 17.8125 21.875 C17.544375 22.57625 17.27625 23.2775 17 24 C14.75 24.27734375 14.75 24.27734375 12 24 C6.76164837 19.24778327 1.29647904 11.76394646 -1 5 C-0.62109375 2.23828125 -0.62109375 2.23828125 0 0 Z "
     fill="#6B6C6E"
     transform="translate(97,248)"
     id="path29" />
  <path
     d="M0 0 C0.33 0 0.66 0 1 0 C1.185625 1.216875 1.37125 2.43375 1.5625 3.6875 C2.7945856 9.42810624 5.61834804 14.13698458 8.5390625 19.1796875 C10 22 10 22 10 25 C8.824375 25.4640625 8.824375 25.4640625 7.625 25.9375 C5.07669872 26.92875038 5.07669872 26.92875038 3 28 C-1.93345082 20.07123976 -1.61746294 12.00888553 -1 3 C-0.67 2.01 -0.34 1.02 0 0 Z "
     fill="#F7F7F7"
     transform="translate(223,255)"
     id="path30" />
  <path
     d="M0 0 C3.96 0 7.92 0 12 0 C12 3.63 12 7.26 12 11 C8.04 11 4.08 11 0 11 C0 7.37 0 3.74 0 0 Z "
     fill="#FEFEFE"
     transform="translate(415,125)"
     id="path31" />
  <path
     d="M0 0 C-0.125 1.8125 -0.125 1.8125 -1 4 C-1.969375 4.45375 -2.93875 4.9075 -3.9375 5.375 C-7.28221042 6.74062444 -7.28221042 6.74062444 -8.375 10.1875 C-8.58125 11.115625 -8.7875 12.04375 -9 13 C-9.99 13 -10.98 13 -12 13 C-12.34717213 9.26789965 -12.2922789 7.45929542 -10.25 4.25 C-6.71931191 0.71931191 -5.03962528 0 0 0 Z "
     fill="#707173"
     transform="translate(246,245)"
     id="path34" />
  <path
     d="M0 0 C8.25 0 16.5 0 25 0 C24 2 24 2 22.390625 2.62109375 C19.15648557 3.13369428 16.02272949 3.09280305 12.75 3.0625 C11.48671875 3.05347656 10.2234375 3.04445313 8.921875 3.03515625 C7.95765625 3.02355469 6.9934375 3.01195312 6 3 C6 2.67 6 2.34 6 2 C3.03 1.505 3.03 1.505 0 1 C0 0.67 0 0.34 0 0 Z "
     fill="#C7AE96"
     transform="translate(239,304)"
     id="path35" />
  <path
     d="M0 0 C-1 3 -1 3 -3.875 4.6875 C-7 6 -7 6 -10 6 C-9.6875 4.125 -9.6875 4.125 -9 2 C-5.5647952 -0.29013653 -4.014669 -0.17842973 0 0 Z "
     fill="#737476"
     transform="translate(249,252)"
     id="path36" />
  <path
     d="M0 0 C4.7517398 0.43197635 6.92000054 1.32769295 10 5 C7.69 5.33 5.38 5.66 3 6 C3 4.68 3 3.36 3 2 C2.01 2 1.02 2 0 2 C0 1.34 0 0.68 0 0 Z "
     fill="#A5A5A7"
     transform="translate(257,246)"
     id="path37" />
</svg>
