<?xml version="1.0" encoding="UTF-8"?>
<svg version="1.1" xmlns="http://www.w3.org/2000/svg" width="512" height="423">
<path d="M0 0 C168.96 0 337.92 0 512 0 C512 139.59 512 279.18 512 423 C343.04 423 174.08 423 0 423 C0 283.41 0 143.82 0 0 Z " fill="#FEFEFE" transform="translate(0,0)"/>
<path d="M0 0 C3.66793426 1.5942693 6.78917066 3.6277013 10 6 C10.66644531 6.48339844 11.33289063 6.96679688 12.01953125 7.46484375 C22.1205862 15.5498022 36.00033044 31.8996007 38 45 C40.52657989 81.392468 17.55753192 115.59113798 -4 143 C1.94 143.33 7.88 143.66 14 144 C14.99 141.03 14.99 141.03 16 138 C21.01138201 129.3651663 27.1075865 120.29747117 37 117 C43.12964063 116.49757044 46.13200251 116.88924656 51 121 C55.03573471 125.080452 57.80158278 129.05945687 58.1953125 134.89453125 C58.16050781 136.33892578 58.16050781 136.33892578 58.125 137.8125 C58.10695313 138.78832031 58.08890625 139.76414063 58.0703125 140.76953125 C58.03550781 141.87361328 58.03550781 141.87361328 58 143 C58.80824219 142.95359375 59.61648438 142.9071875 60.44921875 142.859375 C68.99813641 142.57062989 68.99813641 142.57062989 73.0625 144.3125 C76.04767913 148.45323234 76.95169158 153.05675704 78 158 C79.02480469 158.02578125 80.04960937 158.0515625 81.10546875 158.078125 C82.46618699 158.13443058 83.82686243 158.19177737 85.1875 158.25 C85.86103516 158.26417969 86.53457031 158.27835938 87.22851562 158.29296875 C92.09695596 158.53045364 94.66616397 159.44468535 98 163 C99.33680773 165.29413456 100.46942191 167.47263388 101.5625 169.875 C104.92989487 176.93674563 108.55160578 183.82729246 112.3125 190.6875 C112.82820557 191.63157715 113.34391113 192.5756543 113.87524414 193.54833984 C115.24059613 196.03800711 116.605714 198.52641706 118 201 C118.51590698 202.3597998 118.51590698 202.3597998 119.04223633 203.74707031 C121.36637132 206.421608 121.98067964 206.39311932 125.39208984 206.68774414 C127.24780784 206.74386886 129.10440069 206.77465199 130.9609375 206.78515625 C131.94365631 206.81298691 132.92637512 206.84081757 133.93887329 206.86949158 C137.08419232 206.95698547 140.2288723 207.01277119 143.375 207.0625 C146.5138145 207.11757114 149.65158201 207.18001002 152.78970337 207.26622009 C154.74255064 207.31951987 156.69599076 207.35486592 158.64950562 207.37013245 C162.83583253 207.4810362 165.35928562 207.61933906 169.01416016 209.79077148 C172.67906122 213.86794013 173.3581576 216.76002728 173.22265625 222.29638672 C172.76945556 227.79939592 171.6347674 233.16572404 170.5 238.5625 C170.23590332 239.82650635 169.97180664 241.0905127 169.69970703 242.39282227 C167.85131961 250.88401823 165.61178676 259.18526327 162.875 267.4375 C162.55080078 268.41855713 162.22660156 269.39961426 161.89257812 270.41040039 C161.00147699 272.97683491 160.02596554 275.48507738 159 278 C158.54496094 279.21042969 158.08992188 280.42085938 157.62109375 281.66796875 C153.02486392 285.75731183 147.05884821 284.16574429 141.1875 283.875 C130.4158749 283.58334664 130.4158749 283.58334664 121.13671875 288.32421875 C117.92573744 291.66187617 115.17498782 295.33300338 112.47314453 299.08886719 C106.72991526 306.5396459 96.92072565 311.53476091 88 314 C83.91616376 314.49866895 80.08870101 314.39533136 76 314 C74.55560547 313.87431641 74.55560547 313.87431641 73.08203125 313.74609375 C64.94232819 312.67951197 59.98999607 309.4748603 54.6875 303.3125 C51.51947751 297.09378919 50 290.96726606 50 284 C30.2 284.33 10.4 284.66 -10 285 C-10.66 286.32 -11.32 287.64 -12 289 C-15.3459576 293.76155505 -19.57143026 297.29040359 -24 301 C-24.77730469 301.67675781 -25.55460938 302.35351562 -26.35546875 303.05078125 C-36.98929466 312.02782665 -46.26841893 315.388367 -60.06591797 314.24365234 C-67.59193516 313.29553758 -73.98220369 309.63331266 -79 304 C-80.57736357 301.72048713 -81.75143899 299.49712201 -83 297 C-83.391875 296.360625 -83.78375 295.72125 -84.1875 295.0625 C-85.47539535 291.7932272 -85.65114283 288.48857167 -86 285 C-86.98742187 284.95101563 -87.97484375 284.90203125 -88.9921875 284.8515625 C-90.27351562 284.77679688 -91.55484375 284.70203125 -92.875 284.625 C-94.15117187 284.55539062 -95.42734375 284.48578125 -96.7421875 284.4140625 C-100 284 -100 284 -102 282 C-103.08050748 273.43192027 -101.24085045 265.35986256 -99.0625 257.125 C-98.51005446 254.96136177 -97.95921928 252.79731158 -97.41015625 250.6328125 C-97.16402588 249.69324707 -96.91789551 248.75368164 -96.66430664 247.78564453 C-95.96933932 244.87143023 -95.46033285 241.9595555 -95 239 C-95.825 239.556875 -96.65 240.11375 -97.5 240.6875 C-120.31888376 255.85656724 -148.82523651 270.76998717 -177 267 C-181.87440044 265.33284323 -185.80333133 262.95839928 -190 260 C-190.97582031 259.34 -191.95164062 258.68 -192.95703125 258 C-195.70565843 256.07483294 -198.36062672 254.07172157 -201 252 C-201.70769531 251.45859375 -202.41539062 250.9171875 -203.14453125 250.359375 C-211.49470686 243.57382796 -219.14897416 234.46543456 -220.39453125 223.5390625 C-219.91476361 219.23540428 -218.27220334 216.69853248 -215.6875 213.375 C-215.01569702 212.47539551 -215.01569702 212.47539551 -214.33032227 211.55761719 C-209.48474946 205.15060915 -204.29475953 199.03705244 -199 193 C-198.20335937 192.07960937 -197.40671875 191.15921875 -196.5859375 190.2109375 C-189.0088501 181.59232606 -178.0871391 169.21364001 -166.01953125 167.76171875 C-160.15800561 167.5646055 -155.75009669 168.43491686 -151 172 C-146.46895123 176.63569193 -141 184.27540562 -141 191 C-114.66600045 177.94835567 -89.92068703 159.4937871 -72 136 C-71.21496094 135.030625 -70.42992187 134.06125 -69.62109375 133.0625 C-56.59197901 116.75061926 -45.42034632 97.9368649 -39 78 C-39.87527344 77.89945312 -40.75054687 77.79890625 -41.65234375 77.6953125 C-48.4775976 76.27769851 -55.00803173 71.89132678 -59.125 66.25 C-61.86965297 61.49260151 -62.76834586 57.43396409 -62 52 C-58.5167375 40.91689203 -48.96380458 32.96380458 -41 25 C-40.24396484 24.19175781 -40.24396484 24.19175781 -39.47265625 23.3671875 C-34.09998966 17.68198352 -27.90564832 13.0136005 -21.69091797 8.29833984 C-20.18045337 7.13855776 -18.69932389 5.94079963 -17.22265625 4.73828125 C-11.62332174 0.37734616 -7.11313238 -1.75058398 0 0 Z " fill="#A5C64B" transform="translate(264,38)"/>
<path d="M0 0 C168.96 0 337.92 0 512 0 C512 139.59 512 279.18 512 423 C343.04 423 174.08 423 0 423 C0 283.41 0 143.82 0 0 Z M27.66015625 29.140625 C18.38905658 39.52425664 15.54681473 49.62164227 15.60559082 63.18157959 C15.60069652 64.51637225 15.59450422 65.85116066 15.58713293 67.18594193 C15.57077816 70.83887389 15.57304217 74.49158938 15.5785079 78.14454508 C15.58118367 82.09016453 15.56663597 86.035727 15.55441284 89.98132324 C15.53337887 97.70596964 15.52881685 105.43054095 15.53060073 113.15521261 C15.53190951 119.43639296 15.52809825 125.71754994 15.52067566 131.99872589 C15.5185764 133.80959773 15.5164788 135.62046957 15.51438284 137.43134141 C15.51333931 138.33273702 15.51229578 139.23413263 15.51122063 140.16284326 C15.49232606 157.20359534 15.4933659 174.24430436 15.50018996 191.28506258 C15.50576338 206.86084364 15.48494716 222.43646011 15.45182949 238.01220271 C15.41806246 254.01802373 15.40292801 270.02376598 15.40754652 286.02962327 C15.40978835 295.0105705 15.40459015 303.99136567 15.37965393 312.97228241 C15.35860171 320.61929728 15.35508746 328.26607673 15.37395352 335.9131014 C15.38308777 339.81141425 15.38432613 343.70928861 15.36359787 347.60756683 C15.34479644 351.18316737 15.34949207 354.75797314 15.37214369 358.33354428 C15.37826386 360.22512612 15.36001081 362.11673966 15.34060717 364.00823188 C15.46522755 376.12239083 19.62632236 386.20588666 28 395 C38.65970863 405.10595753 51.03089953 406.73752248 65.05484009 406.62145996 C66.76161907 406.62579548 68.46839364 406.63231736 70.17515695 406.64082003 C74.83777843 406.65773474 79.49985903 406.64368418 84.16245174 406.62430525 C89.20135444 406.60882843 94.240193 406.62229289 99.27909851 406.63204956 C109.13888541 406.64655272 118.99846591 406.63436605 128.85823323 406.61293632 C140.3450369 406.5888893 151.83179366 406.59064294 163.31861691 406.59324223 C183.81531865 406.59692986 204.31192332 406.57612792 224.80859375 406.54199219 C244.68980359 406.50889385 264.5709116 406.49473568 284.45214844 406.50097656 C306.11363146 406.50774286 327.77507186 406.50527418 349.43654859 406.48561716 C350.58229887 406.48457768 351.72804915 406.48353819 352.90851914 406.4824672 C355.2095648 406.48037634 357.51061044 406.47826537 359.81165607 406.47613403 C367.81562979 406.46924342 375.81959037 406.46856829 383.82356644 406.47001648 C393.57817057 406.47145719 403.33269174 406.46174675 413.08726837 406.43807012 C418.06267932 406.42622277 423.03797475 406.41907665 428.01339912 406.42490768 C432.57051355 406.43009064 437.12738422 406.421352 441.68445699 406.40163308 C443.33028822 406.3969051 444.97614328 406.39717823 446.62197085 406.40304345 C460.58380562 406.44797997 472.45725898 404.675002 483.23046875 394.99609375 C490.03470831 387.85994007 495.11864689 378.6105208 495.13142776 368.61158562 C495.13526891 367.48602599 495.13911005 366.36046636 495.1430676 365.20079887 C495.14176787 363.33795082 495.14176787 363.33795082 495.14044189 361.43746948 C495.14341302 360.12226889 495.14638414 358.80706829 495.1494453 357.45201313 C495.15752459 353.79345447 495.15930539 350.13491541 495.16004276 346.47634888 C495.16189175 342.53344698 495.1694384 338.5905553 495.17617798 334.6476593 C495.18976932 326.02147611 495.19578752 317.39529756 495.20018864 308.76910543 C495.20295021 303.38307821 495.20718745 297.99705278 495.21169281 292.61102676 C495.22388747 277.70002035 495.23418578 262.78901537 495.2375679 247.87800407 C495.23778747 246.92333506 495.23800703 245.96866605 495.23823325 244.98506767 C495.23845153 244.02810291 495.23866981 243.07113814 495.2388947 242.08517444 C495.23933817 240.14597567 495.23978473 238.2067769 495.24023438 236.26757812 C495.2404558 235.30566685 495.24067723 234.34375558 495.24090537 233.35269548 C495.24485213 217.77138264 495.26230154 202.19011661 495.2855939 186.60882185 C495.30931239 170.61335602 495.32177001 154.61791367 495.32293582 138.62242997 C495.3238524 129.64098 495.3296003 120.65959098 495.34775543 111.67815781 C495.36316327 104.02879288 495.36827292 96.37950773 495.36001733 88.73013024 C495.35611298 84.82827088 495.35702975 80.92657214 495.37107468 77.02473259 C495.38382684 73.44927047 495.38260471 69.87408943 495.37048396 66.29862763 C495.36760661 64.3996277 495.37945293 62.50062284 495.39190602 60.60166156 C495.32449776 48.92813533 492.23015892 40.24397495 485 31 C476.38533907 22.63279791 465.86312538 17.75150019 453.79471111 17.74831772 C453.1007737 17.74541084 452.4068363 17.74250396 451.69187048 17.73950899 C449.37324154 17.73222682 447.05487872 17.73914394 444.73625183 17.74603271 C443.05441745 17.74372757 441.37258407 17.74055068 439.6907528 17.73657823 C435.07400485 17.72822878 430.45733957 17.73235623 425.84059131 17.73855066 C420.85955741 17.74307362 415.87853778 17.73609209 410.89750671 17.73059082 C401.14070653 17.72169294 391.38393711 17.72362077 381.62713572 17.7294161 C373.69641649 17.7339318 365.76570588 17.73454589 357.83498573 17.73236847 C356.70647401 17.732062 355.57796228 17.73175554 354.41525323 17.73143978 C352.12270527 17.73080033 349.83015732 17.73015191 347.53760938 17.7294946 C326.03416328 17.72378995 304.53073422 17.73035092 283.02729092 17.74109533 C264.5802785 17.75002732 246.13329126 17.74848196 227.6862793 17.73925781 C206.26472808 17.7285513 184.84319182 17.72434312 163.42163831 17.73048234 C161.1365794 17.73111943 158.85152048 17.73174818 156.56646156 17.73236847 C155.44217661 17.73267702 154.31789166 17.73298557 153.15953746 17.73330347 C145.24078141 17.73502954 137.32203484 17.73211713 129.40328026 17.72740936 C119.74922362 17.72179615 110.0951995 17.72332612 100.44114657 17.73397085 C95.51641787 17.73922216 90.59174336 17.74129353 85.66701508 17.73467255 C81.15601896 17.72869962 76.64512711 17.7320104 72.13414041 17.74262765 C70.50497763 17.74485602 68.87580598 17.74373806 67.24664893 17.73887607 C52.53251676 17.69834325 39.01147329 18.72854223 27.66015625 29.140625 Z " fill="#C0B1C8" transform="translate(0,0)"/>
<path d="M0 0 C3.66793426 1.5942693 6.78917066 3.6277013 10 6 C10.66644531 6.48339844 11.33289063 6.96679688 12.01953125 7.46484375 C22.1205862 15.5498022 36.00033044 31.8996007 38 45 C40.52657989 81.392468 17.55753192 115.59113798 -4 143 C1.94 143.33 7.88 143.66 14 144 C14.99 141.03 14.99 141.03 16 138 C21.01138201 129.3651663 27.1075865 120.29747117 37 117 C43.12964063 116.49757044 46.13200251 116.88924656 51 121 C55.03573471 125.080452 57.80158278 129.05945687 58.1953125 134.89453125 C58.16050781 136.33892578 58.16050781 136.33892578 58.125 137.8125 C58.10695313 138.78832031 58.08890625 139.76414063 58.0703125 140.76953125 C58.03550781 141.87361328 58.03550781 141.87361328 58 143 C58.80824219 142.95359375 59.61648438 142.9071875 60.44921875 142.859375 C68.99813641 142.57062989 68.99813641 142.57062989 73.0625 144.3125 C76.04767913 148.45323234 76.95169158 153.05675704 78 158 C79.02480469 158.02578125 80.04960937 158.0515625 81.10546875 158.078125 C82.46618699 158.13443058 83.82686243 158.19177737 85.1875 158.25 C85.86103516 158.26417969 86.53457031 158.27835938 87.22851562 158.29296875 C92.09695596 158.53045364 94.66616397 159.44468535 98 163 C99.33680773 165.29413456 100.46942191 167.47263388 101.5625 169.875 C104.92989487 176.93674563 108.55160578 183.82729246 112.3125 190.6875 C112.82820557 191.63157715 113.34391113 192.5756543 113.87524414 193.54833984 C115.24059613 196.03800711 116.605714 198.52641706 118 201 C118.51590698 202.3597998 118.51590698 202.3597998 119.04223633 203.74707031 C121.36637132 206.421608 121.98067964 206.39311932 125.39208984 206.68774414 C127.24780784 206.74386886 129.10440069 206.77465199 130.9609375 206.78515625 C131.94365631 206.81298691 132.92637512 206.84081757 133.93887329 206.86949158 C137.08419232 206.95698547 140.2288723 207.01277119 143.375 207.0625 C146.5138145 207.11757114 149.65158201 207.18001002 152.78970337 207.26622009 C154.74255064 207.31951987 156.69599076 207.35486592 158.64950562 207.37013245 C162.83583253 207.4810362 165.35928562 207.61933906 169.01416016 209.79077148 C172.67906122 213.86794013 173.3581576 216.76002728 173.22265625 222.29638672 C172.76945556 227.79939592 171.6347674 233.16572404 170.5 238.5625 C170.23590332 239.82650635 169.97180664 241.0905127 169.69970703 242.39282227 C167.85131961 250.88401823 165.61178676 259.18526327 162.875 267.4375 C162.55080078 268.41855713 162.22660156 269.39961426 161.89257812 270.41040039 C161.00147699 272.97683491 160.02596554 275.48507738 159 278 C158.54496094 279.21042969 158.08992188 280.42085938 157.62109375 281.66796875 C153.02486392 285.75731183 147.05884821 284.16574429 141.1875 283.875 C130.4158749 283.58334664 130.4158749 283.58334664 121.13671875 288.32421875 C117.92573744 291.66187617 115.17498782 295.33300338 112.47314453 299.08886719 C106.72991526 306.5396459 96.92072565 311.53476091 88 314 C83.91616376 314.49866895 80.08870101 314.39533136 76 314 C74.55560547 313.87431641 74.55560547 313.87431641 73.08203125 313.74609375 C64.94232819 312.67951197 59.98999607 309.4748603 54.6875 303.3125 C51.51947751 297.09378919 50 290.96726606 50 284 C30.2 284.33 10.4 284.66 -10 285 C-10.66 286.32 -11.32 287.64 -12 289 C-15.3459576 293.76155505 -19.57143026 297.29040359 -24 301 C-24.77730469 301.67675781 -25.55460938 302.35351562 -26.35546875 303.05078125 C-36.98929466 312.02782665 -46.26841893 315.388367 -60.06591797 314.24365234 C-67.59193516 313.29553758 -73.98220369 309.63331266 -79 304 C-80.57736357 301.72048713 -81.75143899 299.49712201 -83 297 C-83.391875 296.360625 -83.78375 295.72125 -84.1875 295.0625 C-85.47539535 291.7932272 -85.65114283 288.48857167 -86 285 C-86.98742187 284.95101563 -87.97484375 284.90203125 -88.9921875 284.8515625 C-90.27351562 284.77679688 -91.55484375 284.70203125 -92.875 284.625 C-94.15117187 284.55539062 -95.42734375 284.48578125 -96.7421875 284.4140625 C-100 284 -100 284 -102 282 C-103.08050748 273.43192027 -101.24085045 265.35986256 -99.0625 257.125 C-98.51005446 254.96136177 -97.95921928 252.79731158 -97.41015625 250.6328125 C-97.16402588 249.69324707 -96.91789551 248.75368164 -96.66430664 247.78564453 C-95.96933932 244.87143023 -95.46033285 241.9595555 -95 239 C-95.825 239.556875 -96.65 240.11375 -97.5 240.6875 C-120.31888376 255.85656724 -148.82523651 270.76998717 -177 267 C-181.87440044 265.33284323 -185.80333133 262.95839928 -190 260 C-190.97582031 259.34 -191.95164062 258.68 -192.95703125 258 C-195.70565843 256.07483294 -198.36062672 254.07172157 -201 252 C-201.70769531 251.45859375 -202.41539062 250.9171875 -203.14453125 250.359375 C-211.49470686 243.57382796 -219.14897416 234.46543456 -220.39453125 223.5390625 C-219.91476361 219.23540428 -218.27220334 216.69853248 -215.6875 213.375 C-215.01569702 212.47539551 -215.01569702 212.47539551 -214.33032227 211.55761719 C-209.48474946 205.15060915 -204.29475953 199.03705244 -199 193 C-198.20335937 192.07960937 -197.40671875 191.15921875 -196.5859375 190.2109375 C-189.0088501 181.59232606 -178.0871391 169.21364001 -166.01953125 167.76171875 C-160.15800561 167.5646055 -155.75009669 168.43491686 -151 172 C-146.46895123 176.63569193 -141 184.27540562 -141 191 C-114.66600045 177.94835567 -89.92068703 159.4937871 -72 136 C-71.21496094 135.030625 -70.42992187 134.06125 -69.62109375 133.0625 C-56.59197901 116.75061926 -45.42034632 97.9368649 -39 78 C-39.87527344 77.89945312 -40.75054687 77.79890625 -41.65234375 77.6953125 C-48.4775976 76.27769851 -55.00803173 71.89132678 -59.125 66.25 C-61.86965297 61.49260151 -62.76834586 57.43396409 -62 52 C-58.5167375 40.91689203 -48.96380458 32.96380458 -41 25 C-40.24396484 24.19175781 -40.24396484 24.19175781 -39.47265625 23.3671875 C-34.09998966 17.68198352 -27.90564832 13.0136005 -21.69091797 8.29833984 C-20.18045337 7.13855776 -18.69932389 5.94079963 -17.22265625 4.73828125 C-11.62332174 0.37734616 -7.11313238 -1.75058398 0 0 Z M-20.95922852 150.69271851 C-24.65884058 150.77403028 -28.35849683 150.84888613 -32.05834961 150.91836548 C-36.47099959 151.00202724 -40.8830697 151.10066103 -45.2951355 151.21081543 C-46.94169243 151.249703 -48.58837395 151.28365434 -50.23513794 151.31246948 C-52.50173684 151.35321504 -54.76714908 151.41215337 -57.03320312 151.47583008 C-58.31167114 151.50469803 -59.59013916 151.53356598 -60.90734863 151.56330872 C-63.95077896 151.75295492 -63.95077896 151.75295492 -65.86193848 153.31401062 C-67.83655884 156.23932607 -68.48395725 159.6153222 -69.3125 163 C-69.62888428 164.24438843 -69.62888428 164.24438843 -69.95166016 165.51391602 C-72.01419027 173.76328425 -73.81347713 182.07230189 -75.62597656 190.37939453 C-77.98252623 201.10963053 -80.64604771 211.75273053 -83.33984375 222.40234375 C-85.23431521 229.89692046 -87.03191928 237.41245407 -88.80078125 244.9375 C-89.65009382 248.54761059 -90.52700367 252.14994609 -91.41796875 255.75 C-91.65112793 256.70140869 -91.88428711 257.65281738 -92.12451172 258.63305664 C-92.56992403 260.44868872 -93.02044174 262.26307911 -93.47705078 264.07592773 C-94.55143731 268.48490136 -95.26052653 272.42217662 -95 277 C-93.51886719 277.07347656 -93.51886719 277.07347656 -92.0078125 277.1484375 C-90.72648438 277.22320312 -89.44515625 277.29796875 -88.125 277.375 C-86.84882813 277.44460938 -85.57265625 277.51421875 -84.2578125 277.5859375 C-81 278 -81 278 -79 280 C-78.7265625 282.3203125 -78.7265625 282.3203125 -78.625 285.125 C-78.07664915 292.22567877 -76.23218288 296.76781712 -71.1875 301.8125 C-62.94321201 307.4703447 -55.98268583 308.04359651 -46 307 C-39.04638603 305.25905126 -33.8013898 300.40461052 -28.4375 295.875 C-27.83615234 295.36751221 -27.23480469 294.86002441 -26.61523438 294.3371582 C-23.75155323 291.80899213 -21.31702803 289.48243688 -19.20423889 286.26730347 C-16.20888335 281.81742753 -13.90457999 278.54909828 -8.61643982 277.02450562 C-4.53321729 276.71155109 -0.58582259 276.73211163 3.5 276.890625 C4.9868484 276.9086373 6.47376142 276.92188372 7.96069336 276.93060303 C11.84866855 276.96669224 15.73207344 277.06964593 19.61834717 277.18640137 C23.59004871 277.29245998 27.5623887 277.32940271 31.53515625 277.375 C37.31737763 277.45414779 43.09821169 277.55584454 48.87890625 277.71191406 C50.62022827 277.75835052 50.62022827 277.75835052 52.39672852 277.8057251 C55 278 55 278 56 279 C56.32558177 281.01564712 56.61002447 283.03799394 56.875 285.0625 C58.33510369 294.77035137 58.33510369 294.77035137 63.625 302.875 C70.86239624 307.43187911 79.60684411 308.04501941 88 307 C101.64424967 302.65405381 113.05207154 290.45436749 121 279 C123.84535725 277.57732138 126.36218552 277.78028131 129.5390625 277.68359375 C130.84101563 277.64169922 132.14296875 277.59980469 133.484375 277.55664062 C134.86458045 277.51682701 136.24478883 277.47711478 137.625 277.4375 C139.01303415 277.39430593 140.40105528 277.35069135 141.7890625 277.30664062 C145.19260256 277.20028 148.59621778 277.09825286 152 277 C156.66130719 264.17339306 160.63455237 251.35323342 163.5 238 C163.75475098 236.82663086 164.00950195 235.65326172 164.27197266 234.44433594 C165.48666326 228.54878787 166.51129436 223.02191137 166 217 C163.2123153 214.2123153 161.29203781 214.60571471 157.38671875 214.390625 C156.72218185 214.35277893 156.05764496 214.31493286 155.37297058 214.27593994 C150.54807407 214.02172872 145.72522471 213.91820648 140.89453125 213.859375 C139.89569412 213.84481262 139.89569412 213.84481262 138.87667847 213.82995605 C134.79971025 213.77041434 134.79971025 213.77041434 130.72241211 213.74951172 C128.69628927 213.74618826 126.67030711 213.70951778 124.64453125 213.671875 C123.46221924 213.6625293 122.27990723 213.65318359 121.06176758 213.64355469 C118 213 118 213 115.81469727 210.85864258 C113.88122895 207.81290324 112.05779599 204.75217364 110.3203125 201.58984375 C109.98506561 200.98169327 109.64981873 200.37354279 109.30441284 199.7469635 C108.5979773 198.46316677 107.89384114 197.17810235 107.19189453 195.8918457 C106.1398008 193.96461223 105.08034392 192.04158591 104.01953125 190.11914062 C100.2255353 183.21893682 96.57785753 176.27574861 93.12451172 169.19750977 C92.18354536 167.08109192 92.18354536 167.08109192 91 166 C87.90621785 165.86417542 84.8194729 165.75206064 81.72265625 165.74609375 C77.92760137 165.60443158 76.12268781 165.09498411 73.09375 162.75 C71.04232112 160.05558595 70.25806084 158.54135064 69.75 155.25 C69.45750606 152.33707909 69.45750606 152.33707909 68 150 C65.18961531 149.8836826 62.40524133 149.83601316 59.59375 149.83203125 C58.68246338 149.8278418 57.77117676 149.82365234 56.83227539 149.81933594 C53.72147645 149.80928697 50.61081303 149.8096075 47.5 149.8125 C46.42451904 149.81277191 45.34903809 149.81304382 44.2409668 149.81332397 C22.50401363 149.83800173 0.77195171 150.21478126 -20.95922852 150.69271851 Z " fill="#676869" transform="translate(264,38)"/>
<path d="M0 0 C73.59 0 147.18 0 223 0 C221.41164367 6.3534253 219.79913793 12.70301726 218 19 C144.08 19 70.16 19 -6 19 C-3 7 -3 7 0 0 Z " fill="#F7F7F7" transform="translate(190,280)"/>
<path d="M0 0 C1.10794922 0.00410889 2.21589844 0.00821777 3.35742188 0.01245117 C5.16146484 0.01535156 5.16146484 0.01535156 7.00195312 0.01831055 C8.26394531 0.03055664 9.5259375 0.04280273 10.82617188 0.05541992 C12.71916016 0.05638672 12.71916016 0.05638672 14.65039062 0.05737305 C24.0457082 0.10268808 24.0457082 0.10268808 26.32617188 1.24291992 C25.74249798 7.54659795 24.28545569 13.22952055 22.32617188 19.24291992 C24.14955078 19.22551758 24.14955078 19.22551758 26.00976562 19.20776367 C27.59439951 19.19838714 29.17903505 19.18928679 30.76367188 19.18041992 C31.56611328 19.17204102 32.36855469 19.16366211 33.1953125 19.1550293 C35.23912408 19.14640562 37.28301089 19.19063842 39.32617188 19.24291992 C40.32617188 20.24291992 40.32617188 20.24291992 40.38085938 22.18432617 C39.90666979 29.10130905 38.53809938 43.03099242 33.32617188 48.24291992 C31.91289241 48.39912547 30.49262598 48.49348165 29.07226562 48.55932617 C28.21826172 48.6012207 27.36425781 48.64311523 26.484375 48.6862793 C25.58654297 48.7255957 24.68871094 48.76491211 23.76367188 48.80541992 C22.41112305 48.87019531 22.41112305 48.87019531 21.03125 48.9362793 C18.79638703 49.04270134 16.56140879 49.1447198 14.32617188 49.24291992 C13.90464844 50.45850586 13.483125 51.6740918 13.04882812 52.92651367 C12.49559379 54.51120184 11.94220015 56.0958344 11.38867188 57.68041992 C10.97198242 58.88408203 10.97198242 58.88408203 10.546875 60.11206055 C10.1456543 61.25771484 10.1456543 61.25771484 9.73632812 62.42651367 C9.49019775 63.13348389 9.24406738 63.8404541 8.99047852 64.56884766 C8.32617188 66.24291992 8.32617188 66.24291992 7.32617188 67.24291992 C5.04669396 67.34312922 2.76410053 67.37373295 0.48242188 67.37573242 C-0.2018689 67.37668915 -0.88615967 67.37764587 -1.59118652 67.37863159 C-3.0404469 67.37931322 -4.48971031 67.37746015 -5.93896484 67.37329102 C-8.1644574 67.36794244 -10.38974813 67.37323652 -12.61523438 67.37963867 C-14.02018274 67.37897789 -15.42513098 67.37769672 -16.83007812 67.37573242 C-18.11720703 67.37460449 -19.40433594 67.37347656 -20.73046875 67.37231445 C-23.67382812 67.24291992 -23.67382812 67.24291992 -24.67382812 66.24291992 C-25.06586384 61.46848493 -24.1050021 58.21306136 -22.17382812 53.86791992 C-21.70976562 52.80831055 -21.24570313 51.74870117 -20.76757812 50.65698242 C-20.40664062 49.8603418 -20.04570312 49.06370117 -19.67382812 48.24291992 C-20.88941406 48.25452148 -22.105 48.26612305 -23.35742188 48.27807617 C-24.94205576 48.2874527 -26.5266913 48.29655305 -28.11132812 48.30541992 C-28.91376953 48.31379883 -29.71621094 48.32217773 -30.54296875 48.33081055 C-32.58678033 48.33943422 -34.63066714 48.29520142 -36.67382812 48.24291992 C-37.67382812 47.24291992 -37.67382812 47.24291992 -37.98242188 44.85620117 C-37.53885546 39.66254379 -35.65426926 35.24658321 -33.73632812 30.43041992 C-33.17655273 28.98119141 -33.17655273 28.98119141 -32.60546875 27.50268555 C-29.83806164 20.40715343 -29.83806164 20.40715343 -28.67382812 19.24291992 C-27.25812689 19.15640381 -25.83823312 19.13587088 -24.41992188 19.14526367 C-23.13891602 19.15009766 -23.13891602 19.15009766 -21.83203125 19.1550293 C-20.4852832 19.16759766 -20.4852832 19.16759766 -19.11132812 19.18041992 C-18.20962891 19.18493164 -17.30792969 19.18944336 -16.37890625 19.1940918 C-14.14381499 19.20591768 -11.90885376 19.22239772 -9.67382812 19.24291992 C-9.48336914 18.34561157 -9.48336914 18.34561157 -9.2890625 17.43017578 C-5.62796375 0.51130606 -5.62796375 0.51130606 0 0 Z " fill="#EE4156" transform="translate(274.673828125,192.757080078125)"/>
<path d="M0 0 C168.96 0 337.92 0 512 0 C512 14.19 512 28.38 512 43 C509.41527186 41.70763593 509.31113126 40.71067408 508.25 38.0625 C501.8604429 23.32454348 492.12300779 12.08120677 477.1015625 5.78515625 C470.21108319 3.1896808 464.28991146 1.87627183 456.893013 1.86577892 C456.18539833 1.86342669 455.47778367 1.86107446 454.74872613 1.85865095 C452.37157183 1.85198053 449.99447243 1.85241858 447.61730957 1.85282898 C445.8980919 1.84952913 444.17887501 1.84580331 442.4596591 1.8416875 C437.7301948 1.83167307 433.0007432 1.8279516 428.2712698 1.82529819 C423.17221475 1.82139348 418.07316973 1.81181523 412.97412109 1.80308533 C400.6571638 1.78332542 388.34020569 1.77325521 376.02323651 1.76435754 C370.22206904 1.75997377 364.42090247 1.75460718 358.61973572 1.74936867 C339.33369384 1.7323567 320.04765254 1.71786277 300.76160431 1.71061993 C295.75708516 1.70871005 290.75256601 1.70678972 285.74804688 1.70483398 C284.50420744 1.70435024 283.26036801 1.7038665 281.97883648 1.7033681 C261.8317453 1.6950687 241.68471351 1.66973314 221.53764826 1.63725331 C200.85028898 1.60417452 180.16295988 1.58617041 159.47557402 1.58297569 C147.86153194 1.58081133 136.24757647 1.57207351 124.63356018 1.54651451 C114.74200435 1.52479635 104.85055616 1.51676262 94.95897919 1.52648129 C89.91433598 1.53102274 84.86991481 1.52914862 79.82530212 1.50971985 C75.20110482 1.49206449 70.57729117 1.49310517 65.95308965 1.50861714 C64.28612318 1.51098961 62.61912997 1.50668853 60.95220429 1.49478849 C43.09387864 1.37526438 28.5420525 5.82415147 15.1875 18.125 C9.94254575 23.65162772 6.50108791 30.2935564 3 37 C2.34 37 1.68 37 1 37 C1 38.98 1 40.96 1 43 C0.67 43 0.34 43 0 43 C0 28.81 0 14.62 0 0 Z " fill="#98929D" transform="translate(0,0)"/>
<path d="M0 0 C5.73556821 4.31982669 9.71233757 9.17944003 10.8515625 16.39453125 C11.84474343 23.76062314 10.00492406 29.26337847 5.8515625 35.39453125 C1.77276951 39.90071485 -2.59569735 42.98562095 -8.76171875 43.6953125 C-16.9765381 43.73097742 -22.85747582 42.84145647 -28.9609375 37.08203125 C-33.73788534 32.21431005 -35.5879744 27.30651429 -35.6484375 20.51953125 C-35.46448747 12.92159529 -33.63691996 9.01281771 -28.46875 3.65234375 C-20.74201394 -3.52493552 -9.36118963 -5.4510631 0 0 Z " fill="#C0C5CB" transform="translate(134.1484375,327.60546875)"/>
<path d="M0 0 C1.58206057 0.00667536 3.16410534 0.0186375 4.74609375 0.03515625 C5.55240234 0.03966797 6.35871094 0.04417969 7.18945312 0.04882812 C9.18753131 0.06065107 11.18557158 0.07858711 13.18359375 0.09765625 C12.96703125 0.90589844 12.75046875 1.71414062 12.52734375 2.546875 C12.24890625 3.61550781 11.97046875 4.68414062 11.68359375 5.78515625 C11.40515625 6.84089844 11.12671875 7.89664063 10.83984375 8.984375 C10.2415934 11.82250313 9.97566907 14.2127013 10.18359375 17.09765625 C12.24281777 19.15688027 16.40067499 18.51193204 19.24609375 18.66015625 C20.00470703 18.70333984 20.76332031 18.74652344 21.54492188 18.79101562 C23.42424813 18.89739258 25.30389619 18.99805559 27.18359375 19.09765625 C26.70755601 21.22335937 26.22766777 23.34820052 25.74609375 25.47265625 C25.47925781 26.65601563 25.21242188 27.839375 24.9375 29.05859375 C24.18359375 32.09765625 24.18359375 32.09765625 23.18359375 34.09765625 C17.24359375 34.42765625 11.30359375 34.75765625 5.18359375 35.09765625 C4.60609375 36.39703125 4.02859375 37.69640625 3.43359375 39.03515625 C0.30859375 46.06640625 0.30859375 46.06640625 -2.81640625 53.09765625 C-8.75640625 53.09765625 -14.69640625 53.09765625 -20.81640625 53.09765625 C-19.81640625 47.09765625 -19.81640625 47.09765625 -18.25390625 43.47265625 C-16.55516487 40.09570404 -16.55516487 40.09570404 -16.81640625 36.09765625 C-19.85853892 34.57658991 -23.09688197 34.72336287 -26.44140625 34.53515625 C-27.50101563 34.47038086 -27.50101563 34.47038086 -28.58203125 34.40429688 C-30.32659162 34.29820874 -32.07147322 34.19742736 -33.81640625 34.09765625 C-33.24819877 28.6428644 -31.8700268 24.18706369 -29.81640625 19.09765625 C-28.54023438 19.03707031 -27.2640625 18.97648437 -25.94921875 18.9140625 C-24.27993609 18.82966057 -22.61066588 18.74501239 -20.94140625 18.66015625 C-20.09964844 18.62083984 -19.25789063 18.58152344 -18.390625 18.54101562 C-17.58496094 18.49912109 -16.77929688 18.45722656 -15.94921875 18.4140625 C-14.83377686 18.35907593 -14.83377686 18.35907593 -13.69580078 18.30297852 C-11.72776313 18.1980976 -11.72776313 18.1980976 -9.81640625 17.09765625 C-8.87914076 14.43477111 -8.03780561 11.80524931 -7.25390625 9.09765625 C-4.6078118 0.11790716 -4.6078118 0.11790716 0 0 Z " fill="#FEFDFD" transform="translate(279.81640625,199.90234375)"/>
<path d="M0 0 C0.89200527 0.00291284 1.78401053 0.00582568 2.70304626 0.00882679 C3.64311773 0.00797237 4.5831892 0.00711794 5.55174768 0.00623763 C8.72715366 0.00457995 11.90250775 0.01010888 15.07790893 0.01555592 C17.34403746 0.01583775 19.61016608 0.01568013 21.87629455 0.01511341 C28.04960011 0.0148253 34.22288642 0.02072428 40.39618748 0.02768737 C46.83977119 0.03391859 53.28335528 0.03452452 59.72694153 0.03571278 C70.5490126 0.03847249 81.37107574 0.04472804 92.19314331 0.05364186 C103.34190597 0.06281523 114.4906667 0.06989643 125.63943237 0.07414967 C126.32617863 0.07441239 127.01292489 0.07467512 127.72048164 0.0749458 C131.16554738 0.0762508 134.61061314 0.07751452 138.0556789 0.0787577 C166.65415816 0.08913121 195.25262995 0.10682442 223.85110229 0.12908131 C223.54077048 1.71261531 223.22865379 3.29579958 222.91579956 4.87883717 C222.6553762 6.20134732 222.6553762 6.20134732 222.38969177 7.55057484 C221.6719957 10.98655721 220.76235586 14.31861742 219.78860229 17.69158131 C219.44700073 18.88912037 219.10539917 20.08665943 218.75344604 21.32048756 C217.85110229 24.12908131 217.85110229 24.12908131 216.85110229 25.12908131 C213.89281261 25.22706432 210.95786117 25.25899746 207.99915832 25.24933583 C207.05908686 25.25019025 206.11901539 25.25104468 205.15045691 25.25192499 C201.97505092 25.25358267 198.79969683 25.24805374 195.62429565 25.2426067 C193.35816712 25.24232486 191.09203851 25.24248249 188.82591003 25.2430492 C182.65260448 25.24333732 176.47931816 25.23743834 170.3060171 25.23047525 C163.8624334 25.22424403 157.41884931 25.22363809 150.97526306 25.22244984 C140.15319199 25.21969013 129.33112884 25.21343458 118.50906128 25.20452076 C107.36029862 25.19534738 96.21153788 25.18826619 85.06277221 25.18401295 C84.37602596 25.18375023 83.6892797 25.1834875 82.98172294 25.18321682 C79.5366572 25.18191182 76.09159145 25.1806481 72.64652568 25.17940491 C44.04804642 25.16903141 15.44957463 25.15133819 -13.14889771 25.12908131 C-12.68506996 22.91635455 -12.21835845 20.70423216 -11.75046021 18.49236256 C-11.49087525 17.26042164 -11.23129029 16.02848072 -10.96383911 14.75920826 C-7.65474668 0.01897597 -7.65474668 0.01897597 0 0 Z M-3.14889771 3.12908131 C-7.33017109 12.8034606 -7.33017109 12.8034606 -9.14889771 22.12908131 C64.77110229 22.12908131 138.69110229 22.12908131 214.85110229 22.12908131 C218.2750504 12.76213818 218.2750504 12.76213818 219.85110229 3.12908131 C146.26110229 3.12908131 72.67110229 3.12908131 -3.14889771 3.12908131 Z " fill="#2E2A2A" transform="translate(193.1488977074623,276.8709186911583)"/>
<path d="M0 0 C4.3810913 3.04242451 5.58053028 7.03185599 7 12 C7 15.3 7 18.6 7 22 C-3.56 22 -14.12 22 -25 22 C-12.19354839 -3.61290323 -12.19354839 -3.61290323 0 0 Z " fill="#E63D38" transform="translate(309,163)"/>
<path d="M0 0 C0.33 0 0.66 0 1 0 C1 14.52 1 29.04 1 44 C-13.52 44 -28.04 44 -43 44 C-43 43.67 -43 43.34 -43 43 C-41.81857422 42.79697266 -41.81857422 42.79697266 -40.61328125 42.58984375 C-29.08792345 40.31205114 -17.17188179 35.8027731 -10 26 C-4.63210918 17.73479572 -1.66510932 9.68935041 0 0 Z " fill="#000000" transform="translate(511,379)"/>
<path d="M0 0 C0.33 0 0.66 0 1 0 C1.13535156 0.78761719 1.27070313 1.57523437 1.41015625 2.38671875 C3.68794886 13.91207655 8.1972269 25.82811821 18 33 C26.26520428 38.36789082 34.31064959 41.33489068 44 43 C44 43.33 44 43.66 44 44 C29.48 44 14.96 44 0 44 C0 29.48 0 14.96 0 0 Z " fill="#000000" transform="translate(0,379)"/>
<path d="M0 0 C12.54 0 25.08 0 38 0 C38 14.19 38 28.38 38 43 C37.67 43 37.34 43 37 43 C36.79697266 41.81857422 36.79697266 41.81857422 36.58984375 40.61328125 C34.31894748 29.12281808 29.81603232 17.12108527 20 10 C13.54760817 6.0223863 7.3258654 2.89621516 0 1 C0 0.67 0 0.34 0 0 Z " fill="#000000" transform="translate(474,0)"/>
<path d="M0 0 C12.54 0 25.08 0 38 0 C35.36083292 1.75944472 33.31373855 2.68645652 30.375 3.75 C18.70842805 8.36907943 10.44685978 15.80899466 5.06640625 27.19140625 C3.12113227 32.31467361 2.03534323 37.62968306 1 43 C0.67 43 0.34 43 0 43 C0 28.81 0 14.62 0 0 Z " fill="#000000" transform="translate(0,0)"/>
<path d="M0 0 C15.73125849 -0.71057127 28.57666791 2.16544841 40.6875 13.0625 C47.1973786 19.98888742 52.7168297 30.34549797 53.125 39.9375 C53.08375 40.618125 53.0425 41.29875 53 42 C51.14480056 39.21720084 49.92397988 36.60461973 48.5625 33.5625 C41.4390987 19.24636989 29.19892078 9.38877306 14.2734375 4 C9.57432375 2.56447122 4.86530772 1.65325775 0 1 C0 0.67 0 0.34 0 0 Z " fill="#848588" transform="translate(458,0)"/>
<path d="M0 0 C0 0.33 0 0.66 0 1 C-1.01578125 1.21914063 -2.0315625 1.43828125 -3.078125 1.6640625 C-20.96217423 5.70204434 -34.63275058 13.38037753 -45 29 C-46.47666532 31.62907773 -47.75044687 34.25098311 -49 37 C-50.6172243 32.14832709 -48.13655401 28.45439139 -46 24 C-39.55143907 12.11901501 -30.0285809 5.64615767 -17.75 0.6875 C-11.85765034 -0.39276411 -5.97262472 -0.14910852 0 0 Z " fill="#848588" transform="translate(52,0)"/>
<path d="M0 0 C1.6172243 4.85167291 -0.86344599 8.54560861 -3 13 C-9.32554681 24.65434079 -19.20752579 32.3478118 -31.8125 36.3125 C-34.67093555 36.92902531 -37.0913698 37.17628062 -40 37 C-37.14556816 35.09704544 -34.69200094 34.07620035 -31.5 32.875 C-15.68498698 26.32361176 -6.92914792 15.27562155 0 0 Z " fill="#868689" transform="translate(509,385)"/>
<path d="M0 0 C2.64151315 3.45669822 5.02691872 7.04127537 7.40234375 10.68359375 C10.84623416 15.67681383 14.32897728 19.25323366 19.375 22.625 C19.92671875 23.0065625 20.4784375 23.388125 21.046875 23.78125 C24.56535489 26.17645932 28.15674143 28.17706467 32 30 C29.10095061 31.23139234 28.03940466 31.01537616 25.046875 29.84765625 C12.8421116 23.23915284 5.60692269 15.80831402 0 3 C0 2.01 0 1.02 0 0 Z " fill="#87878A" transform="translate(3,389)"/>
</svg>
