<?xml version="1.0" encoding="UTF-8" standalone="no"?>
<svg
   version="1.1"
   width="512"
   height="420"
   id="svg34"
   sodipodi:docname="03_AttachPads.svg"
   inkscape:version="1.3.2 (091e20e, 2023-11-25)"
   xmlns:inkscape="http://www.inkscape.org/namespaces/inkscape"
   xmlns:sodipodi="http://sodipodi.sourceforge.net/DTD/sodipodi-0.dtd"
   xmlns="http://www.w3.org/2000/svg"
   xmlns:svg="http://www.w3.org/2000/svg">
  <defs
     id="defs34">
    <inkscape:path-effect
       effect="fillet_chamfer"
       id="path-effect35"
       is_visible="true"
       lpeversion="1"
       nodesatellites_param="F,0,0,1,0,57.671078,0,1 @ F,0,0,1,0,52.085748,0,1 @ F,0,0,1,0,61.285747,0,1 @ F,0,0,1,0,54.458864,0,1"
       radius="0"
       unit="px"
       method="auto"
       mode="F"
       chamfer_steps="1"
       flexible="false"
       use_knot_distance="true"
       apply_no_radius="true"
       apply_with_radius="true"
       only_selected="false"
       hide_knots="false" />
    <inkscape:path-effect
       effect="fillet_chamfer"
       id="path-effect34"
       is_visible="true"
       lpeversion="1"
       nodesatellites_param="F,0,0,1,0,51.2,0,1 @ F,0,0,1,0,46.746234,0,1 @ F,0,0,1,0,49.707182,0,1 @ F,0,0,1,0,47.339513,0,1 | F,0,0,1,0,0,0,1 @ F,0,0,1,0,0,0,1 @ F,0,0,1,0,0,0,1 @ F,0,0,1,0,0,0,1 @ F,0,0,1,0,0,0,1 @ F,0,0,1,0,0,0,1 @ F,0,0,1,0,0,0,1 @ F,0,0,1,0,0,0,1 @ F,0,0,1,0,0,0,1 @ F,0,0,1,0,0,0,1 @ F,0,0,1,0,0,0,1 @ F,0,0,1,0,0,0,1 @ F,0,0,1,0,0,0,1 @ F,0,0,1,0,0,0,1 @ F,0,0,1,0,0,0,1 @ F,0,0,1,0,0,0,1 @ F,0,0,1,0,0,0,1 @ F,0,0,1,0,0,0,1 @ F,0,0,1,0,0,0,1 @ F,0,0,1,0,0,0,1 @ F,0,0,1,0,0,0,1 @ F,0,0,1,0,0,0,1 @ F,0,0,1,0,0,0,1 @ F,0,0,1,0,0,0,1 @ F,0,0,1,0,0,0,1 @ F,0,0,1,0,0,0,1 @ F,0,0,1,0,0,0,1 @ F,0,0,1,0,0,0,1 @ F,0,0,1,0,0,0,1 @ F,0,0,1,0,0,0,1 @ F,0,0,1,0,0,0,1 @ F,0,0,1,0,0,0,1 @ F,0,0,1,0,0,0,1 @ F,0,0,1,0,0,0,1 @ F,0,0,1,0,0,0,1 @ F,0,0,1,0,0,0,1 @ F,0,0,1,0,0,0,1 @ F,0,0,1,0,0,0,1 @ F,0,0,1,0,0,0,1 @ F,0,0,1,0,0,0,1 @ F,0,0,1,0,0,0,1 @ F,0,0,1,0,0,0,1 @ F,0,0,1,0,0,0,1 @ F,0,0,1,0,0,0,1 @ F,0,0,1,0,0,0,1 @ F,0,0,1,0,0,0,1 @ F,0,0,1,0,0,0,1 @ F,0,0,1,0,0,0,1 @ F,0,0,1,0,0,0,1 @ F,0,0,1,0,0,0,1 @ F,0,0,1,0,0,0,1 @ F,0,0,1,0,0,0,1 @ F,0,0,1,0,0,0,1 @ F,0,0,1,0,0,0,1 @ F,0,0,1,0,0,0,1 @ F,0,0,1,0,0,0,1 @ F,0,0,1,0,0,0,1 @ F,0,0,1,0,0,0,1 @ F,0,0,1,0,0,0,1 @ F,0,0,1,0,0,0,1 @ F,0,0,1,0,0,0,1 @ F,0,0,1,0,0,0,1 @ F,0,0,1,0,0,0,1 @ F,0,0,1,0,0,0,1 @ F,0,0,1,0,0,0,1 @ F,0,0,1,0,0,0,1 @ F,0,0,1,0,0,0,1 @ F,0,0,1,0,0,0,1 @ F,0,0,1,0,0,0,1 @ F,0,0,1,0,0,0,1 @ F,0,0,1,0,0,0,1 @ F,0,0,1,0,0,0,1 @ F,0,0,1,0,0,0,1 @ F,0,0,1,0,0,0,1 @ F,0,0,1,0,0,0,1 @ F,0,0,1,0,0,0,1 @ F,0,0,1,0,0,0,1 @ F,0,0,1,0,0,0,1 @ F,0,0,1,0,0,0,1 @ F,0,0,1,0,0,0,1 @ F,0,0,1,0,0,0,1 @ F,0,0,1,0,0,0,1 @ F,0,0,1,0,0,0,1 @ F,0,0,1,0,0,0,1 @ F,0,0,1,0,0,0,1 @ F,0,0,1,0,0,0,1 @ F,0,0,1,0,0,0,1 @ F,0,0,1,0,0,0,1 @ F,0,0,1,0,0,0,1 @ F,0,0,1,0,0,0,1 @ F,0,0,1,0,0,0,1 @ F,0,0,1,0,0,0,1 @ F,0,0,1,0,0,0,1 @ F,0,0,1,0,0,0,1 @ F,0,0,1,0,0,0,1 @ F,0,0,1,0,0,0,1 @ F,0,0,1,0,0,0,1 @ F,0,0,1,0,0,0,1 @ F,0,0,1,0,0,0,1 @ F,0,0,1,0,0,0,1 @ F,0,0,1,0,0,0,1 @ F,0,0,1,0,0,0,1 @ F,0,0,1,0,0,0,1 @ F,0,0,1,0,0,0,1 @ F,0,0,1,0,0,0,1 @ F,0,0,1,0,0,0,1 @ F,0,0,1,0,0,0,1 @ F,0,0,1,0,0,0,1 @ F,0,0,1,0,0,0,1 @ F,0,0,1,0,0,0,1 @ F,0,0,1,0,0,0,1 @ F,0,0,1,0,0,0,1 @ F,0,0,1,0,0,0,1 @ F,0,0,1,0,0,0,1 @ F,0,0,1,0,0,0,1 @ F,0,0,1,0,0,0,1 @ F,0,0,1,0,0,0,1 @ F,0,0,1,0,0,0,1 @ F,0,0,1,0,0,0,1 @ F,0,0,1,0,0,0,1 @ F,0,0,1,0,0,0,1 @ F,0,0,1,0,0,0,1 @ F,0,0,1,0,0,0,1 @ F,0,0,1,0,0,0,1 @ F,0,0,1,0,0,0,1 @ F,0,0,1,0,0,0,1 @ F,0,0,1,0,0,0,1 @ F,0,0,1,0,0,0,1 @ F,0,0,1,0,0,0,1 @ F,0,0,1,0,0,0,1 @ F,0,0,1,0,0,0,1 @ F,0,0,1,0,0,0,1 @ F,0,0,1,0,0,0,1 @ F,0,0,1,0,0,0,1 @ F,0,0,1,0,0,0,1 @ F,0,0,1,0,0,0,1 @ F,0,0,1,0,0,0,1 @ F,0,0,1,0,0,0,1 @ F,0,0,1,0,0,0,1 @ F,0,0,1,0,0,0,1 @ F,0,0,1,0,0,0,1 @ F,0,0,1,0,0,0,1 @ F,0,0,1,0,0,0,1 @ F,0,0,1,0,0,0,1 @ F,0,0,1,0,0,0,1 @ F,0,0,1,0,0,0,1 @ F,0,0,1,0,0,0,1 @ F,0,0,1,0,0,0,1 @ F,0,0,1,0,0,0,1 @ F,0,0,1,0,0,0,1 @ F,0,0,1,0,0,0,1 @ F,0,0,1,0,0,0,1 @ F,0,0,1,0,0,0,1 @ F,0,0,1,0,0,0,1 @ F,0,0,1,0,0,0,1 @ F,0,0,1,0,0,0,1 @ F,0,0,1,0,0,0,1 @ F,0,0,1,0,0,0,1 @ F,0,0,1,0,0,0,1 @ F,0,0,1,0,0,0,1 @ F,0,0,1,0,0,0,1 @ F,0,0,1,0,0,0,1 @ F,0,0,1,0,0,0,1 @ F,0,0,1,0,0,0,1 @ F,0,0,1,0,0,0,1 @ F,0,0,1,0,0,0,1"
       radius="0"
       unit="px"
       method="auto"
       mode="F"
       chamfer_steps="1"
       flexible="false"
       use_knot_distance="true"
       apply_no_radius="true"
       apply_with_radius="true"
       only_selected="false"
       hide_knots="false" />
  </defs>
  <sodipodi:namedview
     id="namedview34"
     pagecolor="#ffffff"
     bordercolor="#000000"
     borderopacity="0.25"
     inkscape:showpageshadow="2"
     inkscape:pageopacity="0.0"
     inkscape:pagecheckerboard="true"
     inkscape:deskcolor="#d1d1d1"
     inkscape:zoom="1.6855469"
     inkscape:cx="256"
     inkscape:cy="210.02085"
     inkscape:window-width="1392"
     inkscape:window-height="1027"
     inkscape:window-x="1968"
     inkscape:window-y="25"
     inkscape:window-maximized="0"
     inkscape:current-layer="svg34" />
  <path
     d="M 57.661222,1.0634522 C 245.22937,4.0822885 333.41326,0.93266458 459.91706,0.16143339 488.68128,-0.01392784 512,23.319584 512,52.085748 V 358.71425 A 61.285747,61.285747 135 0 1 450.71425,420 H 54.458864 A 54.458864,54.458864 45 0 1 0,365.54114 V 57.671078 C 0,25.820221 25.814517,0.55089185 57.661222,1.0634522 Z"
     fill="#6c6f6f"
     id="path1"
     inkscape:path-effect="#path-effect35"
     inkscape:original-d="M 0,0 C 255.75839,5.281369 341.33333,0 512,0 V 420 H 0 Z"
     sodipodi:nodetypes="ccccc" />
  <path
     d="M0 0 C0.69838321 -0.00205263 1.39676643 -0.00410527 2.11631277 -0.0062201 C4.46203687 -0.01188518 6.80770216 -0.01043346 9.15343189 -0.00901413 C10.85003868 -0.01159805 12.54664486 -0.01461128 14.24325019 -0.01801753 C18.91009877 -0.02608765 23.57693196 -0.02787711 28.24378669 -0.028615 C33.27529779 -0.03046553 38.3068009 -0.03801286 43.33830738 -0.04475021 C54.34246293 -0.05833408 65.34661484 -0.06435832 76.35077739 -0.06876087 C83.22129408 -0.07152317 90.09180936 -0.07576049 96.9623251 -0.08026505 C115.98330281 -0.09245771 135.00427939 -0.10275708 154.02526093 -0.10614014 C155.24272554 -0.1063597 156.46019015 -0.10657927 157.71454762 -0.10680549 C158.9349311 -0.10702377 160.15531458 -0.10724204 161.41267937 -0.10746694 C163.88565584 -0.1079104 166.35863231 -0.10835697 168.83160877 -0.10880661 C170.67163278 -0.10913875 170.67163278 -0.10913875 172.548829 -0.10947761 C192.42634126 -0.11342579 212.30381687 -0.13088043 232.18131497 -0.15416613 C252.58728694 -0.17787805 272.99324051 -0.19034191 293.39922649 -0.19150805 C304.8572189 -0.1924249 316.31516355 -0.19817956 327.77314281 -0.21632767 C337.52972726 -0.23172646 347.28624919 -0.2368504 357.04284348 -0.22858956 C362.02024414 -0.22468232 366.99751889 -0.22561638 371.97490406 -0.23964691 C376.53412672 -0.25238111 381.09312878 -0.25119249 385.65235112 -0.2390562 C387.29907335 -0.23709838 388.94581118 -0.24018157 390.5925115 -0.24890056 C404.22490804 -0.31649446 415.00596264 1.38961059 425.97833729 10.13142776 C433.78329713 18.04097668 439.09169751 27.34341179 439.11255836 38.58765793 C439.11701621 39.70290832 439.12147405 40.81815871 439.12606698 41.96720457 C439.12579044 43.80510455 439.12579044 43.80510455 439.12550831 45.68013382 C439.129185 46.98182148 439.13286168 48.28350915 439.13664979 49.6246419 C439.14666215 53.2409423 439.15038536 56.8572261 439.1530391 60.4735384 C439.1569445 64.37285504 439.16652277 68.27215857 439.17525196 72.17146683 C439.19501118 81.59077496 439.20508254 91.01008416 439.21397975 100.42940784 C439.21836411 104.86691149 439.22373059 109.30441395 439.22896862 113.74191666 C439.24598144 128.49683001 439.26047462 143.25174262 439.26771736 158.00666428 C439.26962721 161.83536149 439.27154755 165.6640587 439.2735033 169.49275589 C439.27398704 170.44434289 439.27447078 171.39592988 439.27496918 172.37635285 C439.28326576 187.78422805 439.30859614 203.19202553 439.34108398 218.59986681 C439.3741786 234.4247466 439.39216835 250.24958694 439.3953616 266.07450151 C439.39752463 274.95712764 439.40624271 283.83964046 439.43182278 292.72223282 C439.45356273 300.288792 439.46156407 307.85521035 439.45185599 315.42179722 C439.44732062 319.27952937 439.44915264 323.13697117 439.46861744 326.99466324 C439.48958011 331.18559573 439.47923384 335.37588833 439.46608448 339.56685257 C439.48253835 341.37798389 439.48253835 341.37798389 439.49932462 343.22570372 C439.40458086 355.76980155 435.86988131 366.92533194 427.09552479 376.10017776 C417.47813538 385.00097738 406.16108231 388.61750981 393.22614002 388.47200394 C392.1909473 388.47244202 391.15575459 388.4728801 390.08919239 388.47333145 C386.69657435 388.47125567 383.30446185 388.44798156 379.91193104 388.42439651 C377.54825072 388.41879627 375.1845669 388.41452819 372.82088184 388.41153336 C366.62141656 388.40011843 360.42216453 388.37068001 354.22278309 388.33742142 C347.88807528 388.30664822 341.55333278 388.29301254 335.21857166 388.27791214 C322.80506688 388.24580718 310.39171987 388.19465139 297.97833729 388.13142776 C297.97198938 387.19690482 297.97198938 387.19690482 297.96551323 386.24350262 C297.86148794 370.97202453 297.75275441 355.70058749 297.63899803 340.42917919 C297.58409231 333.04356576 297.53068845 325.65794759 297.48102283 318.27229691 C297.43765003 311.82303354 297.39125311 305.37379963 297.34145874 298.92458254 C297.3152763 295.52063512 297.29044858 292.11669192 297.26926327 288.71270943 C297.18701492 275.90908018 297.0640345 263.11223832 296.5601244 250.31721878 C296.52732915 249.40548621 296.4945339 248.49375364 296.46074486 247.55439281 C295.74375005 231.52218526 290.66592596 214.94655381 279.32989979 203.15095901 C271.30095019 196.25566509 261.47581388 191.64914636 251.97833729 187.13142776 C258.92512031 172.76888058 269.67775452 157.85565558 283.97833729 150.13142776 C284.63833729 150.13142776 285.29833729 150.13142776 285.97833729 150.13142776 C287.05646229 151.65340042 287.05646229 151.65340042 288.22833729 153.79549026 C288.66677967 154.58117386 289.10522205 155.36685745 289.55695057 156.17634964 C290.02600819 157.02777542 290.4950658 157.8792012 290.97833729 158.75642776 C298.18418821 171.50871558 306.48549415 182.96134276 315.97833729 194.13142776 C316.6344701 194.92291214 317.29060291 195.71439651 317.96661854 196.52986526 C322.75876601 202.15751741 328.07745811 206.69367642 333.97833729 211.13142776 C338.71351413 209.33794395 343.23110049 207.13472628 347.79083729 204.94392776 C353.22431579 202.34311036 358.66453286 199.8014928 364.21393299 197.4573555 C382.34686993 189.78459432 397.84174977 179.8007847 411.51739979 165.55720901 C415.04739962 162.07763775 418.90749188 159.06976692 422.82599354 156.04158401 C425.22086353 154.23659593 425.22086353 154.23659593 425.97833729 151.13142776 C420.66299113 119.61602886 398.62017961 87.44485588 377.20880604 64.53767776 C375.38290793 62.56788226 373.62979539 60.56671047 371.88068104 58.52986526 C367.25398238 53.22700915 362.31407426 48.24495598 357.35333729 43.25642776 C356.41580844 42.29812265 355.47830828 41.33978948 354.54083729 40.38142776 C353.19118885 39.02404495 353.19118885 39.02404495 351.81427479 37.63924026 C351.00522694 36.82084671 350.19617908 36.00245316 349.36261463 35.1592598 C346.87629056 33.04463685 345.1642807 31.85158958 341.97833729 31.13142776 C339.55736905 31.95550639 339.55736905 31.95550639 337.27521229 33.61189651 C336.38664539 34.19310257 335.4980785 34.77430862 334.58258533 35.37312698 C333.16973255 36.33629837 333.16973255 36.33629837 331.72833729 37.31892776 C330.74325184 37.9687764 329.75816639 38.61862503 328.74322987 39.28816605 C326.74144425 40.60970489 324.74440238 41.93845842 322.75226307 43.27449417 C319.08488247 45.72952822 315.37739178 48.11901285 311.66583729 50.50642776 C310.30369209 51.39028652 308.94171926 52.27441096 307.57989979 53.15877151 C304.06311307 55.43642197 300.5343859 57.69480821 297.00177479 59.94783401 C295.94458241 60.62217484 294.88739002 61.29651566 293.79816151 61.99129105 C291.63848395 63.36880986 289.47865488 64.74609118 287.31866932 66.12312698 C279.89928775 70.8664795 272.54817052 75.70096858 265.28326893 80.67805862 C260.19080726 84.13142776 260.19080726 84.13142776 257.97833729 84.13142776 C264.85918377 103.68180129 271.82894696 123.326702 281.85333729 141.53767776 C282.97833729 144.13142776 282.97833729 144.13142776 282.97833729 146.27986526 C281.5189522 148.98200797 279.53798358 150.08554755 276.97833729 151.75642776 C266.62167441 159.02214862 259.88049657 168.73199848 252.97833729 179.13142776 C252.22465764 180.26178722 251.47075926 181.39200087 250.71661854 182.52205276 C250.14298573 183.38314651 249.56935291 184.24424026 248.97833729 185.13142776 C244.41379478 184.58802985 241.00551969 183.33678956 236.97833729 181.13142776 C237.14333729 180.63642776 237.30833729 180.14142776 237.47833729 179.63142776 C238.33990865 175.32357098 238.97949692 171.44063515 237.20099354 167.33845901 C231.54511076 159.44190702 219.76646137 155.50620446 210.97833729 152.13142776 C210.75706905 142.65838114 211.93999343 137.07421239 217.97052479 129.72517776 C224.77463237 120.93543568 226.21495139 108.93707958 224.97833729 98.13142776 C223.20374709 94.42598707 223.20374709 94.42598707 219.97833729 92.13142776 C219.99404774 91.07342972 220.00975819 90.01543167 220.02594471 88.92537308 C220.08085238 84.94449561 220.11490512 80.96365053 220.14313221 76.98250198 C220.15808189 75.26987934 220.17844915 73.55729405 220.20465565 71.84480667 C220.4231688 57.18300256 220.08850032 42.5951816 209.26739979 31.35408401 C203.61872357 26.67068791 196.83267731 24.48711474 189.97833729 22.13142776 C188.98060291 21.73568558 187.98286854 21.33994339 186.95489979 20.93220901 C170.97922828 15.0799386 153.01718849 17.14936349 137.53302479 23.55720901 C128.86059836 27.6803405 122.09620696 32.20244436 117.97833729 41.13142776 C116.81695264 44.68389846 115.81021923 48.2441217 114.87286854 51.86189651 C113.97833729 55.13142776 113.97833729 55.13142776 112.88068104 57.60799026 C110.12770418 65.30679136 111.73744024 75.26275518 113.51739979 83.05330276 C114.14544705 85.88483787 114.38020228 88.25139534 113.97833729 91.13142776 C112.04083729 93.81892776 112.04083729 93.81892776 109.97833729 96.13142776 C107.60565668 103.24946959 108.0927742 111.04976538 111.10333729 117.88142776 C113.26199753 122.09508377 115.78497867 125.98252199 118.49005604 129.86189651 C122.46958743 135.93042077 126.14759238 142.45282639 126.04083729 149.81892776 C126.03181385 150.62716995 126.02279041 151.43541214 126.01349354 152.26814651 C125.99609119 153.19047073 125.99609119 153.19047073 125.97833729 154.13142776 C125.42597401 154.27129105 124.87361073 154.41115433 124.30450916 154.55525589 C114.57306788 157.06269436 105.01740907 159.66800836 95.97833729 164.13142776 C95.33960682 164.43886917 94.70087635 164.74631058 94.04279041 165.06306839 C89.48213917 167.4342143 86.7660248 169.89414274 83.97833729 174.13142776 C83.75470021 177.06871208 83.75470021 177.06871208 84.16583729 180.00642776 C84.05646229 183.16267776 84.05646229 183.16267776 82.97833729 186.13142776 C78.93664572 189.52192801 73.70739295 191.27393297 68.88507557 193.27742386 C65.12119329 194.96321902 62.09665364 197.48278375 58.97833729 200.13142776 C58.00896229 200.85330276 57.03958729 201.57517776 56.04083729 202.31892776 C41.26293737 214.97425669 32.95953167 232.93583254 31.15021229 252.03767776 C30.98755224 254.56760734 30.84846712 257.09912234 30.72833729 259.63142776 C30.69130695 260.32943497 30.65427662 261.02744217 30.61612415 261.7466011 C29.74213281 278.56683805 29.79739013 295.41808486 29.79083729 312.25642776 C29.79024815 312.92995285 29.789659 313.60347794 29.78905201 314.29741287 C29.77835955 328.58016938 29.87784722 342.85023969 30.42755604 357.12361526 C30.46605167 358.13852036 30.50454731 359.15342545 30.54420948 360.19908524 C30.76315067 365.24572391 31.25469951 370.1288065 31.97833729 375.13142776 C32.04233806 377.44313583 32.06467719 379.75645681 32.04083729 382.06892776 C32.03181385 383.2123262 32.02279041 384.35572464 32.01349354 385.53377151 C32.00189198 386.39099808 31.99029041 387.24822464 31.97833729 388.13142776 C26.78633514 388.23136266 21.5949101 388.30339178 16.40216541 388.35115433 C14.64099832 388.3710945 12.87989589 388.39825688 11.11896229 388.43318558 C-4.52926399 388.73548086 -16.97316756 387.14349323 -29.02166271 376.13142776 C-38.81007906 365.4217487 -41.6355211 353.88237226 -41.52959728 339.65192032 C-41.53583724 338.34677524 -41.54207721 337.04163016 -41.54850626 335.69693524 C-41.56507046 332.10803904 -41.55701294 328.51957303 -41.54456139 324.9306761 C-41.53545981 321.04717638 -41.54950571 317.16374737 -41.56048107 313.28026199 C-41.57821622 305.68614057 -41.57444887 298.09217777 -41.56283051 290.49805027 C-41.55377735 284.3237418 -41.55258031 278.14947762 -41.55692577 271.97516441 C-41.55753871 271.09462601 -41.55815164 270.2140876 -41.55878314 269.30686622 C-41.56006211 267.51778466 -41.56135897 265.72870311 -41.56267351 263.93962158 C-41.57406447 247.18547309 -41.56098859 230.43141232 -41.53947204 213.67727823 C-41.52159929 199.31600359 -41.5247095 184.95485828 -41.54314709 170.59358597 C-41.56457468 153.89565897 -41.57296925 137.19780871 -41.56069803 120.49986988 C-41.5594239 118.71787172 -41.55816642 116.93587354 -41.55692577 115.15387535 C-41.55630867 114.27721186 -41.55569157 113.40054837 -41.55505577 112.49731932 C-41.55160876 106.33325228 -41.55741711 100.16923411 -41.56684399 94.00517464 C-41.57808623 86.48926146 -41.57497717 78.9735153 -41.55372101 71.45762115 C-41.54324089 67.62630245 -41.53903652 63.79526175 -41.55231762 59.96394539 C-41.56652037 55.8037076 -41.54951127 51.64416591 -41.52959728 47.48395157 C-41.53852017 46.28296575 -41.54744306 45.08197994 -41.55663633 43.84460062 C-41.43398328 30.60797741 -36.69241249 20.22411669 -27.89666271 10.44392776 C-20.10790555 2.98549736 -10.52600979 0.01054512 0 0 Z "
     fill="#FEFEFE"
     transform="translate(57.02166271209717,16.868572235107422)"
     id="path2" />
  <path
     d="M 51.2,0 H 465.25377 A 46.746234,46.746234 45 0 1 512,46.746234 V 370.29282 c 0,27.45252 -22.24101,48.87155 -49.68876,48.38407 -113.52591,-2.01622 -274.96459,0.64847 -414.972891,1.21948 C 21.194256,420.003 0,398.80538 0,372.66049 V 51.2 A 51.2,51.2 135 0 1 51.2,0 Z M 31,26 29.128906,27.453125 C 22.750462,33.078657 17.654694,42.614575 16,51 c -0.0931,1.809858 -0.132614,3.622781 -0.137014,5.435026 l -0.01538,3.365254 -0.0015,3.697004 -0.01328,3.927857 c -0.01196,3.601036 -0.01761,7.202057 -0.02218,10.803109 -0.006,3.882996 -0.01757,7.765977 -0.02829,11.648963 -0.02452,9.380753 -0.03915,18.761507 -0.05206,28.142287 -0.0037,2.6508 -0.0077,5.3016 -0.01175,7.9524 -0.02524,16.46952 -0.04729,32.93903 -0.05973,49.40856 -0.0029,3.81459 -0.0059,7.62917 -0.0089,11.44376 l -0.0023,2.87294 c -0.01264,15.34512 -0.04585,30.69011 -0.08754,46.03517 -0.04247,15.76387 -0.06599,31.52767 -0.07121,47.2916 -0.0034,8.84695 -0.01509,17.69372 -0.0481,26.54061 -0.02808,7.53761 -0.03897,15.075 -0.0278,22.61266 0.0052,3.84184 0.0024,7.68322 -0.02247,11.525 -0.02684,4.17721 -0.01437,8.35342 0.0015,12.53068 l -0.04207,3.62941 C 15.471914,372.97689 19.551201,384.71726 29,394 c 13.669252,11.96348 28.059123,11.5353 45.25,11.25 2.113264,-0.0201 4.226547,-0.0383 6.339844,-0.0547 C 85.727025,405.15159 90.863305,405.08275 96,405 c 0.0273,-2.18743 0.04653,-4.37496 0.0625,-6.5625 l 0.03516,-3.69141 C 96.001985,391.07615 95.544872,387.62705 95,384 93.588568,367.06616 93.80019,350.04162 93.8125,333.0625 l 3.62e-4,-2.20741 c 0.0037,-17.75231 0.02937,-35.49904 0.999638,-53.23009 l 0.105865,-2.10471 c 1.15331,-21.87579 9.154475,-37.50519 24.378515,-52.83279 5.81654,-5.13461 12.38322,-8.0231 19.54711,-10.81177 4.75948,-1.92022 6.69216,-3.20948 9.15601,-7.87573 2.7391,-0.93881 5.21342,-0.73575 8,0 2.0625,2.3125 2.0625,2.3125 3,5 -1.31147,3.93442 -3.81474,5.20866 -7.0625,7.5 -9.12883,6.73881 -14.83121,14.94427 -18.9375,25.5 l -1,2 c -0.22511,2.26537 -0.39352,4.53647 -0.53516,6.80859 l -0.13023,2.06472 c -0.0903,1.44827 -0.17841,2.89667 -0.26454,4.3452 -0.13021,2.17952 -0.26851,4.3584 -0.40796,6.53735 C 128.54822,278.70238 128.54822,278.70238 133,292 l 2,1 -0.18359,2.28125 C 134.53462,298.85347 134.26574,302.42656 134,306 l -0.26901,3.59274 c -0.70426,10.21188 -0.87849,20.36888 -0.8638,30.60257 -6.8e-4,1.68912 -0.002,3.37824 -0.003,5.06735 -0.001,3.50426 6.2e-4,7.00848 0.005,10.51273 0.006,4.48074 0.002,8.96142 -0.004,13.44216 -0.004,3.47273 -0.002,6.94545 1.2e-4,10.41819 6.7e-4,1.65294 -1.4e-4,3.30589 -0.002,4.95884 -0.003,2.3033 10e-4,4.60651 0.007,6.90981 l 0.002,3.95853 c 0.11752,3.27361 0.50295,6.32562 1.12698,9.53708 h 3 l -0.007,-2.9655 c -0.0203,-9.22546 -0.0353,-18.45092 -0.0451,-27.6764 -0.005,-4.74283 -0.0123,-9.48564 -0.0236,-14.22846 -0.0109,-4.57763 -0.0169,-9.15524 -0.0194,-13.73288 -0.002,-1.74588 -0.005,-3.49176 -0.0109,-5.23763 -0.007,-2.44654 -0.008,-4.893 -0.008,-7.33955 l -0.0109,-2.18404 c 0.008,-3.68233 0.29163,-7.05077 1.12442,-10.63554 0.20765,-2.12886 0.38348,-4.26095 0.53516,-6.39453 l 0.26367,-3.64258 0.26367,-3.77539 0.27539,-3.83398 c 0.22472,-3.11765 0.44532,-6.23548 0.6633,-9.35352 6.92322,-0.12659 13.84615,-0.21426 20.77026,-0.27466 2.35624,-0.0252 4.71239,-0.0593 7.06836,-0.10254 3.38342,-0.0605 6.7658,-0.089 10.14966,-0.11108 l 3.20101,-0.0782 2.97209,-10e-4 2.61763,-0.0336 C 189,294 189,294 190.7851,296.16469 c 1.36593,3.18778 1.55499,5.31123 1.492,8.76793 l -0.0398,3.55096 -0.0849,3.81329 c -0.021,1.9918 -0.0419,3.98359 -0.0615,5.9754 -0.0535,4.89655 -0.14116,9.79261 -0.22777,14.68867 -0.0475,2.74992 -0.084,5.4996 -0.10948,8.24981 -0.0252,2.58354 -0.0677,5.16697 -0.1298,7.74988 -0.0603,7.14934 0.47606,12.90261 4.37624,19.03937 3.51503,3.40852 6.88876,4.14007 11.6875,4.125 l 2.44922,0.008 c 2.96615,-0.091 2.96615,-0.091 6.28515,-0.6289 6.34986,-0.82834 12.74814,-0.69815 19.14063,-0.69141 l 2.13681,-0.002 c 12.22894,10e-4 24.40507,0.51097 36.61319,1.1897 15.39914,0.89265 15.39914,0.89265 30.8125,1.4375 l 2.30981,0.10352 c 3.91322,0.0332 5.42139,-0.4231 8.49488,-2.94336 3.17481,-3.9835 3.51336,-7.34726 4.07031,-12.28516 l 0.26318,-2.30371 C 321.07504,348.68231 321.6554,341.3649 322,334 l 0.19922,-3.68359 0.11328,-3.50391 0.11328,-3.10547 c -0.23932,-2.79041 -0.23932,-2.79041 -2.00781,-5.00781 C 317.31701,316.52003 314.73511,316.28732 311,316 l 0.0703,-3.37109 c 0.1677,-12.32938 -0.18418,-24.63851 -0.70709,-36.9556 -0.0748,-1.80679 -0.14369,-3.61383 -0.20642,-5.42108 -0.5068,-14.27616 -1.595,-26.5323 -10.66852,-38.22879 C 298,230 298,230 297,227 c 1.23184,-2.6122 2.50723,-5.06366 3.9375,-7.5625 2.87674,-4.4662 2.87674,-4.4662 4.0625,-9.4375 17.44622,8.33349 31.00847,15.92753 38,35 2.75406,7.96381 3.26363,15.78679 3.55835,24.14038 l 0.12331,3.30341 c 0.45901,13.2253 0.54811,26.45317 0.63475,39.68512 0.0202,2.69954 0.0416,5.39908 0.063,8.09861 0.0492,6.30319 0.0944,12.6064 0.13802,18.90963 0.05,7.19515 0.10467,14.39026 0.15968,21.58537 0.11274,14.75912 0.2198,29.51829 0.32292,44.27748 14.49148,0.11729 28.98288,0.20487 43.47474,0.25906 6.73026,0.0257 13.46023,0.0606 20.1903,0.11814 6.5034,0.0546 13.0065,0.0843 19.51011,0.0972 2.47255,0.009 4.94508,0.0271 7.41749,0.0543 23.30745,0.29556 23.30745,0.29556 43.44642,-10.58724 7.45491,-7.38066 13.54217,-16.69624 14.08974,-27.4774 l 0.005,-2.92303 0.0135,-3.38142 -5.6e-4,-3.715 0.0111,-3.94664 c 0.01,-3.61823 0.0137,-7.23645 0.0164,-10.85469 0.004,-3.90134 0.0135,-7.80267 0.0222,-11.70401 0.0198,-9.42375 0.0298,-18.8475 0.0387,-28.27127 0.004,-4.43913 0.01,-8.87825 0.015,-13.31738 0.017,-14.7592 0.0315,-29.51841 0.0387,-44.27762 l 0.006,-11.48921 10e-4,-2.88439 c 0.008,-15.41502 0.0336,-30.82996 0.0661,-46.24494 0.0331,-15.83053 0.0511,-31.66101 0.0543,-47.49157 0.002,-8.88651 0.0109,-17.7729 0.0365,-26.65938 0.0217,-7.56914 0.0297,-15.138154 0.02,-22.707331 -0.005,-3.859633 -0.003,-7.718976 0.0168,-11.57857 0.0209,-4.191283 0.0106,-8.381924 -0.003,-12.573238 l 0.0332,-3.667678 C 496.42599,47.22056 492.43599,37.334668 484,28 478.53655,23.247669 472.88952,20.138126 466,18 l -1.7954,-0.562098 c -3.05625,-0.607066 -5.98721,-0.566209 -9.10321,-0.56933 l -2.11282,-0.0062 c -2.34782,-0.0057 -4.69558,-0.0042 -7.04341,-0.0028 -1.69574,-0.0026 -3.39149,-0.0056 -5.08723,-0.009 -4.66911,-0.0081 -9.3382,-0.0099 -14.00731,-0.0106 -5.03221,-0.0018 -10.06442,-0.0094 -15.09662,-0.01613 -11.00835,-0.01359 -22.01669,-0.01961 -33.02505,-0.02401 -6.87269,-0.0028 -13.74537,-0.007 -20.61806,-0.0115 -19.02523,-0.01219 -38.05045,-0.02249 -57.07568,-0.02587 l -3.69091,-6.65e-4 -3.69979,-6.62e-4 c -2.47412,-4.43e-4 -4.94823,-8.9e-4 -7.42234,-0.0013 l -3.71894,-6.71e-4 c -19.88404,-0.0039 -39.76804,-0.0214 -59.65207,-0.04469 -20.41046,-0.02371 -40.8209,-0.03618 -61.23138,-0.03734 -11.46136,-9.17e-4 -22.92267,-0.0067 -34.38402,-0.02482 -9.76027,-0.0154 -19.52047,-0.02052 -29.280753,-0.01226 -4.979419,0.0039 -9.958712,0.003 -14.938116,-0.01106 -4.561112,-0.01273 -9.122005,-0.01154 -13.683118,5.91e-4 -1.647425,0.002 -3.294865,-0.0011 -4.942268,-0.0098 C 51.511554,16.555836 41.391219,17.842408 31,26 Z"
     fill="#c0b1c8"
     id="path3"
     inkscape:path-effect="#path-effect34"
     inkscape:original-d="m 0,0 h 512 v 420 c -123.08661,-4.6484 -341.33333,0 -512,0 z m 31,26 -1.871094,1.453125 C 22.750462,33.078657 17.654694,42.614575 16,51 c -0.0931,1.809858 -0.132614,3.622781 -0.137014,5.435026 l -0.01538,3.365254 -0.0015,3.697004 -0.01328,3.927857 c -0.01196,3.601036 -0.01761,7.202057 -0.02218,10.803109 -0.006,3.882996 -0.01757,7.765977 -0.02829,11.648963 -0.02452,9.380753 -0.03915,18.761507 -0.05206,28.142287 -0.0037,2.6508 -0.0077,5.3016 -0.01175,7.9524 -0.02524,16.46952 -0.04729,32.93903 -0.05973,49.40856 -0.0029,3.81459 -0.0059,7.62917 -0.0089,11.44376 l -0.0023,2.87294 c -0.01264,15.34512 -0.04585,30.69011 -0.08754,46.03517 -0.04247,15.76387 -0.06599,31.52767 -0.07121,47.2916 -0.0034,8.84695 -0.01509,17.69372 -0.0481,26.54061 -0.02808,7.53761 -0.03897,15.075 -0.0278,22.61266 0.0052,3.84184 0.0024,7.68322 -0.02247,11.525 -0.02684,4.17721 -0.01437,8.35342 0.0015,12.53068 l -0.04207,3.62941 C 15.471914,372.97689 19.551201,384.71726 29,394 c 13.669252,11.96348 28.059123,11.5353 45.25,11.25 2.113264,-0.0201 4.226547,-0.0383 6.339844,-0.0547 C 85.727025,405.15159 90.863305,405.08275 96,405 c 0.0273,-2.18743 0.04653,-4.37496 0.0625,-6.5625 l 0.03516,-3.69141 C 96.001985,391.07615 95.544872,387.62705 95,384 93.588568,367.06616 93.80019,350.04162 93.8125,333.0625 l 3.62e-4,-2.20741 c 0.0037,-17.75231 0.02937,-35.49904 0.999638,-53.23009 l 0.105865,-2.10471 c 1.15331,-21.87579 9.154475,-37.50519 24.378515,-52.83279 5.81654,-5.13461 12.38322,-8.0231 19.54711,-10.81177 4.75948,-1.92022 6.69216,-3.20948 9.15601,-7.87573 2.7391,-0.93881 5.21342,-0.73575 8,0 2.0625,2.3125 2.0625,2.3125 3,5 -1.31147,3.93442 -3.81474,5.20866 -7.0625,7.5 -9.12883,6.73881 -14.83121,14.94427 -18.9375,25.5 l -1,2 c -0.22511,2.26537 -0.39352,4.53647 -0.53516,6.80859 l -0.13023,2.06472 c -0.0903,1.44827 -0.17841,2.89667 -0.26454,4.3452 -0.13021,2.17952 -0.26851,4.3584 -0.40796,6.53735 C 128.54822,278.70238 128.54822,278.70238 133,292 l 2,1 -0.18359,2.28125 C 134.53462,298.85347 134.26574,302.42656 134,306 l -0.26901,3.59274 c -0.70426,10.21188 -0.87849,20.36888 -0.8638,30.60257 -6.8e-4,1.68912 -0.002,3.37824 -0.003,5.06735 -0.001,3.50426 6.2e-4,7.00848 0.005,10.51273 0.006,4.48074 0.002,8.96142 -0.004,13.44216 -0.004,3.47273 -0.002,6.94545 1.2e-4,10.41819 6.7e-4,1.65294 -1.4e-4,3.30589 -0.002,4.95884 -0.003,2.3033 0.001,4.60651 0.007,6.90981 l 0.002,3.95853 c 0.11752,3.27361 0.50295,6.32562 1.12698,9.53708 h 3 l -0.007,-2.9655 c -0.0203,-9.22546 -0.0353,-18.45092 -0.0451,-27.6764 -0.005,-4.74283 -0.0123,-9.48564 -0.0236,-14.22846 -0.0109,-4.57763 -0.0169,-9.15524 -0.0194,-13.73288 -0.002,-1.74588 -0.005,-3.49176 -0.0109,-5.23763 -0.007,-2.44654 -0.008,-4.893 -0.008,-7.33955 l -0.0109,-2.18404 c 0.008,-3.68233 0.29163,-7.05077 1.12442,-10.63554 0.20765,-2.12886 0.38348,-4.26095 0.53516,-6.39453 l 0.26367,-3.64258 0.26367,-3.77539 0.27539,-3.83398 C 139.56142,300.23587 139.78202,297.11804 140,294 c 6.92322,-0.12659 13.84615,-0.21426 20.77026,-0.27466 2.35624,-0.0252 4.71239,-0.0593 7.06836,-0.10254 3.38342,-0.0605 6.7658,-0.089 10.14966,-0.11108 l 3.20101,-0.0782 2.97209,-0.001 2.61763,-0.0336 C 189,294 189,294 190.7851,296.16469 c 1.36593,3.18778 1.55499,5.31123 1.492,8.76793 l -0.0398,3.55096 -0.0849,3.81329 c -0.021,1.9918 -0.0419,3.98359 -0.0615,5.9754 -0.0535,4.89655 -0.14116,9.79261 -0.22777,14.68867 -0.0475,2.74992 -0.084,5.4996 -0.10948,8.24981 -0.0252,2.58354 -0.0677,5.16697 -0.1298,7.74988 -0.0603,7.14934 0.47606,12.90261 4.37624,19.03937 3.51503,3.40852 6.88876,4.14007 11.6875,4.125 l 2.44922,0.008 c 2.96615,-0.091 2.96615,-0.091 6.28515,-0.6289 6.34986,-0.82834 12.74814,-0.69815 19.14063,-0.69141 l 2.13681,-0.002 c 12.22894,0.001 24.40507,0.51097 36.61319,1.1897 15.39914,0.89265 15.39914,0.89265 30.8125,1.4375 l 2.30981,0.10352 c 3.91322,0.0332 5.42139,-0.4231 8.49488,-2.94336 3.17481,-3.9835 3.51336,-7.34726 4.07031,-12.28516 l 0.26318,-2.30371 C 321.07504,348.68231 321.6554,341.3649 322,334 l 0.19922,-3.68359 0.11328,-3.50391 0.11328,-3.10547 c -0.23932,-2.79041 -0.23932,-2.79041 -2.00781,-5.00781 C 317.31701,316.52003 314.73511,316.28732 311,316 l 0.0703,-3.37109 c 0.1677,-12.32938 -0.18418,-24.63851 -0.70709,-36.9556 -0.0748,-1.80679 -0.14369,-3.61383 -0.20642,-5.42108 -0.5068,-14.27616 -1.595,-26.5323 -10.66852,-38.22879 C 298,230 298,230 297,227 c 1.23184,-2.6122 2.50723,-5.06366 3.9375,-7.5625 2.87674,-4.4662 2.87674,-4.4662 4.0625,-9.4375 17.44622,8.33349 31.00847,15.92753 38,35 2.75406,7.96381 3.26363,15.78679 3.55835,24.14038 l 0.12331,3.30341 c 0.45901,13.2253 0.54811,26.45317 0.63475,39.68512 0.0202,2.69954 0.0416,5.39908 0.063,8.09861 0.0492,6.30319 0.0944,12.6064 0.13802,18.90963 0.05,7.19515 0.10467,14.39026 0.15968,21.58537 0.11274,14.75912 0.2198,29.51829 0.32292,44.27748 14.49148,0.11729 28.98288,0.20487 43.47474,0.25906 6.73026,0.0257 13.46023,0.0606 20.1903,0.11814 6.5034,0.0546 13.0065,0.0843 19.51011,0.0972 2.47255,0.009 4.94508,0.0271 7.41749,0.0543 23.30745,0.29556 23.30745,0.29556 43.44642,-10.58724 7.45491,-7.38066 13.54217,-16.69624 14.08974,-27.4774 l 0.005,-2.92303 0.0135,-3.38142 -5.6e-4,-3.715 0.0111,-3.94664 c 0.01,-3.61823 0.0137,-7.23645 0.0164,-10.85469 0.004,-3.90134 0.0135,-7.80267 0.0222,-11.70401 0.0198,-9.42375 0.0298,-18.8475 0.0387,-28.27127 0.004,-4.43913 0.01,-8.87825 0.015,-13.31738 0.017,-14.7592 0.0315,-29.51841 0.0387,-44.27762 0.002,-3.82974 0.004,-7.65947 0.006,-11.48921 l 0.001,-2.88439 c 0.008,-15.41502 0.0336,-30.82996 0.0661,-46.24494 0.0331,-15.83053 0.0511,-31.66101 0.0543,-47.49157 0.002,-8.88651 0.0109,-17.7729 0.0365,-26.65938 0.0217,-7.56914 0.0297,-15.138154 0.02,-22.707331 -0.005,-3.859633 -0.003,-7.718976 0.0168,-11.57857 0.0209,-4.191283 0.0106,-8.381924 -0.003,-12.573238 l 0.0332,-3.667678 C 496.42599,47.22056 492.43599,37.334668 484,28 478.53655,23.247669 472.88952,20.138126 466,18 l -1.7954,-0.562098 c -3.05625,-0.607066 -5.98721,-0.566209 -9.10321,-0.56933 l -2.11282,-0.0062 c -2.34782,-0.0057 -4.69558,-0.0042 -7.04341,-0.0028 -1.69574,-0.0026 -3.39149,-0.0056 -5.08723,-0.009 -4.66911,-0.0081 -9.3382,-0.0099 -14.00731,-0.0106 -5.03221,-0.0018 -10.06442,-0.0094 -15.09662,-0.01613 -11.00835,-0.01359 -22.01669,-0.01961 -33.02505,-0.02401 -6.87269,-0.0028 -13.74537,-0.007 -20.61806,-0.0115 -19.02523,-0.01219 -38.05045,-0.02249 -57.07568,-0.02587 l -3.69091,-6.65e-4 -3.69979,-6.62e-4 c -2.47412,-4.43e-4 -4.94823,-8.9e-4 -7.42234,-0.0013 l -3.71894,-6.71e-4 c -19.88404,-0.0039 -39.76804,-0.0214 -59.65207,-0.04469 -20.41046,-0.02371 -40.8209,-0.03618 -61.23138,-0.03734 -11.46136,-9.17e-4 -22.92267,-0.0067 -34.38402,-0.02482 -9.76027,-0.0154 -19.52047,-0.02052 -29.280753,-0.01226 -4.979419,0.0039 -9.958712,0.003 -14.938116,-0.01106 -4.561112,-0.01273 -9.122005,-0.01154 -13.683118,5.91e-4 -1.647425,0.002 -3.294865,-0.0011 -4.942268,-0.0098 C 51.511554,16.555836 41.391219,17.842408 31,26 Z"
     sodipodi:nodetypes="cccccccccccccccscscccsccccccccccccccccccccccccccccccccccccccccccccscccccccccccccccccccccccccccccccccccccccccccccccccccccccccccccccccccccccsssccscccccccccccccscscssccccccccc" />
  <path
     d="M0 0 C14.85300856 4.45909676 27.25251964 12.11949214 34.88232422 25.95751953 C40.56902696 36.91598975 42.11904665 47.20272526 42.56201172 59.36669922 C42.60355818 60.46413389 42.64510464 61.56156857 42.68791008 62.69225883 C43.10445841 74.5683338 43.14527888 86.43824554 43.1328125 98.3203125 C43.13348908 100.64761363 43.13446203 102.97491469 43.13571167 105.30221558 C43.13716907 110.1272653 43.13509618 114.95229625 43.13037109 119.77734375 C43.12464264 125.92162105 43.12798492 132.06585494 43.13394356 138.21013069 C43.13757513 142.99570029 43.13639924 147.78125976 43.13381577 152.56682968 C43.13315534 154.83195883 43.13394348 157.09708893 43.13629532 159.36221695 C43.13886865 162.53202981 43.13491776 165.70177421 43.12939453 168.87158203 C43.13141876 169.77890579 43.13344299 170.68622955 43.13552856 171.62104797 C43.11047242 179.48317375 42.52670168 187.09947482 42 195 C-26.97 195 -95.94 195 -167 195 C-168.38428925 184.61783059 -169.28742957 175.07030314 -169.23046875 164.7109375 C-169.22927173 163.30945885 -169.22882489 161.90797938 -169.2290802 160.50650024 C-169.22753473 157.60405277 -169.21938868 154.70173205 -169.20581055 151.79931641 C-169.18866347 148.08856582 -169.18500187 144.37795136 -169.18575573 140.66716576 C-169.18548366 137.78808303 -169.17999906 134.90902974 -169.17275429 132.02995682 C-169.16958767 130.66087694 -169.16760494 129.29179376 -169.16686058 127.92271042 C-169.16468459 126.01665787 -169.15512966 124.1106181 -169.14526367 122.20458984 C-169.14145187 121.12398285 -169.13764008 120.04337585 -169.13371277 118.93002319 C-169.00788019 116.17267721 -168.60230204 113.68750513 -168 111 C-167.80870086 109.29424937 -167.64296548 107.58547988 -167.5 105.875 C-167.4175 104.92109375 -167.335 103.9671875 -167.25 102.984375 C-167.1675 101.99953125 -167.085 101.0146875 -167 100 C-166.83593275 98.04144718 -166.66934946 96.08310316 -166.5 94.125 C-166.4278125 93.26132812 -166.355625 92.39765625 -166.28125 91.5078125 C-165.9959047 88.96348359 -165.53806477 86.5020012 -165 84 C-159.6795924 82.91159849 -154.51877965 82.82239474 -149.11328125 82.796875 C-148.17445602 82.79117493 -147.2356308 82.78547485 -146.26835632 82.77960205 C-144.29244096 82.77019034 -142.31651017 82.76363337 -140.34057617 82.75976562 C-137.31206423 82.74999859 -134.28421408 82.71891498 -131.25585938 82.6875 C-129.33333735 82.68097514 -127.4108105 82.67572264 -125.48828125 82.671875 C-124.12888176 82.6533548 -124.12888176 82.6533548 -122.74201965 82.63446045 C-121.90072006 82.63746155 -121.05942047 82.64046265 -120.19262695 82.64355469 C-119.45349564 82.63990906 -118.71436432 82.63626343 -117.95283508 82.63250732 C-115.39672827 83.1135262 -114.54122341 83.92792666 -113 86 C-111.74667304 93.107654 -111.92779267 100.17873832 -112.04296875 107.375 C-112.06534874 109.76561678 -112.08680503 112.15624236 -112.10742188 114.546875 C-112.1445225 118.27954203 -112.18768624 122.01175361 -112.24682617 125.74414062 C-112.30149886 129.37115999 -112.33045149 132.99767051 -112.35546875 136.625 C-112.37925095 137.73149902 -112.40303314 138.83799805 -112.42753601 139.97802734 C-112.45013216 146.70851959 -111.70957269 152.24721542 -108 158 C-103.16573248 161.79835305 -97.87693478 161.43286205 -92 161 C-90.87464844 160.83371094 -89.74929687 160.66742188 -88.58984375 160.49609375 C-82.23537784 159.67955674 -75.8333537 159.80575757 -69.4375 159.8125 C-68.7323526 159.8117749 -68.0272052 159.8110498 -67.3006897 159.81030273 C-55.071845 159.81166594 -42.89548522 160.31987914 -30.6875 161 C-15.25813574 161.89199712 -15.25813574 161.89199712 0.1875 162.375 C0.95811768 162.40078125 1.72873535 162.4265625 2.52270508 162.453125 C5.96229113 162.46602698 7.67790497 162.25207437 10.42578125 160.1015625 C13.22721554 156.36168248 13.48879421 152.84486043 14 148.3125 C14.08685059 147.55227539 14.17370117 146.79205078 14.26318359 146.00878906 C15.34142369 136.27832963 16.01175872 126.53955083 16.25 116.75 C16.27578125 115.71359375 16.3015625 114.6771875 16.328125 113.609375 C16.1889392 111.03455921 16.1889392 111.03455921 14.921875 109.265625 C12.15967624 107.44661606 9.17152023 106.86412701 6 106 C5.97129822 105.23959915 5.94259644 104.4791983 5.9130249 103.695755 C5.63729914 96.47337652 5.34467269 89.25196218 5.0337944 82.03101826 C4.87460552 78.32004263 4.72160045 74.60904164 4.58349609 70.8972168 C4.44957691 67.30434999 4.29841157 63.7125606 4.13605499 60.12087059 C4.04930181 58.10711361 3.97969501 56.09264089 3.9105835 54.07820129 C3.33473544 41.93371717 1.02661851 31.74095149 -6.51171875 22.0234375 C-8 20 -8 20 -9 17 C-8.28735352 15.09887695 -8.28735352 15.09887695 -7.12890625 12.98828125 C-6.51499023 11.85229492 -6.51499023 11.85229492 -5.88867188 10.69335938 C-5.45103516 9.90767578 -5.01339844 9.12199219 -4.5625 8.3125 C-4.12873047 7.51521484 -3.69496094 6.71792969 -3.24804688 5.89648438 C-2.17425237 3.92589446 -1.09135818 1.96090073 0 0 Z "
     fill="#FDFDFD"
     transform="translate(305,210)"
     id="path4" />
  <path
     d="M0 0 C1.75 0.1875 1.75 0.1875 4 1 C4.85779053 2.24535522 4.85779053 2.24535522 5.73291016 3.51586914 C7.7962214 6.27007151 7.7962214 6.27007151 11.02099609 6.59936523 C12.17680176 6.58591064 13.33260742 6.57245605 14.5234375 6.55859375 C15.791875 6.55150391 17.0603125 6.54441406 18.3671875 6.53710938 C19.02557617 6.52059326 19.68396484 6.50407715 20.36230469 6.48706055 C22.36084759 6.43784849 24.36024575 6.42874156 26.359375 6.41992188 C32.38291351 6.34355856 37.31076394 6.08874486 43 4 C45.2734375 3.6640625 45.2734375 3.6640625 47.375 3.625 C48.06335938 3.59664063 48.75171875 3.56828125 49.4609375 3.5390625 C53.3311269 4.24165073 56.56518131 6.13520302 60 8 C60.0093457 8.64960693 60.01869141 9.29921387 60.02832031 9.96850586 C60.08255083 12.95889339 60.1660915 15.94780375 60.25 18.9375 C60.26417969 19.95908203 60.27835937 20.98066406 60.29296875 22.03320312 C60.50309625 28.61019395 61.26520861 34.42530741 65 40 C69.17364064 43.52799457 73.73427048 45.55192438 79 47 C79.51911136 60.81413016 76.20115655 71.52090504 67 82 C62.50837712 95.47486863 60.93216905 116.54288996 66.0625 129.875 C70.3307328 138.21963491 76.43599773 143.69080602 84 149 C88.01805763 151.99018243 91.14774415 154.88939598 94 159 C93.46417198 164.5325789 90.60647638 169.15772586 88.0625 174 C87.32640503 175.40306396 87.32640503 175.40306396 86.57543945 176.83447266 C82.40982422 184.58523209 77.69637117 191.30250912 72 198 C71.40058594 198.74894531 70.80117188 199.49789062 70.18359375 200.26953125 C67.68057601 203.34968591 65.60768564 205.38037943 62 207 C62.01571045 206.05680908 62.0314209 205.11361816 62.04760742 204.1418457 C62.09886007 200.62876852 62.13640991 197.11609102 62.16479492 193.6027832 C62.17984353 192.08481562 62.20028738 190.56689124 62.22631836 189.04907227 C62.26287653 186.86203323 62.27976523 184.67557104 62.29296875 182.48828125 C62.3086792 181.17384033 62.32438965 179.85939941 62.34057617 178.50512695 C61.96252705 174.61433757 61.55671471 172.94414345 59 170 C53.09936874 165.96675338 47.70643919 165.43337924 40.71606445 165.5300293 C39.71830994 165.5278389 38.72055542 165.5256485 37.69256592 165.52339172 C34.4157932 165.52109229 31.13993319 165.54727011 27.86328125 165.57421875 C25.57741073 165.57914593 23.29153617 165.58244268 21.00566101 165.58418274 C16.22524031 165.59180819 11.44512057 165.6123272 6.66479492 165.64331055 C0.53808831 165.68295142 -5.58842308 165.70093253 -11.71524334 165.71061993 C-17.56409486 165.72059276 -23.41289891 165.74046953 -29.26171875 165.76171875 C-30.37677984 165.7651145 -31.49184093 165.76851025 -32.64069176 165.7720089 C-35.79526791 165.78359131 -38.9497214 165.80211234 -42.10424805 165.82299805 C-43.03682938 165.82568695 -43.96941071 165.82837585 -44.93025208 165.83114624 C-49.07763116 165.86557408 -52.95685345 165.94933341 -57 167 C-51.30206297 154.31459281 -40.72203664 147.83172638 -29.22045898 140.86816406 C-21.13843842 135.85330759 -14.03789247 129.26710632 -11 120 C-10.33597311 116.55986068 -9.82170538 113.13743352 -9.39453125 109.66015625 C-9 107 -9 107 -8 106 C-6.79261993 91.94688776 -10.35187534 82.64605287 -18.38232422 71.47680664 C-22.45372493 65.7384186 -25.46169821 59.88344466 -25.3125 52.6875 C-25.30863281 51.86636719 -25.30476563 51.04523438 -25.30078125 50.19921875 C-25 48 -25 48 -23 45 C-19.52661718 44.62449915 -16.38707002 45.22581257 -13 46 C-9.6650313 41.44809286 -9.14209694 37.06942568 -8.4375 31.625 C-8.31165527 30.74247559 -8.18581055 29.85995117 -8.05615234 28.95068359 C-7.47543834 24.8275396 -6.95485077 20.70593843 -6.54296875 16.5625 C-5.2707201 4.5772043 -5.2707201 4.5772043 0 0 Z "
     fill="#FDFDFD"
     transform="translate(197,69)"
     id="path5" />
  <path
     d="M0 0 C0.98422125 -0.00282738 1.9684425 -0.00565475 2.98248863 -0.00856781 C8.17770015 -0.02346172 13.37288452 -0.03275649 18.56811523 -0.03710938 C23.91885859 -0.04262055 29.26935091 -0.06673194 34.62001514 -0.09508133 C38.75419347 -0.11371664 42.88831092 -0.1189135 47.02252769 -0.12044525 C48.9956368 -0.12346359 50.96874503 -0.13146434 52.94181252 -0.14463043 C55.69813949 -0.16173108 58.45384623 -0.15980241 61.21020508 -0.15332031 C62.01710281 -0.1625351 62.82400055 -0.17174988 63.65534973 -0.1812439 C69.64660182 -0.13722335 73.92704566 1.18817063 79.06738281 4.3840332 C80.92255033 7.45032716 80.71949523 10.82057014 80.77734375 14.30859375 C80.79444397 15.10662918 80.81154419 15.90466461 80.8291626 16.72688293 C80.8574943 18.41716615 80.87710754 20.10761462 80.88867188 21.7980957 C80.91769559 24.36645229 81.01065445 26.92748796 81.10546875 29.49414062 C81.33706651 41.44353277 81.33706651 41.44353277 78.27172852 46.05712891 C75.99475903 48.11154807 73.8175994 49.67012635 71.16796875 51.203125 C70.38832764 51.7189917 69.60868652 52.2348584 68.80541992 52.76635742 C66.96276839 53.96977594 65.07023838 55.09634994 63.16796875 56.203125 C62.78125 55.64882813 62.39453125 55.09453125 61.99609375 54.5234375 C61.4753125 53.79898438 60.95453125 53.07453125 60.41796875 52.328125 C59.9075 51.60882813 59.39703125 50.88953125 58.87109375 50.1484375 C56.11397339 46.99924957 53.91887047 46.28655852 49.79296875 45.828125 C44.85260603 46.33919701 42.09733211 47.8795264 38.90625 51.72265625 C34.54257759 58.7504655 35.19435622 67.90860398 36.640625 75.7734375 C38.20647229 80.70538764 40.77170426 83.59793123 45.16796875 86.203125 C49.42067918 86.9831636 52.94516585 86.66507276 56.98046875 85.140625 C60.29874543 82.20157994 62.8044993 78.63306787 63.4675293 74.20043945 C63.51585157 72.81690521 63.54983426 71.43280674 63.57055664 70.04858398 C63.71514813 61.11121227 63.71514813 61.11121227 66.50488281 57.44726562 C75.10234375 49.203125 75.10234375 49.203125 79.16796875 49.203125 C79.18255127 49.89873535 79.19713379 50.5943457 79.2121582 51.31103516 C79.28694844 54.48393838 79.38350687 57.65582508 79.48046875 60.828125 C79.50302734 61.92253906 79.52558594 63.01695312 79.54882812 64.14453125 C79.73391879 72.13560999 79.73391879 72.13560999 83.16796875 79.203125 C87.98334275 83.34037291 93.46273303 82.54928594 99.453125 82.42578125 C101.09298622 82.41229897 101.09298622 82.41229897 102.76597595 82.39854431 C106.25446469 82.36854802 109.74226105 82.3187498 113.23046875 82.265625 C116.7221984 82.21781283 120.21375273 82.17448069 123.70567322 82.14341736 C125.87714635 82.12364675 128.04855678 82.0940034 130.21974182 82.05348206 C131.69663734 82.03873085 131.69663734 82.03873085 133.20336914 82.02368164 C134.0676503 82.0101918 134.93193146 81.99670197 135.82240295 81.98280334 C138.40481181 82.22537194 139.98664325 82.81657677 142.16796875 84.203125 C146.58706488 93.04131725 142.03897007 110.84286366 140.85546875 120.390625 C140.69739746 121.79683105 140.69739746 121.79683105 140.53613281 123.23144531 C140.41850586 124.1025293 140.30087891 124.97361328 140.1796875 125.87109375 C140.08131592 126.63703857 139.98294434 127.4029834 139.8815918 128.19213867 C138.90538481 130.94308529 137.69611827 131.79591073 135.16796875 133.203125 C132.99926758 133.46777344 132.99926758 133.46777344 130.625 133.3125 C129.73119629 133.26279053 128.83739258 133.21308105 127.91650391 133.16186523 C126.9476123 133.09298096 125.9787207 133.02409668 124.98046875 132.953125 C122.85939813 132.83422201 120.73830359 132.71574528 118.6171875 132.59765625 C116.46743059 132.46642944 114.31769027 132.33493032 112.16796875 132.203125 C95.18971489 131.21830749 78.23280587 131.09658226 61.23046875 131.078125 C60.10924622 131.0755368 58.98802368 131.07294861 57.83282471 131.07028198 C54.62289221 131.06443549 51.41305823 131.066008 48.203125 131.0703125 C47.22093491 131.06833359 46.23874481 131.06635468 45.22679138 131.0643158 C44.32574173 131.06742264 43.42469208 131.07052948 42.49633789 131.07373047 C41.7057045 131.07452606 40.91507111 131.07532166 40.10047913 131.07614136 C38.0847956 131.08320922 38.0847956 131.08320922 36.16796875 132.203125 C31.62874975 132.74711785 28.21354185 132.82601961 24.23046875 130.453125 C20.44003769 126.31810929 19.91870523 123.34082139 19.91259766 117.75390625 C19.90563873 116.44574951 19.89867981 115.13759277 19.89151001 113.78979492 C19.89219105 113.09340912 19.89287209 112.39702332 19.89357376 111.67953491 C19.89454099 109.49360839 19.88157514 107.3081709 19.86459351 105.12231445 C19.81837327 98.90938055 19.79370776 92.69649843 19.78710938 86.48339844 C19.78209531 82.67900061 19.75785532 78.87511626 19.72178268 75.07089233 C19.7119855 73.62286461 19.70965236 72.17476625 19.71495438 70.72671509 C19.72202227 68.70190741 19.70265726 66.6770597 19.68212891 64.65234375 C19.67927887 63.50080811 19.67642883 62.34927246 19.67349243 61.1628418 C19.05789627 57.5586777 18.03155776 56.40781324 15.16796875 54.203125 C12.154469 53.19862508 10.22978506 53.0983175 7.08569336 53.13720703 C6.05129623 53.14696564 5.01689911 53.15672424 3.95115662 53.16677856 C2.27763878 53.18863724 2.27763878 53.18863724 0.5703125 53.2109375 C-1.78059469 53.22844803 -4.13150642 53.24535686 -6.48242188 53.26171875 C-10.19812452 53.29275478 -13.91360293 53.32836188 -17.62915039 53.37451172 C-21.20852536 53.41667496 -24.78763297 53.44023906 -28.3671875 53.4609375 C-29.48489029 53.47955841 -30.60259308 53.49817932 -31.75416565 53.5173645 C-33.3010331 53.52254593 -33.3010331 53.52254593 -34.87915039 53.52783203 C-35.78943497 53.53751007 -36.69971954 53.54718811 -37.6375885 53.55715942 C-38.36175461 53.44032806 -39.08592072 53.3234967 -39.83203125 53.203125 C-42.02778386 49.90949609 -42.08824251 48.9012421 -42.09765625 45.07421875 C-42.10192627 44.0471582 -42.10619629 43.02009766 -42.1105957 41.96191406 C-42.10116943 40.86588867 -42.09174316 39.76986328 -42.08203125 38.640625 C-42.07453857 37.52268555 -42.0670459 36.40474609 -42.05932617 35.25292969 C-41.97246378 28.46892867 -41.765809 21.71059416 -41.14453125 14.953125 C-41.06477051 13.87502563 -41.06477051 13.87502563 -40.98339844 12.77514648 C-40.41968183 7.71450875 -38.7293369 5.38801994 -34.83203125 2.203125 C-25.6212588 -2.40226123 -10.17218086 0.01982386 0 0 Z "
     fill="#FCDD32"
     transform="translate(175.83203125,236.796875)"
     id="path6" />
  <path
     d="M0 0 C5.03041825 -0.878327 5.03041825 -0.878327 8 0 C10.5 3 10.5 3 12 6 C10.48024421 10.23982825 7.34641537 12.13992973 3.8125 14.625 C-5.02902103 21.14408825 -9.93462693 28.85842416 -14 39 C-14.495 39.99 -14.495 39.99 -15 41 C-15.22511306 43.2653736 -15.39352095 45.53647296 -15.53515625 47.80859375 C-15.57813339 48.48994888 -15.62111053 49.17130402 -15.66539001 49.87330627 C-15.75568038 51.32157614 -15.84379977 52.76998273 -15.92993164 54.21850586 C-16.06014167 56.3980252 -16.19844011 58.57691411 -16.33789062 60.75585938 C-18.27543813 74.88859787 -18.27543813 74.88859787 -15 88 C-14.01 88.66 -13.02 89.32 -12 90 C-12.09087891 91.12921875 -12.09087891 91.12921875 -12.18359375 92.28125 C-12.41273014 95.18599442 -12.63393878 98.0912183 -12.85038948 100.99693298 C-12.9883854 102.8444974 -13.12918801 104.6918516 -13.27024841 106.53918457 C-14.02183965 117.27602499 -14.13036702 127.9588316 -14.09765625 138.71875 C-14.09578551 140.5567623 -14.09436472 142.3947751 -14.09336853 144.23278809 C-14.08959491 149.01329993 -14.07981025 153.79378021 -14.06866455 158.57427979 C-14.05833801 163.47529677 -14.0538471 168.37631897 -14.04882812 173.27734375 C-14.03818203 182.85157619 -14.02116957 192.42578544 -14 202 C-19.25105442 202.02464928 -24.50207545 202.04283568 -29.75317383 202.05493164 C-31.54094021 202.05997218 -33.32870245 202.06680454 -35.11645508 202.07543945 C-37.68051168 202.0875173 -40.24451397 202.09323094 -42.80859375 202.09765625 C-44.01484657 202.10539818 -44.01484657 202.10539818 -45.24546814 202.11329651 C-47.16401715 202.11349215 -49.08245368 202.06201983 -51 202 C-53.17808277 199.82191723 -52.70988706 195.14852079 -53 192.125 C-53.12375 190.93970703 -53.12375 190.93970703 -53.25 189.73046875 C-55.20753969 169.87979283 -55.20194576 149.98671578 -55.1875 130.0625 C-55.18738041 129.33405632 -55.18726082 128.60561264 -55.1871376 127.85509491 C-55.18344722 110.10278259 -55.15776757 92.35605266 -54.1875 74.625 C-54.13509659 73.58317062 -54.13509659 73.58317062 -54.08163452 72.52029419 C-52.92020017 50.49038886 -44.79569937 34.87505255 -29.48046875 19.46484375 C-23.34024393 13.96599418 -16.72403273 10.76792843 -9.10522461 7.82495117 C-4.35872537 5.92952845 -2.4492607 4.65438286 0 0 Z "
     fill="#FDFDFD"
     transform="translate(148,203)"
     id="path7" />
  <path
     d="M0 0 C2.60751065 1.21366347 4.19915215 2.99929637 6.16625977 5.08374023 C8.66124576 7.67249204 11.08343385 10.18023932 13.91625977 12.39624023 C16.85285967 14.88596624 19.2126817 17.50518449 21.69750977 20.43139648 C23.70753891 22.73767992 25.793768 24.95546638 27.90258789 27.17114258 C45.48423034 45.7566401 60.2313074 67.54391516 71.14282227 90.68530273 C71.65449951 91.76932373 71.65449951 91.76932373 72.17651367 92.87524414 C72.79125977 94.83374023 72.79125977 94.83374023 71.79125977 97.83374023 C70.14125977 94.86374023 68.49125977 91.89374023 66.79125977 88.83374023 C62.73419232 90.86227396 60.6009519 93.0021077 57.79125977 96.39624023 C57.07885132 97.24158325 57.07885132 97.24158325 56.35205078 98.10400391 C53.08065992 102.06163327 50.12772827 106.1746271 47.24291992 110.41992188 C37.78756724 124.32243092 26.12448365 133.0707614 9.79125977 137.83374023 C7.40108486 138.2817273 5.00438918 138.69565921 2.60375977 139.08374023 C-5.66023896 140.50500638 -13.47472359 142.98754315 -21.41967773 145.62670898 C-25.20874023 146.83374023 -25.20874023 146.83374023 -27.20874023 146.83374023 C-25.22874023 149.80374023 -23.24874023 152.77374023 -21.20874023 155.83374023 C-21.53874023 156.49374023 -21.86874023 157.15374023 -22.20874023 157.83374023 C-53.20874023 123.29437016 -53.20874023 123.29437016 -53.20874023 110.83374023 C-49.03856262 109.26992363 -49.03856262 109.26992363 -46.20874023 109.83374023 C-43.89482098 112.04645428 -42.13542793 114.4577523 -40.25170898 117.04467773 C-38.32624081 119.67332836 -36.33205246 122.04086553 -34.08374023 124.39624023 C-33.48303711 125.0369043 -32.88233398 125.67756836 -32.26342773 126.33764648 C-29.39476897 128.42642273 -27.78368359 128.86353143 -24.20874023 128.83374023 C-21.18109323 127.51865782 -18.5508109 125.69484185 -15.83374023 123.83374023 C-14.13925836 122.71789452 -12.44390346 121.60337372 -10.74780273 120.48999023 C-9.40250488 119.59666992 -9.40250488 119.59666992 -8.0300293 118.68530273 C-3.14520637 115.47947917 1.82750294 112.4153084 6.79125977 109.33374023 C8.82427491 108.06495065 10.85683055 106.79542449 12.88891602 105.52514648 C13.87649902 104.90784668 14.86408203 104.29054688 15.8815918 103.65454102 C20.33532083 100.86750366 24.7841226 98.07275171 29.22875977 95.27124023 C30.33574219 94.57514648 30.33574219 94.57514648 31.46508789 93.86499023 C36.02089331 90.98895571 40.49561301 88.01820044 44.92822266 84.95507812 C46.79125977 83.83374023 46.79125977 83.83374023 48.79125977 83.83374023 C42.23239127 60.12090799 30.52609839 40.50460706 13.09204102 23.14624023 C10.79125977 20.83374023 10.79125977 20.83374023 9.29125977 18.95874023 C7.79519561 17.57066844 7.79519561 17.57066844 5.50292969 18.07641602 C2.50276271 18.91431265 0.48627389 20.09027926 -2.09545898 21.82592773 C-3.48873413 22.75127319 -3.48873413 22.75127319 -4.91015625 23.6953125 C-5.89556396 24.35974365 -6.88097168 25.0241748 -7.89624023 25.70874023 C-9.9808183 27.09230107 -12.06676976 28.47379474 -14.15405273 29.85327148 C-15.18433594 30.53470215 -16.21461914 31.21613281 -17.27612305 31.91821289 C-21.22404634 34.49691803 -25.23252533 36.96302317 -29.27124023 39.39624023 C-37.21533359 44.19112659 -45.04761294 49.15114856 -52.86328125 54.15234375 C-53.74685303 54.71751709 -54.6304248 55.28269043 -55.54077148 55.86499023 C-56.71216675 56.61619141 -56.71216675 56.61619141 -57.90722656 57.38256836 C-60.31965469 58.90367505 -62.7581614 60.375043 -65.20874023 61.83374023 C-62.97046872 75.71102364 -58.19395307 88.77669051 -51.52905273 101.11108398 C-50.20874023 103.83374023 -50.20874023 103.83374023 -50.20874023 106.83374023 C-53.17874023 107.32874023 -53.17874023 107.32874023 -56.20874023 107.83374023 C-62.91250568 93.85358945 -69.4328524 79.84061202 -75.08374023 65.39624023 C-75.51799316 64.30843262 -75.95224609 63.220625 -76.3996582 62.09985352 C-76.78782715 61.0852002 -77.17599609 60.07054687 -77.57592773 59.02514648 C-77.91736816 58.14028564 -78.25880859 57.2554248 -78.6105957 56.34375 C-79.32094942 53.36287387 -79.26567597 51.71174367 -78.20874023 48.83374023 C-76.34545898 47.15551758 -76.34545898 47.15551758 -73.89624023 45.66967773 C-72.99478271 45.11103027 -72.0933252 44.55238281 -71.16455078 43.97680664 C-70.1891333 43.39334473 -69.21371582 42.80988281 -68.20874023 42.20874023 C-66.1731961 40.95416103 -64.13804308 39.69894703 -62.10327148 38.44311523 C-61.09474121 37.82758789 -60.08621094 37.21206055 -59.04711914 36.57788086 C-55.28793542 34.2679197 -51.58862322 31.87346929 -47.89624023 29.45874023 C-39.72371297 24.14714923 -31.50859937 18.90244322 -23.28759766 13.66625977 C-22.28575439 13.02672363 -21.28391113 12.3871875 -20.25170898 11.72827148 C-19.26219238 11.09872559 -18.27267578 10.46917969 -17.25317383 9.82055664 C-15.10951983 8.42159463 -13.00841805 7.00437525 -10.91821289 5.53051758 C-9.85521973 4.78882324 -8.79222656 4.04712891 -7.69702148 3.28295898 C-6.73965088 2.59935303 -5.78228027 1.91574707 -4.79589844 1.21142578 C-2.20874023 -0.16625977 -2.20874023 -0.16625977 0 0 Z "
     fill="#A4C64C"
     transform="translate(400.208740234375,53.166259765625)"
     id="path8" />
  <path
     d="M0 0 C7.56037318 7.56037318 9.37751085 16.94828997 9.54296875 27.2890625 C9.53901805 29.83857884 9.52446396 32.38809798 9.5 34.9375 C9.4990332 36.86335938 9.4990332 36.86335938 9.49804688 38.828125 C9.47035869 44.77185641 9.24695759 50.43170905 8.3125 56.3125 C6.0625 56.25 6.0625 56.25 3.3125 55.3125 C-0.22688893 50.78347929 -1.78542435 46.01914545 -1.8984375 40.3125 C-1.92679687 39.343125 -1.95515625 38.37375 -1.984375 37.375 C-2.03645363 35.33351757 -2.08072641 33.29182107 -2.1171875 31.25 C-2.148125 30.280625 -2.1790625 29.31125 -2.2109375 28.3125 C-2.2406665 26.9821875 -2.2406665 26.9821875 -2.27099609 25.625 C-2.76604763 22.8763903 -3.53438874 22.0283436 -5.6875 20.3125 C-9.10497664 18.07397818 -12.02845087 18.04369324 -16.0625 18.0625 C-17.71378906 18.05476563 -17.71378906 18.05476563 -19.3984375 18.046875 C-22.66583699 18.17054603 -22.66583699 18.17054603 -25.51196289 19.30371094 C-30.84431724 20.99766713 -36.19473783 20.76341983 -41.75 20.8125 C-42.92111328 20.85375 -44.09222656 20.895 -45.29882812 20.9375 C-53.74099404 21.01455343 -53.74099404 21.01455343 -56.50341797 18.96557617 C-57.80859375 17.32421875 -57.80859375 17.32421875 -59.6875 14.3125 C-62.6875 13.39583333 -62.6875 13.39583333 -65.6875 14.3125 C-68.47947732 16.60432272 -68.47947732 16.60432272 -70.6875 19.3125 C-71.3475 19.9725 -72.0075 20.6325 -72.6875 21.3125 C-73.21402433 23.9571471 -73.21402433 23.9571471 -73.46875 27.0625 C-73.64857422 28.81240234 -73.64857422 28.81240234 -73.83203125 30.59765625 C-73.94933594 31.82355469 -74.06664062 33.04945312 -74.1875 34.3125 C-74.98304336 42.41655155 -75.88347536 50.36380261 -77.6875 58.3125 C-79.0075 58.3125 -80.3275 58.3125 -81.6875 58.3125 C-84.08308805 54.40664992 -84.59627218 50.19822412 -85.3125 45.75 C-85.44221191 44.9458667 -85.57192383 44.1417334 -85.70556641 43.31323242 C-87.11564936 34.11442781 -87.82036147 26.89613536 -83.6875 18.3125 C-83.38884999 16.85960806 -83.11966593 15.40045092 -82.875 13.9375 C-81.34669714 6.70271146 -77.45811078 1.24106741 -71.4375 -3 C-48.68143065 -16.80662359 -22.01537043 -13.82360469 0 0 Z "
     fill="#FBFBFB"
     transform="translate(261.6875,52.6875)"
     id="path9" />
  <path
     d="M0 0 C7.02508939 6.73090642 10.06806894 12.98533684 11.07421875 22.6953125 C11.1554599 23.43316986 11.23670105 24.17102722 11.32040405 24.9312439 C12.13753218 32.69370592 12.61227767 40.47267526 13.00537109 48.26660156 C13.12531949 50.63129853 13.25543453 52.99528304 13.38671875 55.359375 C13.8992286 64.9170515 14.11173157 74.42832913 14 84 C5.96148532 85.04569999 -2.05849264 85.2180943 -10.15161133 85.24023438 C-12.32605572 85.25006126 -14.49959938 85.28124073 -16.67382812 85.3125 C-18.07030699 85.31902135 -19.46679247 85.32427522 -20.86328125 85.328125 C-22.73947144 85.34214355 -22.73947144 85.34214355 -24.65356445 85.35644531 C-28.3082255 84.96716939 -30.13583784 84.27335852 -33 82 C-36.36143686 77.35762106 -35.44838663 71.06145413 -35.48046875 65.58276367 C-35.49991705 63.57107993 -35.56200326 61.56346226 -35.625 59.55273438 C-35.70180386 50.06265755 -35.70180386 50.06265755 -33.74316406 47.09692383 C-32.171875 45.8046875 -32.171875 45.8046875 -29 44 C-16.37509794 31.51475394 -8.15282226 15.54144937 0 0 Z "
     fill="#FCFCFC"
     transform="translate(294,232)"
     id="path10" />
  <path
     d="M0 0 C3.71805533 3.16723232 5.60790464 6.77517947 7.75390625 11.07421875 C8.9236416 13.32160001 8.9236416 13.32160001 12 14 C12.73046875 15.84765625 12.73046875 15.84765625 13.1875 18.0625 C13.42533203 19.16271484 13.42533203 19.16271484 13.66796875 20.28515625 C13.83232422 21.13400391 13.83232422 21.13400391 14 22 C1.55950427 33.46599023 1.55950427 33.46599023 -4.109375 38.33984375 C-5.39595098 39.46958505 -6.65593204 40.63018264 -7.890625 41.81640625 C-19.16979668 52.47134896 -32.81286491 59.96474697 -47 66 C-48.31097656 66.56146729 -48.31097656 66.56146729 -49.6484375 67.13427734 C-57.59481209 70.53733947 -57.59481209 70.53733947 -61.03222656 71.98095703 C-62.32338379 72.52598877 -62.32338379 72.52598877 -63.640625 73.08203125 C-64.40922852 73.40405518 -65.17783203 73.7260791 -65.96972656 74.05786133 C-68.23470914 75.0460249 -68.23470914 75.0460249 -71 77 C-74.3014967 76.88995011 -75.28172012 75.73748807 -77.75 73.4375 C-78.4925 72.633125 -79.235 71.82875 -80 71 C-79.34 71 -78.68 71 -78 71 C-81.3 66.38 -84.6 61.76 -88 57 C-84.78409761 53.78409761 -80.54278058 53.14580898 -76.25 51.875 C-75.35539062 51.59785156 -74.46078125 51.32070312 -73.5390625 51.03515625 C-68.9084303 49.64869853 -64.89014756 48.62757154 -60 49 C-59.79375 50.093125 -59.5875 51.18625 -59.375 52.3125 C-58.3257586 56.09021723 -58.3257586 56.09021723 -55.5 58 C-46.46773392 60.58064745 -38.04861282 57.19610733 -30 53 C-21.58732227 47.84456732 -11.96727334 40.86047755 -9 31 C-8.96677027 28.55109734 -8.96677027 28.55109734 -9.375 26.1875 C-9.48585938 25.39730469 -9.59671875 24.60710937 -9.7109375 23.79296875 C-9.80632812 23.20128906 -9.90171875 22.60960937 -10 22 C-11.65 21.34 -13.3 20.68 -15 20 C-13.57096265 15.76666894 -11.48388153 12.85201133 -8.625 9.4375 C-7.85414063 8.50808594 -7.08328125 7.57867187 -6.2890625 6.62109375 C-4.2726418 4.31218882 -2.19903163 2.13376357 0 0 Z "
     fill="#A4C54C"
     transform="translate(465,146)"
     id="path12" />
  <path
     d="M0 0 C-0.85837823 11.58810616 -5.14743032 19.97891367 -13.8671875 27.640625 C-18.16991961 31.00155737 -18.16991961 31.00155737 -21.08203125 30.99609375 C-23 30 -23 30 -25 24 C-29.29 23.67 -33.58 23.34 -38 23 C-38.4375 19.875 -38.4375 19.875 -38 16 C-30.6817497 7.25379843 -11.20968739 0 0 0 Z "
     fill="#FAFAFB"
     transform="translate(185,177)"
     id="path13" />
  <path
     d="M0 0 C8.75349387 1.99674293 19.81661326 5.12893124 25 13 C24.61714044 18.78706957 22.83066415 23.98641714 20.9375 29.4375 C20.65583984 30.26443359 20.37417969 31.09136719 20.08398438 31.94335938 C19.39482208 33.96412338 18.6981769 35.98233282 18 38 C9.5862385 34.86461537 4.94708777 29.75953186 1.08984375 21.65625 C-1.01933358 14.58030026 -0.43813032 7.30217204 0 0 Z "
     fill="#FCFCFC"
     transform="translate(264,175)"
     id="path14" />
  <path
     d="M0 0 C3.40486653 2.79955692 5.14877788 4.70727768 6 9 C4.54261898 9.98058352 3.08406325 10.95942132 1.625 11.9375 C0.81289062 12.48277344 0.00078125 13.02804687 -0.8359375 13.58984375 C-3 15 -3 15 -5 16 C-5 16.66 -5 17.32 -5 18 C-0.76570244 16.68938409 3.07407404 15.05643741 7 13 C7.42133626 20.75570825 6.96734998 25.97288217 2.25 32.375 C-0.94107267 34.67966359 -3.07045933 35.0677507 -7 35 C-11.14751567 32.44768266 -13.81303416 29.84995723 -15.52734375 25.1484375 C-17.07430949 18.11677503 -16.99483954 10.91867302 -13.265625 4.62890625 C-9.52827124 -0.18120646 -5.81509338 -2.10333165 0 0 Z "
     fill="#FADB33"
     transform="translate(230,286)"
     id="path15" />
  <path
     d="M0 0 C3.0625 -0.25 3.0625 -0.25 6 0 C7 1 7 1 7.25 4.25 C6.97648906 8.35266405 6.43032754 9.75956328 4 13 C3.236875 14.0725 2.47375 15.145 1.6875 16.25 C-4.92630533 23.80863466 -16.72414536 31.39535834 -26.8203125 32.234375 C-34.35340766 32.43106156 -34.35340766 32.43106156 -38 30 C-38.125 27.25 -38.125 27.25 -37 24 C-34.77495732 22.71130934 -32.50488463 21.95483462 -30.078125 21.10546875 C-18.26063834 16.86137138 -7.11935636 10.67903454 0 0 Z "
     fill="#FBFBFB"
     transform="translate(446,170)"
     id="path16" />
  <path
     d="M0 0 C1.28003906 0.12632813 2.56007812 0.25265625 3.87890625 0.3828125 C6.7665136 0.78219617 9.59125125 1.25221237 12.4375 1.875 C12.4375 2.865 12.4375 3.855 12.4375 4.875 C11.87764404 4.86452637 11.31778809 4.85405273 10.7409668 4.84326172 C8.20235693 4.80166674 5.6638188 4.77566315 3.125 4.75 C2.24392578 4.73324219 1.36285156 4.71648437 0.45507812 4.69921875 C-0.81625977 4.68955078 -0.81625977 4.68955078 -2.11328125 4.6796875 C-2.89356689 4.66921387 -3.67385254 4.65874023 -4.4777832 4.64794922 C-6.8690848 4.74619141 -6.8690848 4.74619141 -9.5625 6.875 C-9.79268052 9.39605219 -9.83914231 11.66956069 -9.75 14.18359375 C-9.73296021 15.2673806 -9.73296021 15.2673806 -9.71557617 16.37306213 C-9.66644762 19.46914249 -9.58212041 22.56404372 -9.50097656 25.65942383 C-9.44677883 27.91742477 -9.41046002 30.17523345 -9.375 32.43359375 C-9.35010498 33.1336705 -9.32520996 33.83374725 -9.29956055 34.55503845 C-9.25634674 37.40699572 -9.24768502 39.38897199 -10.82348633 41.82177734 C-12.9223631 43.09294882 -14.13064578 43.22308694 -16.57421875 43.16796875 C-17.33154297 43.15830078 -18.08886719 43.14863281 -18.86914062 43.13867188 C-19.65482422 43.11353516 -20.44050781 43.08839844 -21.25 43.0625 C-22.44592773 43.04219727 -22.44592773 43.04219727 -23.66601562 43.02148438 C-25.63179967 42.98617089 -27.59723582 42.93236447 -29.5625 42.875 C-28.9025 41.555 -28.2425 40.235 -27.5625 38.875 C-22.6125 38.875 -17.6625 38.875 -12.5625 38.875 C-12.81 36.3071875 -12.81 36.3071875 -13.0625 33.6875 C-13.24915695 31.08291763 -13.41814154 28.48194403 -13.5625 25.875 C-13.61003418 25.01825684 -13.65756836 24.16151367 -13.70654297 23.27880859 C-13.84148787 20.47758965 -13.92619312 17.67844747 -14 14.875 C-14.04640625 13.9672583 -14.0928125 13.0595166 -14.140625 12.12426758 C-14.24175467 5.94788795 -14.24175467 5.94788795 -12.46166992 3.13623047 C-8.56868778 -0.596587 -5.10774895 -0.56695498 0 0 Z "
     fill="#707173"
     transform="translate(240.5625,98.125)"
     id="path21" />
  <path
     d="M0 0 C0.66 0 1.32 0 2 0 C2.35191406 0.73605469 2.70382813 1.47210938 3.06640625 2.23046875 C6.96172213 9.92956568 10.17277495 13.93118926 18.0625 17.3125 C26.35727334 18.76079376 35.68336835 19.72532461 43 15 C47.0327549 11.19768824 49.76600081 7.08855372 52 2 C52.99 2 53.98 2 55 2 C54.69824862 8.03502752 51.86661699 11.62904166 48 16 C41.98937288 21.43818644 37.67477973 22.34295035 29.8125 22.3125 C28.99974609 22.32861328 28.18699219 22.34472656 27.34960938 22.36132812 C19.0729322 22.36791259 11.73817589 20.56955691 5.578125 14.8125 C2.77661005 11.59491848 0.41054365 8.04061983 -1 4 C-0.625 1.7265625 -0.625 1.7265625 0 0 Z "
     fill="#707173"
     transform="translate(197,166)"
     id="path22" />
  <path
     d="M0 0 C5.05255964 0.63156995 9.29593201 2.13459373 14 4 C12.3341708 10.16356805 9.12194714 15.48259656 6 21 C2.19294436 19.20222373 -0.33442088 17.3319739 -3 14 C-3.8170473 8.48493076 -2.37441953 4.84777321 0 0 Z "
     fill="#F9F9F9"
     transform="translate(288,204)"
     id="path23" />
  <path
     d="M0 0 C-0.33 0.99 -0.66 1.98 -1 3 C-1.51304687 2.83757812 -2.02609375 2.67515625 -2.5546875 2.5078125 C-11.24757933 0.70257937 -21.26451023 1.84897076 -30 3 C-30 1.68 -30 0.36 -30 -1 C-7.83978891 -5.47197053 -7.83978891 -5.47197053 0 0 Z "
     fill="#767778"
     transform="translate(238,154)"
     id="path28" />
  <path
     d="M0 0 C0 0.99 0 1.98 0 3 C-0.92941406 2.98839844 -1.85882813 2.97679688 -2.81640625 2.96484375 C-11.95709317 2.88246463 -11.95709317 2.88246463 -21 4 C-20.67 2.68 -20.34 1.36 -20 0 C-13.26612744 -2.29238215 -6.44830104 -3.66810804 0 0 Z "
     fill="#737375"
     transform="translate(216,100)"
     id="path29" />
  <path
     d="M0 0 C0.78375 0.495 1.5675 0.99 2.375 1.5 C2.375 2.49 2.375 3.48 2.375 4.5 C-2.375 3.625 -2.375 3.625 -4.625 2.5 C-10.92237011 2.16306079 -10.92237011 2.16306079 -16.625 4.5 C-17.615 4.5 -18.605 4.5 -19.625 4.5 C-19.4375 2.625 -19.4375 2.625 -18.625 0.5 C-13.20352946 -2.99772293 -5.70103363 -2.3590484 0 0 Z "
     fill="#6F6F71"
     transform="translate(230.625,164.5)"
     id="path30" />
  <path
     d="M0 0 C0.99 0.66 1.98 1.32 3 2 C3 2.66 3 3.32 3 4 C2.41992188 3.98839844 1.83984375 3.97679688 1.2421875 3.96484375 C-3.2998246 3.91237826 -7.52713569 4.08248937 -12 5 C-11.67 3.68 -11.34 2.36 -11 1 C-7.31233808 -0.18005182 -3.84889483 -0.20993972 0 0 Z "
     fill="#707072"
     transform="translate(248,108)"
     id="path31" />
  <path
     d="M0 0 C2.5625 0.1875 2.5625 0.1875 4.5625 2.1875 C4.1875 4.3125 4.1875 4.3125 3.5625 6.1875 C-1.1875 7.3125 -1.1875 7.3125 -3.4375 6.1875 C-3.480221 4.52138095 -3.47813832 2.85367115 -3.4375 1.1875 C-2.4375 0.1875 -2.4375 0.1875 0 0 Z "
     fill="#717274"
     transform="translate(168.4375,303.8125)"
     id="path32" />
  <path
     d="M0 0 C1.4540625 0.0309375 1.4540625 0.0309375 2.9375 0.0625 C3.31968767 1.71864657 3.65145102 3.38707024 3.9375 5.0625 C2.9375 6.0625 2.9375 6.0625 -0.125 6.125 C-1.094375 6.104375 -2.06375 6.08375 -3.0625 6.0625 C-3.44468767 4.40635343 -3.77645102 2.73792976 -4.0625 1.0625 C-3.0625 0.0625 -3.0625 0.0625 0 0 Z "
     fill="#6D6E6F"
     transform="translate(283.0625,302.9375)"
     id="path33" />
  <path
     d="M0 0 C0.33 1.32 0.66 2.64 1 4 C-4.94 4.495 -4.94 4.495 -11 5 C-8.17986144 -0.64027712 -5.86288574 -0.13028635 0 0 Z "
     fill="#767778"
     transform="translate(212,106)"
     id="path34" />
</svg>
