<?xml version="1.0" encoding="UTF-8" standalone="no"?>
<svg
   version="1.1"
   width="512"
   height="422"
   id="svg33"
   sodipodi:docname="04_Analysing.svg"
   inkscape:version="1.3.2 (091e20e, 2023-11-25)"
   xmlns:inkscape="http://www.inkscape.org/namespaces/inkscape"
   xmlns:sodipodi="http://sodipodi.sourceforge.net/DTD/sodipodi-0.dtd"
   xmlns="http://www.w3.org/2000/svg"
   xmlns:svg="http://www.w3.org/2000/svg">
  <defs
     id="defs33" />
  <sodipodi:namedview
     id="namedview33"
     pagecolor="#ffffff"
     bordercolor="#000000"
     borderopacity="0.25"
     inkscape:showpageshadow="2"
     inkscape:pageopacity="0.0"
     inkscape:pagecheckerboard="0"
     inkscape:deskcolor="#d1d1d1"
     inkscape:zoom="1.6894531"
     inkscape:cx="256"
     inkscape:cy="210.71908"
     inkscape:window-width="1392"
     inkscape:window-height="1027"
     inkscape:window-x="1968"
     inkscape:window-y="25"
     inkscape:window-maximized="0"
     inkscape:current-layer="svg33" />
  <path
     d="M0 0 C1.69185142 -0.00418147 3.38370003 -0.00966342 5.07554352 -0.01631981 C9.68772485 -0.0306864 14.29972615 -0.0265574 18.91191697 -0.019153 C23.90045202 -0.01440174 28.88894921 -0.0269484 33.87747192 -0.03717041 C43.63600239 -0.05432537 53.39446837 -0.0552053 63.15301 -0.04995751 C71.08828166 -0.0459085 79.02353433 -0.04736804 86.95880508 -0.05270576 C88.65587761 -0.0538284 88.65587761 -0.0538284 90.38723443 -0.05497371 C92.68597125 -0.05650526 94.98470808 -0.05804361 97.2834449 -0.05958868 C118.81763067 -0.07330171 140.35178007 -0.06788439 161.885965 -0.05640347 C181.56487515 -0.04647185 201.24369126 -0.05941269 220.9225869 -0.08333766 C241.15485918 -0.1077491 261.38708769 -0.11733153 281.61937439 -0.11068493 C292.96788463 -0.10719733 304.31632256 -0.10939451 315.66482162 -0.12693596 C325.32515439 -0.14168348 334.98536394 -0.14226002 344.64569436 -0.12486505 C349.56924884 -0.11637381 354.49258344 -0.11415951 359.41612625 -0.1295166 C363.93281379 -0.14342967 368.44909442 -0.13851622 372.96575882 -0.11927737 C374.59010841 -0.11553725 376.21449112 -0.11838121 377.83881103 -0.12888902 C395.97395222 -0.23776221 414.34446247 3.2272752 428.23391724 15.82518005 C432.00080387 19.91476538 434.74963328 24.23177614 437.29641724 29.13768005 C437.77377319 30.04731506 437.77377319 30.04731506 438.26077271 30.97532654 C443.37328194 41.6697488 444.30540801 53.4340187 444.24659729 65.11201477 C444.2546756 67.07312925 444.2546756 67.07312925 444.2629171 69.0738622 C444.27722882 72.65991858 444.27317239 76.24574237 444.26575029 79.83181071 C444.26098511 83.71604549 444.27355781 87.60023232 444.2837677 91.48445129 C444.30089582 99.07727476 444.30180822 106.67001525 444.2965548 114.26285301 C444.29250071 120.43897295 444.2939713 126.6150685 444.29930305 132.79118729 C444.30005148 133.67278646 444.3007999 134.55438563 444.301571 135.46269993 C444.3031026 137.25410676 444.30464095 139.04551358 444.30618597 140.8369204 C444.31988931 157.6069486 444.31448855 174.37693005 444.30300076 191.14695717 C444.29307031 206.46097228 444.30600964 221.77486653 444.32993495 237.088863 C444.35436593 252.84628894 444.36392403 268.60365869 444.35728222 284.36110318 C444.35379892 293.19451038 444.35596311 302.0278247 444.37353325 310.8612175 C444.38830534 318.38059074 444.3888256 325.89980566 444.37146234 333.41917597 C444.36299102 337.24910851 444.36070697 341.07875884 444.37611389 344.90867615 C444.45896088 367.12931988 444.28055034 389.27765263 428.42141724 406.76268005 C424.33183191 410.52956669 420.01482115 413.2783961 415.10891724 415.82518005 C414.5024939 416.14341736 413.89607056 416.46165466 413.27127075 416.78953552 C401.39311991 422.46793071 388.60227328 422.8277428 375.71783447 422.77536011 C374.02598305 422.77954158 372.33413444 422.78502353 370.64229095 422.79167992 C366.03010962 422.80604651 361.41810832 422.80191751 356.8059175 422.79451311 C351.81738245 422.78976185 346.82888526 422.80230851 341.84036255 422.81253052 C332.08183208 422.82968548 322.3233661 422.83056541 312.56482448 422.82531761 C304.62955282 422.8212686 296.69430015 422.82272814 288.75902939 422.82806587 C287.06195686 422.82918851 287.06195686 422.82918851 285.33060005 422.83033382 C283.03186322 422.83186537 280.73312639 422.83340371 278.43438958 422.83494879 C256.9002038 422.84866182 235.3660544 422.8432445 213.83186947 422.83176357 C194.15295932 422.82183196 174.47414321 422.83477279 154.79524757 422.85869776 C134.56297529 422.88310921 114.33074678 422.89269163 94.09846008 422.88604504 C82.74994984 422.88255744 71.40151191 422.88475461 60.05301285 422.90229607 C50.39268008 422.91704359 40.73247053 422.91762013 31.07214011 422.90022516 C26.14858563 422.89173392 21.22525103 422.88951962 16.30170822 422.90487671 C11.78502069 422.91878977 7.26874005 422.91387632 2.75207566 422.89463747 C1.12772607 422.89089736 -0.49665664 422.89374132 -2.12097655 422.90424912 C-20.25611775 423.01312231 -38.626628 419.54808491 -52.51608276 406.95018005 C-56.2829694 402.86059473 -59.03179881 398.54358396 -61.57858276 393.63768005 C-61.89682007 393.03125671 -62.21505737 392.42483337 -62.54293823 391.80003357 C-67.65544747 381.10561131 -68.58757354 369.3413414 -68.52876282 357.66334534 C-68.53414836 356.35593569 -68.53953389 355.04852604 -68.54508263 353.70149791 C-68.55939434 350.11544153 -68.55533792 346.52961774 -68.54791582 342.94354939 C-68.54315064 339.05931462 -68.55572334 335.17512779 -68.56593323 331.29090881 C-68.58306134 323.69808535 -68.58397375 316.10534485 -68.57872032 308.5125071 C-68.57466624 302.33638716 -68.57613683 296.1602916 -68.58146858 289.98417282 C-68.582217 289.10257365 -68.58296543 288.22097448 -68.58373653 287.31266018 C-68.58526813 285.52125335 -68.58680647 283.72984653 -68.5883515 281.93843971 C-68.60205483 265.16841151 -68.59665407 248.39843005 -68.58516628 231.62840293 C-68.57523584 216.31438783 -68.58817517 201.00049358 -68.61210047 185.68649711 C-68.63653145 169.92907117 -68.64608955 154.17170142 -68.63944775 138.41425693 C-68.63596445 129.58084973 -68.63812864 120.74753541 -68.65569878 111.91414261 C-68.67047087 104.39476937 -68.67099112 96.87555444 -68.65362787 89.35618414 C-68.64515654 85.5262516 -68.6428725 81.69660126 -68.65827942 77.86668396 C-68.74112641 55.64604023 -68.56271587 33.49770748 -52.70358276 16.01268005 C-48.61399744 12.24579342 -44.29698667 9.49696401 -39.39108276 6.95018005 C-38.48144775 6.4728241 -38.48144775 6.4728241 -37.55343628 5.98582458 C-25.67528544 0.30742939 -12.8844388 -0.05238269 0 0 Z "
     fill="#FEFEFE"
     transform="translate(68.14108276367188,-0.3876800537109375)"
     id="path1" />
  <path
     d="M0 0 C1.03543945 -0.03673828 1.03543945 -0.03673828 2.09179688 -0.07421875 C7.26376041 -0.10363276 10.10757314 1.11061592 14.0625 4.375 C17.93937348 8.47523244 20.43634739 12.59057823 20.5625 18.3125 C20.29960861 22.55162362 19.52586153 26.64011829 18.5 30.7578125 C17.90243359 34.33254014 18.00121703 37.75164436 18.0625 41.375 C19.1246875 41.87128906 20.186875 42.36757812 21.28125 42.87890625 C35.9562918 49.8710708 46.11258658 58.12795917 53.0625 73.375 C53.0625 74.035 53.0625 74.695 53.0625 75.375 C55.04209785 74.77224764 57.02115342 74.16771425 59 73.5625 C60.10214844 73.22605469 61.20429688 72.88960938 62.33984375 72.54296875 C66.59914904 71.20662848 70.83204439 69.79955955 75.0625 68.375 C74.95808594 66.52648437 74.95808594 66.52648437 74.8515625 64.640625 C74.44939374 54.41788811 74.35746686 45.75265528 81.0625 37.375 C84.30699616 35.14409835 87.06911294 33.47483468 91.0625 33.375 C93.875 35.1875 93.875 35.1875 96.0625 37.375 C96.0625 38.035 96.0625 38.695 96.0625 39.375 C96.7225 39.375 97.3825 39.375 98.0625 39.375 C98.3152992 46.70617691 98.3152992 46.70617691 97.0703125 50 C95.46041977 55.39126868 95.7761072 60.90327419 95.84765625 66.5 C95.71542384 73.55917611 93.7797106 77.21463072 89.0625 82.375 C88.35867188 83.23867187 87.65484375 84.10234375 86.9296875 84.9921875 C77.60226678 95.56326431 63.62522467 109.36375901 48.5390625 110.578125 C39.39404482 110.72845406 39.39404482 110.72845406 35.0625 107.375 C34.4025 107.375 33.7425 107.375 33.0625 107.375 C29.4360922 122.33678311 27.41024938 134.58087957 32.25 149.4375 C37.60576991 166.90924763 40.76447372 184.68076903 43.53363037 202.71710205 C43.75663378 204.16760109 43.9827755 205.61762206 44.21246338 207.06707764 C48.37368143 233.56485075 48.37368143 233.56485075 44.6875 241.5625 C39.39056916 247.23778304 32.46719055 249.88622798 24.81640625 250.578125 C19.77934788 250.68586956 16.33811997 250.32042709 12.0625 247.375 C9.91248307 245.15084456 7.95312219 242.82208191 6.0625 240.375 C5.7325 242.355 5.4025 244.335 5.0625 246.375 C6.2175 246.705 7.3725 247.035 8.5625 247.375 C11.8736458 248.44718054 14.90664509 249.76928334 17.9765625 251.390625 C18.66943359 251.75542969 19.36230469 252.12023437 20.07617188 252.49609375 C21.46370447 253.23799369 22.8430526 253.99544727 24.21289062 254.76953125 C30.93216895 258.35755968 36.10744211 256.78596459 43.11254883 254.66137695 C44.17058716 254.33399536 44.17058716 254.33399536 45.25 254 C53.94411976 251.38414508 62.57350694 248.84509722 71.578125 247.55078125 C78.44572961 246.42436548 84.8941877 244.40238929 91.5 242.25 C94.07580071 241.43272306 96.65219965 240.61798621 99.23046875 239.80859375 C100.20948654 239.50082756 100.20948654 239.50082756 101.20828247 239.18684387 C118.42827268 233.80125178 135.91180314 229.32805184 153.4375 225.0625 C154.11397583 224.8973288 154.79045166 224.73215759 155.48742676 224.5619812 C167.81924627 221.56190652 167.81924627 221.56190652 173.19628906 220.65478516 C173.8719693 220.53649857 174.54764954 220.41821198 175.24380493 220.29634094 C177.10717916 219.97746134 178.97465788 219.68283641 180.84228516 219.38989258 C184.77752463 218.14965069 186.47893757 216.5572567 189.0625 213.375 C190.10166877 211.28772212 190.10166877 211.28772212 190.5390625 209.125 C190.83296875 207.96484375 190.83296875 207.96484375 191.1328125 206.78125 C191.40738281 205.59015625 191.40738281 205.59015625 191.6875 204.375 C193.13854797 198.33550304 194.43292307 193.30798965 198.6875 188.5625 C202.29987806 186.75631097 206.10471203 186.63154812 210.0625 187.375 C212.52462353 189.29310079 213.0501949 190.33808471 214.0625 193.375 C215.09495771 207.64322707 215.09495771 207.64322707 210.953125 214.19140625 C208.91971159 219.17683648 209.79509911 225.08640454 210.0625 230.375 C211.1453125 229.2303125 211.1453125 229.2303125 212.25 228.0625 C215.0625 225.375 215.0625 225.375 217.39453125 224.05078125 C220.57252421 222.05464804 223.00135638 219.57962506 225.5625 216.875 C233.07325125 208.94347837 233.07325125 208.94347837 238.52734375 207.90625 C242.78421963 207.85245062 246.14418078 207.88732013 249.6875 210.4375 C252.0625 213.375 252.0625 213.375 252.625 216.8125 C251.25708539 225.47595917 245.84162459 230.32388756 239.0625 235.375 C237.27910679 236.28254899 235.49502797 237.18924437 233.69506836 238.06347656 C227.71836801 240.81591492 227.71836801 240.81591492 224.10546875 245.9765625 C223.93399984 248.59717333 223.93399984 248.59717333 224.27734375 251.078125 C224.0625 253.375 224.0625 253.375 221.91674805 255.29467773 C219.07842753 257.3633912 216.20965054 259.18183107 213.1796875 260.95703125 C212.61576797 261.28837067 212.05184845 261.61971008 211.47084045 261.96109009 C209.62898432 263.04106123 207.7834901 264.11461254 205.9375 265.1875 C205.30554718 265.55650421 204.67359436 265.92550842 204.02249146 266.30569458 C171.79087128 285.12524132 171.79087128 285.12524132 159.0625 291.375 C159.60519531 291.76171875 160.14789063 292.1484375 160.70703125 292.546875 C161.42246094 293.06765625 162.13789063 293.5884375 162.875 294.125 C163.58269531 294.63546875 164.29039062 295.1459375 165.01953125 295.671875 C167.97522543 298.13589539 169.91476879 299.91384596 170.3125 303.84765625 C170.06091332 306.45393704 169.78832591 308.85621127 169.0625 311.375 C166.5625 313.375 166.5625 313.375 164.0625 314.375 C163.7325 315.035 163.4025 315.695 163.0625 316.375 C162.02351563 316.32859375 160.98453125 316.2821875 159.9140625 316.234375 C150.5924629 315.93772268 142.13957149 315.74485381 134.84375 322.3984375 C133.34639052 323.94324851 131.86222781 325.50094586 130.390625 327.0703125 C111.31783415 345.95109539 70.45132287 354.76028656 44.375 354.875 C33.29106643 354.64060769 23.99242089 352.54995747 14.59765625 346.58203125 C11.39170715 345.05562405 9.57439717 344.7843834 6.0625 345.375 C4.0171968 347.11085531 2.41052262 348.67815156 0.6875 350.6875 C-4.12458982 356.11707037 -8.17642898 358.80510871 -15.49316406 359.6809082 C-18.29452018 359.84851715 -21.06888145 359.88268273 -23.875 359.875 C-24.81279297 359.90335937 -25.75058594 359.93171875 -26.71679688 359.9609375 C-35.64683998 359.98576041 -42.46074974 356.48165025 -48.9375 350.375 C-54.67046325 343.00404725 -55.74811438 335.46635205 -54.9375 326.375 C-53.83016178 320.67665371 -52.38085774 315.33799475 -47.9375 311.375 C-45.94800397 310.49728116 -43.94954913 309.79602435 -41.8828125 309.12109375 C-39.13556314 308.06742984 -37.19981942 306.23126209 -34.9375 304.375 C-33.2359375 303.6634375 -33.2359375 303.6634375 -31.5 302.9375 C-28.56278361 301.6492472 -27.05496786 300.78139844 -24.75 298.75 C-22.25165914 296.64028994 -21.09804492 295.73967826 -17.9375 295.375 C-17.875625 294.50875 -17.81375 293.6425 -17.75 292.75 C-16.08192206 285.82106088 -11.81737057 283.14078518 -6 279.5625 C-4.25298313 278.52692435 -2.50251299 277.49734646 -0.75195312 276.46777344 C1.69638571 274.99323568 4.07999601 273.42812418 6.46801758 271.85839844 C22.42263084 261.375 22.42263084 261.375 27.0625 261.375 C27.0625 260.715 27.0625 260.055 27.0625 259.375 C26.24523437 259.11976563 25.42796875 258.86453125 24.5859375 258.6015625 C20.5172296 257.18518303 16.62130927 255.49994047 12.6875 253.75 C11.95144531 253.42515625 11.21539062 253.1003125 10.45703125 252.765625 C8.65779031 251.97115497 6.85999504 251.17341229 5.0625 250.375 C4.94519531 251.15488281 4.82789063 251.93476563 4.70703125 252.73828125 C3.69443167 256.88073409 0.78179353 258.32453055 -2.71484375 260.4609375 C-8.04156555 262.65154014 -15.08104303 262.46018459 -20.42578125 260.4296875 C-26.14088699 257.0070818 -29.7652206 252.71081492 -31.9375 246.375 C-36.92760615 246.06885852 -40.53986839 247.09505598 -45.1875 248.875 C-51.77083333 251.375 -51.77083333 251.375 -53.9375 251.375 C-53.9375 252.035 -53.9375 252.695 -53.9375 253.375 C-52.885625 253.74625 -52.885625 253.74625 -51.8125 254.125 C-48.56747541 255.53588026 -45.83433263 257.35395398 -42.9375 259.375 C-43.91674004 270.63626048 -48.55599111 278.83943358 -56.9375 286.375 C-81.00307867 305.63375459 -81.00307867 305.63375459 -89.07641602 305.28173828 C-93.37564268 303.91922204 -96.75499743 301.42367492 -100.44921875 298.87890625 C-101.25865433 298.33016342 -102.0680899 297.78142059 -102.90205383 297.21604919 C-104.60826646 296.05725233 -106.31184379 294.894567 -108.01293945 293.72827148 C-110.62100082 291.94024175 -113.23642736 290.16345627 -115.85351562 288.38867188 C-117.51085532 287.26106111 -119.16777117 286.1328271 -120.82421875 285.00390625 C-121.99920174 284.20382896 -121.99920174 284.20382896 -123.19792175 283.3875885 C-124.28463921 282.64187843 -124.28463921 282.64187843 -125.39331055 281.88110352 C-126.34997871 281.22610619 -126.34997871 281.22610619 -127.32597351 280.55787659 C-128.9375 279.375 -128.9375 279.375 -130.9375 277.375 C-131.70379232 270.68859092 -132.5534298 262.94979004 -129.72265625 256.6875 C-127.94173641 254.60906179 -126.11419509 253.03287708 -123.9375 251.375 C-122.79667969 250.35212891 -122.79667969 250.35212891 -121.6328125 249.30859375 C-112.57040635 241.44775263 -102.3776885 236.74132026 -90.3203125 236.75390625 C-80.43772924 237.6617733 -70.11060643 243.37972257 -61.625 248.29296875 C-59.01309951 249.65623866 -59.01309951 249.65623866 -56.4921875 248.7265625 C-55.64914063 248.28054688 -54.80609375 247.83453125 -53.9375 247.375 C-51.65217736 246.48356209 -49.35996371 245.60966366 -47.0625 244.75 C-45.88945312 244.30398438 -44.71640625 243.85796875 -43.5078125 243.3984375 C-39.80634543 242.33740427 -36.76638306 242.18894174 -32.9375 242.375 C-33.21464844 241.63894531 -33.49179688 240.90289062 -33.77734375 240.14453125 C-34.13957031 239.16871094 -34.50179687 238.19289063 -34.875 237.1875 C-35.23464844 236.22457031 -35.59429687 235.26164063 -35.96484375 234.26953125 C-36.9375 231.375 -36.9375 231.375 -37.3828125 228.6640625 C-37.78523199 226.00738194 -37.78523199 226.00738194 -40.875 223.9375 C-44.45773901 220.93969797 -44.91472803 219.87124394 -45.9375 215.375 C-46.12251186 211.5577756 -46.02777898 207.75683545 -45.9375 203.9375 C-45.84712715 197.07481139 -45.8522178 190.47051378 -46.9375 183.6875 C-47.8896972 177.61809916 -48.19415071 171.69464485 -48.25 165.5625 C-48.26740234 164.70245361 -48.28480469 163.84240723 -48.30273438 162.95629883 C-48.29846379 157.40614182 -47.38914408 152.7614486 -45.57055664 147.515625 C-44.30682339 143.24242287 -45.55858505 140.19963583 -47.35546875 136.2890625 C-49.22860003 131.96736765 -50.17285297 127.53522166 -51.125 122.9375 C-51.30224609 122.11056641 -51.47949219 121.28363281 -51.66210938 120.43164062 C-52.09360412 118.41411113 -52.5164545 116.39473604 -52.9375 114.375 C-53.64712891 114.95507812 -53.64712891 114.95507812 -54.37109375 115.546875 C-62.13965834 121.6648089 -68.83425825 125.18927621 -78.93359375 124.828125 C-85.13369449 123.89286923 -90.07904258 121.27991886 -94.4375 116.8125 C-96.78093882 113.00441192 -98.20826196 110.41656137 -98.125 105.875 C-98.11210938 104.99585938 -98.09921875 104.11671875 -98.0859375 103.2109375 C-97.93270341 100.28335985 -97.59379493 97.4107971 -97.25 94.5 C-96.63637829 87.98552295 -98.11807024 82.58087676 -99.9375 76.375 C-101.92799008 68.09242382 -102.6428444 58.34941521 -98.07421875 50.86328125 C-95.86438658 47.96999583 -94.24827424 46.58755798 -90.625 46 C-86.83644115 46.52863612 -84.26325963 47.44001258 -80.9375 49.375 C-78.82601911 52.39404724 -76.9375 55.6282931 -76.9375 59.375 C-75.2359375 59.3440625 -75.2359375 59.3440625 -73.5 59.3125 C-69.9375 59.375 -69.9375 59.375 -68.9375 60.375 C-68.85080568 61.8637186 -68.83046506 63.356445 -68.83984375 64.84765625 C-68.84306641 65.74677734 -68.84628906 66.64589844 -68.84960938 67.57226562 C-68.86217773 68.99055664 -68.86217773 68.99055664 -68.875 70.4375 C-68.87951172 71.38689453 -68.88402344 72.33628906 -68.88867188 73.31445312 C-68.9004989 75.66803065 -68.91697975 78.02148477 -68.9375 80.375 C-68.3084375 79.529375 -67.679375 78.68375 -67.03125 77.8125 C-55.17486827 62.02574871 -41.0669082 48.7514694 -21.9375 42.375 C-22.5975 41.385 -23.2575 40.395 -23.9375 39.375 C-24.31621858 36.04997925 -24.07461248 32.71435239 -23.9375 29.375 C-23.89302734 27.77591797 -23.89302734 27.77591797 -23.84765625 26.14453125 C-23.48553889 18.6107237 -22.72127697 11.60576161 -17.515625 5.78515625 C-12.14199334 1.00705593 -6.99701546 0.01299353 0 0 Z "
     fill="#6D6E6F"
     transform="translate(207.9375,29.625)"
     id="path2" />
  <path
     d="M0 0 C1.69185142 -0.00418147 3.38370003 -0.00966342 5.07554352 -0.01631981 C9.68772485 -0.0306864 14.29972615 -0.0265574 18.91191697 -0.019153 C23.90045202 -0.01440174 28.88894921 -0.0269484 33.87747192 -0.03717041 C43.63600239 -0.05432537 53.39446837 -0.0552053 63.15301 -0.04995751 C71.08828166 -0.0459085 79.02353433 -0.04736804 86.95880508 -0.05270576 C88.65587761 -0.0538284 88.65587761 -0.0538284 90.38723443 -0.05497371 C92.68597125 -0.05650526 94.98470808 -0.05804361 97.2834449 -0.05958868 C118.81763067 -0.07330171 140.35178007 -0.06788439 161.885965 -0.05640347 C181.56487515 -0.04647185 201.24369126 -0.05941269 220.9225869 -0.08333766 C241.15485918 -0.1077491 261.38708769 -0.11733153 281.61937439 -0.11068493 C292.96788463 -0.10719733 304.31632256 -0.10939451 315.66482162 -0.12693596 C325.32515439 -0.14168348 334.98536394 -0.14226002 344.64569436 -0.12486505 C349.56924884 -0.11637381 354.49258344 -0.11415951 359.41612625 -0.1295166 C363.93281379 -0.14342967 368.44909442 -0.13851622 372.96575882 -0.11927737 C374.59010841 -0.11553725 376.21449112 -0.11838121 377.83881103 -0.12888902 C395.97395222 -0.23776221 414.34446247 3.2272752 428.23391724 15.82518005 C432.00080387 19.91476538 434.74963328 24.23177614 437.29641724 29.13768005 C437.77377319 30.04731506 437.77377319 30.04731506 438.26077271 30.97532654 C443.37328194 41.6697488 444.30540801 53.4340187 444.24659729 65.11201477 C444.2546756 67.07312925 444.2546756 67.07312925 444.2629171 69.0738622 C444.27722882 72.65991858 444.27317239 76.24574237 444.26575029 79.83181071 C444.26098511 83.71604549 444.27355781 87.60023232 444.2837677 91.48445129 C444.30089582 99.07727476 444.30180822 106.67001525 444.2965548 114.26285301 C444.29250071 120.43897295 444.2939713 126.6150685 444.29930305 132.79118729 C444.30005148 133.67278646 444.3007999 134.55438563 444.301571 135.46269993 C444.3031026 137.25410676 444.30464095 139.04551358 444.30618597 140.8369204 C444.31988931 157.6069486 444.31448855 174.37693005 444.30300076 191.14695717 C444.29307031 206.46097228 444.30600964 221.77486653 444.32993495 237.088863 C444.35436593 252.84628894 444.36392403 268.60365869 444.35728222 284.36110318 C444.35379892 293.19451038 444.35596311 302.0278247 444.37353325 310.8612175 C444.38830534 318.38059074 444.3888256 325.89980566 444.37146234 333.41917597 C444.36299102 337.24910851 444.36070697 341.07875884 444.37611389 344.90867615 C444.45896088 367.12931988 444.28055034 389.27765263 428.42141724 406.76268005 C424.33183191 410.52956669 420.01482115 413.2783961 415.10891724 415.82518005 C414.5024939 416.14341736 413.89607056 416.46165466 413.27127075 416.78953552 C401.39311991 422.46793071 388.60227328 422.8277428 375.71783447 422.77536011 C374.02598305 422.77954158 372.33413444 422.78502353 370.64229095 422.79167992 C366.03010962 422.80604651 361.41810832 422.80191751 356.8059175 422.79451311 C351.81738245 422.78976185 346.82888526 422.80230851 341.84036255 422.81253052 C332.08183208 422.82968548 322.3233661 422.83056541 312.56482448 422.82531761 C304.62955282 422.8212686 296.69430015 422.82272814 288.75902939 422.82806587 C287.06195686 422.82918851 287.06195686 422.82918851 285.33060005 422.83033382 C283.03186322 422.83186537 280.73312639 422.83340371 278.43438958 422.83494879 C256.9002038 422.84866182 235.3660544 422.8432445 213.83186947 422.83176357 C194.15295932 422.82183196 174.47414321 422.83477279 154.79524757 422.85869776 C134.56297529 422.88310921 114.33074678 422.89269163 94.09846008 422.88604504 C82.74994984 422.88255744 71.40151191 422.88475461 60.05301285 422.90229607 C50.39268008 422.91704359 40.73247053 422.91762013 31.07214011 422.90022516 C26.14858563 422.89173392 21.22525103 422.88951962 16.30170822 422.90487671 C11.78502069 422.91878977 7.26874005 422.91387632 2.75207566 422.89463747 C1.12772607 422.89089736 -0.49665664 422.89374132 -2.12097655 422.90424912 C-20.25611775 423.01312231 -38.626628 419.54808491 -52.51608276 406.95018005 C-56.2829694 402.86059473 -59.03179881 398.54358396 -61.57858276 393.63768005 C-61.89682007 393.03125671 -62.21505737 392.42483337 -62.54293823 391.80003357 C-67.65544747 381.10561131 -68.58757354 369.3413414 -68.52876282 357.66334534 C-68.53414836 356.35593569 -68.53953389 355.04852604 -68.54508263 353.70149791 C-68.55939434 350.11544153 -68.55533792 346.52961774 -68.54791582 342.94354939 C-68.54315064 339.05931462 -68.55572334 335.17512779 -68.56593323 331.29090881 C-68.58306134 323.69808535 -68.58397375 316.10534485 -68.57872032 308.5125071 C-68.57466624 302.33638716 -68.57613683 296.1602916 -68.58146858 289.98417282 C-68.582217 289.10257365 -68.58296543 288.22097448 -68.58373653 287.31266018 C-68.58526813 285.52125335 -68.58680647 283.72984653 -68.5883515 281.93843971 C-68.60205483 265.16841151 -68.59665407 248.39843005 -68.58516628 231.62840293 C-68.57523584 216.31438783 -68.58817517 201.00049358 -68.61210047 185.68649711 C-68.63653145 169.92907117 -68.64608955 154.17170142 -68.63944775 138.41425693 C-68.63596445 129.58084973 -68.63812864 120.74753541 -68.65569878 111.91414261 C-68.67047087 104.39476937 -68.67099112 96.87555444 -68.65362787 89.35618414 C-68.64515654 85.5262516 -68.6428725 81.69660126 -68.65827942 77.86668396 C-68.74112641 55.64604023 -68.56271587 33.49770748 -52.70358276 16.01268005 C-48.61399744 12.24579342 -44.29698667 9.49696401 -39.39108276 6.95018005 C-38.48144775 6.4728241 -38.48144775 6.4728241 -37.55343628 5.98582458 C-25.67528544 0.30742939 -12.8844388 -0.05238269 0 0 Z M-43.14108276 33.38768005 C-47.81674315 40.33382574 -51.38991842 47.62606684 -51.39276505 56.11679649 C-51.39798054 57.24197917 -51.40319603 58.36716185 -51.40856957 59.52644098 C-51.40410813 60.75250137 -51.39964669 61.97856177 -51.39505005 63.24177551 C-51.39817003 64.55207784 -51.40129001 65.86238017 -51.40450454 67.21238863 C-51.41284893 70.84332774 -51.40872887 74.47416163 -51.4025321 78.10510111 C-51.39800708 82.02339291 -51.40499169 85.94166662 -51.41049194 89.85995483 C-51.41938754 97.53406521 -51.41746305 105.20813647 -51.41166666 112.88224839 C-51.40715018 119.12012203 -51.40653721 125.35798472 -51.40871429 131.59585953 C-51.40902076 132.48362776 -51.40932723 133.371396 -51.40964298 134.2860663 C-51.41028243 136.08956825 -51.41093086 137.8930702 -51.41158816 139.69657214 C-51.41729211 156.61081364 -51.41073288 173.52503346 -51.39998743 190.43927141 C-51.39105495 204.94877786 -51.39260134 219.4582523 -51.40182495 233.96775818 C-51.41253175 250.81831598 -51.41673953 267.66885477 -51.41060042 284.5194155 C-51.40996333 286.31690001 -51.40933459 288.11438453 -51.40871429 289.91186905 C-51.40840574 290.79625282 -51.40809719 291.68063659 -51.40777929 292.59181987 C-51.40605335 298.82033121 -51.40896535 305.04883047 -51.4136734 311.27733994 C-51.41928691 318.87065905 -51.41775601 326.46393682 -51.40711191 334.0572512 C-51.40186107 337.93061678 -51.39978841 341.80391347 -51.40641022 345.67727852 C-51.41348313 349.87811791 -51.40502896 354.07878384 -51.39505005 358.27961731 C-51.39951149 359.50121626 -51.40397294 360.72281522 -51.40856957 361.98143232 C-51.35181939 374.28137855 -48.53078347 384.96815944 -39.89108276 394.20018005 C-27.92065569 405.17087915 -15.18020295 406.83870321 0.46324158 406.77536011 C2.14552928 406.77953738 3.82781417 406.78501706 5.51009387 406.79167992 C10.11430107 406.80610171 14.71832876 406.80190001 19.32254565 406.79451311 C24.29541545 406.78977561 29.26824674 406.80229649 34.24110413 406.81253052 C43.97644956 406.82971285 53.71173043 406.83055964 63.44708709 406.82531761 C71.3619806 406.82127337 79.27685506 406.8227225 87.19174767 406.82806587 C88.8826063 406.82918851 88.8826063 406.82918851 90.60762369 406.83033382 C92.89774985 406.83186532 95.187876 406.83340367 97.47800215 406.83494879 C118.94722193 406.84867196 140.41640525 406.84323757 161.88562419 406.83176357 C181.51508322 406.82183299 201.14444796 406.8347692 220.77389244 406.85869776 C240.94161292 406.88309677 261.1092895 406.89269456 281.27702445 406.88604504 C292.59475838 406.8825544 303.91241983 406.88477458 315.23014259 406.90229607 C324.86540575 406.9170281 334.50054537 406.91764041 344.13580612 406.90022516 C349.04883497 406.8917208 353.96164323 406.88955185 358.87466049 406.90487671 C363.37839849 406.91875063 367.88172748 406.91392597 372.38544198 406.89463747 C374.00851185 406.89088542 375.63161469 406.89377636 377.2546551 406.90424912 C390.81715331 406.98548982 403.01852758 405.18351685 413.85891724 396.38768005 C414.48411255 395.88623474 415.10930786 395.38478943 415.75344849 394.8681488 C423.5912137 387.85001917 428.34977594 377.04395379 429.04435599 366.59912241 C429.11942691 363.24494887 429.13022565 359.89605598 429.11961365 356.54104614 C429.12343919 355.25565297 429.12726474 353.97025981 429.13120621 352.64591533 C429.14146178 349.09370016 429.13931065 345.54158621 429.13502562 341.98936284 C429.13255392 338.15216372 429.14157811 334.3149887 429.14906311 330.47779846 C429.16180017 322.96605595 429.16360501 315.4543492 429.16126285 307.94259771 C429.15947828 301.83494566 429.1612323 295.72730445 429.16548729 289.6196537 C429.16638007 288.31468532 429.16638007 288.31468532 429.16729089 286.98335395 C429.16850267 285.21585426 429.16971681 283.44835458 429.17093327 281.68085489 C429.18180515 265.1117862 429.17964808 248.54273786 429.17354842 231.97366802 C429.16838055 216.8272774 429.1796319 201.68095111 429.19864664 186.53457322 C429.21803535 170.97059995 429.22627917 155.40665711 429.22252339 139.84267169 C429.22061279 131.10939435 429.22308509 122.37617175 429.23723793 113.64290428 C429.24916592 106.20744226 429.2505408 98.77206867 429.23844776 91.33660539 C429.23256879 87.54585577 429.23143228 83.75526779 429.24345016 79.96452904 C429.25634884 75.84798025 429.24582114 71.73181433 429.23313904 67.61526489 C429.24051332 66.42711439 429.24788761 65.23896389 429.25548536 64.01480883 C429.16692811 50.32255655 425.49552355 39.20133716 416.10891724 29.07518005 C411.88070966 25.05797708 407.19982519 22.63556627 401.85891724 20.38768005 C401.07903442 20.03447693 400.29915161 19.6812738 399.49563599 19.31736755 C394.04835388 17.39669623 388.44682816 17.26211119 382.71889114 17.25625229 C381.68856467 17.25317334 381.68856467 17.25317334 380.63742352 17.25003219 C378.3428486 17.2443916 376.04833426 17.24581577 373.75375366 17.24723816 C372.08913185 17.24465285 370.42451066 17.24163922 368.75989032 17.23823476 C364.19070357 17.23018124 359.62153255 17.22837611 355.05233955 17.22763729 C350.12241318 17.2257839 345.19249491 17.2182352 340.26257324 17.21150208 C329.48573448 17.19793066 318.70889945 17.19189609 307.93205357 17.18749142 C301.20189142 17.18472738 294.4717307 17.18048977 287.74156952 17.17598724 C269.10396541 17.16379689 250.46636244 17.15349662 231.82875443 17.15011215 C230.63635251 17.14989259 229.44395059 17.14967302 228.21541528 17.1494468 C227.02018305 17.14922852 225.82495082 17.14901024 224.59349942 17.14878535 C222.17155536 17.14834189 219.7496113 17.14789533 217.32766724 17.14744568 C215.52562057 17.14711353 215.52562057 17.14711353 213.68716893 17.14677468 C194.21785019 17.14282608 174.74856888 17.1253691 155.2792646 17.10208616 C135.28567898 17.07836937 115.29211213 17.06591018 95.29851222 17.06474423 C84.07470203 17.06382774 72.85094061 17.05808171 61.62714386 17.03992462 C52.07082609 17.02451935 42.51457218 17.01940577 32.95824435 17.02766272 C28.08399347 17.03156748 23.20987117 17.030648 18.33563614 17.01660538 C13.86957743 17.0038565 9.40374378 17.00507266 4.93768534 17.01719609 C3.32599809 17.01915135 1.71429484 17.01608258 0.10263005 17.00735173 C-17.30592262 16.91904959 -31.11463946 20.1545702 -43.14108276 33.38768005 Z "
     fill="#C0B1C8"
     transform="translate(68.14108276367188,-0.3876800537109375)"
     id="path3" />
  <path
     d="M0 0 C14.52985829 4.00097547 25.15353215 12.49059286 32.80859375 25.4453125 C34.25638624 28.54975935 35.13055736 31.69207404 36 35 C47.36328487 31.9764946 47.36328487 31.9764946 58.25 27.625 C60.8194012 26.40453443 61.84011837 25.99636633 64.75 26.0625 C67.34588949 27.14412062 69.65131757 28.45658012 72 30 C66.0238175 42.82624075 51.63434825 52.7011997 38.91015625 58.03515625 C34.8015313 59.39734465 32.28500637 59.7517555 28 59 C25.34316811 57.50251293 23.15347249 56.15347249 21 54 C21.36832042 46.51081821 23.44683478 40.01823557 26 33 C24.68 33 23.36 33 22 33 C21.92523438 33.62003906 21.85046875 34.24007812 21.7734375 34.87890625 C20.91169809 40.68297461 19.41547355 45.71693744 17.125 51.125 C12.62772761 61.81991723 9.94473296 72.50975145 9.75 84.125 C9.52204807 89.11873761 9.15835888 91.79646496 5.4375 95.25 C-1.88563215 100.73129811 -9.53183457 101.55379227 -18.375 101.5 C-19.94870361 101.49468262 -19.94870361 101.49468262 -21.55419922 101.48925781 C-32.65804968 101.25627448 -46.38296864 99.66500806 -55 92 C-58.87037884 85.29671229 -59.89011728 77.95208419 -60.75 70.375 C-60.87503906 69.37082031 -61.00007813 68.36664063 -61.12890625 67.33203125 C-61.43134978 64.88921813 -61.72148876 62.44563668 -62 60 C-66.01192361 60.68671082 -67.89234161 61.44152323 -70.8125 64.3125 C-77.05528855 70.07052656 -84.01033918 73.44542366 -92.5859375 73.34765625 C-97.89893756 72.58251547 -101.57607351 69.24593568 -105.5 65.8125 C-109.11009205 59.0435774 -106.82281066 51.06339132 -105 44 C-100.38 43.67 -95.76 43.34 -91 43 C-87.66043752 48.00934371 -85.34392404 52.1356042 -84 58 C-83.01 58 -82.02 58 -81 58 C-81.27714844 57.25234375 -81.55429688 56.5046875 -81.83984375 55.734375 C-82.20207031 54.74953125 -82.56429687 53.7646875 -82.9375 52.75 C-83.47697266 51.28820312 -83.47697266 51.28820312 -84.02734375 49.796875 C-84.81379655 47.53542839 -85.47251601 45.33203448 -86 43 C-84.89591797 42.43152344 -84.89591797 42.43152344 -83.76953125 41.8515625 C-80.5667744 39.71036822 -78.90630849 37.51459373 -76.6875 34.375 C-66.15451184 19.86883093 -52.0181716 5.58356997 -34 1 C-31.89453125 1.0390625 -31.89453125 1.0390625 -30 2 C-28.47265625 4.58203125 -28.47265625 4.58203125 -27.0625 7.8125 C-24.7220399 13.16491712 -22.29248301 16.35375849 -17 19 C-14.06856812 19.4533784 -14.06856812 19.4533784 -11 19 C-8.899404 17.16109076 -8.899404 17.16109076 -7.375 14.5625 C-6.79363281 13.65886719 -6.21226562 12.75523438 -5.61328125 11.82421875 C-3.42808567 7.99880373 -1.59602316 4.10405954 0 0 Z "
     fill="#FDFDFD"
     transform="translate(222,76)"
     id="path4" />
  <path
     d="M0 0 C2.68811145 2.68811145 3.29613029 5.68582224 4.3125 9.25 C4.5276123 9.99652832 4.74272461 10.74305664 4.96435547 11.51220703 C9.45775442 27.459368 12.70803964 43.60100787 15 60 C15.13680176 60.94617188 15.27360352 61.89234375 15.41455078 62.8671875 C19.5921258 91.87943343 19.5921258 91.87943343 16.4375 98.0625 C10.16880091 103.0453121 4.93108992 103.3563345 -2.9140625 103.49609375 C-6.70446091 102.88675122 -8.29862331 101.68718382 -11 99 C-19.00177638 86.95898826 -19.35700308 67.07356573 -21 53 C-21.99 52.67 -22.98 52.34 -24 52 C-25.39776628 56.00016485 -24.92810934 59.9837742 -24.66015625 64.1328125 C-24.61434921 64.92468964 -24.56854218 65.71656677 -24.52134705 66.53244019 C-24.3741592 69.06367287 -24.21886064 71.59431871 -24.0625 74.125 C-23.86211092 77.43988914 -23.66548583 80.75497509 -23.47265625 84.0703125 C-23.42654205 84.85980286 -23.38042786 85.64929321 -23.33291626 86.46270752 C-23.02357681 91.98379984 -22.90386067 97.46916063 -23 103 C-23.84820312 102.86722656 -24.69640625 102.73445313 -25.5703125 102.59765625 C-34.05538151 101.32023377 -42.43130077 100.49484889 -51 100 C-59.13217101 75.54759577 -65.20102875 51.14605012 -65.3125 25.25 C-65.31805908 24.1669458 -65.32361816 23.0838916 -65.3293457 21.96801758 C-65.27239909 15.70827105 -64.84679197 10.00361804 -63 4 C-58.81618633 2.60539544 -55.73130397 4.08318157 -51.6875 5.375 C-38.58222925 9.49089176 -20.84238099 12.55321497 -8 6 C-5.17200857 4.16902697 -2.54953854 2.20057936 0 0 Z "
     fill="#FDFDFD"
     transform="translate(231,171)"
     id="path5" />
  <path
     d="M0 0 C2.7427954 3.87218174 2.88650722 6.30964199 3.125 11 C0.52301533 12.30099233 -1.78977945 12.44537323 -4.68359375 12.796875 C-5.89337891 12.94858154 -7.10316406 13.10028809 -8.34960938 13.2565918 C-9.65736328 13.4194165 -10.96511719 13.58224121 -12.3125 13.75 C-26.04439095 15.49773688 -39.6059201 17.81843189 -53.19140625 20.4909668 C-56.07931 21.03875422 -58.97409473 21.52636651 -61.875 22 C-61.875 22.99 -61.875 23.98 -61.875 25 C-61.21830322 24.86948242 -60.56160645 24.73896484 -59.88500977 24.60449219 C-39.20501067 20.51327366 -18.54157163 16.52901988 2.48022461 14.72460938 C7.85606056 14.2306888 12.81205156 13.26858669 17.93359375 11.48828125 C20.70883377 10.86991226 22.44094652 11.0712464 25.125 12 C26.48828125 13.671875 26.48828125 13.671875 27.4375 15.75 C27.76363281 16.42546875 28.08976563 17.1009375 28.42578125 17.796875 C29.26534999 20.44222007 29.47691303 22.2361373 29.125 25 C27.25512695 26.66235352 27.25512695 26.66235352 24.61328125 28.12890625 C23.63875 28.68263916 22.66421875 29.23637207 21.66015625 29.80688477 C20.06494141 30.67591431 20.06494141 30.67591431 18.4375 31.5625 C17.34695313 32.17601318 16.25640625 32.78952637 15.1328125 33.42163086 C12.88248523 34.68678654 10.62803816 35.94464094 8.36962891 37.1953125 C4.60228692 39.29073703 0.87176843 41.44494134 -2.85717773 43.60766602 C-6.26253949 45.57533311 -9.68571442 47.51050754 -13.11230469 49.44091797 C-15.05844683 50.53919154 -17.00153356 51.64288806 -18.94238281 52.75048828 C-22.11918232 54.55864827 -25.3079507 56.34392543 -28.5 58.125 C-29.47130859 58.68195557 -30.44261719 59.23891113 -31.44335938 59.81274414 C-37.01201018 62.88515263 -41.74070697 64.5449251 -48.01806641 65.44873047 C-53.52245211 66.51084831 -58.59826901 68.84317483 -63.75 71 C-64.85085938 71.45117188 -65.95171875 71.90234375 -67.0859375 72.3671875 C-69.12161329 73.20220985 -71.15554519 74.04150754 -73.18701172 74.88671875 C-74.51756592 75.43779297 -74.51756592 75.43779297 -75.875 76 C-76.7530127 76.37769531 -77.63102539 76.75539063 -78.53564453 77.14453125 C-80.875 78 -80.875 78 -83.875 78 C-83.56317931 76.58318366 -83.25051263 75.16655349 -82.9375 73.75 C-82.67646484 72.56664062 -82.67646484 72.56664062 -82.41015625 71.359375 C-82.08772178 69.93783907 -81.74369918 68.52061231 -81.35864258 67.11474609 C-79.28693289 58.05611444 -79.29639847 45.98775776 -84.2734375 38.0078125 C-90.02618845 30.79582717 -96.07585361 27.60415913 -104.875 25 C-104.875 24.34 -104.875 23.68 -104.875 23 C-100.16303724 21.59987392 -95.44731378 20.21305926 -90.72900391 18.83447266 C-88.76469498 18.26013494 -86.80085362 17.68419648 -84.83740234 17.10693359 C-65.96382641 11.5701088 -46.99410079 6.60496212 -27.875 2 C-26.86969238 1.75701172 -25.86438477 1.51402344 -24.82861328 1.26367188 C-22.32578412 0.66403106 -19.82053787 0.07741322 -17.3125 -0.5 C-16.63558105 -0.66016602 -15.95866211 -0.82033203 -15.26123047 -0.98535156 C-4.77358627 -3.32075567 -4.77358627 -3.32075567 0 0 Z "
     fill="#FDFDFD"
     transform="translate(397.875,256)"
     id="path6" />
  <path
     d="M0 0 C4.10632971 3.50146936 7.58697371 6.83417183 9.26171875 12.09765625 C8.80958017 17.21838851 4.6953953 19.65660691 1.046875 22.8125 C-20.84184649 40.77168944 -54.46461103 60.90807046 -82.98828125 64.5078125 C-83.89578125 64.70246094 -84.80328125 64.89710938 -85.73828125 65.09765625 C-86.78836778 67.07181893 -87.78816001 69.07348491 -88.73828125 71.09765625 C-91.42578125 72.47265625 -91.42578125 72.47265625 -93.73828125 73.09765625 C-94.06828125 71.44765625 -94.39828125 69.79765625 -94.73828125 68.09765625 C-96.38828125 67.76765625 -98.03828125 67.43765625 -99.73828125 67.09765625 C-99.73828125 68.41765625 -99.73828125 69.73765625 -99.73828125 71.09765625 C-99.07828125 71.09765625 -98.41828125 71.09765625 -97.73828125 71.09765625 C-98.30078125 73.97265625 -98.30078125 73.97265625 -99.73828125 77.09765625 C-103.36328125 78.47265625 -103.36328125 78.47265625 -106.73828125 79.09765625 C-106.73828125 79.75765625 -106.73828125 80.41765625 -106.73828125 81.09765625 C-105.08828125 81.42765625 -103.43828125 81.75765625 -101.73828125 82.09765625 C-104.13365728 87.90424841 -109.51999476 90.63529296 -115.05078125 93.1484375 C-120.79555855 95.25286113 -126.17492125 96.46584055 -132.02734375 94.21875 C-138.20866161 91.08674446 -143.4980448 86.81836559 -145.73828125 80.09765625 C-145.88677565 77.47901464 -145.96928395 74.90440855 -145.98828125 72.28515625 C-146.00890625 71.58583984 -146.02953125 70.88652344 -146.05078125 70.16601562 C-146.08649553 65.39369477 -145.36120552 62.09945425 -142.73828125 58.09765625 C-141.25328125 57.60265625 -141.25328125 57.60265625 -139.73828125 57.09765625 C-139.28255208 59.05078125 -138.82682292 61.00390625 -138.37109375 62.95703125 C-137.05583739 67.40617004 -135.23563644 69.80676561 -131.67578125 72.78515625 C-130.96292969 73.38714844 -130.25007812 73.98914063 -129.515625 74.609375 C-128.63583984 75.34607422 -128.63583984 75.34607422 -127.73828125 76.09765625 C-127.24328125 76.59265625 -127.24328125 76.59265625 -126.73828125 77.09765625 C-119.99591989 76.97044188 -115.2524219 74.57334098 -109.375 71.375 C-106.73828125 70.09765625 -106.73828125 70.09765625 -103.73828125 70.09765625 C-103.73828125 70.75765625 -103.73828125 71.41765625 -103.73828125 72.09765625 C-102.74828125 72.09765625 -101.75828125 72.09765625 -100.73828125 72.09765625 C-101.39828125 70.44765625 -102.05828125 68.79765625 -102.73828125 67.09765625 C-108.46452398 67.70180113 -112.80030688 70.03906576 -117.703125 72.83398438 C-122.19819004 75.24800079 -122.19819004 75.24800079 -124.94140625 74.484375 C-125.534375 74.02675781 -126.12734375 73.56914062 -126.73828125 73.09765625 C-127.34929687 72.64648438 -127.9603125 72.1953125 -128.58984375 71.73046875 C-129.17507812 71.23289062 -129.7603125 70.7353125 -130.36328125 70.22265625 C-130.95367187 69.73023438 -131.5440625 69.2378125 -132.15234375 68.73046875 C-135.08672159 65.70936054 -135.7069435 63.34444102 -136.23828125 59.16015625 C-136.13115439 55.57140654 -135.74697733 55.10787414 -133.23828125 52.16015625 C-130.69334698 50.32948419 -128.84223157 49.87188463 -125.73828125 49.72265625 C-122.99502737 49.56966709 -122.00074994 49.3262042 -119.89453125 47.4921875 C-118.41517973 45.74418016 -117.03753199 43.9825541 -115.73828125 42.09765625 C-115.07828125 42.42765625 -114.41828125 42.75765625 -113.73828125 43.09765625 C-113.59390625 43.75765625 -113.44953125 44.41765625 -113.30078125 45.09765625 C-113.11515625 45.75765625 -112.92953125 46.41765625 -112.73828125 47.09765625 C-111.74828125 47.42765625 -110.75828125 47.75765625 -109.73828125 48.09765625 C-110.23328125 45.12765625 -110.23328125 45.12765625 -110.73828125 42.09765625 C-109.97515625 42.73703125 -109.21203125 43.37640625 -108.42578125 44.03515625 C-105.85581412 46.23998406 -105.85581412 46.23998406 -102.73828125 47.09765625 C-103.21265625 46.35515625 -103.68703125 45.61265625 -104.17578125 44.84765625 C-105.51697452 42.4871561 -106.25059325 40.73117148 -106.73828125 38.09765625 C-103.73828125 36.09765625 -103.73828125 36.09765625 -100.73828125 36.22265625 C-97.73828125 37.09765625 -97.73828125 37.09765625 -96.23828125 39.16015625 C-95.74328125 39.79953125 -95.24828125 40.43890625 -94.73828125 41.09765625 C-91.6124125 41.43163412 -91.6124125 41.43163412 -88.73828125 41.09765625 C-88.73828125 40.10765625 -88.73828125 39.11765625 -88.73828125 38.09765625 C-89.50140625 38.18015625 -90.26453125 38.26265625 -91.05078125 38.34765625 C-93.73828125 38.09765625 -93.73828125 38.09765625 -95.61328125 36.53515625 C-97.27718885 32.93002311 -96.75696671 30.91772674 -95.73828125 27.09765625 C-92.73965206 20.79448033 -88.96864249 17.28096976 -82.98828125 13.84765625 C-82.27889404 13.42508545 -81.56950684 13.00251465 -80.83862305 12.56713867 C-68.22099095 5.15408147 -68.22099095 5.15408147 -62.98828125 5.03515625 C-59.9431447 6.4731374 -58.06596676 8.69674885 -55.73828125 11.09765625 C-56.32843018 11.35981934 -56.9185791 11.62198242 -57.52661133 11.89208984 C-60.20261036 13.08276854 -62.87670675 14.27766202 -65.55078125 15.47265625 C-66.47955078 15.88515625 -67.40832031 16.29765625 -68.36523438 16.72265625 C-69.25791016 17.12226563 -70.15058594 17.521875 -71.0703125 17.93359375 C-71.89249268 18.3001709 -72.71467285 18.66674805 -73.56176758 19.04443359 C-75.94389318 20.13587037 -75.94389318 20.13587037 -78.73828125 22.09765625 C-79.57767394 24.83695215 -79.57767394 24.83695215 -78.73828125 28.09765625 C-73.48580653 36.33173379 -64.23445247 43.48384141 -55.73828125 48.09765625 C-51.67858418 48.99078961 -49.4990278 48.55793988 -45.94921875 46.41015625 C-39.94874433 42.20367464 -39.94874433 42.20367464 -34.73828125 37.09765625 C-34.85378378 32.70856004 -36.83718357 30.25473314 -39.73828125 27.09765625 C-41.22328125 26.10765625 -41.22328125 26.10765625 -42.73828125 25.09765625 C-42.44921875 23.22265625 -42.44921875 23.22265625 -41.73828125 21.09765625 C-36.41665431 17.94409955 -30.8175142 15.97685071 -24.9609375 14.02734375 C-22.57404318 13.31299758 -22.57404318 13.31299758 -21.73828125 11.09765625 C-21.23757804 7.72408291 -21.23757804 7.72408291 -21.73828125 4.09765625 C-23.86276603 1.30630046 -23.86276603 1.30630046 -26.73828125 -0.90234375 C-27.66640625 -1.66546875 -28.59453125 -2.42859375 -29.55078125 -3.21484375 C-30.63359375 -4.05015625 -30.63359375 -4.05015625 -31.73828125 -4.90234375 C-30.19826418 -5.24321709 -28.65615719 -5.57465328 -27.11328125 -5.90234375 C-26.25476563 -6.08796875 -25.39625 -6.27359375 -24.51171875 -6.46484375 C-15.51466801 -7.88409682 -7.43647354 -5.16628047 0 0 Z "
     fill="#FBFBFB"
     transform="translate(304.73828125,288.90234375)"
     id="path7" />
  <path
     d="M0 0 C0.69467776 9.62900562 -0.59553909 21.31990725 -7 29 C-9.78764564 30.24153442 -12.6602452 30.93028848 -15.625 31.625 C-18.48045182 32.3155341 -21.19958013 33.08617878 -24 34 C-24.33 34.99 -24.66 35.98 -25 37 C-15.40827001 34.37949874 -6.04339843 31.3797991 3.3125 28 C4.50939453 27.57460938 5.70628906 27.14921875 6.93945312 26.7109375 C12.82638488 24.59851069 18.58632312 22.41258117 24.21337891 19.67480469 C26.72124435 18.72758686 28.5357592 19.04610033 31 20 C31.84015151 22.68848482 32.26178353 24.25127293 32 27 C30.19565438 30.19382345 27.66960289 32.51404429 25 35 C24.14921875 35.80824219 23.2984375 36.61648438 22.421875 37.44921875 C6.1163856 51.99496271 -15.86100639 58.91043993 -37 63 C-37.88429688 63.20367187 -38.76859375 63.40734375 -39.6796875 63.6171875 C-60.07401194 67.83471068 -77.89589104 65.01050731 -96 55 C-95.67 53.68 -95.34 52.36 -95 51 C-94.30132812 51.0721875 -93.60265625 51.144375 -92.8828125 51.21875 C-91.51769531 51.35796875 -91.51769531 51.35796875 -90.125 51.5 C-88.76761719 51.63921875 -88.76761719 51.63921875 -87.3828125 51.78125 C-85.06686789 52.03047295 -85.06686789 52.03047295 -83 52 C-83.33 51.34 -83.66 50.68 -84 50 C-86.32156597 49.59270772 -88.6568787 49.25561323 -91 49 C-88.28418021 46.28418021 -85.23689456 45.88077499 -81.625 44.9375 C-71.24009371 42.04964097 -61.70309662 37.63503293 -52 33 C-50.61459063 32.35415102 -49.22917438 31.70831678 -47.84375 31.0625 C-31.85537376 23.47540038 -17.42467667 13.83761285 -3.9296875 2.421875 C-1 0 -1 0 0 0 Z "
     fill="#FCFCFC"
     transform="translate(315,308)"
     id="path8" />
  <path
     d="M0 0 C5.18586738 3.24572572 5.18586738 3.24572572 7.27734375 5.67578125 C7.55859375 9.421875 7.55859375 9.421875 7.27734375 12.67578125 C6.74778076 12.87212158 6.21821777 13.06846191 5.67260742 13.27075195 C3.26677471 14.16815946 0.86585541 15.07805791 -1.53515625 15.98828125 C-2.36853516 16.29701172 -3.20191406 16.60574219 -4.06054688 16.92382812 C-4.86298828 17.22998047 -5.66542969 17.53613281 -6.4921875 17.8515625 C-7.23057861 18.12911377 -7.96896973 18.40666504 -8.72973633 18.69262695 C-10.90560676 19.76603504 -12.21799471 20.77517175 -13.72265625 22.67578125 C-13.95139394 25.64699659 -13.95139394 25.64699659 -12.72265625 28.67578125 C-10.76338562 30.39014305 -8.76385413 32.05983293 -6.72265625 33.67578125 C-6.03515625 35.82421875 -6.03515625 35.82421875 -5.72265625 37.67578125 C-6.97105124 38.78176225 -8.22144859 39.88548326 -9.47265625 40.98828125 C-10.16875 41.60316406 -10.86484375 42.21804688 -11.58203125 42.8515625 C-12.2884375 43.45355469 -12.99484375 44.05554688 -13.72265625 44.67578125 C-14.3465625 45.26746094 -14.97046875 45.85914063 -15.61328125 46.46875 C-17.72265625 47.67578125 -17.72265625 47.67578125 -20.67578125 47.58203125 C-24.00991248 46.59034093 -25.82774364 45.41241876 -28.47265625 43.17578125 C-29.74689453 42.10070312 -29.74689453 42.10070312 -31.046875 41.00390625 C-32.37138672 39.85148437 -32.37138672 39.85148437 -33.72265625 38.67578125 C-34.65722656 37.886875 -35.59179688 37.09796875 -36.5546875 36.28515625 C-43.8496861 29.98160953 -43.8496861 29.98160953 -44.72265625 25.67578125 C-42.16139561 24.38160725 -39.59872267 23.09037341 -37.03515625 21.80078125 C-36.31392578 21.43597656 -35.59269531 21.07117188 -34.84960938 20.6953125 C-23.76985348 15.13013831 -23.76985348 15.13013831 -18.72265625 15.67578125 C-18.06265625 16.33578125 -17.40265625 16.99578125 -16.72265625 17.67578125 C-14.65391591 18.31830475 -14.65391591 18.31830475 -12.72265625 18.67578125 C-13.23828125 17.95390625 -13.75390625 17.23203125 -14.28515625 16.48828125 C-15.72265625 13.67578125 -15.72265625 13.67578125 -15.09765625 11.17578125 C-14.97390625 10.35078125 -14.85015625 9.52578125 -14.72265625 8.67578125 C-17.09770843 5.96729202 -17.09770843 5.96729202 -19.72265625 3.67578125 C-19.72265625 3.01578125 -19.72265625 2.35578125 -19.72265625 1.67578125 C-12.9914922 -0.94189366 -6.83020863 -3.32200965 0 0 Z "
     fill="#FBDC32"
     transform="translate(272.72265625,287.32421875)"
     id="path10" />
  <path
     d="M0 0 C-3.03747045 2.4545534 -6.08673796 4.09240812 -9.640625 5.69921875 C-10.71054688 6.18583984 -11.78046875 6.67246094 -12.8828125 7.17382812 C-13.99398437 7.67333984 -15.10515625 8.17285156 -16.25 8.6875 C-17.37664062 9.19861328 -18.50328125 9.70972656 -19.6640625 10.23632812 C-22.44076563 11.49525708 -25.2194333 12.74963335 -28 14 C-28 14.66 -28 15.32 -28 16 C-24.23137953 18.12394451 -20.45935315 20.24166945 -16.68408203 22.35375977 C-15.40090659 23.07277211 -14.11866854 23.79346005 -12.83740234 24.51586914 C-10.99301555 25.55539358 -9.14531498 26.58879775 -7.296875 27.62109375 C-6.18666992 28.2442749 -5.07646484 28.86745605 -3.93261719 29.50952148 C-0.60244298 31.31667646 -0.60244298 31.31667646 3 32 C6.05818593 30.84021013 6.05818593 30.84021013 9.296875 29.03515625 C9.89050842 28.72299667 10.48414185 28.4108371 11.09576416 28.08921814 C12.98671717 27.09154381 14.86822912 26.07736877 16.75 25.0625 C18.03196517 24.38235615 19.31451139 23.70330627 20.59765625 23.02539062 C23.73860741 21.36289236 26.87130999 19.68548211 30 18 C30 17.34 30 16.68 30 16 C29.34 15.67 28.68 15.34 28 15 C28 14.34 28 13.68 28 13 C32.67105792 14.55701931 36.08705685 17.08447373 40 20 C39.61613314 27.2934704 35.72819231 33.29899897 30.6484375 38.328125 C22.40954919 45.27892753 13.03337815 51.98664874 3 56 C3 50.39 3 44.78 3 39 C1.35 38.34 -0.3 37.68 -2 37 C-3.40640305 36.19122376 -4.79105816 35.34354165 -6.15234375 34.4609375 C-6.92280029 33.96625977 -7.69325684 33.47158203 -8.48706055 32.96191406 C-9.29570557 32.43823242 -10.10435059 31.91455078 -10.9375 31.375 C-18.82591678 26.32287647 -26.80817919 21.5435874 -35 17 C-24.68076944 6.61045101 -15.25500179 -0.61020007 0 0 Z "
     fill="#A3C44C"
     transform="translate(119,272)"
     id="path11" />
  <path
     d="M0 0 C-1.02734375 2 -1.02734375 2 -3 4 C-5.64784575 4.19235202 -7.94055512 4.1810844 -10.5625 4 C-18.59629449 3.75595132 -25.02176975 4.37196607 -31.21875 10.0234375 C-32.71610948 11.56824851 -34.20027219 13.12594586 -35.671875 14.6953125 C-54.74466585 33.57609539 -95.61117713 42.38528656 -121.6875 42.5 C-132.77143357 42.26560769 -142.07007911 40.17495747 -151.46484375 34.20703125 C-154.67079285 32.68062405 -156.48810283 32.4093834 -160 33 C-162.0453032 34.73585531 -163.65197738 36.30315156 -165.375 38.3125 C-170.20398907 43.76113811 -174.28794849 46.60683208 -181.70068359 47.2253418 C-184.64062543 47.29406449 -187.56034405 47.26272742 -190.5 47.1875 C-191.51320312 47.17396484 -192.52640625 47.16042969 -193.5703125 47.14648438 C-196.04744404 47.11143063 -198.52342927 47.06229764 -201 47 C-201 46.67 -201 46.34 -201 46 C-200.11699219 45.97421875 -199.23398438 45.9484375 -198.32421875 45.921875 C-183.03172324 45.19913622 -174.37606612 41.16184478 -164.04296875 29.859375 C-162.66185172 28.26801767 -161.32478522 26.63855013 -160 25 C-155.43995457 25.65017989 -151.57344378 27.45466985 -147.4375 29.375 C-118.81460028 42.14286705 -88.98970692 33.59361403 -60.70703125 23.34375 C-52.94983548 20.32085641 -45.36159598 16.53897016 -38.9375 11.1875 C-37.71160156 10.18589844 -37.71160156 10.18589844 -36.4609375 9.1640625 C-34.76763738 7.6750335 -33.12844804 6.12291437 -31.5390625 4.5234375 C-26.37197168 -0.61105338 -22.95095078 -3.0792688 -15.5390625 -3.15234375 C-10.00099176 -2.82005951 -5.21702286 -1.9086669 0 0 Z "
     fill="#BCBDBF"
     transform="translate(374,342)"
     id="path12" />
  <path
     d="M0 0 C0.80308594 -0.03287109 1.60617188 -0.06574219 2.43359375 -0.09960938 C6.84269884 -0.13956008 8.57176928 -0.0043661 12.1328125 2.83984375 C15.01195333 6.59401758 15.24191384 8.38290956 15.1875 13.0625 C15.17847656 14.06539062 15.16945312 15.06828125 15.16015625 16.1015625 C15.14855469 16.87242188 15.13695312 17.64328125 15.125 18.4375 C14.35027344 18.72496094 13.57554687 19.01242188 12.77734375 19.30859375 C10.00209508 20.33558053 10.00209508 20.33558053 7.6875 22.5 C4.63755141 24.80605869 2.94733649 25.4375 -0.875 25.4375 C-2.90113283 24.14422372 -4.90014795 22.8078055 -6.875 21.4375 C-10.60725344 20.64067197 -10.60725344 20.64067197 -13.875 20.4375 C-14.205 22.0875 -14.535 23.7375 -14.875 25.4375 C-15.205 25.4375 -15.535 25.4375 -15.875 25.4375 C-16.62277448 8.13482938 -16.62277448 8.13482938 -11.875 2.4375 C-7.83877474 -0.25331684 -4.73986541 0.03391001 0 0 Z "
     fill="#A68B67"
     transform="translate(206.875,35.5625)"
     id="path13" />
  <path
     d="M0 0 C5.60906125 2.11347777 10.54796295 5.13407109 15.6875 8.1875 C16.63044922 8.73986328 17.57339844 9.29222656 18.54492188 9.86132812 C21.38447371 11.54164024 24.19324275 13.26556671 27 15 C27.96164063 15.56356201 28.92328125 16.12712402 29.9140625 16.70776367 C36.54188259 20.85191395 36.54188259 20.85191395 37.78100586 23.95727539 C37.9765625 25.96484375 37.9765625 25.96484375 37.625 29.9375 C37.57988281 30.62134766 37.53476563 31.30519531 37.48828125 32.00976562 C37.37168799 33.67704924 37.19230752 35.33974506 37 37 C32.57766647 35.45979535 28.87579966 33.10044323 25.01953125 30.5 C24.36546799 30.06365234 23.71140472 29.62730469 23.03752136 29.17773438 C21.66197743 28.25869867 20.28792269 27.33743056 18.9152832 26.4140625 C16.81228671 24.99985657 14.70442493 23.59315093 12.59570312 22.1875 C11.25752072 21.29210258 9.91962016 20.39628376 8.58203125 19.5 C7.95182571 19.07912109 7.32162018 18.65824219 6.6723175 18.22460938 C4.26432438 16.60175336 2.05867988 15.05867988 0 13 C-0.1953125 9.9609375 -0.1953125 9.9609375 -0.125 6.375 C-0.10695313 5.18648438 -0.08890625 3.99796875 -0.0703125 2.7734375 C-0.04710938 1.85820312 -0.02390625 0.94296875 0 0 Z "
     fill="#A4C54C"
     transform="translate(82,291)"
     id="path14" />
  <path
     d="M0 0 C0.75087891 0.35771484 1.50175781 0.71542969 2.27539062 1.08398438 C3.04431641 1.45716797 3.81324219 1.83035156 4.60546875 2.21484375 C5.39373047 2.59189453 6.18199219 2.96894531 6.99414062 3.35742188 C8.92949348 4.28404536 10.86156424 5.21751842 12.79296875 6.15234375 C10.8423385 12.00423451 4.59147449 15.75226264 -0.33203125 19.21484375 C-0.93273437 19.63894531 -1.5334375 20.06304687 -2.15234375 20.5 C-5.40274439 21.53197131 -7.0917055 20.50448166 -10.20703125 19.15234375 C-13.55760293 17.41628313 -16.82214806 15.55230579 -20.08203125 13.65234375 C-21.40074219 12.90404297 -21.40074219 12.90404297 -22.74609375 12.140625 C-23.57625 11.65980469 -24.40640625 11.17898438 -25.26171875 10.68359375 C-26.01952637 10.24595703 -26.77733398 9.80832031 -27.55810547 9.35742188 C-28.10225098 8.95974609 -28.64639648 8.56207031 -29.20703125 8.15234375 C-29.20703125 7.49234375 -29.20703125 6.83234375 -29.20703125 6.15234375 C-25.98803259 4.60928241 -22.75549028 3.09697208 -19.51953125 1.58984375 C-18.15151367 0.93338867 -18.15151367 0.93338867 -16.75585938 0.26367188 C-15.42651367 -0.35024414 -15.42651367 -0.35024414 -14.0703125 -0.9765625 C-13.25860596 -1.3588501 -12.44689941 -1.7411377 -11.6105957 -2.13500977 C-7.31436076 -3.40882488 -3.89677254 -1.87402038 0 0 Z "
     fill="#878D95"
     transform="translate(126.20703125,279.84765625)"
     id="path15" />
  <path
     d="M0 0 C2.97595983 4.20739148 3.88704999 9.03453071 5 14 C6.32 14.33 7.64 14.66 9 15 C9.53375705 21.40508456 9.00981998 26.74297849 5 32 C2.22330178 32.92556607 0.32303105 33.19295491 -2.5625 33.25 C-3.34753906 33.27578125 -4.13257812 33.3015625 -4.94140625 33.328125 C-5.62074219 33.21984375 -6.30007812 33.1115625 -7 33 C-9.41747299 29.37379051 -9.91993816 25.95878751 -10.625 21.75 C-10.7590625 21.01136719 -10.893125 20.27273437 -11.03125 19.51171875 C-11.81567132 14.9732811 -12.31669631 10.62142023 -12 6 C-11.34 5.34 -10.68 4.68 -10 4 C-9.835 3.319375 -9.67 2.63875 -9.5 1.9375 C-9.335 1.298125 -9.17 0.65875 -9 0 C-5.74489197 -1.62755402 -3.43821049 -0.90479223 0 0 Z "
     fill="#E3C3A3"
     transform="translate(124,84)"
     id="path16" />
  <path
     d="M0 0 C0.66 0 1.32 0 2 0 C1.73616385 3.82562415 1.31441199 7.38404735 0 11 C-2.01864039 12.36394621 -3.93598851 13.01743171 -6.22265625 13.83203125 C-8.25332354 14.89527061 -8.25332354 14.89527061 -8.74609375 17.44921875 C-8.97643164 19.99002283 -9.07783141 22.45102144 -9 25 C-10.98 24.34 -12.96 23.68 -15 23 C-14.43637698 25.04836882 -14.43637698 25.04836882 -13 27 C-9.94091587 27.81584568 -9.94091587 27.81584568 -7 28 C-5.79727181 25.59454362 -5.89928528 24.05003047 -5.9375 21.375 C-5.94652344 20.55773437 -5.95554688 19.74046875 -5.96484375 18.8984375 C-5.97644531 18.27195312 -5.98804688 17.64546875 -6 17 C-3.35261084 15.5393715 -2.10551666 15 1 15 C-0.78414451 21.60133469 -4.12016494 29.12016494 -9 34 C-12.25 34.125 -12.25 34.125 -16 33 C-18.45758119 30.60499611 -20.22103823 27.92180994 -22 25 C-22.61875 23.989375 -23.2375 22.97875 -23.875 21.9375 C-25.21735129 18.43247163 -25.28648188 15.72426441 -25 12 C-24.67 11.34 -24.34 10.68 -24 10 C-23.77532169 8.46331135 -23.59203195 6.92031946 -23.4375 5.375 C-23.35371094 4.55773438 -23.26992187 3.74046875 -23.18359375 2.8984375 C-23.12300781 2.27195313 -23.06242188 1.64546875 -23 1 C-20.0280615 2.12451727 -17.66559313 3.22293791 -15 5 C-9.75349928 5.4949529 -6.49864961 4.72011372 -2 2 C-1.34 1.34 -0.68 0.68 0 0 Z "
     fill="#E1C1A2"
     transform="translate(219,58)"
     id="path17" />
  <path
     d="M0 0 C2.625 0.375 2.625 0.375 5 1 C6.54125777 5.6237733 6.5221302 10.17029567 6 15 C5.01749592 16.61637768 4.03011628 18.2332645 2.9375 19.77734375 C1.27457234 23.71986808 1.53391016 28.16624992 1.59204102 32.40307617 C1.56640625 34.453125 1.56640625 34.453125 1 38 C-1.85905253 40.41663675 -3.25436996 41 -7 41 C-7.4125 39.948125 -7.825 38.89625 -8.25 37.8125 C-9.69411378 34.41295943 -11.55191058 31.78575693 -14 29 C-12.88625 27.9790625 -12.88625 27.9790625 -11.75 26.9375 C-8.05054373 22.57966592 -7.23904879 17.08506199 -5.9921875 11.65625 C-4.7635869 7.12880842 -3.34556068 3.34556068 0 0 Z "
     fill="#F9F9FA"
     transform="translate(411,222)"
     id="path18" />
  <path
     d="M0 0 C0.99 0.66 1.98 1.32 3 2 C2.87112455 7.15501799 1.02453334 10.10401536 -2.36328125 13.76171875 C-5.90977931 16.77230155 -9.70395545 19.17203682 -13.6875 21.5625 C-14.43644531 22.01657227 -15.18539063 22.47064453 -15.95703125 22.93847656 C-16.67632812 23.35194336 -17.395625 23.76541016 -18.13671875 24.19140625 C-18.78342529 24.56467041 -19.43013184 24.93793457 -20.09643555 25.32250977 C-22.50810315 26.18083702 -23.64650538 25.95815882 -26 25 C-28.25 22.4375 -28.25 22.4375 -30 20 C-28.10478597 17.77033643 -26.53834805 16.76917402 -23.875 15.4375 C-19.36952017 12.99384992 -16.45413435 9.2328508 -13.2109375 5.33984375 C-9.18104762 1.07499562 -5.8984308 -0.64113378 0 0 Z "
     fill="#FAFAFB"
     transform="translate(452,243)"
     id="path19" />
  <path
     d="M0 0 C0.24707031 2.79296875 0.24707031 2.79296875 0 6 C-6.41401775 13.22507559 -18.2267622 17.55988397 -26.75 22 C-28.22426851 22.77545225 -29.6982286 23.55149116 -31.171875 24.328125 C-38.07260192 27.95701835 -44.99764443 31.53963264 -51.953125 35.0625 C-53.07364258 35.63097656 -54.19416016 36.19945312 -55.34863281 36.78515625 C-58 38 -58 38 -60 38 C-60.33 38.66 -60.66 39.32 -61 40 C-62.32 39.01 -63.64 38.02 -65 37 C-61.54235395 35.04045146 -58.08380066 33.08250975 -54.625 31.125 C-53.57441406 30.53001709 -52.52382813 29.93503418 -51.44140625 29.32202148 C-46.73152845 26.65840818 -42.02048639 23.99925873 -37.2734375 21.40234375 C-27.45743318 16.03105098 -17.87226251 10.34686835 -8.34960938 4.46899414 C-7.40794922 3.88883545 -6.46628906 3.30867676 -5.49609375 2.7109375 C-4.65232178 2.18806152 -3.8085498 1.66518555 -2.93920898 1.12646484 C-1 0 -1 0 0 0 Z "
     fill="#BDBEC0"
     transform="translate(431,284)"
     id="path20" />
  <path
     d="M0 0 C0 0.99 0 1.98 0 3 C0.66 3 1.32 3 2 3 C1.69320313 4.26714844 1.38640625 5.53429687 1.0703125 6.83984375 C-0.08822821 12.05327693 -0.64942679 17.24933374 -1.125 22.5625 C-1.21136719 23.47580078 -1.29773438 24.38910156 -1.38671875 25.33007812 C-1.59620555 27.55296584 -1.80054684 29.77619349 -2 32 C-4.25 32.3125 -4.25 32.3125 -7 32 C-10.14256073 29.22335388 -10.92882763 27.49192667 -11.53125 23.328125 C-11.54783104 21.96881121 -11.5364255 20.60892681 -11.5 19.25 C-11.48936523 18.54278809 -11.47873047 17.83557617 -11.46777344 17.10693359 C-11.26830776 11.59890351 -10.4894603 6.41567508 -7 2 C-4.36309069 0.34402095 -3.17359201 0 0 0 Z "
     fill="#E2C2A3"
     transform="translate(299,70)"
     id="path21" />
  <path
     d="M0 0 C1.37285156 0.23396484 1.37285156 0.23396484 2.7734375 0.47265625 C4.55621094 0.76462891 4.55621094 0.76462891 6.375 1.0625 C7.55835938 1.25972656 8.74171875 1.45695312 9.9609375 1.66015625 C12.91450901 2.26934687 12.91450901 2.26934687 15 1 C15 3.97 15 6.94 15 10 C13.02 9.34 11.04 8.68 9 8 C9.56362302 10.04836882 9.56362302 10.04836882 11 12 C14.05908413 12.81584568 14.05908413 12.81584568 17 13 C18.20272819 10.59454362 18.10071472 9.05003047 18.0625 6.375 C18.05347656 5.55773437 18.04445312 4.74046875 18.03515625 3.8984375 C18.02355469 3.27195312 18.01195312 2.64546875 18 2 C20.64738916 0.5393715 21.89448334 0 25 0 C23.21585549 6.60133469 19.87983506 14.12016494 15 19 C11.75 19.125 11.75 19.125 8 18 C4.06576995 14.1659471 0.97037511 9.09979441 -1 4 C-0.56640625 1.828125 -0.56640625 1.828125 0 0 Z "
     fill="#E2C2A3"
     transform="translate(195,73)"
     id="path22" />
  <path
     d="M0 0 C9.05054166 -0.50803456 17.2350735 1.01281019 26 3 C25.6875 5.8828125 25.6875 5.8828125 25 9 C20.02823676 12.10735202 14.80242774 13.11545789 9 12 C4.98438607 10.01124244 2.48047198 7.72070796 0 4 C0 2.68 0 1.36 0 0 Z "
     fill="#F8F8F8"
     transform="translate(182,274)"
     id="path23" />
  <path
     d="M0 0 C1.04414063 0.6496875 2.08828125 1.299375 3.1640625 1.96875 C4.22367187 2.6184375 5.28328125 3.268125 6.375 3.9375 C7.17164063 4.4428125 7.96828125 4.948125 8.7890625 5.46875 C8.4590625 7.11875 8.1290625 8.76875 7.7890625 10.46875 C4.83066895 10.49564449 1.87251823 10.51553741 -1.0859375 10.53125 C-2.34857422 10.54381836 -2.34857422 10.54381836 -3.63671875 10.55664062 C-4.44238281 10.55986328 -5.24804688 10.56308594 -6.078125 10.56640625 C-6.82175293 10.57164307 -7.56538086 10.57687988 -8.33154297 10.58227539 C-10.2109375 10.46875 -10.2109375 10.46875 -12.2109375 9.46875 C-12.84375 7.40234375 -12.84375 7.40234375 -13.3359375 4.90625 C-13.50351562 4.07996094 -13.67109375 3.25367188 -13.84375 2.40234375 C-13.96492188 1.76425781 -14.08609375 1.12617188 -14.2109375 0.46875 C-9.06660962 -1.95211018 -5.23169224 -2.49491893 0 0 Z "
     fill="#F7F7F8"
     transform="translate(362.2109375,324.53125)"
     id="path24" />
  <path
     d="M0 0 C1 3 1 3 0.4375 5.5625 C-1 8 -1 8 -3.9375 9.25 C-5.4534375 9.62125 -5.4534375 9.62125 -7 10 C-7.99 10.33 -8.98 10.66 -10 11 C-9.70985788 7.51829452 -9.27243676 6.25771045 -6.6875 3.8125 C-4.49308876 2.33254823 -2.41301628 1.07245168 0 0 Z "
     fill="#ECECEC"
     transform="translate(205,314)"
     id="path25" />
  <path
     d="M0 0 C8.17824952 2.39707314 15.46651278 6.08858772 23 10 C19.4110545 11.19631517 18.88163515 10.77296069 15.5859375 9.19921875 C14.32136719 8.59883789 14.32136719 8.59883789 13.03125 7.98632812 C12.1546875 7.55771484 11.278125 7.12910156 10.375 6.6875 C9.04855469 6.06198242 9.04855469 6.06198242 7.6953125 5.42382812 C1.1346345 2.26926899 1.1346345 2.26926899 0 0 Z "
     fill="#9BB94F"
     transform="translate(121,273)"
     id="path26" />
  <path
     d="M0 0 C-1.49170266 4.9723422 -3.60457417 9.41845739 -6 14 C-6.96070434 11.11788698 -7.10581883 9.30149956 -7.0625 6.3125 C-7.05347656 5.50425781 -7.04445312 4.69601563 -7.03515625 3.86328125 C-7.02355469 3.24839844 -7.01195312 2.63351563 -7 2 C-4.35261084 0.5393715 -3.10551666 0 0 0 Z "
     fill="#DABC9F"
     transform="translate(220,73)"
     id="path27" />
  <path
     d="M0 0 C1.4370809 -0.05422947 2.87475462 -0.09289723 4.3125 -0.125 C5.11300781 -0.14820312 5.91351563 -0.17140625 6.73828125 -0.1953125 C9 0 9 0 12 2 C12 2.99 12 3.98 12 5 C6.06 4.01 6.06 4.01 0 3 C0 2.01 0 1.02 0 0 Z "
     fill="#6F6E6D"
     transform="translate(196,71)"
     id="path28" />
  <path
     d="M0 0 C0.99 0 1.98 0 3 0 C6.28571429 7.42857143 6.28571429 7.42857143 7 11 C5.1875 10.8125 5.1875 10.8125 3 10 C0.37665094 6.62712264 -0.36372697 4.24348127 0 0 Z "
     fill="#6D6E70"
     transform="translate(181,341)"
     id="path29" />
  <path
     d="M0 0 C0.86625 1.11375 0.86625 1.11375 1.75 2.25 C4.59626291 5.72876577 7.25497183 8.50331456 11 11 C10.01 11.495 10.01 11.495 9 12 C6.8359375 11.22265625 6.8359375 11.22265625 4.375 10.0625 C3.55773437 9.68222656 2.74046875 9.30195313 1.8984375 8.91015625 C1.27195313 8.60980469 0.64546875 8.30945313 0 8 C0 5.36 0 2.72 0 0 Z "
     fill="#DEDEDF"
     transform="translate(213,268)"
     id="path30" />
  <path
     d="M0 0 C0.66 0.33 1.32 0.66 2 1 C0.56974806 2.65213589 -0.86945545 4.29652589 -2.3125 5.9375 C-3.11300781 6.85402344 -3.91351563 7.77054688 -4.73828125 8.71484375 C-7 11 -7 11 -10 12 C-8.52278578 8.54798361 -6.56205999 6.35038064 -3.875 3.75 C-3.15054687 3.04359375 -2.42609375 2.3371875 -1.6796875 1.609375 C-1.12539063 1.07828125 -0.57109375 0.5471875 0 0 Z "
     fill="#ACB586"
     transform="translate(21,11)"
     id="path31" />
  <path
     d="M0 0 C3.86933162 0.57323431 6.15222057 2.38953552 9 5 C9 5.66 9 6.32 9 7 C5.00544473 6.38545304 2.25533664 4.29353263 -1 2 C-0.67 1.34 -0.34 0.68 0 0 Z "
     fill="#E7E7E8"
     transform="translate(246,291)"
     id="path32" />
  <path
     d="M0 0 C2.97 0.495 2.97 0.495 6 1 C6.33 2.65 6.66 4.3 7 6 C6.01 6 5.02 6 4 6 C4 5.34 4 4.68 4 4 C2.68 3.34 1.36 2.68 0 2 C0 1.34 0 0.68 0 0 Z "
     fill="#707072"
     transform="translate(185,342)"
     id="path33" />
</svg>
