<?xml version="1.0" encoding="UTF-8"?>
<svg version="1.1" xmlns="http://www.w3.org/2000/svg" width="481" height="309">
<path d="M0 0 C1.07588379 0.04640625 2.15176758 0.0928125 3.26025391 0.140625 C49.75354972 2.32067564 96.11398865 10.94883796 138 32 C138.67611328 32.33596191 139.35222656 32.67192383 140.04882812 33.01806641 C157.01338487 41.52107371 172.79955927 52.05734067 186.7578125 64.9453125 C188.69106313 66.71689757 190.66289334 68.39782341 192.6875 70.0625 C214.52521279 88.74417971 229.39038389 118.50398575 231.65625 146.9284668 C233.73454999 179.47009838 220.9459981 207.73362843 199.80859375 231.875 C154.89468033 282.23067511 82.8425455 304.54669903 17.39355469 308.77294922 C-59.49863209 313.10481054 -143.70334716 297.93994958 -203.0625 245.625 C-204.71750481 244.09318325 -206.36289968 242.55093714 -208 241 C-208.95648438 240.10796875 -209.91296875 239.2159375 -210.8984375 238.296875 C-218.65607788 230.91151111 -224.97345552 222.83633984 -231 214 C-231.57363281 213.18402344 -232.14726562 212.36804688 -232.73828125 211.52734375 C-240.71028809 199.34371065 -245.8082049 184.3222473 -248 170 C-248.12890625 169.20851562 -248.2578125 168.41703125 -248.390625 167.6015625 C-248.69318852 165.39603367 -248.87547132 163.22264824 -249 161 C-249.05285156 160.08605469 -249.10570312 159.17210937 -249.16015625 158.23046875 C-250.11105981 125.36228061 -235.03154947 96.82180889 -213.16088867 73.30541992 C-186.74990616 45.49737135 -151.25156274 27.36328669 -115 16 C-113.68201416 15.58476074 -113.68201416 15.58476074 -112.33740234 15.16113281 C-76.48818612 4.02833631 -37.58038431 -1.63488174 0 0 Z " fill="#D0D0D2" transform="translate(249,0)"/>
<path d="M0 0 C9.96897785 -0.12233542 19.84409852 0.15857946 29.79125977 0.79956055 C31.96014234 0.93895523 34.12940094 1.07055382 36.29882812 1.20117188 C40.2015973 1.44327983 44.10207467 1.68694152 48 2 C48.68031281 2.00671219 49.36062561 2.01342438 50.06155396 2.02033997 C54.26013599 2.20980222 55.79436183 2.78559132 58.73046875 5.84692383 C59.57572995 7.11653591 60.39321009 8.4049234 61.1875 9.70703125 C61.64426117 10.40782806 62.10102234 11.10862488 62.57162476 11.83065796 C64.07174403 14.14342476 65.53506201 16.47732325 67 18.8125 C68.03843101 20.42470586 69.07965244 22.03511752 70.12353516 23.64379883 C72.30863873 27.01627967 74.48126024 30.39632675 76.64550781 33.78222656 C81.59808031 41.51081863 86.68445224 49.15039991 91.77734375 56.78695679 C93.36037577 59.1655265 94.93479769 61.54961151 96.5078125 63.93481445 C97.47113149 65.38768022 98.43466161 66.84040603 99.3984375 68.29296875 C99.8369101 68.9610556 100.27538269 69.62914246 100.72714233 70.31747437 C102.84784608 73.70021651 102.84784608 73.70021651 106 76 C106.33330322 74.84443604 106.33330322 74.84443604 106.67333984 73.66552734 C108.47403927 68.69024189 110.84246838 64.06980906 113.2265625 59.3515625 C113.73424164 58.33903412 114.24192078 57.32650574 114.76498413 56.28329468 C116.38123185 53.06195992 118.00303193 49.84345768 119.625 46.625 C120.72432621 44.43638266 121.82328871 42.24758259 122.921875 40.05859375 C125.61037249 34.70360465 128.30342944 29.35092794 131 24 C135.06060281 24.72384313 137.82704603 25.86249865 141.359375 28.02734375 C142.38546875 28.65036377 143.4115625 29.27338379 144.46875 29.9152832 C145.5515625 30.58261475 146.634375 31.24994629 147.75 31.9375 C149.9943213 33.3054595 152.23911521 34.67264391 154.484375 36.0390625 C155.58716797 36.71227539 156.68996094 37.38548828 157.82617188 38.07910156 C162.88386551 41.14017337 167.99885583 44.10300052 173.13574219 47.02905273 C177.89104575 49.78209151 177.89104575 49.78209151 179 52 C177.8943634 54.68556213 177.8943634 54.68556213 176.14770508 58.14282227 C175.83240845 58.77239334 175.51711182 59.40196442 175.19226074 60.0506134 C174.14209288 62.14303029 173.08078097 64.22959112 172.01953125 66.31640625 C171.28706106 67.77134343 170.55535663 69.22666635 169.8243866 70.68235779 C167.89122886 74.52767963 165.94888903 78.36828754 164.00427246 82.20782471 C160.90707192 88.32719885 157.82442259 94.45391996 154.74045372 100.57996941 C153.66621712 102.71088887 152.58854889 104.84004238 151.51020813 106.96888733 C149.65453413 110.63671571 147.82298507 114.31581278 146 118 C145.53878754 118.91393524 145.07757507 119.82787048 144.60238647 120.76950073 C143.10713341 123.87194218 142.00647253 126.16858822 141.97949219 129.63427734 C143.41170301 132.95440243 145.29458708 135.87956621 147.328125 138.8515625 C147.78107437 139.52742401 148.23402374 140.20328552 148.70069885 140.89962769 C150.20945329 143.14669391 151.72962489 145.38578348 153.25 147.625 C154.31149222 149.20069973 155.37226908 150.77688157 156.43237305 152.35351562 C158.71708217 155.74824463 161.00685647 159.13948158 163.30029297 162.52832031 C167.19169838 168.2797006 171.06688496 174.04192516 174.94140625 179.8046875 C180.0257069 187.36223379 185.11133576 194.91888075 190.20703125 202.46875 C190.74977188 203.27448456 191.29251251 204.08021912 191.85169983 204.91036987 C192.35543625 205.65602203 192.85917267 206.40167419 193.37817383 207.16992188 C193.81430496 207.81634644 194.2504361 208.462771 194.69978333 209.12878418 C196.08592047 211.12365305 197.53160235 213.06509913 199 215 C197.55774684 218.46899838 195.84722592 220.1755857 192.875 222.4375 C191.98425781 223.1284375 191.09351563 223.819375 190.17578125 224.53125 C189.6751416 224.91796875 189.17450195 225.3046875 188.65869141 225.703125 C185.42191972 228.23384788 182.24706917 230.84163685 179.0625 233.4375 C178.37913574 233.99324707 177.69577148 234.54899414 176.99169922 235.12158203 C171.31808956 239.73586567 165.65522244 244.36319685 160 249 C157.05466173 246.22439989 154.83009994 243.43820275 152.671875 240.01953125 C151.73118164 238.53876099 151.73118164 238.53876099 150.77148438 237.02807617 C150.10439453 235.96693604 149.43730469 234.9057959 148.75 233.8125 C147.68375302 232.13153653 146.61749841 230.45057785 145.55078125 228.76991272 C144.44174942 227.0211248 143.33493442 225.2709499 142.22851562 223.52050781 C138.67183472 217.8970649 135.08525028 212.29275981 131.5 206.6875 C130.86674805 205.69403564 130.23349609 204.70057129 129.58105469 203.67700195 C127.00883882 199.65041181 124.43623575 195.62863267 121.75390625 191.67431641 C121.02042969 190.5919873 120.28695312 189.5096582 119.53125 188.39453125 C118.85642578 187.4094458 118.18160156 186.42436035 117.48632812 185.40942383 C116 183 116 183 116 181 C115.34 181 114.68 181 114 181 C113.63501907 182.21842842 113.63501907 182.21842842 113.26266479 183.46147156 C111.75057895 187.6989848 109.82491671 191.60598764 107.79736328 195.61645508 C107.37433929 196.46118881 106.95131531 197.30592255 106.51547241 198.17625427 C105.12075969 200.95920663 103.72048609 203.73932299 102.3203125 206.51953125 C101.34585424 208.46217212 100.37181061 210.40502102 99.39816284 212.34806824 C96.83520034 217.46070296 94.26779634 222.57109295 91.69909668 227.68084717 C87.59416577 235.84757458 83.49456128 244.01697125 79.39764023 252.18771935 C77.97048424 255.03186705 76.54057798 257.87461937 75.11038208 260.71723938 C74.22730167 262.4765657 73.34431156 264.23593734 72.46142578 265.99536133 C72.06751648 266.77644257 71.67360718 267.5575238 71.26776123 268.36227417 C68.6888379 273.50963684 66.2950216 278.72008008 64 284 C42.65638492 284.84378081 21.35919578 285.13358489 0 285 C6.00292031 272.18192882 12.18774475 259.46551048 18.52905273 246.81152344 C19.9357765 244.00344042 21.33820017 241.19323935 22.74023438 238.3828125 C23.66901445 236.52591341 24.59804279 234.66913847 25.52734375 232.8125 C25.92872055 232.00772217 26.33009735 231.20294434 26.74363708 230.3737793 C29.675336 224.53288517 32.70566264 218.74715565 35.75708008 212.96826172 C42.92707355 199.3835189 49.87457797 185.68745 56.78869247 171.97105598 C59.00387308 167.57682814 61.22624751 163.18655125 63.46484375 158.80419922 C65.65779745 154.51079906 67.83318082 150.20892961 69.99622345 145.90038681 C70.81778254 144.27135472 71.64555048 142.64543824 72.47966766 141.02280045 C73.63584698 138.77082804 74.76910604 136.50868723 75.89746094 134.24267578 C76.2442691 133.57984589 76.59107727 132.91701599 76.94839478 132.23410034 C78.45084008 129.16059168 79.1401301 127.53724932 78.26107788 124.16702271 C77.84492218 123.45190521 77.42876648 122.73678772 77 122 C76.64534668 121.36803711 76.29069336 120.73607422 75.92529297 120.08496094 C75.53486816 119.47426758 75.14444336 118.86357422 74.7421875 118.234375 C74.06337524 117.16582275 74.06337524 117.16582275 73.37084961 116.07568359 C72.87721924 115.30820801 72.38358887 114.54073242 71.875 113.75 C71.09298218 112.52337646 71.09298218 112.52337646 70.29516602 111.27197266 C69.15038597 109.47792186 68.00356079 107.68517486 66.85498047 105.89355469 C64.91105417 102.8612548 62.97272984 99.82542508 61.03515625 96.7890625 C55.17534875 87.61276673 49.30079264 78.44634062 43.375 69.3125 C39.32044935 63.06293616 35.30843395 56.7871958 31.3125 50.5 C26.09163454 42.28635104 20.86511538 34.0763856 15.625 25.875 C14.98344971 24.86888672 14.34189941 23.86277344 13.6809082 22.82617188 C11.07208886 18.74578854 8.46389366 14.66932155 5.74511719 10.66113281 C5.01196289 9.57928711 4.27880859 8.49744141 3.5234375 7.3828125 C2.51289307 5.90772217 2.51289307 5.90772217 1.48193359 4.40283203 C0 2 0 2 0 0 Z " fill="#D73A30" transform="translate(246,12)"/>
<path d="M0 0 C-1.73380197 6.08216959 -4.65073889 11.53473631 -7.49609375 17.15234375 C-8.04427261 18.24349991 -8.59245148 19.33465607 -9.15724182 20.45887756 C-10.91352816 23.95367888 -12.67510307 27.44577674 -14.4375 30.9375 C-16.16716139 34.36881897 -17.89553813 37.80076878 -19.62135315 41.23402405 C-20.69217669 43.36382742 -21.76511805 45.49256836 -22.84092712 47.61985779 C-25.73958767 53.38029476 -28.56154666 59.16862447 -31.32083511 64.99674988 C-40.09274908 83.49904282 -49.32326544 101.77487485 -58.49088073 120.08315539 C-61.01339258 125.12184959 -63.53357882 130.16170676 -66.05403137 135.20143127 C-70.80841746 144.70711805 -75.56483847 154.21178501 -80.3220256 163.71607023 C-85.74579144 174.55235321 -91.16723575 185.38979706 -96.58850324 196.22733009 C-107.72311996 218.48616245 -118.86059316 240.7435645 -130 263 C-133.841076 259.85197419 -137.09590751 256.92279434 -140.1875 253 C-143.5646909 248.77709239 -146.99329388 244.61495003 -150.5 240.5 C-153.855019 236.55397437 -157.17223263 232.58356162 -160.4375 228.5625 C-164.39508188 223.69870975 -168.46542446 218.94118769 -172.55834961 214.19165039 C-176.33334391 209.8019965 -180.00728461 205.33885229 -183.65625 200.84375 C-186.39302049 197.52313514 -189.1910295 194.25953218 -192 191 C-196.29734242 186.01335954 -200.50103948 180.96417315 -204.6484375 175.8515625 C-207.42593933 172.48349549 -210.27185665 169.1789647 -213.125 165.875 C-217.58517372 160.70710786 -221.89793874 155.45978577 -226 150 C-222.69085037 141.33405013 -218.62125529 133.12427995 -214.44335938 124.85327148 C-206.9800462 110.05742749 -199.86173919 95.08424523 -193 80 C-190.23454732 82.62558045 -188.06151173 85.20074505 -186.0390625 88.4296875 C-185.4925 89.2959375 -184.9459375 90.1621875 -184.3828125 91.0546875 C-183.80273438 91.98539062 -183.22265625 92.91609375 -182.625 93.875 C-181.36732564 95.87248281 -180.10950921 97.86987619 -178.8515625 99.8671875 C-177.8910498 101.39811035 -177.8910498 101.39811035 -176.91113281 102.95996094 C-173.9609335 107.65284313 -170.9799636 112.32598501 -168 117 C-166.83704932 118.8267018 -165.67428965 120.65352522 -164.51171875 122.48046875 C-163.93470215 123.38716309 -163.35768555 124.29385742 -162.76318359 125.22802734 C-160.97250311 128.04322898 -159.18334923 130.85939585 -157.39453125 133.67578125 C-156.2005357 135.55469695 -155.00652544 137.4336033 -153.8125 139.3125 C-153.23741699 140.21838867 -152.66233398 141.12427734 -152.06982422 142.05761719 C-149.29702829 146.41859102 -146.50754242 150.76688472 -143.67578125 155.08984375 C-143.15975342 155.8789917 -142.64372559 156.66813965 -142.11206055 157.48120117 C-141.14495575 158.95670681 -140.17396664 160.42967632 -139.19848633 161.8996582 C-136 166.7797665 -136 166.7797665 -136 169 C-135.34 169 -134.68 169 -134 169 C-133.82210937 167.03353516 -133.82210937 167.03353516 -133.640625 165.02734375 C-133.12035114 160.36943739 -132.07503601 156.04848359 -130.75 151.5625 C-130.29540778 149.9753077 -129.84098536 148.38806677 -129.38671875 146.80078125 C-129.1551709 146.0010791 -128.92362305 145.20137695 -128.68505859 144.37744141 C-127.61833207 140.67545176 -126.59047102 136.96290178 -125.5625 133.25 C-125.35915039 132.5185376 -125.15580078 131.7870752 -124.94628906 131.03344727 C-123.01679735 124.08652925 -121.12374142 117.12977647 -119.23071289 110.17285156 C-117.47177266 103.71419887 -115.68965995 97.26239254 -113.89013672 90.81494141 C-112.77871137 86.825954 -111.68133625 82.83361837 -110.6015625 78.8359375 C-107.70577606 68.12065691 -104.68847168 57.45129731 -101.55102539 46.80419922 C-98.84762074 37.58277915 -96.39488324 28.30538999 -94 19 C-81.08550825 16.09470652 -68.14660991 13.32376996 -55.1875 10.625 C-53.30199673 10.23187725 -51.41649875 9.83872916 -49.53100586 9.44555664 C-46.70216505 8.85579574 -43.87328222 8.26624015 -41.04426575 7.67732239 C-36.04055457 6.63545581 -31.03796216 5.58857167 -26.03709412 4.53314209 C-23.9713784 4.09741681 -21.90532166 3.6633536 -19.83911133 3.22998047 C-17.38519706 2.71505347 -14.93187194 2.19730798 -12.47924805 1.67626953 C-11.40457275 1.45181152 -10.32989746 1.22735352 -9.22265625 0.99609375 C-8.30234619 0.80200928 -7.38203613 0.6079248 -6.43383789 0.40795898 C-4 0 -4 0 0 0 Z " fill="#CEC3BA" transform="translate(240,12)"/>
</svg>
