<?xml version="1.0" encoding="UTF-8"?>
<svg version="1.1" xmlns="http://www.w3.org/2000/svg" width="481" height="309">
<path d="M0 0 C1.08120117 0.04640625 2.16240234 0.0928125 3.27636719 0.140625 C69.43858077 3.22690902 134.66725571 20.48938817 186 64 C186.72960937 64.60585937 187.45921875 65.21171875 188.2109375 65.8359375 C192.96556379 69.86188543 197.05225297 74.18624523 201 79 C201.4115332 79.49387207 201.82306641 79.98774414 202.24707031 80.49658203 C209.18033023 88.85198503 214.9980615 97.36239768 220 107 C220.70576172 108.34964844 220.70576172 108.34964844 221.42578125 109.7265625 C233.32900052 134.12263419 234.74182689 163.30595209 226.10083008 188.90649414 C219.18764653 208.25085132 207.15481476 224.33138572 193 239 C192.46793945 239.5576001 191.93587891 240.1152002 191.38769531 240.68969727 C187.20963658 244.98315564 182.783871 248.71322243 178 252.3125 C177.25508301 252.87445068 176.51016602 253.43640137 175.74267578 254.01538086 C173.50448694 255.69009793 171.25604555 257.34943352 169 259 C168.38092773 259.45310547 167.76185547 259.90621094 167.12402344 260.37304688 C126.518091 289.67071242 75.20452374 303.11084499 26 308 C25.05108887 308.09571289 24.10217773 308.19142578 23.12451172 308.29003906 C-47.86175151 314.62262657 -125.76290316 301.24691637 -185 260 C-185.56154785 259.6095752 -186.1230957 259.21915039 -186.70166016 258.81689453 C-194.13796633 253.58309736 -200.92973344 247.71648701 -207.49121094 241.44140625 C-208.49986792 240.47779609 -209.51359504 239.5194662 -210.53222656 238.56640625 C-232.81510202 217.68416867 -247.7900247 189.6100432 -249.24609375 158.80078125 C-250.16886411 124.21137575 -234.27021775 96.12777789 -211.5703125 71.34765625 C-204.95487014 64.48277917 -197.67660094 58.6202654 -190 53 C-189.03441162 52.29254639 -189.03441162 52.29254639 -188.04931641 51.57080078 C-135.35417672 13.55253851 -64.48908428 -2.80061165 0 0 Z " fill="#D0D1D3" transform="translate(249,0)"/>
<path d="M0 0 C7.0034922 -0.14341622 13.99603373 -0.10754833 21 0 C21.66376648 0.00799622 22.32753296 0.01599243 23.01141357 0.02423096 C27.39815649 0.08046637 31.77903261 0.19221044 36.16287231 0.36212158 C37.62928779 0.4120898 39.09630391 0.44689462 40.56344604 0.46600342 C52.09598677 0.63532748 52.09598677 0.63532748 56.15039062 3.54125977 C58.05883788 5.909075 59.49465801 8.35591209 61 11 C62.2225606 12.85314139 63.47715587 14.6824841 64.73141479 16.51429749 C67.11082419 20.00383972 69.42471226 23.53676854 71.75 27.0625 C73.61787002 29.88799414 75.4879274 32.71203056 77.359375 35.53515625 C77.82154922 36.23282608 78.28372345 36.93049591 78.75990295 37.64930725 C82.53130497 43.32790226 86.38191881 48.94942137 90.25553894 54.55862427 C93.85473061 59.77356103 97.36571454 65.04058685 100.80664062 70.36132812 C102.88221611 73.72398236 102.88221611 73.72398236 106 76 C106.33330322 74.84443604 106.33330322 74.84443604 106.67333984 73.66552734 C108.47403927 68.69024189 110.84246838 64.06980906 113.2265625 59.3515625 C113.73424164 58.33903412 114.24192078 57.32650574 114.76498413 56.28329468 C116.38123185 53.06195992 118.00303193 49.84345768 119.625 46.625 C120.72432621 44.43638266 121.82328871 42.24758259 122.921875 40.05859375 C125.61037249 34.70360465 128.30342944 29.35092794 131 24 C134.50215372 24.64524802 137.05190509 25.3897334 140.08984375 27.265625 C140.86416748 27.73758301 141.63849121 28.20954102 142.4362793 28.69580078 C143.67438354 29.46512939 143.67438354 29.46512939 144.9375 30.25 C146.71289088 31.33700114 148.48895922 32.42289638 150.265625 33.5078125 C151.19439453 34.07661133 152.12316406 34.64541016 153.08007812 35.23144531 C156.09382988 37.05683141 159.12805966 38.8424267 162.171875 40.6171875 C163.17613525 41.20338867 164.18039551 41.78958984 165.21508789 42.39355469 C167.17580631 43.53568323 169.13849719 44.67443319 171.10327148 45.80957031 C171.99087158 46.32874023 172.87847168 46.84791016 173.79296875 47.3828125 C174.97669067 48.06947998 174.97669067 48.06947998 176.18432617 48.77001953 C178 50 178 50 179 52 C177.94332674 54.44593697 176.82153843 56.76493664 175.59350586 59.12426758 C175.21980362 59.85779953 174.84610138 60.59133148 174.46107483 61.34709167 C173.64646017 62.94428663 172.82832685 64.53969061 172.00715446 66.13352394 C170.70934311 68.6552192 169.42312468 71.18250224 168.14027405 73.71183777 C164.49056411 80.90405935 160.82459732 88.0878564 157.1394043 95.26196289 C154.88833607 99.64619398 152.6548273 104.03899631 150.4321003 108.43765831 C149.58035812 110.11442738 148.72184997 111.78777706 147.85655022 113.4575901 C146.64688546 115.79291925 145.45976888 118.13846125 144.27709961 120.48754883 C143.73096512 121.52185532 143.73096512 121.52185532 143.17379761 122.57705688 C141.63361876 125.68929513 140.85013854 127.40249991 141.71101379 130.83482361 C143.04582674 133.07697753 144.40414214 135.23567812 145.921875 137.359375 C146.52378662 138.21063965 147.12569824 139.0619043 147.74584961 139.93896484 C148.73790405 141.33042725 148.73790405 141.33042725 149.75 142.75 C157.61195262 153.90825659 165.20356766 165.23171974 172.74365234 176.60913086 C177.17166735 183.28549816 181.62246586 189.9409854 186.18359375 196.52734375 C186.58636032 197.11082581 186.98912689 197.69430786 187.40409851 198.29547119 C189.28324841 201.0172733 191.17036003 203.73217554 193.07397461 206.43701172 C193.72760986 207.38205566 194.38124512 208.32709961 195.0546875 209.30078125 C195.62687012 210.11716064 196.19905273 210.93354004 196.78857422 211.7746582 C198 214 198 214 198 218 C195.97587756 219.87238913 194.03023226 221.45131462 191.8125 223.0625 C190.52044152 224.03682026 189.23011635 225.01344271 187.94140625 225.9921875 C187.28285645 226.48944336 186.62430664 226.98669922 185.94580078 227.49902344 C182.9640782 229.79910254 180.10688911 232.23535836 177.25 234.6875 C176.18389469 235.59280243 175.11749387 236.49775699 174.05078125 237.40234375 C172.06025163 239.09331849 170.08089189 240.79507193 168.10546875 242.50390625 C167.22503906 243.24511719 166.34460938 243.98632812 165.4375 244.75 C164.67308594 245.40484375 163.90867187 246.0596875 163.12109375 246.734375 C161 248 161 248 159.00439453 247.76660156 C155.55534198 246.44747549 154.21864066 243.06084373 152.4375 240 C151.54700526 238.52257323 150.65503041 237.04603775 149.76171875 235.5703125 C149.30458496 234.80879883 148.84745117 234.04728516 148.37646484 233.26269531 C146.24087834 229.7521214 143.997457 226.31461503 141.75 222.875 C136.7587812 215.20230936 131.84221556 207.48331822 126.94628906 199.74951172 C123.74367946 194.70052806 120.48050145 189.7115666 117.07739258 184.79492188 C116 183 116 183 116 181 C115.34 181 114.68 181 114 181 C113.76523453 181.79452072 113.53046906 182.58904144 113.28858948 183.40763855 C111.65747386 187.95490279 109.55200404 192.16661436 107.38256836 196.4777832 C106.91571121 197.41339584 106.44885406 198.34900848 105.96784973 199.31297302 C104.42907914 202.3942087 102.88458192 205.47253357 101.33984375 208.55078125 C100.26863423 210.692008 99.19772056 212.83338277 98.12709045 214.97489929 C95.8859487 219.4556204 93.64212888 223.93498644 91.39624023 228.41333008 C88.51127709 234.16622179 85.63162345 239.92175072 82.7537756 245.67820454 C80.54472025 250.09604399 78.3335858 254.51284003 76.12173653 258.92928123 C75.0586686 261.05222632 73.9960911 263.17541706 72.93400383 265.29885292 C71.45402877 268.25664638 69.97143264 271.21311028 68.48803711 274.16918945 C68.04593903 275.05383881 67.60384094 275.93848816 67.14834595 276.84994507 C66.74598221 277.65040756 66.34361847 278.45087006 65.92906189 279.27558899 C65.57861281 279.9748113 65.22816374 280.6740336 64.86709499 281.39444447 C64 283 64 283 63 284 C59.62152293 284.38421896 56.20903615 284.43374519 52.8125 284.5625 C51.7407251 284.6049585 50.6689502 284.64741699 49.56469727 284.69116211 C33.05176643 285.26199932 16.51998021 285.08479813 0 285 C6.91791647 270.14930813 14.18307932 255.47698163 21.51977539 240.83007812 C23.11687296 237.64157745 24.7103324 234.45127442 26.30285072 231.2604847 C32.1157489 219.61689695 37.95228303 207.99144496 44.05375671 196.49557495 C49.85013449 185.54802263 55.46532163 174.50644693 61.04943752 163.44945145 C62.84136891 159.90194949 64.64043019 156.3584473 66.45556641 152.82275391 C68.24005816 149.34632005 70.00691682 145.86145913 71.7614975 142.36983871 C72.42675109 141.053396 73.09820175 139.74006525 73.77603912 138.43005753 C74.71408099 136.61441363 75.62767352 134.78620059 76.54003906 132.95751953 C77.06502991 131.92450714 77.59002075 130.89149475 78.13092041 129.82717896 C79.27232158 127.02200906 79.27232158 127.02200906 78.23239136 124.26455688 C76.98909415 121.97996017 75.71316827 119.76526639 74.3046875 117.578125 C73.49028198 116.30618286 73.49028198 116.30618286 72.65942383 115.00854492 C72.07056396 114.0982251 71.4817041 113.18790527 70.875 112.25 C70.25971436 111.29134033 69.64442871 110.33268066 69.01049805 109.3449707 C67.69239473 107.29158986 66.37259716 105.2392958 65.05126953 103.18798828 C62.99526144 99.99263554 60.94745542 96.79217984 58.90234375 93.58984375 C52.65837474 83.81353397 46.39632965 74.04964976 40.08129883 64.3190918 C36.35410885 58.56723823 32.67489356 52.78537062 29 47 C24.79470348 40.38020369 20.57639868 33.76972477 16.3125 27.1875 C15.87832764 26.5164624 15.44415527 25.8454248 14.99682617 25.15405273 C12.63530259 21.5085085 10.26061079 17.87201772 7.875 14.2421875 C7.36283936 13.45948486 6.85067871 12.67678223 6.32299805 11.87036133 C5.33609157 10.36248563 4.34552074 8.85700019 3.35083008 7.35424805 C0 2.22507536 0 2.22507536 0 0 Z " fill="#CEC3BA" transform="translate(246,12)"/>
<path d="M0 0 C-1.73380197 6.08216959 -4.65073889 11.53473631 -7.49609375 17.15234375 C-8.04427261 18.24349991 -8.59245148 19.33465607 -9.15724182 20.45887756 C-10.91352816 23.95367888 -12.67510307 27.44577674 -14.4375 30.9375 C-16.16716139 34.36881897 -17.89553813 37.80076878 -19.62135315 41.23402405 C-20.69217669 43.36382742 -21.76511805 45.49256836 -22.84092712 47.61985779 C-25.73958767 53.38029476 -28.56154666 59.16862447 -31.32083511 64.99674988 C-40.09274908 83.49904282 -49.32326544 101.77487485 -58.49088073 120.08315539 C-61.01339258 125.12184959 -63.53357882 130.16170676 -66.05403137 135.20143127 C-70.80841746 144.70711805 -75.56483847 154.21178501 -80.3220256 163.71607023 C-85.74579144 174.55235321 -91.16723575 185.38979706 -96.58850324 196.22733009 C-107.72311996 218.48616245 -118.86059316 240.7435645 -130 263 C-133.841076 259.85197419 -137.09590751 256.92279434 -140.1875 253 C-143.5646909 248.77709239 -146.99329388 244.61495003 -150.5 240.5 C-153.855019 236.55397437 -157.17223263 232.58356162 -160.4375 228.5625 C-164.39508188 223.69870975 -168.46542446 218.94118769 -172.55834961 214.19165039 C-176.33334391 209.8019965 -180.00728461 205.33885229 -183.65625 200.84375 C-186.39302049 197.52313514 -189.1910295 194.25953218 -192 191 C-196.29734242 186.01335954 -200.50103948 180.96417315 -204.6484375 175.8515625 C-207.42593933 172.48349549 -210.27185665 169.1789647 -213.125 165.875 C-217.58517372 160.70710786 -221.89793874 155.45978577 -226 150 C-222.69085037 141.33405013 -218.62125529 133.12427995 -214.44335938 124.85327148 C-206.9800462 110.05742749 -199.86173919 95.08424523 -193 80 C-190.23454732 82.62558045 -188.06151173 85.20074505 -186.0390625 88.4296875 C-185.4925 89.2959375 -184.9459375 90.1621875 -184.3828125 91.0546875 C-183.80273438 91.98539062 -183.22265625 92.91609375 -182.625 93.875 C-181.36732564 95.87248281 -180.10950921 97.86987619 -178.8515625 99.8671875 C-177.8910498 101.39811035 -177.8910498 101.39811035 -176.91113281 102.95996094 C-173.9609335 107.65284313 -170.9799636 112.32598501 -168 117 C-166.83704932 118.8267018 -165.67428965 120.65352522 -164.51171875 122.48046875 C-163.93470215 123.38716309 -163.35768555 124.29385742 -162.76318359 125.22802734 C-160.97250311 128.04322898 -159.18334923 130.85939585 -157.39453125 133.67578125 C-156.2005357 135.55469695 -155.00652544 137.4336033 -153.8125 139.3125 C-153.23741699 140.21838867 -152.66233398 141.12427734 -152.06982422 142.05761719 C-149.29702829 146.41859102 -146.50754242 150.76688472 -143.67578125 155.08984375 C-143.15975342 155.8789917 -142.64372559 156.66813965 -142.11206055 157.48120117 C-141.14495575 158.95670681 -140.17396664 160.42967632 -139.19848633 161.8996582 C-136 166.7797665 -136 166.7797665 -136 169 C-135.34 169 -134.68 169 -134 169 C-133.82210937 167.03353516 -133.82210937 167.03353516 -133.640625 165.02734375 C-133.12035114 160.36943739 -132.07503601 156.04848359 -130.75 151.5625 C-130.29540778 149.9753077 -129.84098536 148.38806677 -129.38671875 146.80078125 C-129.1551709 146.0010791 -128.92362305 145.20137695 -128.68505859 144.37744141 C-127.61833207 140.67545176 -126.59047102 136.96290178 -125.5625 133.25 C-125.35915039 132.5185376 -125.15580078 131.7870752 -124.94628906 131.03344727 C-123.01679735 124.08652925 -121.12374142 117.12977647 -119.23071289 110.17285156 C-117.47177266 103.71419887 -115.68965995 97.26239254 -113.89013672 90.81494141 C-112.77871137 86.825954 -111.68133625 82.83361837 -110.6015625 78.8359375 C-107.70577606 68.12065691 -104.68847168 57.45129731 -101.55102539 46.80419922 C-98.84762074 37.58277915 -96.39488324 28.30538999 -94 19 C-82.08991631 16.34453925 -70.17551885 13.71032018 -58.25 11.125 C-57.46627014 10.95491425 -56.68254028 10.78482849 -55.87506104 10.60958862 C-43.29204026 7.88277505 -30.68752955 5.28561401 -18.05175781 2.81494141 C-16.89772461 2.5885498 -15.74369141 2.3621582 -14.5546875 2.12890625 C-13.54905762 1.93369385 -12.54342773 1.73848145 -11.50732422 1.53735352 C-3.92677126 -0.08726158 -3.92677126 -0.08726158 0 0 Z " fill="#CEC3BA" transform="translate(240,12)"/>
</svg>
