<?xml version="1.0" encoding="UTF-8"?>
<svg version="1.1" xmlns="http://www.w3.org/2000/svg" width="481" height="309">
<path d="M0 0 C1.08120117 0.04640625 2.16240234 0.0928125 3.27636719 0.140625 C69.43858077 3.22690902 134.66725571 20.48938817 186 64 C186.72960937 64.60585937 187.45921875 65.21171875 188.2109375 65.8359375 C192.96556379 69.86188543 197.05225297 74.18624523 201 79 C201.4115332 79.49387207 201.82306641 79.98774414 202.24707031 80.49658203 C209.18033023 88.85198503 214.9980615 97.36239768 220 107 C220.70576172 108.34964844 220.70576172 108.34964844 221.42578125 109.7265625 C233.32900052 134.12263419 234.74182689 163.30595209 226.10083008 188.90649414 C219.18764653 208.25085132 207.15481476 224.33138572 193 239 C192.46793945 239.5576001 191.93587891 240.1152002 191.38769531 240.68969727 C187.20963658 244.98315564 182.783871 248.71322243 178 252.3125 C177.25508301 252.87445068 176.51016602 253.43640137 175.74267578 254.01538086 C173.50448694 255.69009793 171.25604555 257.34943352 169 259 C168.38092773 259.45310547 167.76185547 259.90621094 167.12402344 260.37304688 C126.518091 289.67071242 75.20452374 303.11084499 26 308 C25.05108887 308.09571289 24.10217773 308.19142578 23.12451172 308.29003906 C-47.86175151 314.62262657 -125.76290316 301.24691637 -185 260 C-185.56154785 259.6095752 -186.1230957 259.21915039 -186.70166016 258.81689453 C-194.13796633 253.58309736 -200.92973344 247.71648701 -207.49121094 241.44140625 C-208.49986792 240.47779609 -209.51359504 239.5194662 -210.53222656 238.56640625 C-232.81510202 217.68416867 -247.7900247 189.6100432 -249.24609375 158.80078125 C-250.16886411 124.21137575 -234.27021775 96.12777789 -211.5703125 71.34765625 C-204.95487014 64.48277917 -197.67660094 58.6202654 -190 53 C-189.03441162 52.29254639 -189.03441162 52.29254639 -188.04931641 51.57080078 C-135.35417672 13.55253851 -64.48908428 -2.80061165 0 0 Z " fill="#D0D1D2" transform="translate(249,0)"/>
<path d="M0 0 C7.0034922 -0.14341622 13.99603373 -0.10754833 21 0 C21.66376648 0.00799622 22.32753296 0.01599243 23.01141357 0.02423096 C27.39815649 0.08046637 31.77903261 0.19221044 36.16287231 0.36212158 C37.62928779 0.4120898 39.09630391 0.44689462 40.56344604 0.46600342 C52.09598677 0.63532748 52.09598677 0.63532748 56.15039062 3.54125977 C58.05883788 5.909075 59.49465801 8.35591209 61 11 C62.2225606 12.85314139 63.47715587 14.6824841 64.73141479 16.51429749 C67.11082419 20.00383972 69.42471226 23.53676854 71.75 27.0625 C73.61787002 29.88799414 75.4879274 32.71203056 77.359375 35.53515625 C77.82154922 36.23282608 78.28372345 36.93049591 78.75990295 37.64930725 C82.53130497 43.32790226 86.38191881 48.94942137 90.25553894 54.55862427 C93.85473061 59.77356103 97.36571454 65.04058685 100.80664062 70.36132812 C102.88221611 73.72398236 102.88221611 73.72398236 106 76 C106.33330322 74.84443604 106.33330322 74.84443604 106.67333984 73.66552734 C108.47403927 68.69024189 110.84246838 64.06980906 113.2265625 59.3515625 C113.73424164 58.33903412 114.24192078 57.32650574 114.76498413 56.28329468 C116.38123185 53.06195992 118.00303193 49.84345768 119.625 46.625 C120.72432621 44.43638266 121.82328871 42.24758259 122.921875 40.05859375 C125.61037249 34.70360465 128.30342944 29.35092794 131 24 C134.50215372 24.64524802 137.05190509 25.3897334 140.08984375 27.265625 C140.86416748 27.73758301 141.63849121 28.20954102 142.4362793 28.69580078 C143.67438354 29.46512939 143.67438354 29.46512939 144.9375 30.25 C146.71289088 31.33700114 148.48895922 32.42289638 150.265625 33.5078125 C151.19439453 34.07661133 152.12316406 34.64541016 153.08007812 35.23144531 C156.09382988 37.05683141 159.12805966 38.8424267 162.171875 40.6171875 C163.17613525 41.20338867 164.18039551 41.78958984 165.21508789 42.39355469 C167.17580631 43.53568323 169.13849719 44.67443319 171.10327148 45.80957031 C171.99087158 46.32874023 172.87847168 46.84791016 173.79296875 47.3828125 C174.97669067 48.06947998 174.97669067 48.06947998 176.18432617 48.77001953 C178 50 178 50 179 52 C177.94332674 54.44593697 176.82153843 56.76493664 175.59350586 59.12426758 C175.21980362 59.85779953 174.84610138 60.59133148 174.46107483 61.34709167 C173.64646017 62.94428663 172.82832685 64.53969061 172.00715446 66.13352394 C170.70934311 68.6552192 169.42312468 71.18250224 168.14027405 73.71183777 C164.49056411 80.90405935 160.82459732 88.0878564 157.1394043 95.26196289 C154.88833607 99.64619398 152.6548273 104.03899631 150.4321003 108.43765831 C149.58035812 110.11442738 148.72184997 111.78777706 147.85655022 113.4575901 C146.64688546 115.79291925 145.45976888 118.13846125 144.27709961 120.48754883 C143.73096512 121.52185532 143.73096512 121.52185532 143.17379761 122.57705688 C141.63361876 125.68929513 140.85013854 127.40249991 141.71101379 130.83482361 C143.04582674 133.07697753 144.40414214 135.23567812 145.921875 137.359375 C146.82462158 138.63603027 146.82462158 138.63603027 147.74560547 139.93847656 C148.40705566 140.8662793 149.06850586 141.79408203 149.75 142.75 C156.60758268 152.48691357 163.28402417 162.33105707 169.875 172.25 C170.33670593 172.94451263 170.79841187 173.63902527 171.27410889 174.35458374 C173.59950972 177.85313281 175.92328555 181.35275652 178.24609375 184.85302734 C182.21307466 190.82930164 186.19418518 196.7961519 190.17486572 202.76330566 C192.06246581 205.59312184 193.9491688 208.42353568 195.8359375 211.25390625 C196.75705322 212.63557983 196.75705322 212.63557983 197.69677734 214.04516602 C198.34187256 215.01280884 198.34187256 215.01280884 199 216 C194.98626635 220.17740046 190.67874782 223.8462164 186.1875 227.5 C184.67698896 228.7303529 183.16657481 229.96082475 181.65625 231.19140625 C180.88796875 231.8167627 180.1196875 232.44211914 179.328125 233.08642578 C177.02193537 234.98197048 174.74284651 236.9059703 172.46875 238.83984375 C171.74921143 239.44441406 171.02967285 240.04898438 170.28833008 240.671875 C168.91016413 241.830143 167.53986727 242.99785303 166.1784668 244.17578125 C161.53352446 248.044261 161.53352446 248.044261 158.93115234 247.82836914 C155.5747645 246.38864424 154.20674964 243.04040932 152.4375 240 C151.54700526 238.52257323 150.65503041 237.04603775 149.76171875 235.5703125 C149.30458496 234.80879883 148.84745117 234.04728516 148.37646484 233.26269531 C146.24087834 229.7521214 143.997457 226.31461503 141.75 222.875 C136.7587812 215.20230936 131.84221556 207.48331822 126.94628906 199.74951172 C123.74367946 194.70052806 120.48050145 189.7115666 117.07739258 184.79492188 C116 183 116 183 116 181 C115.34 181 114.68 181 114 181 C113.76523453 181.79452072 113.53046906 182.58904144 113.28858948 183.40763855 C111.65747386 187.95490279 109.55200404 192.16661436 107.38256836 196.4777832 C106.91571121 197.41339584 106.44885406 198.34900848 105.96784973 199.31297302 C104.42907914 202.3942087 102.88458192 205.47253357 101.33984375 208.55078125 C100.26863423 210.692008 99.19772056 212.83338277 98.12709045 214.97489929 C95.8859487 219.4556204 93.64212888 223.93498644 91.39624023 228.41333008 C88.51127709 234.16622179 85.63162345 239.92175072 82.7537756 245.67820454 C80.54472025 250.09604399 78.3335858 254.51284003 76.12173653 258.92928123 C75.0586686 261.05222632 73.9960911 263.17541706 72.93400383 265.29885292 C71.45402877 268.25664638 69.97143264 271.21311028 68.48803711 274.16918945 C68.04593903 275.05383881 67.60384094 275.93848816 67.14834595 276.84994507 C66.74598221 277.65040756 66.34361847 278.45087006 65.92906189 279.27558899 C65.57861281 279.9748113 65.22816374 280.6740336 64.86709499 281.39444447 C64 283 64 283 63 284 C59.62152293 284.38421896 56.20903615 284.43374519 52.8125 284.5625 C51.7407251 284.6049585 50.6689502 284.64741699 49.56469727 284.69116211 C33.05176643 285.26199932 16.51998021 285.08479813 0 285 C6.91791647 270.14930813 14.18307932 255.47698163 21.51977539 240.83007812 C23.11687296 237.64157745 24.7103324 234.45127442 26.30285072 231.2604847 C32.1157489 219.61689695 37.95228303 207.99144496 44.05375671 196.49557495 C49.85013449 185.54802263 55.46532163 174.50644693 61.04943752 163.44945145 C62.84136891 159.90194949 64.64043019 156.3584473 66.45556641 152.82275391 C68.24005816 149.34632005 70.00691682 145.86145913 71.7614975 142.36983871 C72.42675109 141.053396 73.09820175 139.74006525 73.77603912 138.43005753 C74.71408099 136.61441363 75.62767352 134.78620059 76.54003906 132.95751953 C77.06502991 131.92450714 77.59002075 130.89149475 78.13092041 129.82717896 C79.27232158 127.02200906 79.27232158 127.02200906 78.23239136 124.26455688 C76.98909415 121.97996017 75.71316827 119.76526639 74.3046875 117.578125 C73.49028198 116.30618286 73.49028198 116.30618286 72.65942383 115.00854492 C72.07056396 114.0982251 71.4817041 113.18790527 70.875 112.25 C70.25971436 111.29134033 69.64442871 110.33268066 69.01049805 109.3449707 C67.69239473 107.29158986 66.37259716 105.2392958 65.05126953 103.18798828 C62.99526144 99.99263554 60.94745542 96.79217984 58.90234375 93.58984375 C52.65837474 83.81353397 46.39632965 74.04964976 40.08129883 64.3190918 C36.35410885 58.56723823 32.67489356 52.78537062 29 47 C24.79470348 40.38020369 20.57639868 33.76972477 16.3125 27.1875 C15.87832764 26.5164624 15.44415527 25.8454248 14.99682617 25.15405273 C12.63530259 21.5085085 10.26061079 17.87201772 7.875 14.2421875 C7.36283936 13.45948486 6.85067871 12.67678223 6.32299805 11.87036133 C5.33609157 10.36248563 4.34552074 8.85700019 3.35083008 7.35424805 C0 2.22507536 0 2.22507536 0 0 Z " fill="#CEC3BA" transform="translate(246,12)"/>
<path d="M0 0 C-1.68893084 4.4917557 -3.80259011 8.71607419 -5.96484375 12.9921875 C-6.3576503 13.77401398 -6.75045685 14.55584045 -7.15516663 15.36135864 C-8.82113918 18.67719768 -10.49164077 21.99074659 -12.16235352 25.30419922 C-16.25287095 33.42274577 -20.33168641 41.54234092 -24.20538616 49.76702785 C-33.4965573 69.44855361 -43.36317238 88.85399748 -53.10631347 108.31402087 C-55.85303969 113.80115224 -58.59744678 119.28944332 -61.34211731 124.77760315 C-66.52149593 135.13327258 -71.70290995 145.48792216 -76.88508636 155.84219176 C-82.79251588 167.64580976 -88.69762924 179.45058595 -94.60256422 191.25545204 C-106.73249609 215.50490924 -118.86528428 239.75293638 -131 264 C-138.32156321 256.70714288 -145.05145337 249.01495814 -151.55078125 240.984375 C-154.318107 237.61238637 -157.1514694 234.30334554 -160 231 C-164.2998985 226.01074306 -168.50485878 220.95778266 -172.65625 215.84375 C-175.39302138 212.52313406 -178.19106385 209.25956291 -181 206 C-185.32172863 200.98408311 -189.55479196 195.90824701 -193.73046875 190.76953125 C-198.08505794 185.45558334 -202.55078435 180.23473234 -207 175 C-213.74631335 167.06261339 -220.43497946 159.0887537 -227 151 C-225.75555156 147.82307006 -224.43522486 144.71733934 -222.9609375 141.640625 C-222.55302979 140.78807129 -222.14512207 139.93551758 -221.72485352 139.05712891 C-221.27940186 138.13077637 -220.8339502 137.20442383 -220.375 136.25 C-219.90570068 135.2707959 -219.43640137 134.2915918 -218.95288086 133.28271484 C-215.93718056 127.00060855 -212.90046752 120.72887937 -209.85546875 114.4609375 C-209.50071472 113.73044189 -209.14596069 112.99994629 -208.78045654 112.24731445 C-207.01726069 108.61718771 -205.25219554 104.98799049 -203.48388672 101.36035156 C-200.20468224 94.62296457 -196.98077508 87.87636604 -194 81 C-193.34 81 -192.68 81 -192 81 C-190.93774414 82.38256836 -190.93774414 82.38256836 -189.78515625 84.33984375 C-189.35227295 85.06397461 -188.91938965 85.78810547 -188.47338867 86.53417969 C-188.00779541 87.32727539 -187.54220215 88.12037109 -187.0625 88.9375 C-186.06175935 90.6091899 -185.05910992 92.27973841 -184.0546875 93.94921875 C-183.54389648 94.79919434 -183.03310547 95.64916992 -182.50683594 96.52490234 C-180.30262337 100.14549647 -178.00506669 103.70125278 -175.6875 107.25 C-169.66637954 116.490913 -163.75108474 125.7976725 -157.83789062 135.10791016 C-155.95105521 138.07701912 -154.06183457 141.04459758 -152.171875 144.01171875 C-151.54643799 144.99374268 -150.92100098 145.9757666 -150.27661133 146.98754883 C-149.08653573 148.85599753 -147.89628073 150.72433198 -146.70581055 152.5925293 C-146.162229 153.4462915 -145.61864746 154.30005371 -145.05859375 155.1796875 C-144.54151855 155.99018555 -144.02444336 156.80068359 -143.49169922 157.63574219 C-142.50084213 159.20619392 -141.52313597 160.78502387 -140.55908203 162.37207031 C-140.11806152 163.09749023 -139.67704102 163.82291016 -139.22265625 164.5703125 C-138.83988525 165.20984863 -138.45711426 165.84938477 -138.06274414 166.50830078 C-137.05678873 168.16700949 -137.05678873 168.16700949 -135 169 C-134.8649707 168.13084961 -134.72994141 167.26169922 -134.59082031 166.36621094 C-134.04145709 163.23620262 -133.34638653 160.21497312 -132.546875 157.140625 C-132.26005859 156.03436768 -131.97324219 154.92811035 -131.67773438 153.78833008 C-131.37158203 152.62068115 -131.06542969 151.45303223 -130.75 150.25 C-130.43353516 149.03787842 -130.11707031 147.82575684 -129.79101562 146.5769043 C-126.78251706 135.09594287 -123.67355741 123.65248739 -120.3125 112.26953125 C-117.26427427 101.94182457 -114.3277027 91.62283912 -111.7734375 81.16113281 C-109.89043525 73.46498053 -107.77923671 65.8417518 -105.625 58.21777344 C-104.78323815 55.23083412 -103.9532128 52.24069425 -103.12402344 49.25024414 C-102.71137907 47.76223823 -102.29798014 46.27444135 -101.88378906 44.78686523 C-100.78171451 40.82818907 -99.68950128 36.86706912 -98.609375 32.90234375 C-98.38185547 32.07154297 -98.15433594 31.24074219 -97.91992188 30.38476562 C-97.48099618 28.78134318 -97.04469967 27.17719815 -96.61132812 25.57226562 C-95.1124622 20.1124622 -95.1124622 20.1124622 -94 19 C-90.94102265 18.37783511 -87.88436832 17.80161243 -84.8125 17.25 C-77.26698671 15.85835929 -69.78294866 14.31187854 -62.3125 12.5625 C-53.15757106 10.42692399 -43.9628302 8.61703093 -34.72363281 6.88623047 C-26.35334009 5.30222092 -18.05213388 3.48999513 -9.76367188 1.5234375 C-8.49040039 1.22373047 -8.49040039 1.22373047 -7.19140625 0.91796875 C-6.08067749 0.65149536 -6.08067749 0.65149536 -4.94750977 0.37963867 C-3 0 -3 0 0 0 Z " fill="#6DB653" transform="translate(239,9)"/>
</svg>
