<?xml version="1.0" encoding="UTF-8"?>
<svg version="1.1" xmlns="http://www.w3.org/2000/svg" width="334" height="335">
<path d="M0 0 C110.22 0 220.44 0 334 0 C334 110.55 334 221.1 334 335 C223.78 335 113.56 335 0 335 C0 224.45 0 113.9 0 0 Z " fill="#F6F2F7" transform="translate(0,0)"/>
<path d="M0 0 C110.22 0 220.44 0 334 0 C334 110.55 334 221.1 334 335 C223.78 335 113.56 335 0 335 C0 224.45 0 113.9 0 0 Z M56 58 C55.33484375 58.61359375 54.6696875 59.2271875 53.984375 59.859375 C27.45692013 84.89930904 12.138727 125.00632496 11 161 C10.96003906 161.82371094 10.92007812 162.64742187 10.87890625 163.49609375 C9.7438984 206.2925661 27.02869213 246.1233118 56 277 C83.23356394 304.23356394 121.29903556 321.87823291 160 323 C161.25296875 323.0515625 162.5059375 323.103125 163.796875 323.15625 C194.7503833 324.05463678 227.55512207 314.88018449 253 297 C255.97 300.96 255.97 300.96 259 305 C280.037124 299.740719 300.23950733 270.90239916 310.80078125 253.484375 C311.64602365 252.03589039 312.48358759 250.58289115 313.3125 249.125 C313.70373047 248.44099121 314.09496094 247.75698242 314.49804688 247.05224609 C315.40175556 245.40452863 316.21099261 243.70561706 317 242 C316.67 241.34 316.34 240.68 316 240 C312.13013042 239.92557943 308.7264085 239.95297814 305 241 C305.27674561 240.34217529 305.55349121 239.68435059 305.83862305 239.0065918 C312.69880356 222.68397472 312.69880356 222.68397472 318 205.8125 C318.18264404 205.1218042 318.36528809 204.4311084 318.5534668 203.71948242 C321.54779716 191.51381634 322.38149626 179.26462502 322.3125 166.75 C322.30876877 165.66300308 322.30876877 165.66300308 322.30496216 164.55404663 C322.24625466 153.47449349 321.87475301 142.7521986 319 132 C318.77425293 131.15501953 318.54850586 130.31003906 318.31591797 129.43945312 C310.85993273 102.49983914 297.90604826 79.54419423 279 59 C278.32710938 58.25621094 277.65421875 57.51242188 276.9609375 56.74609375 C254.01836387 32.58317046 221.4077446 18.32253638 189 13 C187.93652344 12.80664062 186.87304688 12.61328125 185.77734375 12.4140625 C136.81131601 7.04653516 91.08696775 24.07613616 56 58 Z " fill="#B4B3B5" transform="translate(0,0)"/>
<path d="M0 0 C9.05876655 7.91917758 15.31430035 21.20010248 17 33 C17.66 33 18.32 33 19 33 C19.37125 31.081875 19.37125 31.081875 19.75 29.125 C22.80457309 15.73509056 29.68800287 4.08631045 41 -4 C51.77782254 -10.69403822 63.86643613 -11.56551597 76.125 -8.875 C88.87303373 -5.24710107 98.78077879 1.91555734 105.375 13.5 C109.47663308 21.27151531 111.56998882 28.65740207 111.5 37.4375 C111.49033203 38.73349121 111.49033203 38.73349121 111.48046875 40.05566406 C111.07779633 54.56776601 106.18308246 72.8811839 96.2578125 83.94140625 C95.84273437 84.29074219 95.42765625 84.64007813 95 85 C94.38125 84.14728516 94.38125 84.14728516 93.75 83.27734375 C88.17877427 75.82831649 82.23277363 68.66029071 73 66 C64.85180237 64.88088026 58.83816865 66.49892696 52 71 C46.15690607 75.84852475 43.47724304 81.5139154 42.6875 88.9375 C43.03462275 101.51402413 49.95569891 111.20670337 57 121 C59 124 59 124 59 127 C56.69679606 128.72434018 54.45785116 130.21290239 52 131.6875 C51.28537598 132.12449219 50.57075195 132.56148437 49.83447266 133.01171875 C24.90571746 148.01367246 24.90571746 148.01367246 14 147 C11.04690623 146.09518245 8.29491903 144.87003603 5.5 143.5625 C4.71753906 143.20414063 3.93507813 142.84578125 3.12890625 142.4765625 C-12.89182045 134.97252682 -26.05607957 125.0209244 -39 113 C-39.60457031 112.44957031 -40.20914063 111.89914063 -40.83203125 111.33203125 C-59.10369121 94.00176829 -74.53250568 66.27843732 -75.45092773 40.97949219 C-75.68106162 27.29969292 -73.37608581 16.46996249 -64 6 C-63.15695313 4.98486328 -63.15695313 4.98486328 -62.296875 3.94921875 C-46.32628758 -13.86670965 -18.04531572 -14.64248476 0 0 Z " fill="#F8F7F9" transform="translate(149,105)"/>
<path d="M0 0 C0.74121094 0.32871094 1.48242188 0.65742187 2.24609375 0.99609375 C12.56060812 6.16228899 19.9251111 14.36466297 26 24 C26.46148437 23.31035156 26.92296875 22.62070313 27.3984375 21.91015625 C36.20627605 9.22060229 46.43948817 -0.1433529 62 -3 C77.81474511 -4.53228118 92.69713583 -2.07238811 106 7 C117.55653553 16.66250666 125.62536262 28.94569513 128 44 C129.69733153 67.90176692 120.76848124 88.20097914 110 109 C116.29704047 118.19207815 122.63180885 127.35705384 129 136.5 C135.36819115 145.64294616 141.70295953 154.80792185 148 164 C148.76183594 163.22914063 149.52367187 162.45828125 150.30859375 161.6640625 C153.10214739 158.8988904 155.94606186 156.46914147 159 154 C159.680625 153.4225 160.36125 152.845 161.0625 152.25 C165.34868255 149.48472093 170.04740625 149.90289032 175 150 C175.33 150.66 175.66 151.32 176 152 C174.7828476 155.02952936 173.01869499 157.808766 171.375 160.625 C170.88080566 161.47441162 170.38661133 162.32382324 169.87744141 163.19897461 C164.71675099 171.83045073 158.59373236 179.4359598 152 187 C151.195625 187.94488281 150.39125 188.88976562 149.5625 189.86328125 C141.30605091 199.34345404 131.80337802 208.46687613 121 215 C120.01 215 119.02 215 118 215 C116.30517578 213.0065918 116.30517578 213.0065918 114.4453125 210.19921875 C113.75469727 209.16877441 113.06408203 208.13833008 112.35253906 207.07666016 C111.60992553 205.94700617 110.8674149 204.81728453 110.125 203.6875 C109.35753439 202.53621987 108.58897036 201.38567124 107.81933594 200.23583984 C106.26819852 197.91670382 104.7216935 195.59458842 103.17871094 193.27001953 C100.24136136 188.86136195 97.25135267 184.49022186 94.25 180.125 C90.95946397 175.32828367 87.67661169 170.52674761 84.4140625 165.7109375 C83.52605957 164.40358643 83.52605957 164.40358643 82.62011719 163.06982422 C81.4853268 161.39875489 80.35302629 159.72599109 79.22363281 158.05126953 C78.71413086 157.30216309 78.20462891 156.55305664 77.6796875 155.78125 C77.23351074 155.12189453 76.78733398 154.46253906 76.32763672 153.78320312 C75.01070294 152.01437555 73.59810959 150.51553962 72 149 C71.175 149.556875 70.35 150.11375 69.5 150.6875 C60.6664994 156.55922554 51.60650868 161.51396526 42 166 C40.31777344 166.79664063 40.31777344 166.79664063 38.6015625 167.609375 C31.27119882 170.8960368 25.33562013 172.42641341 17.625 169.56640625 C16.07564017 168.91648128 14.53412154 168.24762003 13 167.5625 C12.1754834 167.20269043 11.3509668 166.84288086 10.50146484 166.47216797 C-7.18125858 158.59090031 -21.92828833 148.29122522 -36 135 C-37.23169922 133.86498047 -37.23169922 133.86498047 -38.48828125 132.70703125 C-58.09382187 114.01621259 -74.78144552 84.50404122 -76.203125 57.08203125 C-76.50438101 40.72077923 -72.48272234 25.33425006 -61 13 C-45.74667623 -1.61429563 -20.09726571 -9.00911911 0 0 Z M-56.875 21.24609375 C-60.38612187 25.79635279 -62.8511994 30.68607418 -65 36 C-65.56074219 37.33998047 -65.56074219 37.33998047 -66.1328125 38.70703125 C-71.98353719 60.92397229 -62.6062837 82.87268831 -51.93603516 101.89697266 C-36.67144701 127.68308739 -12.38535757 146.90066259 14.625 159.125 C15.26348877 159.42043701 15.90197754 159.71587402 16.55981445 160.02026367 C22.2573022 162.47854772 27.04011177 162.83162459 32.875 160.78515625 C34.25674335 160.22735924 35.63161641 159.65231229 37 159.0625 C37.73259033 158.75401123 38.46518066 158.44552246 39.2199707 158.12768555 C49.11146565 153.82337879 58.06982641 148.00313642 67 142 C66.46698692 137.63399584 64.94636508 135.24377662 62.25 131.8125 C55.38310461 122.65663948 49.94633631 112.80103333 51 101 C52.94671193 94.03983816 55.53232085 88.40731857 62 84.75 C62.86625 84.24984375 63.7325 83.7496875 64.625 83.234375 C70.59856529 80.12969304 77.24959602 79.82318702 83.6640625 81.8359375 C92.12506185 85.73899912 98.24869546 92.08115911 103 100 C113.42539229 90.73805411 118.53727998 71.39925464 119.4453125 57.83203125 C119.97363958 43.41759726 117.25444688 32.35053955 108 21 C107.49984375 20.36320312 106.9996875 19.72640625 106.484375 19.0703125 C98.78280203 10.31852504 86.37644059 5.69163271 75.01953125 4.75390625 C63.21604693 4.2885359 53.18274194 6.93751882 44.21484375 14.80078125 C35.77219003 23.18387481 29.91074785 33.42800244 27 45 C27 45.99 27 46.98 27 48 C26.34 48 25.68 48 25 48 C24.835 46.845 24.67 45.69 24.5 44.5 C21.50031336 31.14928199 13.6511091 18.00445433 2.0625 10.625 C-17.81977396 -0.25283986 -41.57151911 4.75961352 -56.875 21.24609375 Z " fill="#F5F891" transform="translate(141,90)"/>
<path d="M0 0 C0.33 0 0.66 0 1 0 C1.08636719 1.05574219 1.17273438 2.11148438 1.26171875 3.19921875 C4.59287952 39.80008581 18.50522012 74.73844566 43.82421875 101.671875 C45.51933811 103.48568315 47.09246535 105.3022971 48.625 107.25 C72.84092937 135.28949717 113.92335312 152.1319829 150 155.6875 C152.33190926 155.81976612 154.66574422 155.91909817 157 156 C157.82967285 156.03254883 158.6593457 156.06509766 159.51416016 156.09863281 C188.16003834 157.09247965 215.1724767 151.36423988 241 139 C242.13695312 138.45988281 243.27390625 137.91976562 244.4453125 137.36328125 C248.65774516 135.30881471 252.74289104 133.28945799 256.5625 130.5625 C257.366875 130.046875 258.17125 129.53125 259 129 C262.67988552 130.22662851 263.18803753 131.36014544 265.28515625 134.55078125 C265.89810547 135.47697266 266.51105469 136.40316406 267.14257812 137.35742188 C267.77615234 138.33259766 268.40972656 139.30777344 269.0625 140.3125 C269.69994141 141.27607422 270.33738281 142.23964844 270.99414062 143.23242188 C276.09415668 150.98724081 276.09415668 150.98724081 278 155 C276.865625 154.67 275.73125 154.34 274.5625 154 C269.89464942 152.98813998 265.32238901 152.67594323 260.5625 152.5625 C259.87164307 152.52833984 259.18078613 152.49417969 258.46899414 152.45898438 C254.03405228 152.42168548 251.22448633 153.27639574 247.37568092 155.49733257 C241.97383533 158.27347718 237.60986887 158.69703395 231.61019897 158.60127258 C230.61343506 158.60554471 229.61667114 158.60981683 228.58970225 158.61421841 C225.27596689 158.62240263 221.96351953 158.5950382 218.64990234 158.56762695 C216.26422149 158.5662155 213.87853848 158.56701036 211.49285889 158.56983948 C205.70412135 158.57112283 199.91580026 158.54951594 194.12715773 158.51765118 C187.38704884 158.48179628 180.64699769 158.47441566 173.90680678 158.46871033 C161.88846716 158.45778802 149.87029796 158.42457014 137.85205078 158.37719727 C126.18278844 158.33124805 114.51357274 158.29593985 102.84423828 158.2746582 C102.11668252 158.27331822 101.38912677 158.27197823 100.63952386 158.27059764 C94.31007123 158.2590322 87.98061727 158.24826877 81.6511631 158.23758411 C54.43394826 158.19060077 27.21718568 158.09098004 0 158 C0 105.86 0 53.72 0 0 Z " fill="#828385" transform="translate(0,177)"/>
<path d="M0 0 C49.5 0 99 0 150 0 C150 0.33 150 0.66 150 1 C148.87207031 1.14695313 147.74414062 1.29390625 146.58203125 1.4453125 C127.29521645 4.12351815 109.46732284 9.38009726 92 18 C90.82824219 18.5775 89.65648438 19.155 88.44921875 19.75 C58.30592332 35.34509416 34.51290006 60.01593638 19 90 C18.65388672 90.66362549 18.30777344 91.32725098 17.95117188 92.01098633 C14.64769069 98.45972121 12.31621926 105.14014297 10 112 C9.64808594 113.01964844 9.29617188 114.03929688 8.93359375 115.08984375 C4.6401561 128.17220083 1.63197392 142.22296845 1 156 C0.67 156 0.34 156 0 156 C0 104.52 0 53.04 0 0 Z " fill="#828385" transform="translate(0,0)"/>
<path d="M0 0 C49.83 0 99.66 0 151 0 C151 49.5 151 99 151 150 C150.67 150 150.34 150 150 150 C149.85304688 148.87207031 149.70609375 147.74414062 149.5546875 146.58203125 C146.87648185 127.29521645 141.61990274 109.46732284 133 92 C132.4225 90.82824219 131.845 89.65648438 131.25 88.44921875 C111.47169212 50.22031347 76.66778616 21.63485888 35.90234375 8.27734375 C24.09733694 4.62664978 12.24936259 2.49992195 0 1 C0 0.67 0 0.34 0 0 Z " fill="#828385" transform="translate(183,0)"/>
<path d="M0 0 C0.74121094 0.32871094 1.48242188 0.65742187 2.24609375 0.99609375 C12.56060812 6.16228899 19.9251111 14.36466297 26 24 C26.46148437 23.31035156 26.92296875 22.62070313 27.3984375 21.91015625 C36.20627605 9.22060229 46.43948817 -0.1433529 62 -3 C77.81474511 -4.53228118 92.69713583 -2.07238811 106 7 C117.55653553 16.66250666 125.62536262 28.94569513 128 44 C129.67436837 67.57840053 121.29085373 87.79682264 110 108 C105.44392523 103.79439252 105.44392523 103.79439252 103.9609375 101.140625 C104.02585178 97.58332269 105.93869131 94.78851312 107.625 91.75 C111.85633592 83.75963748 114.62051985 75.70093172 117 67 C117.17885742 66.36094727 117.35771484 65.72189453 117.54199219 65.06347656 C120.23814998 52.91639467 118.56919203 39.0730284 112.4921875 28.3359375 C105.20763546 17.12111553 95.54505945 10.11865132 82.625 6.6875 C71.0982435 4.57494498 59.27340915 5.45914236 49.171875 11.765625 C36.89995732 21.0981612 31.43364485 33.584462 27 48 C26.34 48 25.68 48 25 48 C24.63648438 46.96101563 24.27296875 45.92203125 23.8984375 44.8515625 C20.99359508 36.72171285 18.01113978 29.10790617 13 22 C12.55140625 21.35675781 12.1028125 20.71351562 11.640625 20.05078125 C6.02897803 12.78401369 -2.99925328 7.6894146 -12 6 C-26.73747844 4.83065347 -39.84307319 8.04233509 -51.68359375 17.0390625 C-57.51381551 22.44651945 -60.99200777 28.69205822 -64 36 C-64.56267578 37.34191406 -64.56267578 37.34191406 -65.13671875 38.7109375 C-70.97015822 60.93607793 -61.61029185 82.86554207 -50.93603516 101.89697266 C-35.8756177 127.33818658 -12.01350679 146.06895468 14.625 158.125 C15.26348877 158.42043701 15.90197754 158.71587402 16.55981445 159.02026367 C22.42969849 161.55293122 27.19750685 161.81636758 33.15625 159.609375 C34.60954526 159.0023023 36.05747308 158.38223452 37.5 157.75 C38.22058594 157.44964844 38.94117188 157.14929688 39.68359375 156.83984375 C43.23051873 155.33256098 46.55277888 153.71158531 49.84375 151.703125 C50.8853125 151.14109375 51.926875 150.5790625 53 150 C56 151 56 151 57.6875 154.0625 C58.120625 155.031875 58.55375 156.00125 59 157 C52.80074908 161.20720371 46.22891761 164.40179993 39.375 167.375 C38.57602295 167.73271484 37.7770459 168.09042969 36.95385742 168.45898438 C30.04571828 171.38206954 24.75337714 172.17217725 17.625 169.56640625 C16.07564017 168.91648128 14.53412154 168.24762003 13 167.5625 C12.1754834 167.20269043 11.3509668 166.84288086 10.50146484 166.47216797 C-7.18125858 158.59090031 -21.92828833 148.29122522 -36 135 C-37.23169922 133.86498047 -37.23169922 133.86498047 -38.48828125 132.70703125 C-58.09382187 114.01621259 -74.78144552 84.50404122 -76.203125 57.08203125 C-76.50438101 40.72077923 -72.48272234 25.33425006 -61 13 C-45.74667623 -1.61429563 -20.09726571 -9.00911911 0 0 Z " fill="#FC746B" transform="translate(141,90)"/>
<path d="M0 0 C8.00071673 1.08992982 12.58249645 6.88410722 17.51171875 12.90234375 C18.87821279 14.65566301 18.87821279 14.65566301 20.95703125 15.5390625 C20.95703125 36.9890625 20.95703125 58.4390625 20.95703125 80.5390625 C12.04703125 80.879375 12.04703125 80.879375 2.95703125 81.2265625 C1.09820312 81.32670654 -0.760625 81.42685059 -2.67578125 81.5300293 C-14.2912333 81.90211836 -14.2912333 81.90211836 -18.75854492 78.42602539 C-20.85501631 75.56849399 -22.44557164 72.69988538 -24.04296875 69.5390625 C-25.26631938 67.68143573 -26.51223299 65.83845348 -27.78125 64.01171875 C-28.97507764 62.20993536 -30.16649738 60.40655416 -31.35546875 58.6015625 C-32.55883599 56.77924761 -33.76322422 54.95760642 -34.96875 53.13671875 C-35.48864502 52.34789307 -36.00854004 51.55906738 -36.54418945 50.74633789 C-37.98375112 48.62627321 -39.48788804 46.57544316 -41.04296875 44.5390625 C-39.46684558 40.3944423 -36.42023759 37.99691152 -33.16796875 35.1640625 C-28.42909947 30.90284588 -24.00569655 26.50260089 -19.85546875 21.6640625 C-19.36288574 21.08978516 -18.87030273 20.51550781 -18.36279297 19.92382812 C-15.83608938 16.90351644 -13.51807827 13.82827806 -11.3515625 10.5390625 C-10.91932373 9.89050293 -10.48708496 9.24194336 -10.04174805 8.57373047 C-9.23142302 7.33455894 -8.44585796 6.07870224 -7.69067383 4.80517578 C-5.50249623 1.43434375 -3.94269605 0.14053355 0 0 Z " fill="#747A7E" transform="translate(313.04296875,254.4609375)"/>
<path d="M0 0 C7.53875818 3.85407304 11.61348964 10.74361984 16 17.6875 C17.33096391 19.75543318 18.66429055 21.82184761 20 23.88671875 C20.65911377 24.90773682 21.31822754 25.92875488 21.99731445 26.98071289 C24.5632407 30.84915247 27.29145851 34.58155099 30.04443359 38.31811523 C33.24080613 42.70165485 36.27218229 47.19498158 39.3125 51.6875 C40.62605847 53.62125925 41.93986217 55.55485195 43.25390625 57.48828125 C43.89086426 58.42623535 44.52782227 59.36418945 45.18408203 60.33056641 C47.25276243 63.37156554 49.3309272 66.40585642 51.41577148 69.43579102 C52.2959257 70.71503437 53.17438254 71.99544743 54.05102539 73.27709961 C56.38175288 76.67921344 58.74774212 80.05084595 61.15625 83.3984375 C61.67348633 84.12627441 62.19072266 84.85411133 62.72363281 85.60400391 C63.71779934 87.00175242 64.721916 88.39249365 65.73730469 89.77490234 C69.0657475 94.48393379 69.0657475 94.48393379 68.73608398 97.0715332 C67.0181341 101.57239096 62.45149114 104.77746349 59 108 C58.39800781 108.57105469 57.79601562 109.14210938 57.17578125 109.73046875 C55.625 111.125 55.625 111.125 53 113 C49.15809659 111.71936553 48.6514266 110.32417365 46.5 106.9375 C45.79488281 105.84824219 45.08976562 104.75898438 44.36328125 103.63671875 C43.98252441 103.04681152 43.60176758 102.4569043 43.20947266 101.84912109 C41.09152355 98.61106164 38.88704353 95.43294658 36.6875 92.25 C35.73691563 90.87113755 34.78639539 89.49223089 33.8359375 88.11328125 C33.3625293 87.4270166 32.88912109 86.74075195 32.40136719 86.03369141 C31.06964345 84.10106794 29.74111459 82.16630218 28.4140625 80.23046875 C22.97460209 72.29796516 17.49629399 64.393237 12 56.5 C9.96226238 53.57133672 7.92483753 50.64245637 5.88769531 47.71337891 C4.69502552 45.99903177 3.50174644 44.28510821 2.30761719 42.57177734 C-15.59474596 16.86854042 -15.59474596 16.86854042 -14 6 C-9.86325151 0.66577168 -6.69371224 -0.7557417 0 0 Z " fill="#DCE8F0" transform="translate(220,184)"/>
<path d="M0 0 C3.67988552 1.22662851 4.18803753 2.36014544 6.28515625 5.55078125 C6.89810547 6.47697266 7.51105469 7.40316406 8.14257812 8.35742188 C9.09293945 9.82018555 9.09293945 9.82018555 10.0625 11.3125 C10.69994141 12.27607422 11.33738281 13.23964844 11.99414062 14.23242188 C17.09415668 21.98724081 17.09415668 21.98724081 19 26 C17.865625 25.67 16.73125 25.34 15.5625 25 C10.89464942 23.98813998 6.32238901 23.67594323 1.5625 23.5625 C0.87164307 23.52833984 0.18078613 23.49417969 -0.53100586 23.45898438 C-4.88557662 23.42236142 -7.40460208 24.14430695 -11.06420898 26.50439453 C-18.97830154 30.56326433 -27.68758524 29.61603194 -36.3515625 29.48828125 C-38.22056121 29.47894127 -40.08957226 29.47183077 -41.95858765 29.46684265 C-46.84802797 29.44786603 -51.73671086 29.3988471 -56.62585449 29.34332275 C-61.62676755 29.29192748 -66.6278045 29.26928553 -71.62890625 29.24414062 C-81.41960134 29.19071818 -91.20973738 29.10552018 -101 29 C-101 28.67 -101 28.34 -101 28 C-100.14341797 27.98598145 -100.14341797 27.98598145 -99.26953125 27.97167969 C-70.69686944 27.39250411 -43.85358863 22.37671796 -18 10 C-16.86304688 9.45988281 -15.72609375 8.91976563 -14.5546875 8.36328125 C-10.34225484 6.30881471 -6.25710896 4.28945799 -2.4375 1.5625 C-1.633125 1.046875 -0.82875 0.53125 0 0 Z " fill="#828384" transform="translate(259,306)"/>
<path d="M0 0 C7.01386455 8.69841717 13.29355331 17.84111852 19.5 27.125 C20.13599121 28.07439453 20.77198242 29.02378906 21.42724609 30.00195312 C22.01844238 30.89076172 22.60963867 31.77957031 23.21875 32.6953125 C24.0221582 33.9021167 24.0221582 33.9021167 24.84179688 35.13330078 C26 37 26 37 26 38 C7.85 38 -10.3 38 -29 38 C-24.80713691 33.80713691 -20.74107356 31.90374109 -14.87890625 31.63671875 C-13.44000519 31.63802803 -12.00103749 31.65512967 -10.5625 31.6875 C-9.49418945 31.68266602 -9.49418945 31.68266602 -8.40429688 31.67773438 C-3.09207127 31.73080838 0.51025572 32.62756393 6 34 C0.39 25.75 -5.22 17.5 -11 9 C-9.35 7.68 -7.7 6.36 -6 5 C-4.89263257 4.08720255 -3.78786052 3.17123207 -2.6875 2.25 C-1.3571875 1.13625 -1.3571875 1.13625 0 0 Z " fill="#A5C64D" transform="translate(271,297)"/>
<path d="M0 0 C0 12.87 0 25.74 0 39 C-4.59572062 36.70213969 -6.68009647 34.07988359 -9.90234375 30.19140625 C-14.79050181 25.08478303 -17.58719295 24.92660088 -25 24 C-22.36 19.38 -19.72 14.76 -17 10 C-12 11 -12 11 -10 12 C-9.690625 10.700625 -9.690625 10.700625 -9.375 9.375 C-7.79826694 5.50483704 -4.70372271 0 0 0 Z " fill="#A5C74C" transform="translate(334,231)"/>
<path d="M0 0 C1.59399414 1.9777832 1.59399414 1.9777832 3.28515625 4.55078125 C4.20458008 5.94006836 4.20458008 5.94006836 5.14257812 7.35742188 C5.77615234 8.33259766 6.40972656 9.30777344 7.0625 10.3125 C7.69994141 11.27607422 8.33738281 12.23964844 8.99414062 13.23242188 C14.09415668 20.98724081 14.09415668 20.98724081 16 25 C14.845 24.690625 13.69 24.38125 12.5 24.0625 C8.59127208 23.11474188 5.05845458 23.02490441 1.046875 23.11083984 C-4.2145042 23.14615929 -7.81285479 23.15412309 -11.80859375 19.26953125 C-13.79436967 16.25016073 -15.49479083 13.28274237 -17 10 C-15.4912305 5.77357115 -12.85846067 4.37305311 -9.0625 2.1875 C-7.47115234 1.24970703 -7.47115234 1.24970703 -5.84765625 0.29296875 C-3 -1 -3 -1 0 0 Z " fill="#6D6D6D" transform="translate(262,307)"/>
<path d="M0 0 C0.33 0 0.66 0 1 0 C1.17781506 6.58324702 1.30020826 13.16587292 1.38452148 19.75097656 C1.41967552 21.98981873 1.46740932 24.22850074 1.52807617 26.46679688 C1.61321526 29.68920406 1.65273927 32.909484 1.68359375 36.1328125 C1.71972275 37.12991241 1.75585175 38.12701233 1.79307556 39.15432739 C1.79693562 46.02090178 1.79693562 46.02090178 -0.53683472 48.88812256 C-2.42163086 50.46826172 -2.42163086 50.46826172 -4.30357361 51.73995972 C-6.86246489 53.64060575 -7.82828713 56.10517996 -9 59 C-11.31 58.34 -13.62 57.68 -16 57 C-14.32804847 51.79201964 -12.51551157 46.68575955 -10.44970703 41.62133789 C-5.65082384 29.80900709 -1.86303797 17.95896563 -1.17578125 5.13671875 C-1 3 -1 3 0 0 Z " fill="#848586" transform="translate(333,184)"/>
<path d="M0 0 C0.25394531 0.54011719 0.50789063 1.08023437 0.76953125 1.63671875 C2.01429873 4.11054226 2.01429873 4.11054226 3.76171875 6.76953125 C9.60405105 16.00112731 9.60405105 16.00112731 9.1875 20.0625 C7.86406904 23.33625027 7.24603186 24.59631055 4 26 C0.71466776 26.14284053 -1.15964528 25.74476935 -3.6484375 23.5390625 C-6.50940865 20.34314839 -9.16774773 17.27926727 -10 13 C-8.46520847 10.43298592 -7.04064901 8.43076001 -5.125 6.1875 C-4.63902344 5.59001953 -4.15304687 4.99253906 -3.65234375 4.37695312 C-2.45098134 2.90469527 -1.22752396 1.45051707 0 0 Z " fill="#A5C64E" transform="translate(300,267)"/>
<path d="M0 0 C2.6486859 3.19668988 4.93992341 6.39486597 7 10 C5.27430361 11.13031603 3.54428261 12.25403107 1.8125 13.375 C0.36810547 14.31472656 0.36810547 14.31472656 -1.10546875 15.2734375 C-3.69803936 16.81988312 -6.16853116 17.97508075 -9 19 C-9.86658615 17.73760288 -10.71792059 16.46472499 -11.5625 15.1875 C-12.27599609 14.12595703 -12.27599609 14.12595703 -13.00390625 13.04296875 C-14 11 -14 11 -13 8 C-10.83294466 6.49486063 -8.70953155 5.13645516 -6.4375 3.8125 C-5.82197266 3.44447266 -5.20644531 3.07644531 -4.57226562 2.69726562 C-3.05283891 1.790321 -1.52700967 0.89411832 0 0 Z " fill="#A4A4A6" transform="translate(253,296)"/>
<path d="M0 0 C4 4 4 4 5 8 C1.04 10.64 -2.92 13.28 -7 16 C-11 12 -11 12 -12 8 C-8.04 5.36 -4.08 2.72 0 0 Z " fill="#F7B18D" transform="translate(208,231)"/>
<path d="M0 0 C0.66 0.33 1.32 0.66 2 1 C-0.97 4.96 -0.97 4.96 -4 9 C-4.33 8.01 -4.66 7.02 -5 6 C-3.59554165 3.7363436 -1.8032087 1.9791315 0 0 Z " fill="#D2DCDE" transform="translate(306,257)"/>
</svg>
