<?xml version="1.0" encoding="UTF-8"?>
<svg version="1.1" xmlns="http://www.w3.org/2000/svg" width="652" height="562">
<path d="M0 0 C215.16 0 430.32 0 652 0 C652 185.46 652 370.92 652 562 C436.84 562 221.68 562 0 562 C0 376.54 0 191.08 0 0 Z " fill="#828385" transform="translate(0,0)"/>
<path d="M0 0 C0.90693604 0.12987305 1.81387207 0.25974609 2.74829102 0.39355469 C9.89759338 1.47736004 16.59359122 3.17972004 23.4375 5.5 C24.97905762 6.02013672 24.97905762 6.02013672 26.55175781 6.55078125 C41.62753235 11.79372342 56.16470288 18.43286531 69 28 C70.56041016 29.13695312 70.56041016 29.13695312 72.15234375 30.296875 C84.19776425 39.212284 94.88718314 49.06373153 104 61 C104.72574219 61.91007812 105.45148438 62.82015625 106.19921875 63.7578125 C133.16077841 98.29495873 143.88128233 141.65088639 139.4296875 184.99829102 C139.05252914 188.0182193 138.54341928 191.00600207 138 194 C137.82855469 195.06347656 137.65710938 196.12695312 137.48046875 197.22265625 C134.95437521 210.89615613 130.69828429 225.77563116 124 238 C125.98 238.99 127.96 239.98 130 241 C130.144375 240.175 130.28875 239.35 130.4375 238.5 C133.21360965 232.28151438 138.54693324 228.50957954 144.25 225 C150.85652599 223.23825974 158.39333695 223.00674886 165 225 C165.165 224.29875 165.33 223.5975 165.5 222.875 C168.16409264 217.76882244 173.68967262 214.14189784 179 212 C186.53952316 211.07371573 192.73798682 211.62759355 199 216 C205.72136176 221.5659816 210.17482874 228.88885931 214.875 236.125 C216.63441571 238.807063 218.39949087 241.48538979 220.1640625 244.1640625 C220.62631226 244.86754822 221.08856201 245.57103394 221.56481934 246.2958374 C225.18909193 251.80155878 228.87557513 257.26293763 232.5859375 262.7109375 C233.14042572 263.52611847 233.69491394 264.34129944 234.26620483 265.18118286 C236.45858293 268.40345043 238.65126674 271.62546143 240.85296631 274.84136963 C258.21280872 300.20928971 258.21280872 300.20928971 263.25 314.75 C263.7462085 316.15306396 263.7462085 316.15306396 264.25244141 317.58447266 C267.22881852 326.23461453 269.55082537 334.96089123 271 344 C271.18312744 345.11109131 271.36625488 346.22218262 271.55493164 347.36694336 C272.67443113 355.02192543 273.12187495 362.40801784 272.94921875 370.14453125 C272.9312323 371.01517212 272.91324585 371.88581299 272.89471436 372.78283691 C272.81290187 376.3669636 272.72104377 379.94958074 272.58178711 383.53198242 C272.15818991 395.07734782 272.26626518 402.77830878 280 412 C281.14531769 413.64280342 282.27706647 415.29515636 283.39453125 416.95703125 C284.53140201 418.57724424 285.67076299 420.19571249 286.8125 421.8125 C287.41271973 422.66763184 288.01293945 423.52276367 288.63134766 424.40380859 C291.43938104 428.39787153 294.26441714 432.37824238 297.12890625 436.33203125 C297.59643311 436.97873779 298.06395996 437.62544434 298.5456543 438.29174805 C299.41112128 439.48528186 300.28086843 440.67572747 301.15551758 441.86254883 C304 445.78028402 304 445.78028402 304 448 C282.48556971 448.35127712 260.97161586 448.61533693 239.45489407 448.77718258 C229.46284746 448.85434808 219.47258823 448.95943504 209.48168945 449.1315918 C200.76772387 449.28167295 192.05505312 449.37800469 183.33983094 449.41132742 C178.72947859 449.43079235 174.12282834 449.47611421 169.51366997 449.58595085 C137.70487228 450.31535328 137.70487228 450.31535328 129.26686954 442.71090794 C126.9615274 440.17527911 124.97293448 437.56648138 123.12736702 434.68100166 C121.66901999 432.5064802 119.91657278 430.93510094 117.875 429.3125 C114.96328865 426.85554617 112.16299866 424.30698217 109.38037109 421.70629883 C104.0788986 416.75423114 98.70263729 411.983716 93.03125 407.453125 C90.76614962 405.6200283 88.54882052 403.7621008 86.34375 401.859375 C77.34754069 394.16775856 68.03839989 387.50263327 57.93066406 381.32568359 C49.10831263 375.82128349 42.86935742 370.00155614 39.6640625 359.92578125 C37.80962397 351.75534326 38.14657204 344.57074698 42.30859375 337.1953125 C46.33781673 331.96569746 51.95154761 329.3001157 58 327 C57.1000662 325.17913395 56.17944686 323.36847967 55.25 321.5625 C54.73953125 320.55316406 54.2290625 319.54382813 53.703125 318.50390625 C52.24569042 315.95077433 52.24569042 315.95077433 50.1484375 314.9921875 C47.06184143 315.00341149 45.1131692 316.15096317 42.375 317.5625 C3.69900809 336.18747487 -41.76275432 337.62253283 -82.12695312 323.62841797 C-123.57247798 308.68044298 -158.81803861 278.57079485 -178.12548828 238.67431641 C-188.96849779 215.21732075 -194.22363139 190.95072899 -194.25 165.125 C-194.25100708 164.43913818 -194.25201416 163.75327637 -194.25305176 163.04663086 C-194.24191273 151.7988295 -193.4997911 140.99046089 -191 130 C-190.7215625 128.741875 -190.443125 127.48375 -190.15625 126.1875 C-179.85736211 84.28168033 -153.74596397 46.77481921 -117.00927734 23.75244141 C-112.42869158 20.99692403 -107.74491947 18.45953342 -103 16 C-102.4028418 15.68579102 -101.80568359 15.37158203 -101.19042969 15.04785156 C-70.03368457 -1.14397882 -34.45429189 -5.4239035 0 0 Z " fill="#605F60" transform="translate(348,114)"/>
<path d="M0 0 C3.07215403 2.67068483 6.03904631 5.44228378 8.96435547 8.27246094 C10.39022531 9.65170833 11.83157607 11.01489204 13.27294922 12.37792969 C23.47700779 22.24185297 31.34948104 33.37512094 38.39794922 45.65917969 C38.98318359 46.67882812 39.56841797 47.69847656 40.17138672 48.74902344 C48.5606897 64.40779031 53.98128446 82.08343599 56.39794922 99.65917969 C56.67058594 101.47675781 56.67058594 101.47675781 56.94873047 103.33105469 C60.48754178 132.53940017 55.95476009 170.99125777 38.39794922 195.65917969 C36.18185381 197.91008288 33.89423915 199.93510925 31.44873047 201.93261719 C29.07674503 203.92960303 27.3010835 206.22316781 25.39794922 208.65917969 C24.73794922 208.65917969 24.07794922 208.65917969 23.39794922 208.65917969 C22.99576172 207.51449219 22.99576172 207.51449219 22.58544922 206.34667969 C21.61674581 203.71318502 21.61674581 203.71318502 20.04321289 202.31347656 C17.97167496 200.230565 16.49826548 197.9589542 14.88623047 195.50292969 C14.21011719 194.47941406 13.53400391 193.45589844 12.83740234 192.40136719 C11.78456055 190.79648437 11.78456055 190.79648437 10.71044922 189.15917969 C6.02529593 182.02748271 1.2580645 174.99931164 -3.79663086 168.12353516 C-6.12511182 164.94521375 -8.36847186 161.71734906 -10.60205078 158.47167969 C-10.99521484 157.90126953 -11.38837891 157.33085937 -11.79345703 156.74316406 C-12.7309166 155.38270445 -13.66668961 154.02108287 -14.60205078 152.65917969 C-14.08255859 151.64339844 -13.56306641 150.62761719 -13.02783203 149.58105469 C-1.42119882 127.16316416 -1.42119882 127.16316416 3.39794922 102.65917969 C3.46111328 101.45390625 3.52427734 100.24863281 3.58935547 99.00683594 C4.15104235 83.90349655 0.02737654 70.46236506 -10.03955078 58.84667969 C-10.88517578 58.12480469 -11.73080078 57.40292969 -12.60205078 56.65917969 C-13.17439453 56.10875 -13.74673828 55.55832031 -14.33642578 54.99121094 C-26.77747559 43.32150622 -42.21781749 40.73531474 -58.77783203 41.24902344 C-71.84274751 42.06478152 -81.40254567 48.9160271 -89.97705078 58.28417969 C-92.57156801 61.24171579 -94.648542 64.2435355 -96.60205078 67.65917969 C-100.4333628 66.38207568 -101.0610522 64.85206601 -103.28955078 61.53417969 C-110.2579771 51.75814784 -119.51800173 44.15652225 -131.60205078 41.65917969 C-150.92719933 40.20924357 -166.34559483 42.47968048 -181.78955078 54.84667969 C-190.25336881 62.62793175 -197.91004206 76.01874221 -198.74731445 87.68286133 C-199.11162535 121.96334176 -185.06853243 151.49168404 -161.45629883 176.1394043 C-145.98746473 191.93530838 -127.83681903 202.95451916 -107.60205078 211.65917969 C-106.84279297 212.04203125 -106.08353516 212.42488281 -105.30126953 212.81933594 C-97.52215382 215.23975544 -91.2042691 213.18647176 -84.03955078 209.90917969 C-82.84168945 209.38710938 -82.84168945 209.38710938 -81.61962891 208.85449219 C-77.09482571 206.86313626 -72.71783988 204.71576866 -68.41088867 202.28710938 C-66.03859432 201.46357839 -64.90127143 201.68048307 -62.60205078 202.65917969 C-61.32861328 204.1394043 -61.32861328 204.1394043 -60.22705078 206.06152344 C-59.59464478 207.13599731 -59.59464478 207.13599731 -58.94946289 208.23217773 C-58.50481689 209.01246338 -58.0601709 209.79274902 -57.60205078 210.59667969 C-56.62736269 212.24959858 -55.649397 213.90058835 -54.66845703 215.54980469 C-54.16459473 216.39865234 -53.66073242 217.2475 -53.14160156 218.12207031 C-50.7228437 222.1080728 -48.14345275 225.97994837 -45.53955078 229.84667969 C-44.79535889 230.95366211 -44.79535889 230.95366211 -44.03613281 232.08300781 C-43.04756767 233.55114184 -42.05799744 235.01859963 -41.06738281 236.48535156 C-38.68955356 240.01287433 -36.33409773 243.55525243 -33.97705078 247.09667969 C-33.17247172 248.30378322 -32.36779305 249.51082038 -31.56298828 250.71777344 C-27.60205078 256.65917969 -27.60205078 256.65917969 -27.73925781 258.72387695 C-28.87378995 261.26870894 -29.84251156 261.60663441 -32.40673828 262.62402344 C-33.60931274 263.10814697 -33.60931274 263.10814697 -34.83618164 263.60205078 C-35.70766846 263.93027832 -36.57915527 264.25850586 -37.47705078 264.59667969 C-38.37238525 264.9429541 -39.26771973 265.28922852 -40.19018555 265.64599609 C-58.51798241 272.55007187 -76.86993033 276.09046236 -96.47705078 276.03417969 C-97.19482697 276.03363586 -97.91260315 276.03309204 -98.65213013 276.03253174 C-140.31179718 275.88832675 -177.89247637 259.71758535 -207.60205078 230.65917969 C-208.39869141 229.92441406 -209.19533203 229.18964844 -210.01611328 228.43261719 C-229.16202351 210.36916125 -241.29381042 185.31776972 -248.47705078 160.34667969 C-248.66823486 159.69127197 -248.85941895 159.03586426 -249.05639648 158.3605957 C-252.37048262 146.02340988 -253.01389022 133.30535556 -252.97705078 120.59667969 C-252.97650696 119.88228729 -252.97596313 119.1678949 -252.97540283 118.43185425 C-252.83518947 78.09583565 -236.74368421 42.15254504 -209.60205078 12.65917969 C-208.59271484 11.54349609 -208.59271484 11.54349609 -207.56298828 10.40527344 C-185.51684408 -12.81353801 -155.33208129 -25.74715948 -124.60205078 -32.34082031 C-122.9565625 -32.7159375 -122.9565625 -32.7159375 -121.27783203 -33.09863281 C-79.6736048 -41.15838761 -32.15134888 -26.90874856 0 0 Z " fill="#AC9DB5" transform="translate(418.60205078125,158.3408203125)"/>
<path d="M0 0 C11.33918453 6.46069816 18.07030404 20.47007512 25.06396484 31.10644531 C28.9161893 36.95205517 32.89766937 42.66316828 37.04223633 48.30493164 C40.23298098 52.69732847 43.26999085 57.1917434 46.3125 61.6875 C47.62605847 63.62125925 48.93986217 65.55485195 50.25390625 67.48828125 C50.89086426 68.42623535 51.52782227 69.36418945 52.18408203 70.33056641 C55.12696125 74.65665425 58.08887859 78.96955772 61.06201172 83.27490234 C63.38964204 86.64712774 65.69716748 90.03115743 67.98046875 93.43359375 C68.47514648 94.16594238 68.96982422 94.89829102 69.47949219 95.65283203 C70.42440581 97.05248138 71.36419675 98.45560827 72.29785156 99.86279297 C75.48856614 104.58757087 75.48856614 104.58757087 80 108 C83.12680099 108.00674926 83.12680099 108.00674926 86 107 C88.20085176 103.69872235 88.49164472 102.82700719 88 99 C86.48134223 96.09200611 86.48134223 96.09200611 84.5 93.1875 C81.3452326 87.94454644 79.66704189 85.04957912 81 79 C83.12973119 75.69280413 85.44565003 72.77717499 89 71 C94.02863131 70.39309622 96.90243155 70.50767006 101.0625 73.5 C103.96535544 75.86990932 106.23136793 78.45067807 108.5625 81.375 C111.17056664 84.50946541 111.56875347 84.92930385 115.8125 85.625 C119.0797921 85.2920986 119.0797921 85.2920986 121 83 C121.52566861 78.61942822 121.06354421 75.74993452 119 71.9375 C117.11068454 68.39759125 116.02750466 66.06679871 117 62 C119.41832091 58.81453802 122.10742882 56.4794998 126.03515625 55.484375 C131.13772337 55.209092 134.26626276 56.68112245 138 60 C139.43336764 62.04483195 140.70758104 64.11128728 141.921875 66.29296875 C142.8980346 68.16460869 142.8980346 68.16460869 145 69 C149.13064626 69.37615126 149.13064626 69.37615126 152.875 67.875 C154.5432007 65.0946655 154.38281779 63.19014822 154 60 C153.505 59.195625 153.01 58.39125 152.5 57.5625 C150.47989272 54.1114834 150.42793535 51.93294447 151 48 C153.63010339 44.89169599 155.3960686 44.12302306 159.375 43.3125 C164.71600061 44.32544839 166.7038908 46.82684988 170 51 C171.34513657 53.02717521 172.66121101 55.07376378 173.95703125 57.1328125 C179.56288202 65.95985615 185.44079594 74.59855421 191.3125 83.25 C195.01464909 88.71003258 198.71311584 94.17252231 202.40460205 99.63977051 C203.48544957 101.23877481 204.56798073 102.8366421 205.65203857 104.43347168 C207.27656948 106.82754874 208.89472421 109.22582836 210.51171875 111.625 C210.99731766 112.33771057 211.48291656 113.05042114 211.98323059 113.784729 C219.69981214 125.27636703 224.75962789 137.55899461 228 151 C228.36294372 152.44409529 228.7262415 153.88810163 229.08984375 155.33203125 C229.457607 156.82505954 229.82352056 158.31854477 230.1875 159.8125 C230.35475586 160.49376953 230.52201172 161.17503906 230.69433594 161.87695312 C232.70329851 170.43471945 233.09806819 178.61564016 232.74609375 187.37890625 C232.69444743 189.37297588 232.64571314 191.36712265 232.59960938 193.36132812 C232.5260985 196.45440214 232.43836457 199.54311123 232.30053711 202.6340332 C231.69592062 216.74137465 232.85798308 226.14860428 241.73214722 237.39151001 C243.47725763 239.60548364 245.04875924 241.93095286 246.64453125 244.25390625 C247.69506844 245.69409723 248.75082287 247.13050136 249.8125 248.5625 C250.88162901 250.02204855 251.95064115 251.48168272 253.01953125 252.94140625 C254.50665435 254.96895171 255.995865 256.99444667 257.49755859 259.01123047 C261 263.77922891 261 263.77922891 261 266 C244.44860273 266.54087361 227.90013102 266.9445499 211.34199429 267.19167995 C203.65066597 267.30956113 195.96487026 267.46973976 188.27709961 267.73510742 C181.56413226 267.9667132 174.85517124 268.11326027 168.13831955 268.16403538 C164.5895746 268.19366901 161.05227078 268.26145522 157.50726128 268.43179131 C145.27954089 268.99652148 133.87059033 269.3688986 124.26223755 260.97268677 C119.16551114 256.26726575 114.70876405 251.0387416 110.30848885 245.68515205 C107.17939537 242.04550191 103.69052786 239.04517616 100 236 C98.8400531 234.93793214 97.68662578 233.86865203 96.54296875 232.7890625 C95.99374756 232.27134277 95.44452637 231.75362305 94.87866211 231.22021484 C94.04153687 230.4305835 94.04153687 230.4305835 93.1875 229.625 C88.19378143 224.9524445 83.09435281 220.49893756 77.75 216.2265625 C75.29516882 214.23898611 72.90410703 212.19284504 70.52099609 210.12036133 C60.47459945 201.42618551 49.74357161 193.1511856 38.1875 186.5625 C32.86920361 183.5143198 29.44609677 179.6863808 27 174 C26.47772113 170.92680117 26.44710821 168.07101279 27 165 C29.18159145 162.24430553 30.87177494 160.56411253 34 159 C48.93965613 157.41788816 60.29129271 163.21404112 72 172 C73.09455172 172.98770828 74.18047332 173.98524693 75.25 175 C79.13594276 177.82614019 81.27961447 177.62938474 86 177 C88.32084471 174.14963614 88.32084471 174.14963614 87.890625 170.75 C86.88912262 166.53314788 85.16883352 163.51480453 82.75 160 C82.28037842 159.29633301 81.81075684 158.59266602 81.3269043 157.86767578 C80.22000358 156.21527388 79.10639201 154.56735678 77.98779297 152.92285156 C76.12950025 150.19041721 74.28292547 147.45051796 72.43963623 144.70796204 C63.29833746 131.10993671 54.06253126 117.58065477 44.67700195 104.14990234 C40.23936838 97.79687751 35.85516333 91.40980783 31.5 85 C26.33835535 77.40446439 21.12770307 69.84535372 15.875 62.3125 C9.32851413 52.92291904 2.82277558 43.5071933 -3.61181641 34.04052734 C-4.50539244 32.72703658 -5.40075948 31.41476155 -6.29833984 30.10400391 C-7.43266425 28.44747944 -8.56033523 26.78640445 -9.6875 25.125 C-10.59048828 23.79855469 -10.59048828 23.79855469 -11.51171875 22.4453125 C-14.48978263 17.55222066 -16.13694864 12.76354163 -15 7 C-11.48877171 0.94345752 -6.91918699 -1.30032997 0 0 Z " fill="#747A7E" transform="translate(374,296)"/>
<path d="M0 0 C0.86625 0.5775 1.7325 1.155 2.625 1.75 C11.64475557 10.29503159 16.82455641 21.93617648 19 34 C19.66 34 20.32 34 21 34 C21.09796875 33.45472656 21.1959375 32.90945312 21.296875 32.34765625 C24.04301141 18.49860627 31.26480504 5.18864079 43 -3 C54.01816192 -9.06906996 65.32945552 -10.92398488 77.6875 -7.8125 C90.55880625 -3.76456746 101.24247949 3.30984814 107.75 15.4375 C108.36875 16.7059375 108.36875 16.7059375 109 18 C109.4125 18.78375 109.825 19.5675 110.25 20.375 C115.62274063 32.31442362 114.54577864 48.95293647 110 61 C106.51574875 69.61893731 102.72943779 77.99063892 98 86 C97.484375 85.34 96.96875 84.68 96.4375 84 C95.2309375 82.515 95.2309375 82.515 94 81 C93.23623047 80.0409375 93.23623047 80.0409375 92.45703125 79.0625 C86.82784334 72.26110134 81.05269719 67.64791745 72.1171875 66.69140625 C63.89823394 66.36462858 58.25437044 67.45686663 52 73 C46.77648912 79.17227102 44.65774239 84.4880599 44.7890625 92.51171875 C45.85671631 105.1060794 53.86651278 115.08065387 61 125 C59.50135814 129.18488672 56.55665457 130.99501132 52.9375 133.25 C52.32841797 133.63551025 51.71933594 134.02102051 51.09179688 134.41821289 C27.22999036 149.12157932 27.22999036 149.12157932 16 148 C13.40876311 147.11539553 11.03832381 146.19435741 8.5625 145.0625 C7.86801758 144.75038574 7.17353516 144.43827148 6.45800781 144.11669922 C-28.47218053 127.99568201 -55.55901948 99.66705361 -68.875 63.5625 C-73.46082914 50.49449039 -76.17015092 34.5588904 -70.875 21.3125 C-69.9725 19.51257022 -69.0162155 17.73826336 -68 16 C-67.53078125 15.18273437 -67.0615625 14.36546875 -66.578125 13.5234375 C-65.1584429 11.24126035 -63.64928721 9.12109822 -62 7 C-61.52304688 6.38511719 -61.04609375 5.77023438 -60.5546875 5.13671875 C-45.36984987 -12.07022037 -17.62340838 -13.60979571 0 0 Z " fill="#C1B7CA" transform="translate(301,216)"/>
<path d="M0 0 C8.64325803 5.03291566 14.04628881 12.97038862 19.39086914 21.17382812 C20.13449376 22.29442201 20.8794646 23.41412362 21.62573242 24.53295898 C23.09577017 26.73909555 24.55943898 28.94900017 26.01977539 31.16162109 C28.59780666 35.05200146 31.23453614 38.89918473 33.89086914 42.73632812 C34.74652911 43.97838391 35.6020008 45.22056943 36.45727539 46.46289062 C37.31008331 47.69990886 38.16294971 48.93688677 39.01586914 50.17382812 C42.29238072 54.92684083 45.56619548 59.68164873 48.8293457 64.44384766 C49.8967488 66.00014773 50.96780006 67.55394418 52.03930664 69.10742188 C52.58844727 69.91308594 53.13758789 70.71875 53.70336914 71.54882812 C54.16098633 72.2165625 54.61860352 72.88429688 55.09008789 73.57226562 C56.01586914 75.17382812 56.01586914 75.17382812 56.01586914 77.17382812 C57.50086914 77.66882813 57.50086914 77.66882813 59.01586914 78.17382812 C59.34586914 79.82382812 59.67586914 81.47382813 60.01586914 83.17382812 C60.67586914 83.17382812 61.33586914 83.17382812 62.01586914 83.17382812 C62.51086914 81.68882812 62.51086914 81.68882812 63.01586914 80.17382812 C63.67586914 80.17382812 64.33586914 80.17382812 65.01586914 80.17382812 C65.22211914 79.61695313 65.42836914 79.06007813 65.64086914 78.48632812 C68.47147495 73.72576381 72.81411854 70.81882618 78.01586914 69.17382812 C81.42602539 68.90820312 81.42602539 68.90820312 85.07836914 68.92382812 C86.89014648 68.91609375 86.89014648 68.91609375 88.73852539 68.90820312 C91.78418804 69.15505063 93.46576414 69.57126837 96.01586914 71.17382812 C96.16024414 70.34882813 96.30461914 69.52382813 96.45336914 68.67382812 C99.22947879 62.45534251 104.56280239 58.68340767 110.26586914 55.17382812 C116.87239513 53.41208786 124.40920609 53.18057699 131.01586914 55.17382812 C131.18086914 54.47257812 131.34586914 53.77132812 131.51586914 53.04882812 C134.17996178 47.94265057 139.70554176 44.31572597 145.01586914 42.17382812 C152.5553923 41.24754385 158.75385596 41.80142167 165.01586914 46.17382812 C171.73723091 51.73980973 176.19069788 59.06268743 180.89086914 66.29882812 C182.65028485 68.98089113 184.41536001 71.65921792 186.17993164 74.33789062 C186.6421814 75.04137634 187.10443115 75.74486206 187.58068848 76.46966553 C191.20496107 81.97538691 194.89144427 87.43676575 198.60180664 92.88476562 C199.15629486 93.69994659 199.71078308 94.51512756 200.28207397 95.35501099 C202.47445207 98.57727855 204.66713588 101.79928955 206.86883545 105.01519775 C224.22867786 130.38311783 224.22867786 130.38311783 229.26586914 144.92382812 C229.5966748 145.8592041 229.92748047 146.79458008 230.26831055 147.75830078 C233.24468766 156.40844265 235.56669451 165.13471935 237.01586914 174.17382812 C237.19899658 175.28491943 237.38212402 176.39601074 237.57080078 177.54077148 C238.69030027 185.19575355 239.13774409 192.58184596 238.96508789 200.31835938 C238.94710144 201.18900024 238.92911499 202.05964111 238.9105835 202.95666504 C238.82877101 206.54079172 238.73691291 210.12340886 238.59765625 213.70581055 C238.17405905 225.25117594 238.28213432 232.9521369 246.01586914 242.17382812 C247.16118683 243.81663155 248.29293561 245.46898448 249.41040039 247.13085938 C250.54727115 248.75107236 251.68663213 250.36954062 252.82836914 251.98632812 C253.42858887 252.84145996 254.02880859 253.6965918 254.6472168 254.57763672 C257.45525018 258.57169965 260.28028628 262.55207051 263.14477539 266.50585938 C263.61230225 267.15256592 264.0798291 267.79927246 264.56152344 268.46557617 C265.42699042 269.65910998 266.29673757 270.8495556 267.17138672 272.03637695 C270.01586914 275.95411214 270.01586914 275.95411214 270.01586914 278.17382812 C264.3057318 279.34320954 258.60614391 280.26591657 253.01586914 278.17382812 C247.87464725 273.78443802 244.74612417 267.47165086 241.46508789 261.65771484 C239.40488186 258.12662722 237.02424075 254.88153 234.57836914 251.61132812 C233.44347654 250.06195301 232.30932091 248.51076671 231.23803711 246.91674805 C230.01741062 245.10789061 230.01741062 245.10789061 228.40698242 243.34692383 C221.57440791 234.47020213 223.44931587 223.07670097 223.76586914 212.48632812 C223.8595966 208.4409612 223.93642012 204.39555577 224.00024414 200.34960938 C224.0156575 199.37416672 224.03107086 198.39872406 224.04695129 197.39372253 C224.15610394 185.68142585 222.50505016 174.51782142 219.32836914 163.23632812 C219.06854248 162.30320801 218.80871582 161.37008789 218.54101562 160.40869141 C213.41149066 142.63588528 204.55365747 127.60407796 193.91308594 112.58422852 C188.73536462 105.26078484 183.72926827 97.83057742 178.76586914 90.36132812 C178.37995605 89.78138092 177.99404297 89.20143372 177.59643555 88.60391235 C173.98721827 83.17972495 170.38665789 77.75014919 166.82446289 72.29492188 C166.37039063 71.60309814 165.91631836 70.91127441 165.44848633 70.19848633 C164.31358521 68.46698326 163.18582308 66.73080633 162.05883789 64.99414062 C159.91940763 62.04066329 157.76396209 59.57295689 155.01586914 57.17382812 C151.30509238 56.65301735 149.01241188 56.7394377 145.57836914 58.23632812 C143.71313326 60.20395136 143.71313326 60.20395136 143.57836914 63.54882812 C144.03707898 67.34956678 145.05211739 68.98273153 147.01586914 72.17382812 C147.54156363 75.85368958 147.50305335 77.46178966 145.39086914 80.54882812 C142.26575745 82.68706244 140.73424449 82.85679503 137.01586914 82.17382812 C134.17081269 79.8580845 132.33380698 77.73021935 130.51586914 74.54882812 C128.63706821 71.57405999 127.25977843 70.54347871 124.01586914 69.17382812 C119.4189277 68.59008953 116.35615495 68.48829301 112.45336914 71.11132812 C109.86082875 74.36862246 109.6422456 74.7912656 109.95336914 78.67382812 C110.63258344 82.41568143 112.05229797 84.92966705 114.01586914 88.17382812 C114.62508416 94.06290662 114.62508416 94.06290662 112.95336914 97.11132812 C109.85178805 98.81219518 107.49323664 98.54837035 104.01586914 98.17382812 C101.32055664 95.87304688 101.32055664 95.87304688 98.89086914 92.86132812 C94.69035533 87.72811237 91.82411666 84.53043098 85.07836914 83.67382812 C80.35139051 83.83497512 78.24976808 85.8610536 75.01586914 89.17382812 C73.33920994 92.52714653 73.28529605 95.57759622 74.01586914 99.17382812 C75.13232288 101.23476351 76.32739161 103.25416294 77.57836914 105.23632812 C81.58262917 111.65611344 81.58262917 111.65611344 81.20336914 115.23632812 C79.87993818 118.5100784 79.261901 119.77013867 76.01586914 121.17382812 C72.91997207 121.30843235 70.98982895 120.99693003 68.57836914 118.95898438 C64.63105059 114.57188305 61.49937454 109.52400366 58.27368164 104.59960938 C55.80661952 100.83530756 53.2587561 97.12853219 50.70336914 93.42382812 C50.00594604 92.41171265 50.00594604 92.41171265 49.29443359 91.37915039 C48.34294611 89.99868554 47.39120307 88.61839679 46.43920898 87.23828125 C44.12789873 83.88589025 41.82211032 80.52970735 39.51586914 77.17382812 C38.59923012 75.84047579 37.68256342 74.50714247 36.76586914 73.17382812 C20.26586914 49.17382813 20.26586914 49.17382813 18.8894043 47.17138672 C17.97800766 45.84592507 17.0662274 44.52072712 16.15405273 43.19580078 C13.77844615 39.74415916 11.41084277 36.28738606 9.05493164 32.82226562 C8.56702148 32.10683594 8.07911133 31.39140625 7.57641602 30.65429688 C6.65073236 29.29662752 5.72737609 27.93736695 4.80688477 26.57617188 C-0.31233706 18.30907832 -0.31233706 18.30907832 -7.98413086 13.17382812 C-13.80891171 12.590867 -13.80891171 12.590867 -18.92163086 15.04882812 C-21.63722679 17.84671484 -21.93631735 18.72756872 -22.35913086 22.67382812 C-22.10317778 32.93023353 -14.01577096 41.60197012 -8.28100586 49.56835938 C-5.02395003 54.09535934 -1.86963502 58.68710884 1.26586914 63.29882812 C6.09805807 70.39158776 10.98056589 77.44743799 15.89086914 84.48632812 C21.77259094 92.92073407 27.59076583 101.39556299 33.36865234 109.90136719 C37.88977189 116.54759667 42.47384855 123.14768279 47.07836914 129.73632812 C53.98724309 139.63578499 60.74501159 149.62607708 67.38305664 159.70898438 C69.0045435 162.15673129 70.64840836 164.58810767 72.29711914 167.01757812 C73.30795432 168.52771473 74.31839213 170.03811743 75.32836914 171.54882812 C75.79090088 172.22026855 76.25343262 172.89170898 76.72998047 173.58349609 C79.48882289 177.75426956 80.7763859 181.05014712 81.01586914 186.17382812 C80.07836914 188.61132812 80.07836914 188.61132812 78.01586914 190.17382812 C74.64595725 190.88328326 73.2273906 191.07655562 70.01586914 190.17382812 C67.3998083 188.42832198 65.0994162 186.46712005 62.72290039 184.40820312 C52.44244819 175.92275052 42.2191258 171.87095317 29.03149414 171.77539062 C25.646651 172.22261083 23.74831112 173.15889788 21.01586914 175.17382812 C19.25545258 178.69466124 19.49324434 182.33099868 20.01586914 186.17382812 C22.63763818 193.24620997 27.85117001 196.39190816 34.01586914 200.17382812 C43.72078933 206.50417441 52.8003806 213.26210236 61.52075195 220.88476562 C63.87066838 222.91082029 66.28866045 224.85082784 68.70336914 226.79882812 C73.06880483 230.35208973 77.27978931 234.04031907 81.43383789 237.83789062 C83.53923117 239.74261858 85.66567283 241.61295732 87.80883789 243.47460938 C92.00542588 247.13933217 96.08789661 250.91392386 100.14086914 254.73632812 C100.86717529 255.42090088 101.59348145 256.10547363 102.34179688 256.81079102 C107.31409642 261.51759783 112.22660252 266.28038183 117.07836914 271.11132812 C117.67987793 271.70824463 118.28138672 272.30516113 118.90112305 272.92016602 C123.01586914 277.05013387 123.01586914 277.05013387 123.01586914 278.17382812 C106.76808546 280.40068173 106.76808546 280.40068173 100.7253418 276.81445312 C96.48586168 273.30673513 92.96816085 269.1697054 89.48754883 264.92480469 C87.77953945 262.89264754 85.9364047 261.17538031 83.89086914 259.48632812 C80.97915779 257.02937429 78.1788678 254.4808103 75.39624023 251.88012695 C70.09476774 246.92805927 64.71850643 242.15754412 59.04711914 237.62695312 C56.78201876 235.79385643 54.56468966 233.93592893 52.35961914 232.03320312 C43.36340983 224.34158668 34.05426903 217.67646139 23.9465332 211.49951172 C15.12418177 205.99511162 8.88522656 200.17538426 5.67993164 190.09960938 C3.82549311 181.92917138 4.16244118 174.74457511 8.32446289 167.36914062 C12.20782111 162.32884658 17.9990194 159.06214045 24.01586914 157.17382812 C26.82952524 156.98345139 29.51931764 156.89418114 32.32836914 156.92382812 C33.04959961 156.91609375 33.77083008 156.90835938 34.51391602 156.90039062 C39.64456681 156.91879655 44.08205565 157.76894564 49.01586914 159.17382812 C40.13324866 146.09320328 31.24759237 133.01529046 22.2722168 119.99804688 C21.0008288 118.15198953 19.73250803 116.30386152 18.46508789 114.45507812 C13.05598278 106.5678105 7.6082169 98.70834417 2.14086914 90.86132812 C-3.88458918 82.21107917 -9.8717824 73.53641154 -15.80444336 64.82226562 C-18.02689408 61.56146815 -20.27527714 58.32029142 -22.53881836 55.08789062 C-23.12574463 54.24452148 -23.7126709 53.40115234 -24.31738281 52.53222656 C-25.42964642 50.93488851 -26.54753234 49.341443 -27.67236328 47.75292969 C-34.07132604 38.52864924 -38.01329726 29.55183445 -36.98413086 18.17382812 C-35.26913806 10.31102216 -30.58402377 4.58827652 -23.92163086 0.23632812 C-16.88977859 -3.36274491 -7.18499776 -3.42306524 0 0 Z " fill="#A5C64C" transform="translate(381.984130859375,283.826171875)"/>
<path d="M0 0 C7.09985407 5.36456932 12.71416646 11.5352491 17.24609375 19.16796875 C17.90609375 19.16796875 18.56609375 19.16796875 19.24609375 19.16796875 C20.55755288 17.41365677 20.55755288 17.41365677 21.87109375 15.16796875 C29.12909729 4.00046088 39.24178503 -3.62629366 52.24609375 -6.83203125 C55.51026804 -7.22207722 58.71169457 -7.26298081 61.99609375 -7.20703125 C62.87080322 -7.19615479 63.7455127 -7.18527832 64.64672852 -7.17407227 C79.44656813 -6.81276803 93.34092896 -2.38159304 104.33984375 7.96484375 C117.4546705 23.12214352 121.41465802 38.78891211 120.0078125 58.5078125 C117.93113726 75.14219095 110.30746643 89.72208458 102.24609375 104.16796875 C96.67500092 99.02542152 96.67500092 99.02542152 96.24609375 95.16796875 C96.89526367 93.17602539 96.89526367 93.17602539 97.9765625 91.078125 C98.36585938 90.29961182 98.75515625 89.52109863 99.15625 88.71899414 C99.57777344 87.89778076 99.99929688 87.07656738 100.43359375 86.23046875 C104.18162096 78.65849942 107.14767665 71.37427848 109.24609375 63.16796875 C109.50652466 62.23404297 109.50652466 62.23404297 109.7722168 61.28125 C112.14802269 50.68620837 111.28801819 37.74762518 106.24609375 28.16796875 C105.62734375 26.89953125 105.62734375 26.89953125 104.99609375 25.60546875 C98.80677374 14.07082692 89.21502326 7.47354747 77.0078125 3.42578125 C66.37876429 0.58877752 54.86054438 1.20409552 45.0625 6.3046875 C43.05075338 7.51021431 41.14922378 8.79854257 39.24609375 10.16796875 C38.25609375 10.84859375 37.26609375 11.52921875 36.24609375 12.23046875 C26.7297206 20.63487438 22.90866236 32.4588479 19.24609375 44.16796875 C18.58609375 44.16796875 17.92609375 44.16796875 17.24609375 44.16796875 C16.88257813 43.12898438 16.5190625 42.09 16.14453125 41.01953125 C13.23081294 32.86836024 10.1774047 25.35115002 5.24609375 18.16796875 C4.66859375 17.28109375 4.09109375 16.39421875 3.49609375 15.48046875 C-5.07812014 6.66808225 -15.28295876 2.28504065 -27.50390625 1.98046875 C-39.9126319 2.20205314 -52.04483945 6.34401001 -61.25390625 14.91796875 C-65.35367179 19.44790241 -68.23027166 24.62937248 -70.75390625 30.16796875 C-71.02388428 30.75900391 -71.2938623 31.35003906 -71.57202148 31.95898438 C-73.79069938 37.24324422 -74.26265624 41.96908274 -74.19140625 47.66796875 C-74.17787109 48.98063721 -74.17787109 48.98063721 -74.1640625 50.31982422 C-73.4450383 77.76757431 -57.82411523 102.51900854 -39.75390625 122.16796875 C-39.1403125 122.85246094 -38.52671875 123.53695312 -37.89453125 124.2421875 C-24.33039102 138.64569284 -4.41748536 150.77545198 14.24609375 157.16796875 C28.97553376 157.40943498 47.26307269 146.35784351 58.24609375 137.16796875 C61.40725151 138.53780378 62.23880295 139.15703255 64.24609375 142.16796875 C64.04889221 144.735607 63.65653439 145.80455366 61.71826172 147.52075195 C61.06486816 147.91609131 60.41147461 148.31143066 59.73828125 148.71875 C59.00593262 149.16669922 58.27358398 149.61464844 57.51904297 150.07617188 C56.72771973 150.53958984 55.93639648 151.00300781 55.12109375 151.48046875 C53.90897217 152.20459961 53.90897217 152.20459961 52.67236328 152.94335938 C45.4138666 157.20988008 37.98040652 160.8573056 30.24609375 164.16796875 C29.4571875 164.52761719 28.66828125 164.88726562 27.85546875 165.2578125 C21.29740707 168.05918924 16.32279624 168.26917463 9.64453125 165.87890625 C5.43087786 164.14188103 1.33327419 162.18173256 -2.75390625 160.16796875 C-3.40230469 159.85263184 -4.05070312 159.53729492 -4.71875 159.21240234 C-19.48676205 151.95297311 -31.94366873 142.55985999 -43.75390625 131.16796875 C-44.67945313 130.3171875 -45.605 129.46640625 -46.55859375 128.58984375 C-54.2856186 121.27872109 -60.11951219 113.15088722 -65.75390625 104.16796875 C-66.16946777 103.50603516 -66.5850293 102.84410156 -67.01318359 102.16210938 C-73.11539258 92.27560366 -77.2365107 82.21605051 -80.75390625 71.16796875 C-81.11613281 70.18054688 -81.47835937 69.193125 -81.8515625 68.17578125 C-85.77599262 55.09434752 -85.51112576 38.52274726 -79.75390625 26.16796875 C-79.31820312 25.22566406 -78.8825 24.28335938 -78.43359375 23.3125 C-71.86912124 10.309105 -61.92815165 1.13305944 -48.2734375 -4.0078125 C-47.02626953 -4.41580078 -47.02626953 -4.41580078 -45.75390625 -4.83203125 C-44.21669922 -5.36570313 -44.21669922 -5.36570313 -42.6484375 -5.91015625 C-28.6645617 -9.80680797 -12.02454725 -7.99930874 0 0 Z " fill="#E73E3A" transform="translate(302.75390625,205.83203125)"/>
<path d="M0 0 C0.55107422 0.36931641 1.10214844 0.73863281 1.66992188 1.11914062 C5.50158947 3.68118175 9.34001551 6.22842615 13.21875 8.71875 C24.1323656 15.77544633 34.12967951 23.55945832 44 32 C45.250746 33.05664816 46.50203 34.1126599 47.75390625 35.16796875 C54.8111829 41.14076222 61.68837402 47.28491008 68.46289062 53.57617188 C70.10031729 55.09292414 71.74477511 56.60176903 73.390625 58.109375 C84.90086887 68.66369998 84.90086887 68.66369998 90 74 C90 74.33 90 74.66 90 75 C70.81764235 76.90995484 70.81764235 76.90995484 65.4375 72.796875 C62.7394097 69.99147429 60.36403454 67.0891728 58 64 C56.68370947 62.75051369 55.33218944 61.53632605 53.9375 60.375 C51.88566843 58.63155995 49.87476571 56.88157959 47.91796875 55.03125 C38.53541905 46.20813682 27.86107216 38.98022003 17.234375 31.74609375 C16.47068604 31.22120361 15.70699707 30.69631348 14.92016602 30.15551758 C13.47754777 29.1665866 12.02791053 28.18778336 10.57006836 27.22143555 C5.12531059 23.48436694 1.14193623 19.42580869 -1 13 C-1.09398043 10.96007192 -1.12992069 8.91708586 -1.125 6.875 C-1.12757813 5.79992187 -1.13015625 4.72484375 -1.1328125 3.6171875 C-1 1 -1 1 0 0 Z " fill="#6C6C6D" transform="translate(395,487)"/>
<path d="M0 0 C2.70496382 2.70496382 4.62488883 4.68774018 6.671875 7.73828125 C7.16349121 8.46474854 7.65510742 9.19121582 8.16162109 9.93969727 C8.68578613 10.72272217 9.20995117 11.50574707 9.75 12.3125 C10.90273994 14.01623828 12.05643011 15.71933391 13.2109375 17.421875 C13.82163086 18.32357422 14.43232422 19.22527344 15.06152344 20.15429688 C18.46356695 25.14853103 21.91995203 30.10485345 25.375 35.0625 C26.02823242 36.0006958 26.68146484 36.9388916 27.35449219 37.90551758 C27.98774414 38.81454834 28.62099609 39.7235791 29.2734375 40.66015625 C30.19141113 41.98684326 30.19141113 41.98684326 31.12792969 43.34033203 C32.41423319 45.16779556 33.72920211 46.97531213 35.06738281 48.76513672 C35.71803711 49.64572754 36.36869141 50.52631836 37.0390625 51.43359375 C37.63154785 52.21661865 38.2240332 52.99964355 38.83447266 53.80639648 C40 56 40 56 39.88256836 58.15161133 C38.33511928 61.39247909 34.99487667 62.63613548 31.9375 64.25 C31.27427734 64.61351562 30.61105469 64.97703125 29.92773438 65.3515625 C28.29154895 66.24616748 26.64657276 67.12466067 25 68 C22.8076064 65.15316055 20.8419077 62.2336165 18.9375 59.1875 C16.1053972 54.70482156 13.20250397 50.27857778 10.25 45.875 C-4.41922756 23.9602087 -4.41922756 23.9602087 -10.87890625 12.78515625 C-12.0022777 10.84921987 -12.0022777 10.84921987 -14 9 C-9.38 6.03 -4.76 3.06 0 0 Z " fill="#7E7784" transform="translate(367,350)"/>
<path d="M0 0 C2.83253984 2.83253984 4.80618481 4.96006998 6.9453125 8.1875 C7.72455078 9.35925781 7.72455078 9.35925781 8.51953125 10.5546875 C9.04933594 11.36164063 9.57914062 12.16859375 10.125 13 C10.66253906 13.80695313 11.20007813 14.61390625 11.75390625 15.4453125 C14.03697602 18.89553764 16.2104509 22.26346346 18 26 C16.845 25.690625 15.69 25.38125 14.5 25.0625 C10.59132952 24.11475581 7.05869772 24.02443814 3.04711914 24.11132812 C-2.1602316 24.14507557 -5.79902014 24.15192575 -9.7734375 20.33984375 C-11.78233671 17.29748556 -13.47372676 14.30769854 -15 11 C-15.33 10.34 -15.66 9.68 -16 9 C-10.72 6.03 -5.44 3.06 0 0 Z " fill="#6C6D6D" transform="translate(414,418)"/>
<path d="M0 0 C0.99 0 1.98 0 3 0 C4.3503418 1.46875 4.3503418 1.46875 5.69921875 3.5 C6.18583984 4.221875 6.67246094 4.94375 7.17382812 5.6875 C7.67333984 6.450625 8.17285156 7.21375 8.6875 8 C9.19861328 8.763125 9.70972656 9.52625 10.23632812 10.3125 C11.50020313 12.20240655 12.75414661 14.09818473 14 16 C12.37454798 19.51938982 10.87271685 21.13836397 7.625 23.3125 C6.85414063 23.84488281 6.08328125 24.37726563 5.2890625 24.92578125 C3 26 3 26 0.8828125 25.95703125 C-3.13422361 23.9151768 -4.49019012 19.02218126 -6 15 C-6.68469275 10.43538167 -6.40073368 8.70796283 -4.125 4.6875 C-2 2 -2 2 0 0 Z " fill="#958D9C" transform="translate(348,325)"/>
<path d="M0 0 C2.90252121 2.81856399 5.10575711 5.4009385 7 9 C7 9.66 7 10.32 7 11 C4.71125827 12.33858524 2.41930344 13.67101014 0.125 15 C-0.52597656 15.3815625 -1.17695313 15.763125 -1.84765625 16.15625 C-6.7734375 19 -6.7734375 19 -9 19 C-10.32421875 17.35546875 -10.32421875 17.35546875 -11.6875 15.1875 C-12.14511719 14.47980469 -12.60273438 13.77210938 -13.07421875 13.04296875 C-14 11 -14 11 -13 8 C-10.83294466 6.49486063 -8.70953155 5.13645516 -6.4375 3.8125 C-5.82197266 3.44447266 -5.20644531 3.07644531 -4.57226562 2.69726562 C-3.05283891 1.790321 -1.52700967 0.89411832 0 0 Z " fill="#575758" transform="translate(407,408)"/>
<path d="M0 0 C3.16115776 1.36983503 3.9927092 1.9890638 6 5 C5.97265625 6.953125 5.97265625 6.953125 5 9 C2.49609375 10.921875 2.49609375 10.921875 -0.5625 12.75 C-2.08037109 13.67039062 -2.08037109 13.67039062 -3.62890625 14.609375 C-4.41136719 15.06828125 -5.19382812 15.5271875 -6 16 C-8.66735273 13.51047079 -10.55746343 11.36591866 -12 8 C-11.21753906 7.50628906 -10.43507813 7.01257813 -9.62890625 6.50390625 C-8.61699219 5.86324219 -7.60507812 5.22257812 -6.5625 4.5625 C-5.55316406 3.92441406 -4.54382813 3.28632813 -3.50390625 2.62890625 C-1.15446165 1.22350458 -1.15446165 1.22350458 0 0 Z " fill="#B25E4B" transform="translate(361,343)"/>
</svg>
