<?xml version="1.0" encoding="UTF-8"?>
<svg version="1.1" xmlns="http://www.w3.org/2000/svg" width="334" height="335">
<path d="M0 0 C110.22 0 220.44 0 334 0 C334 110.55 334 221.1 334 335 C223.78 335 113.56 335 0 335 C0 224.45 0 113.9 0 0 Z " fill="#AC9DB5" transform="translate(0,0)"/>
<path d="M0 0 C110.22 0 220.44 0 334 0 C334.144375 37.99125 334.28875 75.9825 334.4375 115.125 C334.50122803 127.1302002 334.56495605 139.13540039 334.63061523 151.50439453 C334.66223145 166.14038086 334.66223145 166.14038086 334.66810608 172.98751831 C334.67463988 177.77998437 334.70091915 182.57191018 334.73902893 187.36422729 C334.78697081 193.4736719 334.80145211 199.58232862 334.79150593 205.69194388 C334.7935863 207.93629668 334.80751123 210.18067645 334.83450592 212.42486787 C334.86925353 215.4538533 334.86096519 218.47976578 334.84178162 221.50881958 C334.86217027 222.3898982 334.88255892 223.27097683 334.90356541 224.17875481 C334.80313117 230.06570452 334.80313117 230.06570452 332.45343792 232.79914069 C330.5684824 234.38226128 330.5684824 234.38226128 328.6908651 235.69158447 C326.17031585 237.64202143 325.17398459 240.09956749 324 243 C323.2265625 242.75636719 323.2265625 242.75636719 322.4375 242.5078125 C319.25798557 241.84541366 316.24628473 241.86812228 313 241.875 C311.783125 241.87242187 310.56625 241.86984375 309.3125 241.8671875 C306.61866122 241.97519519 304.56116164 242.2976335 302 243 C302.24645264 242.50298584 302.49290527 242.00597168 302.74682617 241.49389648 C323.43434606 199.51537012 326.31915315 156.26876272 311.26904297 111.84228516 C304.10996228 91.58528504 291.82051098 74.33229841 277 59 C276.17628906 58.12472656 275.35257812 57.24945313 274.50390625 56.34765625 C247.60561032 28.41646576 208.10879871 13.56988715 169.76782227 12.66162109 C127.50300324 12.1968661 88.46800869 27.92405733 57.96484375 57.046875 C29.8896524 84.63146789 13.12469814 122.96170147 12.57763672 162.296875 C12.38146109 191.09969086 17.49691888 217.73255528 32 243 C32.37882324 243.66435059 32.75764648 244.32870117 33.14794922 245.01318359 C38.83485682 254.84703733 45.28013947 263.67109309 53 272 C53.47695313 272.51546387 53.95390625 273.03092773 54.4453125 273.56201172 C81.27479265 302.19387339 119.75428004 320.08502365 159.03125 321.3828125 C186.28118365 322.06878094 211.15066138 317.47637771 236 306 C235.21793759 302.54138466 234.01084201 300.17190153 232.0625 297.1875 C231.42957031 296.21425781 230.79664063 295.24101562 230.14453125 294.23828125 C227.43450697 290.14609522 224.71312658 286.06165071 221.98364258 281.98242188 C214.74345108 271.1487279 207.55872714 260.26329936 201 249 C196.09182469 249.63893406 192.07599514 251.72127943 187.6875 253.875 C169.88871772 262.55966052 169.88871772 262.55966052 162 261 C156.48471185 259.02598146 151.25085386 256.58710855 146 254 C145.35160156 253.68466309 144.70320312 253.36932617 144.03515625 253.04443359 C129.2671442 245.78500436 116.81023752 236.39189124 105 225 C104.07445313 224.14921875 103.14890625 223.2984375 102.1953125 222.421875 C94.46828765 215.11075234 88.63439406 206.98291847 83 198 C82.37665771 197.00709961 82.37665771 197.00709961 81.74072266 195.99414062 C75.63851367 186.10763491 71.51739555 176.04808176 68 165 C67.63777344 164.01257813 67.27554688 163.02515625 66.90234375 162.0078125 C62.97791363 148.92637877 63.24278049 132.35477851 69 120 C69.65355469 118.58654297 69.65355469 118.58654297 70.3203125 117.14453125 C76.88478501 104.14113625 86.8257546 94.96509069 100.48046875 89.82421875 C101.31191406 89.55222656 102.14335938 89.28023438 103 89 C104.02480469 88.64421875 105.04960938 88.2884375 106.10546875 87.921875 C117.49911373 84.74699938 132.56556681 85.3765991 143.27734375 90.38671875 C152.84743297 96.0573742 160.33417289 103.45755435 166 113 C166.66 113 167.32 113 168 113 C169.31145913 111.24568802 169.31145913 111.24568802 170.625 109 C177.88300354 97.83249213 187.99569128 90.20573759 201 87 C204.26417429 86.60995403 207.46560082 86.56905044 210.75 86.625 C211.62470947 86.63587646 212.49941895 86.64675293 213.40063477 86.65795898 C228.20047438 87.01926322 242.09483521 91.45043821 253.09375 101.796875 C266.20857675 116.95417477 270.16856427 132.62094336 268.76171875 152.33984375 C266.68504351 168.9742222 259.06137268 183.55411583 251 198 C245.42890717 192.85745277 245.42890717 192.85745277 245 189 C245.64916992 187.00805664 245.64916992 187.00805664 246.73046875 184.91015625 C247.11976563 184.13164307 247.5090625 183.35312988 247.91015625 182.55102539 C248.33167969 181.72981201 248.75320312 180.90859863 249.1875 180.0625 C252.93552721 172.49053067 255.9015829 165.20630973 258 157 C258.17362061 156.37738281 258.34724121 155.75476563 258.52612305 155.11328125 C260.90192894 144.51823962 260.04192444 131.57965643 255 122 C254.38125 120.7315625 254.38125 120.7315625 253.75 119.4375 C247.56067999 107.90285817 237.96892951 101.30557872 225.76171875 97.2578125 C215.13267054 94.42080877 203.61445063 95.03612677 193.81640625 100.13671875 C191.80465963 101.34224556 189.90313003 102.63057382 188 104 C187.01 104.680625 186.02 105.36125 185 106.0625 C175.48362685 114.46690563 171.66256861 126.29087915 168 138 C167.34 138 166.68 138 166 138 C165.63648438 136.96101562 165.27296875 135.92203125 164.8984375 134.8515625 C161.98471919 126.70039149 158.93131095 119.18318127 154 112 C153.4225 111.113125 152.845 110.22625 152.25 109.3125 C143.67578611 100.5001135 133.47094749 96.1170719 121.25 95.8125 C108.84127435 96.03408439 96.7090668 100.17604126 87.5 108.75 C83.40023446 113.27993366 80.52363459 118.46140373 78 124 C77.73002197 124.59103516 77.46004395 125.18207031 77.18188477 125.79101562 C74.96320687 131.07527547 74.49125001 135.80111399 74.5625 141.5 C74.57152344 142.3751123 74.58054687 143.25022461 74.58984375 144.15185547 C75.30886795 171.59960556 90.92979102 196.35103979 109 216 C109.61359375 216.68449219 110.2271875 217.36898437 110.859375 218.07421875 C124.42351523 232.47772409 144.33642089 244.60748323 163 251 C177.72944001 251.24146623 196.01697894 240.18987476 207 231 C211.24462943 232.50091626 212.96785947 235.54108344 215.25 239.1875 C216.13158168 240.55242055 217.01588411 241.91558618 217.90234375 243.27734375 C218.3907373 244.02870605 218.87913086 244.78006836 219.38232422 245.55419922 C222.44056553 250.17802377 225.63475433 254.70788177 228.8125 259.25 C235.43983618 268.74407334 242.00050279 278.28106971 248.52685547 287.84472656 C250.36342237 290.53170247 252.20777026 293.21325731 254.05371094 295.89379883 C255.84725147 298.49827685 257.63803629 301.10464141 259.42822266 303.71142578 C260.58628735 305.39761691 261.7448967 307.083434 262.90380859 308.76904297 C264.95937392 311.76087438 267.01125659 314.75520416 269.0625 317.75 C269.71847168 318.70366455 270.37444336 319.6573291 271.05029297 320.63989258 C271.66404785 321.53732178 272.27780273 322.43475098 272.91015625 323.359375 C273.45808838 324.15827148 274.00602051 324.95716797 274.57055664 325.78027344 C275.87401976 327.80437022 276.97359907 329.82483748 278 332 C276.865625 331.67 275.73125 331.34 274.5625 331 C269.89464942 329.98813998 265.32238901 329.67594323 260.5625 329.5625 C259.87164307 329.52833984 259.18078613 329.49417969 258.46899414 329.45898438 C254.03405228 329.42168548 251.22448633 330.27639574 247.37568092 332.49733257 C241.97384346 335.27347299 237.60988691 335.69705621 231.61019897 335.60127258 C230.61581818 335.60555267 229.62143738 335.60983276 228.59692383 335.61424255 C225.28078268 335.62246669 221.96592654 335.59498964 218.64990234 335.56762695 C216.22570651 335.56609414 213.80150844 335.56676468 211.37731361 335.56945324 C204.90105514 335.57057938 198.42526108 335.54165674 191.94911194 335.50640106 C185.86620665 335.47786984 179.7834128 335.47658242 173.70043945 335.47302246 C155.92523176 335.4468137 138.15010997 335.37700764 120.375 335.3125 C80.65125 335.209375 40.9275 335.10625 0 335 C0 224.45 0 113.9 0 0 Z " fill="#605F60" transform="translate(0,0)"/>
<path d="M0 0 C0.86625 0.5775 1.7325 1.155 2.625 1.75 C11.64475557 10.29503159 16.82455641 21.93617648 19 34 C19.66 34 20.32 34 21 34 C21.09796875 33.45472656 21.1959375 32.90945312 21.296875 32.34765625 C24.04301141 18.49860627 31.26480504 5.18864079 43 -3 C54.01816192 -9.06906996 65.32945552 -10.92398488 77.6875 -7.8125 C90.55880625 -3.76456746 101.24247949 3.30984814 107.75 15.4375 C108.36875 16.7059375 108.36875 16.7059375 109 18 C109.4125 18.78375 109.825 19.5675 110.25 20.375 C115.62274063 32.31442362 114.54577864 48.95293647 110 61 C106.51574875 69.61893731 102.72943779 77.99063892 98 86 C97.484375 85.34 96.96875 84.68 96.4375 84 C95.2309375 82.515 95.2309375 82.515 94 81 C93.23623047 80.0409375 93.23623047 80.0409375 92.45703125 79.0625 C86.82784334 72.26110134 81.05269719 67.64791745 72.1171875 66.69140625 C63.89823394 66.36462858 58.25437044 67.45686663 52 73 C46.77648912 79.17227102 44.65774239 84.4880599 44.7890625 92.51171875 C45.85671631 105.1060794 53.86651278 115.08065387 61 125 C59.50135814 129.18488672 56.55665457 130.99501132 52.9375 133.25 C52.32841797 133.63551025 51.71933594 134.02102051 51.09179688 134.41821289 C27.22999036 149.12157932 27.22999036 149.12157932 16 148 C13.40876311 147.11539553 11.03832381 146.19435741 8.5625 145.0625 C7.86801758 144.75038574 7.17353516 144.43827148 6.45800781 144.11669922 C-28.47218053 127.99568201 -55.55901948 99.66705361 -68.875 63.5625 C-73.46082914 50.49449039 -76.17015092 34.5588904 -70.875 21.3125 C-69.9725 19.51257022 -69.0162155 17.73826336 -68 16 C-67.53078125 15.18273437 -67.0615625 14.36546875 -66.578125 13.5234375 C-65.1584429 11.24126035 -63.64928721 9.12109822 -62 7 C-61.52304688 6.38511719 -61.04609375 5.77023438 -60.5546875 5.13671875 C-45.36984987 -12.07022037 -17.62340838 -13.60979571 0 0 Z " fill="#C1B7CA" transform="translate(147,104)"/>
<path d="M0 0 C11.33918453 6.46069816 18.07030404 20.47007512 25.06396484 31.10644531 C28.9161893 36.95205517 32.89766937 42.66316828 37.04223633 48.30493164 C40.23298098 52.69732847 43.26999085 57.1917434 46.3125 61.6875 C47.62605847 63.62125925 48.93986217 65.55485195 50.25390625 67.48828125 C50.89086426 68.42623535 51.52782227 69.36418945 52.18408203 70.33056641 C55.12696125 74.65665425 58.08887859 78.96955772 61.06201172 83.27490234 C63.38964204 86.64712774 65.69716748 90.03115743 67.98046875 93.43359375 C68.47514648 94.16594238 68.96982422 94.89829102 69.47949219 95.65283203 C70.42440581 97.05248138 71.36419675 98.45560827 72.29785156 99.86279297 C75.48856614 104.58757087 75.48856614 104.58757087 80 108 C83.12680099 108.00674926 83.12680099 108.00674926 86 107 C88.20085176 103.69872235 88.49164472 102.82700719 88 99 C86.48134223 96.09200611 86.48134223 96.09200611 84.5 93.1875 C81.3452326 87.94454644 79.66704189 85.04957912 81 79 C83.12973119 75.69280413 85.44565003 72.77717499 89 71 C94.02863131 70.39309622 96.90243155 70.50767006 101.0625 73.5 C104.6298066 76.44812912 107.62692884 79.78869219 110.5546875 83.36328125 C111.92118154 85.11660051 111.92118154 85.11660051 114 86 C114 107.45 114 128.9 114 151 C105.09 151.3403125 105.09 151.3403125 96 151.6875 C94.14117187 151.78764404 92.28234375 151.88778809 90.3671875 151.9909668 C78.7346539 152.36210457 78.7346539 152.36210457 74.25585938 148.84521484 C72.16870084 145.9981345 70.57844823 143.15409959 69 140 C67.92860977 138.36533273 66.83558843 136.74458448 65.71875 135.140625 C64.64419153 133.5114984 63.57132624 131.88125396 62.5 130.25 C56.79858084 121.63298527 50.95236278 113.12773678 45.03320312 104.65917969 C40.47698731 98.13620469 35.97088214 91.58172293 31.5 85 C26.33845088 77.40440021 21.12770222 69.8453525 15.875 62.3125 C9.32851413 52.92291904 2.82277558 43.5071933 -3.61181641 34.04052734 C-4.50539244 32.72703658 -5.40075948 31.41476155 -6.29833984 30.10400391 C-7.43266425 28.44747944 -8.56033523 26.78640445 -9.6875 25.125 C-10.59048828 23.79855469 -10.59048828 23.79855469 -11.51171875 22.4453125 C-14.48978263 17.55222066 -16.13694864 12.76354163 -15 7 C-11.48877171 0.94345752 -6.91918699 -1.30032997 0 0 Z " fill="#747A7E" transform="translate(220,184)"/>
<path d="M0 0 C0.33 0 0.66 0 1 0 C1.06316406 0.93714844 1.12632813 1.87429687 1.19140625 2.83984375 C4.33331056 40.19359502 21.51055113 74.05155911 47 101 C47.80695312 101.87140625 48.61390625 102.7428125 49.4453125 103.640625 C67.01920137 122.00140442 89.15796499 134.63342559 113 143 C114.08595459 143.38260986 114.08595459 143.38260986 115.19384766 143.77294922 C129.73521364 148.76385606 144.78759458 150.3438107 160 152 C160 152.33 160 152.66 160 153 C107.2 153 54.4 153 0 153 C0 102.51 0 52.02 0 0 Z " fill="#828385" transform="translate(0,182)"/>
<path d="M0 0 C50.49 0 100.98 0 153 0 C153 50.82 153 101.64 153 154 C152.67 154 152.34 154 152 154 C151.84144531 152.70449219 151.68289063 151.40898437 151.51953125 150.07421875 C149.2274789 132.25465188 145.45287981 115.42050243 138 99 C137.70754395 98.35466309 137.41508789 97.70932617 137.11376953 97.04443359 C130.33296436 82.33055302 121.61486797 69.24073683 111 57 C110.2471875 56.12472656 109.494375 55.24945313 108.71875 54.34765625 C104.13061275 49.12315065 99.40468194 44.37211792 94 40 C92.58267578 38.84371094 92.58267578 38.84371094 91.13671875 37.6640625 C64.41427441 16.26444919 33.5148315 5.94308707 0 1 C0 0.67 0 0.34 0 0 Z " fill="#828385" transform="translate(181,0)"/>
<path d="M0 0 C52.8 0 105.6 0 160 0 C160 0.33 160 0.66 160 1 C158.72382813 1.03867187 158.72382813 1.03867187 157.421875 1.078125 C123.86656224 2.64879921 90.22069984 14.88856814 64 36 C63.42491699 36.45842285 62.84983398 36.9168457 62.25732422 37.38916016 C26.91651909 65.83701609 6.42378648 106.27755007 1 151 C0.67 151 0.34 151 0 151 C0 101.17 0 51.34 0 0 Z " fill="#828385" transform="translate(0,0)"/>
<path d="M0 0 C8.64325803 5.03291566 14.04628881 12.97038862 19.39086914 21.17382812 C20.13449376 22.29442201 20.8794646 23.41412362 21.62573242 24.53295898 C23.09577017 26.73909555 24.55943898 28.94900017 26.01977539 31.16162109 C28.59780666 35.05200146 31.23453614 38.89918473 33.89086914 42.73632812 C34.74652911 43.97838391 35.6020008 45.22056943 36.45727539 46.46289062 C37.31008331 47.69990886 38.16294971 48.93688677 39.01586914 50.17382812 C42.29238072 54.92684083 45.56619548 59.68164873 48.8293457 64.44384766 C49.8967488 66.00014773 50.96780006 67.55394418 52.03930664 69.10742188 C52.58844727 69.91308594 53.13758789 70.71875 53.70336914 71.54882812 C54.16098633 72.2165625 54.61860352 72.88429688 55.09008789 73.57226562 C56.01586914 75.17382812 56.01586914 75.17382812 56.01586914 77.17382812 C57.50086914 77.66882813 57.50086914 77.66882813 59.01586914 78.17382812 C59.34586914 79.82382813 59.67586914 81.47382813 60.01586914 83.17382812 C60.67586914 83.17382812 61.33586914 83.17382812 62.01586914 83.17382812 C62.51086914 81.68882812 62.51086914 81.68882812 63.01586914 80.17382812 C63.67586914 80.17382812 64.33586914 80.17382812 65.01586914 80.17382812 C65.22211914 79.61695313 65.42836914 79.06007813 65.64086914 78.48632812 C68.47147495 73.72576381 72.81411854 70.81882618 78.01586914 69.17382812 C81.42602539 68.90820312 81.42602539 68.90820312 85.07836914 68.92382812 C86.89014648 68.91609375 86.89014648 68.91609375 88.73852539 68.90820312 C91.78418804 69.15505063 93.46576414 69.57126837 96.01586914 71.17382812 C96.22211914 70.30757813 96.42836914 69.44132812 96.64086914 68.54882812 C98.41072249 64.20464263 100.49686678 62.25295519 104.01586914 59.17382812 C104.67586914 59.17382812 105.33586914 59.17382812 106.01586914 59.17382812 C106.01586914 72.04382813 106.01586914 84.91382813 106.01586914 98.17382812 C101.42014852 95.87596781 99.33577268 93.25371171 96.11352539 89.36523438 C92.670228 85.7680466 90.02910869 84.30249346 85.07836914 83.67382812 C80.35139051 83.83497512 78.24976808 85.8610536 75.01586914 89.17382812 C73.33920994 92.52714653 73.28529605 95.57759622 74.01586914 99.17382812 C75.13232288 101.23476351 76.32739161 103.25416294 77.57836914 105.23632812 C81.58262917 111.65611344 81.58262917 111.65611344 81.20336914 115.23632812 C79.87993818 118.5100784 79.261901 119.77013867 76.01586914 121.17382812 C72.91997207 121.30843235 70.98982895 120.99693003 68.57836914 118.95898438 C64.63105059 114.57188305 61.49937454 109.52400366 58.27368164 104.59960938 C55.80661952 100.83530756 53.2587561 97.12853219 50.70336914 93.42382812 C50.00594604 92.41171265 50.00594604 92.41171265 49.29443359 91.37915039 C48.34294611 89.99868554 47.39120307 88.61839679 46.43920898 87.23828125 C44.12789873 83.88589025 41.82211032 80.52970735 39.51586914 77.17382812 C38.59923012 75.84047579 37.68256342 74.50714247 36.76586914 73.17382812 C20.26586914 49.17382813 20.26586914 49.17382813 18.8894043 47.17138672 C17.97800766 45.84592507 17.0662274 44.52072712 16.15405273 43.19580078 C13.77844615 39.74415916 11.41084277 36.28738606 9.05493164 32.82226562 C8.56702148 32.10683594 8.07911133 31.39140625 7.57641602 30.65429688 C6.65073236 29.29662752 5.72737609 27.93736695 4.80688477 26.57617188 C-0.31233706 18.30907832 -0.31233706 18.30907832 -7.98413086 13.17382812 C-13.80891171 12.590867 -13.80891171 12.590867 -18.92163086 15.04882812 C-21.63722679 17.84671484 -21.93631735 18.72756872 -22.35913086 22.67382812 C-22.10317778 32.93023353 -14.01577096 41.60197012 -8.28100586 49.56835938 C-5.02395003 54.09535934 -1.86963502 58.68710884 1.26586914 63.29882812 C6.09805807 70.39158776 10.98056589 77.44743799 15.89086914 84.48632812 C21.77259094 92.92073407 27.59076583 101.39556299 33.36865234 109.90136719 C37.88977131 116.54759582 42.47378104 123.14773037 47.07836914 129.73632812 C52.46741861 137.45666982 57.78438778 145.22075794 63.01586914 153.04882812 C63.92477905 154.40536499 63.92477905 154.40536499 64.85205078 155.78930664 C65.40111084 156.61487061 65.9501709 157.44043457 66.51586914 158.29101562 C67.24290039 159.38325439 67.24290039 159.38325439 67.98461914 160.49755859 C69.01586914 162.17382812 69.01586914 162.17382812 69.01586914 163.17382812 C50.86586914 163.17382812 32.71586914 163.17382812 14.01586914 163.17382812 C18.20873223 158.98096503 22.27479558 157.07756921 28.13696289 156.81054688 C29.57586395 156.81185616 31.01483165 156.82895779 32.45336914 156.86132812 C33.16557617 156.85810547 33.8777832 156.85488281 34.61157227 156.8515625 C39.6907467 156.90230811 44.13067708 157.79143443 49.01586914 159.17382812 C40.13324866 146.09320328 31.24759237 133.01529046 22.2722168 119.99804688 C21.0008288 118.15198953 19.73250803 116.30386152 18.46508789 114.45507812 C13.05598278 106.5678105 7.6082169 98.70834417 2.14086914 90.86132812 C-3.88458918 82.21107917 -9.8717824 73.53641154 -15.80444336 64.82226562 C-18.02689408 61.56146815 -20.27527714 58.32029142 -22.53881836 55.08789062 C-23.12574463 54.24452148 -23.7126709 53.40115234 -24.31738281 52.53222656 C-25.42964642 50.93488851 -26.54753234 49.341443 -27.67236328 47.75292969 C-34.07132604 38.52864924 -38.01329726 29.55183445 -36.98413086 18.17382812 C-35.26913806 10.31102216 -30.58402377 4.58827652 -23.92163086 0.23632812 C-16.88977859 -3.36274491 -7.18499776 -3.42306524 0 0 Z " fill="#A5C64D" transform="translate(227.984130859375,171.826171875)"/>
<path d="M0 0 C7.09985407 5.36456932 12.71416646 11.5352491 17.24609375 19.16796875 C17.90609375 19.16796875 18.56609375 19.16796875 19.24609375 19.16796875 C20.55755288 17.41365677 20.55755288 17.41365677 21.87109375 15.16796875 C29.12909729 4.00046088 39.24178503 -3.62629366 52.24609375 -6.83203125 C55.51026804 -7.22207722 58.71169457 -7.26298081 61.99609375 -7.20703125 C62.87080322 -7.19615479 63.7455127 -7.18527832 64.64672852 -7.17407227 C79.44656813 -6.81276803 93.34092896 -2.38159304 104.33984375 7.96484375 C117.4546705 23.12214352 121.41465802 38.78891211 120.0078125 58.5078125 C117.93113726 75.14219095 110.30746643 89.72208458 102.24609375 104.16796875 C96.67500092 99.02542152 96.67500092 99.02542152 96.24609375 95.16796875 C96.89526367 93.17602539 96.89526367 93.17602539 97.9765625 91.078125 C98.36585938 90.29961182 98.75515625 89.52109863 99.15625 88.71899414 C99.57777344 87.89778076 99.99929687 87.07656738 100.43359375 86.23046875 C104.18162096 78.65849942 107.14767665 71.37427848 109.24609375 63.16796875 C109.50652466 62.23404297 109.50652466 62.23404297 109.7722168 61.28125 C112.14802269 50.68620837 111.28801819 37.74762518 106.24609375 28.16796875 C105.62734375 26.89953125 105.62734375 26.89953125 104.99609375 25.60546875 C98.80677374 14.07082692 89.21502326 7.47354747 77.0078125 3.42578125 C66.37876429 0.58877752 54.86054438 1.20409552 45.0625 6.3046875 C43.05075338 7.51021431 41.14922378 8.79854257 39.24609375 10.16796875 C38.25609375 10.84859375 37.26609375 11.52921875 36.24609375 12.23046875 C26.7297206 20.63487438 22.90866236 32.4588479 19.24609375 44.16796875 C18.58609375 44.16796875 17.92609375 44.16796875 17.24609375 44.16796875 C16.88257813 43.12898438 16.5190625 42.09 16.14453125 41.01953125 C13.23081294 32.86836024 10.1774047 25.35115002 5.24609375 18.16796875 C4.66859375 17.28109375 4.09109375 16.39421875 3.49609375 15.48046875 C-5.07812014 6.66808225 -15.28295876 2.28504065 -27.50390625 1.98046875 C-39.9126319 2.20205314 -52.04483945 6.34401001 -61.25390625 14.91796875 C-65.35367179 19.44790241 -68.23027166 24.62937248 -70.75390625 30.16796875 C-71.02388428 30.75900391 -71.2938623 31.35003906 -71.57202148 31.95898438 C-73.79069938 37.24324422 -74.26265624 41.96908274 -74.19140625 47.66796875 C-74.17787109 48.98063721 -74.17787109 48.98063721 -74.1640625 50.31982422 C-73.4450383 77.76757431 -57.82411523 102.51900854 -39.75390625 122.16796875 C-39.1403125 122.85246094 -38.52671875 123.53695312 -37.89453125 124.2421875 C-24.33039102 138.64569284 -4.41748536 150.77545198 14.24609375 157.16796875 C28.97553376 157.40943498 47.26307269 146.35784351 58.24609375 137.16796875 C61.40725151 138.53780378 62.23880295 139.15703255 64.24609375 142.16796875 C64.04889221 144.735607 63.65653439 145.80455366 61.71826172 147.52075195 C61.06486816 147.91609131 60.41147461 148.31143066 59.73828125 148.71875 C59.00593262 149.16669922 58.27358398 149.61464844 57.51904297 150.07617188 C56.72771973 150.53958984 55.93639648 151.00300781 55.12109375 151.48046875 C53.90897217 152.20459961 53.90897217 152.20459961 52.67236328 152.94335938 C45.4138666 157.20988008 37.98040652 160.8573056 30.24609375 164.16796875 C29.4571875 164.52761719 28.66828125 164.88726562 27.85546875 165.2578125 C21.29740707 168.05918924 16.32279624 168.26917463 9.64453125 165.87890625 C5.43087786 164.14188103 1.33327419 162.18173256 -2.75390625 160.16796875 C-3.40230469 159.85263184 -4.05070312 159.53729492 -4.71875 159.21240234 C-19.48676205 151.95297311 -31.94366873 142.55985999 -43.75390625 131.16796875 C-44.67945313 130.3171875 -45.605 129.46640625 -46.55859375 128.58984375 C-54.2856186 121.27872109 -60.11951219 113.15088722 -65.75390625 104.16796875 C-66.16946777 103.50603516 -66.5850293 102.84410156 -67.01318359 102.16210938 C-73.11539258 92.27560366 -77.2365107 82.21605051 -80.75390625 71.16796875 C-81.11613281 70.18054688 -81.47835937 69.193125 -81.8515625 68.17578125 C-85.77599262 55.09434752 -85.51112576 38.52274726 -79.75390625 26.16796875 C-79.31820312 25.22566406 -78.8825 24.28335938 -78.43359375 23.3125 C-71.86912124 10.309105 -61.92815165 1.13305944 -48.2734375 -4.0078125 C-47.02626953 -4.41580078 -47.02626953 -4.41580078 -45.75390625 -4.83203125 C-44.21669922 -5.36570312 -44.21669922 -5.36570312 -42.6484375 -5.91015625 C-28.6645617 -9.80680797 -12.02454725 -7.99930874 0 0 Z " fill="#E73E3A" transform="translate(148.75390625,93.83203125)"/>
<path d="M0 0 C2.70496382 2.70496382 4.62488883 4.68774018 6.671875 7.73828125 C7.16349121 8.46474854 7.65510742 9.19121582 8.16162109 9.93969727 C8.68578613 10.72272217 9.20995117 11.50574707 9.75 12.3125 C10.90273994 14.01623828 12.05643011 15.71933391 13.2109375 17.421875 C13.82163086 18.32357422 14.43232422 19.22527344 15.06152344 20.15429688 C18.46356695 25.14853103 21.91995203 30.10485345 25.375 35.0625 C26.02823242 36.0006958 26.68146484 36.9388916 27.35449219 37.90551758 C27.98774414 38.81454834 28.62099609 39.7235791 29.2734375 40.66015625 C30.19141113 41.98684326 30.19141113 41.98684326 31.12792969 43.34033203 C32.41423319 45.16779556 33.72920211 46.97531213 35.06738281 48.76513672 C35.71803711 49.64572754 36.36869141 50.52631836 37.0390625 51.43359375 C37.63154785 52.21661865 38.2240332 52.99964355 38.83447266 53.80639648 C40 56 40 56 39.88256836 58.15161133 C38.33511928 61.39247909 34.99487667 62.63613548 31.9375 64.25 C31.27427734 64.61351562 30.61105469 64.97703125 29.92773438 65.3515625 C28.29154895 66.24616748 26.64657276 67.12466067 25 68 C22.8076064 65.15316055 20.8419077 62.2336165 18.9375 59.1875 C16.1053972 54.70482156 13.20250397 50.27857778 10.25 45.875 C-4.41922756 23.9602087 -4.41922756 23.9602087 -10.87890625 12.78515625 C-12.0022777 10.84921987 -12.0022777 10.84921987 -14 9 C-9.38 6.03 -4.76 3.06 0 0 Z " fill="#7E7784" transform="translate(213,238)"/>
<path d="M0 0 C2.83040183 1.56057795 3.99259851 3.73985948 5.67578125 6.46484375 C6.61357422 7.94791016 6.61357422 7.94791016 7.5703125 9.4609375 C8.21033203 10.73130859 8.21033203 10.73130859 8.86328125 12.02734375 C6.80654804 16.14081016 2.01912932 17.61092976 -2.13671875 19.02734375 C-7.35886007 19.68425449 -12.52089237 19.6133845 -17.76953125 19.515625 C-19.25738324 19.50627947 -20.74525079 19.4991716 -22.23312378 19.4941864 C-26.1165342 19.47525278 -29.99898377 19.42627441 -33.88201904 19.3706665 C-37.85741179 19.31917574 -41.83296242 19.29660928 -45.80859375 19.27148438 C-53.58506966 19.21813839 -61.3607587 19.13299668 -69.13671875 19.02734375 C-69.13671875 18.69734375 -69.13671875 18.36734375 -69.13671875 18.02734375 C-68.5447168 17.96264893 -67.95271484 17.8979541 -67.34277344 17.83129883 C-45.87223669 15.42155169 -24.09786081 11.716023 -4.87890625 1.25390625 C-2.13671875 0.02734375 -2.13671875 0.02734375 0 0 Z " fill="#828385" transform="translate(244.13671875,315.97265625)"/>
<path d="M0 0 C2.83253984 2.83253984 4.80618481 4.96006998 6.9453125 8.1875 C7.72455078 9.35925781 7.72455078 9.35925781 8.51953125 10.5546875 C9.04933594 11.36164063 9.57914062 12.16859375 10.125 13 C10.66253906 13.80695313 11.20007813 14.61390625 11.75390625 15.4453125 C14.03697602 18.89553764 16.2104509 22.26346346 18 26 C16.845 25.690625 15.69 25.38125 14.5 25.0625 C10.59132952 24.11475581 7.05869772 24.02443814 3.04711914 24.11132812 C-2.1602316 24.14507557 -5.79902014 24.15192575 -9.7734375 20.33984375 C-11.78233671 17.29748556 -13.47372676 14.30769854 -15 11 C-15.33 10.34 -15.66 9.68 -16 9 C-10.72 6.03 -5.44 3.06 0 0 Z " fill="#6C6D6D" transform="translate(260,306)"/>
<path d="M0 0 C0.33 0 0.66 0 1 0 C1.17772678 7.15294175 1.30017337 14.3053129 1.38452148 21.45996094 C1.41968834 23.89279456 1.46743134 26.32548062 1.52807617 28.7578125 C1.61315462 32.25818286 1.65272771 35.75659565 1.68359375 39.2578125 C1.71972275 40.34240753 1.75585175 41.42700256 1.79307556 42.54446411 C1.79693425 49.99305137 1.79693425 49.99305137 -0.53683472 52.9418335 C-2.42163086 54.52294922 -2.42163086 54.52294922 -4.30357361 55.77072144 C-6.88327173 57.64004369 -7.83052037 60.11069738 -9 63 C-11.31 62.34 -13.62 61.68 -16 61 C-15.6757605 60.1793103 -15.6757605 60.1793103 -15.3449707 59.34204102 C-7.52378967 39.44736617 -2.26931805 21.31689423 0 0 Z " fill="#828384" transform="translate(333,180)"/>
<path d="M0 0 C0.99 0 1.98 0 3 0 C4.3503418 1.46875 4.3503418 1.46875 5.69921875 3.5 C6.18583984 4.221875 6.67246094 4.94375 7.17382812 5.6875 C7.67333984 6.450625 8.17285156 7.21375 8.6875 8 C9.19861328 8.763125 9.70972656 9.52625 10.23632812 10.3125 C11.50020313 12.20240655 12.75414661 14.09818473 14 16 C12.37454798 19.51938982 10.87271685 21.13836397 7.625 23.3125 C6.85414063 23.84488281 6.08328125 24.37726563 5.2890625 24.92578125 C3 26 3 26 0.8828125 25.95703125 C-3.13422361 23.9151768 -4.49019012 19.02218126 -6 15 C-6.68469275 10.43538167 -6.40073368 8.70796283 -4.125 4.6875 C-2 2 -2 2 0 0 Z " fill="#958D9C" transform="translate(194,213)"/>
<path d="M0 0 C2.90252121 2.81856399 5.10575711 5.4009385 7 9 C7 9.66 7 10.32 7 11 C4.71125827 12.33858524 2.41930344 13.67101014 0.125 15 C-0.52597656 15.3815625 -1.17695313 15.763125 -1.84765625 16.15625 C-6.7734375 19 -6.7734375 19 -9 19 C-10.32421875 17.35546875 -10.32421875 17.35546875 -11.6875 15.1875 C-12.14511719 14.47980469 -12.60273438 13.77210938 -13.07421875 13.04296875 C-14 11 -14 11 -13 8 C-10.83294466 6.49486063 -8.70953155 5.13645516 -6.4375 3.8125 C-5.82197266 3.44447266 -5.20644531 3.07644531 -4.57226562 2.69726562 C-3.05283891 1.790321 -1.52700967 0.89411832 0 0 Z " fill="#575758" transform="translate(253,296)"/>
<path d="M0 0 C3.16115776 1.36983503 3.9927092 1.9890638 6 5 C5.97265625 6.953125 5.97265625 6.953125 5 9 C2.49609375 10.921875 2.49609375 10.921875 -0.5625 12.75 C-2.08037109 13.67039063 -2.08037109 13.67039063 -3.62890625 14.609375 C-4.41136719 15.06828125 -5.19382813 15.5271875 -6 16 C-8.66735273 13.51047079 -10.55746343 11.36591866 -12 8 C-11.21753906 7.50628906 -10.43507812 7.01257813 -9.62890625 6.50390625 C-8.61699219 5.86324219 -7.60507813 5.22257813 -6.5625 4.5625 C-5.55316406 3.92441406 -4.54382813 3.28632813 -3.50390625 2.62890625 C-1.15446165 1.22350458 -1.15446165 1.22350458 0 0 Z " fill="#B25E4B" transform="translate(207,231)"/>
</svg>
